<svg width="800" height="800" viewBox="0 0 211.667 211.667" xmlns:xlink="http://www.w3.org/1999/xlink" xmlns="http://www.w3.org/2000/svg"><defs><linearGradient id="a"><stop style="stop-color:#ff3;stop-opacity:1" offset="0"/><stop style="stop-color:#ff19a6;stop-opacity:.89999998" offset="1"/></linearGradient><linearGradient xlink:href="#a" id="b" x1="105.833" y1="26.458" x2="105.833" y2="164.042" gradientUnits="userSpaceOnUse"/></defs><path style="fill:url(#b);stroke-width:1.5875;stroke-linejoin:round" d="M105.833 21.167c-42.644.031-78.609 31.774-83.94 74.084H189.83c-5.333-42.331-41.33-74.08-83.996-74.084zM21.581 97.899a84.666 84.666 0 0 0-.414 7.934v.01H190.5v-.01a84.525 84.525 0 0 0-.38-7.935zm-.29 11.11c.1 2.477.31 4.949.627 7.408h167.888a84.29 84.29 0 0 0 .627-7.409zm1.22 11.112c.4 2.313.898 4.608 1.49 6.879h163.722a84.666 84.666 0 0 0 1.491-6.88zm2.737 11.112a84.668 84.668 0 0 0 2.28 6.35h156.668a84.667 84.667 0 0 0 2.281-6.35zm4.426 11.113a84.668 84.668 0 0 0 3.074 5.82h146.228a84.308 84.308 0 0 0 3.074-5.82zm6.418 11.112a84.667 84.667 0 0 0 3.922 5.292H171.71a84.666 84.666 0 0 0 3.922-5.292zm8.523 10.584a84.668 84.668 0 0 0 5.526 5.291h111.443a84.667 84.667 0 0 0 5.524-5.291zm12.237 10.583a84.665 84.665 0 0 0 8.429 5.292h81.16a84.666 84.666 0 0 0 8.43-5.292z"/></svg>