<svg width="2000" height="2000" viewBox="0 0 529.167 529.167" xmlns="http://www.w3.org/2000/svg"><path style="opacity:1;fill:#be3729;fill-opacity:1;stroke-width:.45355" transform="rotate(45 430.2 -51.443) scale(4.75783)" d="M73.451 21.447H89.18v15.729H73.451z"/><path style="opacity:1;fill:#dc2919;fill-opacity:1;stroke-width:.45355" transform="rotate(45 430.2 -51.443) scale(4.75783)" d="M73.451 37.176H89.18v15.729H73.451z"/><path style="opacity:1;fill:#e54b3a;fill-opacity:1;stroke-width:.45355" transform="rotate(45 430.2 -51.443) scale(4.75783)" d="M73.451 52.905H89.18v15.729H73.451z"/><path style="opacity:1;fill:#e56934;fill-opacity:1;stroke-width:.45355" transform="rotate(45 430.2 -51.443) scale(4.75783)" d="M73.451 68.634H89.18v15.729H73.451z"/><path style="opacity:1;fill:#e57c21;fill-opacity:1;stroke-width:.45355" transform="rotate(45 430.2 -51.443) scale(4.75783)" d="M73.451 84.363H89.18v15.729H73.451z"/><path style="opacity:1;fill:#e58a21;fill-opacity:1;stroke-width:.45355" transform="rotate(45 430.2 -51.443) scale(4.75783)" d="M89.18 84.363h15.729v15.729H89.18z"/><path style="opacity:1;fill:#f19a11;fill-opacity:1;stroke-width:.45355" transform="rotate(45 430.2 -51.443) scale(4.75783)" d="M104.909 84.363h15.729v15.729h-15.729z"/><path style="opacity:1;fill:#f0ae0e;fill-opacity:1;stroke-width:.45355" transform="rotate(45 430.2 -51.443) scale(4.75783)" d="M120.638 84.363h15.729v15.729h-15.729z"/><path style="opacity:1;fill:#f0c30e;fill-opacity:1;stroke-width:.45355" transform="rotate(45 430.2 -51.443) scale(4.75783)" d="M136.367 84.363h15.729v15.729h-15.729z"/><path style="opacity:1;fill:#f19a11;fill-opacity:1;stroke-width:.45355" transform="rotate(45 430.2 -51.443) scale(4.75783)" d="M136.367 68.634h15.729v15.729h-15.729z"/><path style="opacity:1;fill:#f0ae0e;fill-opacity:1;stroke-width:.45355" transform="rotate(45 430.2 -51.443) scale(4.75783)" d="M136.367 68.634h15.729v15.729h-15.729z"/><path style="opacity:1;fill:#f19a11;fill-opacity:1;stroke-width:.45355" transform="rotate(45 430.2 -51.443) scale(4.75783)" d="M136.367 52.905h15.729v15.729h-15.729z"/><path style="opacity:1;fill:#e58a21;fill-opacity:1;stroke-width:.45355" transform="rotate(45 430.2 -51.443) scale(4.75783)" d="M104.909 68.634h15.729v15.729h-15.729zM136.367 37.176h15.729v15.729h-15.729z"/><path style="opacity:1;fill:#e57c21;fill-opacity:1;stroke-width:.45355" transform="rotate(45 430.2 -51.443) scale(4.75783)" d="M89.18 68.634h15.729v15.729H89.18zM104.909 52.905h15.729v15.729h-15.729zM136.367 21.447h15.729v15.729h-15.729z"/><path style="opacity:1;fill:#e56934;fill-opacity:1;stroke-width:.45355" transform="rotate(45 430.2 -51.443) scale(4.75783)" d="M120.638 21.447h15.729v15.729h-15.729z"/><path style="opacity:1;fill:#e54b3a;fill-opacity:1;stroke-width:.45355" transform="rotate(45 430.2 -51.443) scale(4.75783)" d="M89.18 37.176h15.729v15.729H89.18z"/><path style="opacity:1;fill:#dc2919;fill-opacity:1;stroke-width:.45355" transform="rotate(45 430.2 -51.443) scale(4.75783)" d="M104.909 21.447h15.729v15.729h-15.729z"/><path style="opacity:1;fill:#e54b3a;fill-opacity:1;stroke-width:.45355" transform="rotate(45 430.2 -51.443) scale(4.75783)" d="M104.909 21.447h15.729v15.729h-15.729z"/><path style="opacity:1;fill:#dc2919;fill-opacity:1;stroke-width:.45355" transform="rotate(45 430.2 -51.443) scale(4.75783)" d="M89.18 21.447h15.729v15.729H89.18z"/></svg>