<?xml version="1.0" encoding="UTF-8" standalone="no"?>
<!-- Created with Inkscape (http://www.inkscape.org/) -->

<svg
   width="800"
   height="800"
   viewBox="0 0 211.66666 211.66667"
   version="1.1"
   id="svg90730"
   inkscape:version="1.1 (c68e22c387, 2021-05-23)"
   sodipodi:docname="numerals-ring.svg"
   xmlns:inkscape="http://www.inkscape.org/namespaces/inkscape"
   xmlns:sodipodi="http://sodipodi.sourceforge.net/DTD/sodipodi-0.dtd"
   xmlns="http://www.w3.org/2000/svg"
   xmlns:svg="http://www.w3.org/2000/svg">
  <sodipodi:namedview
     id="namedview90732"
     pagecolor="#9e9e9e"
     bordercolor="#666666"
     borderopacity="1.0"
     inkscape:pageshadow="2"
     inkscape:pageopacity="0.64313725"
     inkscape:pagecheckerboard="0"
     inkscape:document-units="px"
     showgrid="true"
     units="px"
     inkscape:zoom="0.72063784"
     inkscape:cx="113.78809"
     inkscape:cy="66.60766"
     inkscape:window-width="1440"
     inkscape:window-height="749"
     inkscape:window-x="0"
     inkscape:window-y="0"
     inkscape:window-maximized="1"
     inkscape:current-layer="layer1">
    <inkscape:grid
       type="xygrid"
       id="grid90791" />
  </sodipodi:namedview>
  <defs
     id="defs90727" />
  <g
     inkscape:label="Ebene 1"
     inkscape:groupmode="layer"
     id="layer1">
    <path
       id="path90815"
       style="fill:#ffffff;fill-opacity:0.68;stroke-width:6;stroke-linejoin:round"
       d="m 400.88867,47.246094 c -2.29814,-0.0043 -4.59687,0.01548 -6.89648,0.05664 -67.1057,1.04165 -134.14104,21.910424 -190.02735,59.453126 -60.74207,40.43928 -108.26603,100.19343 -133.945309,168.58789 -21.036873,55.57613 -27.680107,116.31064 -19.152343,174.9375 10.221569,71.9435 43.382586,140.38692 93.716792,192.99609 31.57636,33.13917 69.53604,60.04797 111.27149,78.66993 40.43738,18.15276 84.90522,28.64099 129.19922,30.48242 66.02627,2.86012 132.49876,-13.23875 189.92773,-46.15821 57.47566,-32.66471 105.40903,-82.18798 136.3086,-140.34179 27.91332,-52.29914 42.22486,-111.42778 41.43554,-170.52735 C 751.9281,319.48508 725.52385,243.71037 678.65234,183.69141 634.32861,126.3532 571.93883,83.438104 502.65234,62.505859 469.63152,52.487439 435.3626,47.311593 400.89062,47.246094 Z m -0.0117,4.916015 c 33.99162,0.06459 67.78303,5.168047 100.34375,15.046875 68.32109,20.640586 129.84268,62.956816 173.54883,119.496096 46.21841,59.18269 72.25367,133.90227 73.04102,208.76172 0.77831,58.27612 -13.33305,116.57994 -40.85743,168.15039 -30.46899,57.34352 -77.73534,106.17713 -134.41015,138.38672 -56.62881,32.46081 -122.17496,48.3359 -187.28125,45.51562 -43.67685,-1.81576 -87.52449,-12.15875 -127.39844,-30.05859 -41.15318,-18.3625 -78.58431,-44.8968 -109.7207,-77.57422 C 98.509695,588.01059 65.811568,520.52113 55.732422,449.58008 47.323479,391.77009 53.873432,331.88184 74.617188,277.08008 99.938664,209.63859 146.80155,150.71762 206.69727,110.8418 261.80489,73.822194 327.90549,53.243936 394.07617,52.216797 c 2.26758,-0.04057 4.53468,-0.05899 6.80078,-0.05469 z"
       transform="scale(0.26458333)" />
  </g>
</svg>
