<svg width="800" height="800" viewBox="0 0 211.667 211.667" xmlns="http://www.w3.org/2000/svg"><circle style="fill:#999;stroke-width:1.07127" cx="105.834" cy="105.834" r="6.62"/><path style="fill:#666;fill-opacity:.997946;stroke:none;stroke-width:.749991;stroke-miterlimit:4;stroke-dasharray:none;stroke-opacity:1" d="m99.88 89.297 1.324 16.537c0 3.626.984 4.72 4.61 4.72 3.627 0 4.65-1.094 4.65-4.72l1.323-16.537zm1.985 1.985h7.938l-.662 14.552c0 2.646-1.985 3.264-3.279 3.285-1.352.022-3.336-.64-3.336-3.285z"/><path style="fill:#ffd81a;fill-opacity:.74902;stroke:none;stroke-width:.749992;stroke-miterlimit:4;stroke-dasharray:none;stroke-opacity:1" d="m109.803 89.297.134-1.972 2.511-27.794-6.614-9.921-6.615 9.921 2.646 29.766z"/><path style="fill:#1a1a1a;fill-opacity:.997946;stroke:none;stroke-width:.749991;stroke-miterlimit:4;stroke-dasharray:none;stroke-opacity:1" d="m105.834 46.302-8.6 12.568 2.647 30.427h11.906l2.646-30.427zm0 3.308 6.614 9.921-2.511 27.783-8.204.008-2.514-27.79z"/><circle style="fill:#1a1a1a;fill-opacity:.985871;stroke-width:3.96878;stroke-linejoin:round" cx="105.834" cy="105.834" r="3.969"/></svg>