<svg width="800" height="800" viewBox="0 0 211.667 211.667" xmlns="http://www.w3.org/2000/svg"><path style="fill:#ffd81a;fill-opacity:.74902;stroke:none;stroke-width:.749992;stroke-miterlimit:4;stroke-dasharray:none;stroke-opacity:1" d="m108.48 89.297 3.968-54.24-6.614-13.89-6.615 13.89 3.969 54.24z"/><path style="fill:#666;fill-opacity:.997946;stroke:none;stroke-width:.749991;stroke-miterlimit:4;stroke-dasharray:none;stroke-opacity:1" d="m101.204 89.297.661 16.537c0 1.984 1.115 4.062 4.002 4.077 3.047.016 3.936-2.093 3.936-4.077l.661-16.537zm7.276 1.985v14.552c0 1.984-1.324 2.65-2.649 2.648-1.32-.003-2.643-.664-2.655-2.63V91.3z"/><path style="fill:#1a1a1a;fill-opacity:.997946;stroke:none;stroke-width:.749991;stroke-miterlimit:4;stroke-dasharray:none;stroke-opacity:1" d="m105.834 16.537-8.6 17.859 3.97 54.901h9.26l3.969-54.901zm0 4.63 6.614 13.89-3.842 52.257-5.543.012-3.844-52.269z"/><circle style="fill:#1a1a1a;fill-opacity:1;stroke-width:3.96878;stroke-linejoin:round" cx="105.834" cy="105.834" r="3.307"/></svg>