<svg width="1000" height="1000" viewBox="0 0 264.583 264.583" xmlns:xlink="http://www.w3.org/1999/xlink" xmlns="http://www.w3.org/2000/svg"><defs><linearGradient id="c"><stop style="stop-color:#fff;stop-opacity:1" offset="0"/><stop style="stop-color:#fff;stop-opacity:0" offset="1"/></linearGradient><linearGradient id="a"><stop style="stop-color:#d0d1d5;stop-opacity:1" offset="0"/><stop style="stop-color:#dfdfe6;stop-opacity:1" offset=".349"/><stop style="stop-color:#bcbac4;stop-opacity:1" offset=".576"/><stop style="stop-color:#e1e6e8;stop-opacity:1" offset=".792"/><stop style="stop-color:#dfdfe6;stop-opacity:1" offset="1"/></linearGradient><linearGradient xlink:href="#a" id="d" x1="125.148" y1="80.698" x2="137.583" y2="80.698" gradientUnits="userSpaceOnUse"/><linearGradient xlink:href="#b" id="f" gradientUnits="userSpaceOnUse" gradientTransform="matrix(1.2 0 0 .34048 -291.041 -155.657)" x1="132.291" y1="37.541" x2="132.291" y2="56.969"/><linearGradient id="b"><stop style="stop-color:#f55d3e;stop-opacity:1" offset="0"/><stop style="stop-color:#f55d3e;stop-opacity:0" offset="1"/></linearGradient><linearGradient xlink:href="#c" id="e" x1="132.292" y1="23.812" x2="132.292" y2="57.093" gradientUnits="userSpaceOnUse" gradientTransform="matrix(1.2 0 0 1.34 -26.458 41.751)"/></defs><path style="opacity:1;fill:url(#d);fill-opacity:1;stroke:#b8bcc8;stroke-width:.473339;stroke-linejoin:round;stroke-miterlimit:4;stroke-dasharray:none;stroke-opacity:1;paint-order:markers fill stroke" d="M129.632 71.451h5.31c.439 0 .774.355.793.794l2.113 49.463-1.314 25.636c-.023.439-.354.793-.794.793l-.803.03-.793-5.292h-3.705l-.793 5.291-.789-.029a.819.819 0 0 1-.794-.793l-1.328-25.636 2.104-49.463c.018-.44.354-.794.793-.794z"/><path style="fill:url(#e);stroke-width:.980163;stroke-linejoin:round;stroke-opacity:.996078;paint-order:markers fill stroke" d="M131.498 70.114h1.587c.44 0 .808.355.794.794l-1.588 52.388-1.587-52.388c-.013-.44.354-.794.794-.794z"/><path style="fill:url(#f);stroke-width:.494072;stroke-linejoin:round;stroke-opacity:.996078;paint-order:markers fill stroke" transform="scale(-1)" d="M-133.085-149.49h1.587c.44 0 .846.358.794.794l-1.58 13.156-1.595-13.156c-.053-.436.354-.793.794-.793z"/></svg>