<svg width="1000" height="1000" viewBox="0 0 264.583 264.583" xmlns:xlink="http://www.w3.org/1999/xlink" xmlns="http://www.w3.org/2000/svg"><defs><linearGradient id="a"><stop style="stop-color:#d0d1d5;stop-opacity:1" offset="0"/><stop style="stop-color:#dfdfe6;stop-opacity:1" offset=".307"/><stop style="stop-color:#bcbac4;stop-opacity:1" offset=".572"/><stop style="stop-color:#e1e6e8;stop-opacity:1" offset=".867"/><stop style="stop-color:#dfdfe6;stop-opacity:1" offset="1"/></linearGradient><linearGradient id="b"><stop style="stop-color:#fff;stop-opacity:1" offset="0"/><stop style="stop-color:#fcffff;stop-opacity:0" offset="1"/></linearGradient><linearGradient id="c"><stop style="stop-color:#f55d3e;stop-opacity:1" offset="0"/><stop style="stop-color:#f55d3e;stop-opacity:0" offset="1"/></linearGradient><linearGradient id="d"><stop style="stop-color:#d0d1d5;stop-opacity:1" offset="0"/><stop style="stop-color:#dfdfe6;stop-opacity:1" offset=".37"/><stop style="stop-color:#cdcbd1;stop-opacity:1" offset=".568"/><stop style="stop-color:#e1e6e8;stop-opacity:1" offset=".753"/><stop style="stop-color:#dfdfe6;stop-opacity:1" offset="1"/></linearGradient><linearGradient xlink:href="#e" id="f" x1="480" y1="410" x2="520" y2="410" gradientUnits="userSpaceOnUse"/><linearGradient id="e"><stop style="stop-color:#acadb9;stop-opacity:1" offset="0"/><stop style="stop-color:#e2e2e9;stop-opacity:1" offset=".349"/><stop style="stop-color:#bcbac4;stop-opacity:1" offset=".576"/><stop style="stop-color:#e8ebed;stop-opacity:1" offset=".792"/><stop style="stop-color:#adadc3;stop-opacity:1" offset="1"/></linearGradient></defs><path style="fill:url(#f);fill-opacity:1;stroke-width:1.77427;stroke-linejoin:round;stroke-opacity:0;paint-order:markers fill stroke" d="M478 38v450.172A24.995 24.995 0 0 0 475.006 500 24.995 24.995 0 0 0 478 511.828V592h44v-80.172A24.995 24.995 0 0 0 524.994 500 24.995 24.995 0 0 0 522 488.14V38h-44zm14 14h16v424.322a24.995 24.995 0 0 0-8-1.316 24.995 24.995 0 0 0-8 1.33V52zm0 471.664a24.995 24.995 0 0 0 8 1.33 24.995 24.995 0 0 0 8-1.33V578h-16v-54.336z" transform="scale(.26458)"/><circle style="fill:gray;stroke-width:.168765;stroke-linejoin:round;stroke-opacity:0;paint-order:markers fill stroke" cx="132.292" cy="132.292" r="3.302"/><path style="opacity:.500315;fill:#595959;stroke-width:.473339;stroke-linejoin:round;stroke-opacity:0;paint-order:markers fill stroke;fill-opacity:1" d="M138.112 156.633h-11.641l3.704-3.704h4.233zM126.47 10.054h11.642l-3.704 3.704h-4.233z"/><circle style="fill:#000;stroke-width:.0829243;stroke-linejoin:round;stroke-opacity:0;paint-order:markers fill stroke" cx="132.292" cy="132.292" r="1.622"/><circle style="fill:#b3b3b3;stroke-width:.0363033;stroke-linejoin:round;stroke-opacity:0;paint-order:markers fill stroke" cx="132.292" cy="132.292" r=".71"/></svg>