<svg width="1000" height="1000" viewBox="0 0 264.583 264.583" xmlns:xlink="http://www.w3.org/1999/xlink" xmlns="http://www.w3.org/2000/svg"><defs><linearGradient id="d"><stop style="stop-color:#babbc4;stop-opacity:1" offset="0"/><stop style="stop-color:#dfdfe6;stop-opacity:1" offset=".349"/><stop style="stop-color:#bcbac4;stop-opacity:1" offset=".576"/><stop style="stop-color:#d3dddf;stop-opacity:1" offset=".792"/><stop style="stop-color:#bfbfcf;stop-opacity:1" offset="1"/></linearGradient><linearGradient id="c"><stop style="stop-color:#fff;stop-opacity:1" offset="0"/><stop style="stop-color:#fff;stop-opacity:0" offset="1"/></linearGradient><linearGradient id="a"><stop style="stop-color:#d0d1d5;stop-opacity:1" offset="0"/><stop style="stop-color:#dfdfe6;stop-opacity:1" offset=".349"/><stop style="stop-color:#bcbac4;stop-opacity:1" offset=".576"/><stop style="stop-color:#e1e6e8;stop-opacity:1" offset=".792"/><stop style="stop-color:#dfdfe6;stop-opacity:1" offset="1"/></linearGradient><linearGradient id="b"><stop style="stop-color:#f55d3e;stop-opacity:1" offset="0"/><stop style="stop-color:#f55d3e;stop-opacity:0" offset="1"/></linearGradient><linearGradient xlink:href="#d" id="e" x1="480" y1="410" x2="520" y2="410" gradientUnits="userSpaceOnUse"/></defs><path style="fill:url(#e);fill-opacity:1;stroke-width:1.77427;stroke-linejoin:round;stroke-opacity:0;paint-order:markers fill stroke" d="M478 198v274.79A35 35 0 0 0 465 500a35 35 0 0 0 13 27.21V592h44v-64.79A35 35 0 0 0 535 500a35 35 0 0 0-13-27.217V198h-44zm14 14h16v253.928a35 35 0 0 0-8-.928 35 35 0 0 0-8 .934V212zm0 322.066a35 35 0 0 0 8 .934 35 35 0 0 0 8-.934V578h-16v-43.934z" transform="scale(.26458)"/><path style="opacity:.500315;fill:#595959;stroke-width:.473339;stroke-linejoin:round;stroke-opacity:0;paint-order:markers fill stroke;fill-opacity:1" d="M126.47 52.387h11.642l-3.704 3.705h-4.233zM138.112 156.633h-11.641l3.704-3.704h4.233z"/></svg>