<svg width="800" height="800" viewBox="0 0 211.667 211.667" xmlns="http://www.w3.org/2000/svg"><path style="fill:#84fbfb;fill-opacity:.7;stroke:#0ff;stroke-width:6;stroke-linejoin:round;stroke-miterlimit:4;stroke-dasharray:none;stroke-opacity:1" d="M400.553 130.104a270.373 270.373 0 0 0-20.535.746L380 175v225c0 11.08 8.92 20.02 20 20.02s19.996-8.942 19.996-20.022L420 171.342c79.827 6.887 151.117 55.097 186.797 128.22 55.47 114.213 7.85 251.769-106.363 307.239-114.213 55.47-251.769 7.85-307.239-106.364-55.47-114.212-7.852-251.768 106.362-307.238l-.043-.09a19.954 19.954 0 0 0 9.252-26.726c-4.666-9.607-15.894-13.703-25.625-9.658-.353.165-.705.33-1.057.498-134.082 65.12-189.988 226.607-124.867 360.69 65.121 134.082 226.609 189.985 360.691 124.864 134.083-65.12 189.986-226.607 124.865-360.69-45.437-93.546-140-151.812-242.22-151.983z" transform="scale(.26458)"/></svg>