<svg xmlns="http://www.w3.org/2000/svg" xmlns:xlink="http://www.w3.org/1999/xlink" width="180" height="180"><defs><radialGradient xlink:href="#a" id="c" cx="-48.995" cy="1030.159" fx="-48.995" fy="1030.159" r="4.609" gradientUnits="userSpaceOnUse" gradientTransform="matrix(.63355 -.04797 .05447 .71937 16.953 -597.365)"/><radialGradient xlink:href="#b" id="d" cx="-48.539" cy="1030.894" fx="-48.539" fy="1030.894" r="3.322" gradientTransform="matrix(.67511 0 0 .7674 75.004 -645.176)" gradientUnits="userSpaceOnUse"/><linearGradient id="b"><stop offset="0" style="stop-color:#7a7a7a;stop-opacity:1"/><stop offset="1" style="stop-color:#1a1a1a;stop-opacity:1"/></linearGradient><linearGradient id="a"><stop style="stop-color:#fff;stop-opacity:1" offset="0"/><stop style="stop-color:#000;stop-opacity:1" offset="1"/></linearGradient></defs><g transform="translate(-1.456 -1629.222) scale(1.72073)" style="opacity:.54100001;fill:none;fill-opacity:.59338523"><rect style="color:#000;clip-rule:nonzero;display:inline;overflow:visible;visibility:visible;opacity:.806;isolation:auto;mix-blend-mode:normal;color-interpolation:sRGB;color-interpolation-filters:linearRGB;solid-color:#000;solid-opacity:1;fill:none;fill-opacity:.59338523;fill-rule:evenodd;stroke:#fff;stroke-width:.69499999;stroke-linecap:round;stroke-linejoin:round;stroke-miterlimit:4;stroke-dasharray:none;stroke-dashoffset:0;stroke-opacity:1;marker:none;color-rendering:auto;image-rendering:auto;shape-rendering:auto;text-rendering:auto;enable-background:accumulate" width="30.714" height="12.143" x="18.036" y="952.63" ry=".714"/><g style="fill:none;fill-opacity:.59338523;stroke:#fff;stroke-opacity:1"><path d="M20.446 965.009v-11.631h.184m2.174 11.631v-11.631h.184m2.174 11.631v-11.631h.184m2.174 11.631v-11.631h.184m2.174 11.631v-11.631h.184m2.174 11.631v-11.631h.184m2.174 11.631v-11.631h.184m2.174 11.631v-11.631h.184m2.174 11.631v-11.631h.184m2.174 11.631v-11.631h.183m2.175 11.631v-11.631h.183m2.175 11.631v-11.631h.183" style="fill:none;fill-opacity:.59338523;fill-rule:evenodd;stroke:#fff;stroke-width:.98473662px;stroke-linecap:butt;stroke-linejoin:miter;stroke-opacity:1"/></g></g><g transform="translate(0 .45)" style="opacity:.6"><circle style="color:#000;clip-rule:nonzero;display:inline;overflow:visible;visibility:visible;opacity:1;isolation:auto;mix-blend-mode:normal;color-interpolation:sRGB;color-interpolation-filters:linearRGB;solid-color:#000;solid-opacity:1;fill:url(#c);fill-opacity:1;fill-rule:evenodd;stroke:#000;stroke-width:.3196705;stroke-linecap:round;stroke-linejoin:round;stroke-miterlimit:4;stroke-dasharray:none;stroke-dashoffset:0;stroke-opacity:1;marker:none;color-rendering:auto;image-rendering:auto;shape-rendering:auto;text-rendering:auto;enable-background:accumulate" cx="39.095" cy="148.872" r="7.367"/><path style="color:#000;clip-rule:nonzero;display:inline;overflow:visible;visibility:visible;opacity:1;isolation:auto;mix-blend-mode:normal;color-interpolation:sRGB;color-interpolation-filters:linearRGB;solid-color:#000;solid-opacity:1;fill:url(#d);fill-opacity:1;fill-rule:evenodd;stroke:none;stroke-width:.2;stroke-linecap:round;stroke-linejoin:round;stroke-miterlimit:4;stroke-dasharray:none;stroke-dashoffset:0;stroke-opacity:1;marker:none;color-rendering:auto;image-rendering:auto;shape-rendering:auto;text-rendering:auto;enable-background:accumulate" d="M46.461 148.872a7.369 7.369 0 0 1-5.978 7.236c-6.094-4.125-5.59-11.868.542-14.347a7.37 7.37 0 0 1 5.436 7.111z"/></g></svg>