<svg xmlns="http://www.w3.org/2000/svg" viewBox="0 0 34.431 10.611" height="11.319" width="36.726"><g style="fill:#fff;fill-opacity:1" transform="translate(-49.912 -223.058) scale(.24893)"><circle style="color:#000;clip-rule:nonzero;display:inline;overflow:visible;visibility:visible;opacity:1;isolation:auto;mix-blend-mode:normal;color-interpolation:sRGB;color-interpolation-filters:linearRGB;solid-color:#000;solid-opacity:1;fill:#fff;fill-opacity:1;fill-rule:evenodd;stroke:none;stroke-width:1.50057232;stroke-linecap:round;stroke-linejoin:round;stroke-miterlimit:4;stroke-dasharray:none;stroke-dashoffset:0;stroke-opacity:1;marker:none;color-rendering:auto;image-rendering:auto;shape-rendering:auto;text-rendering:auto;enable-background:accumulate" cx="269.665" cy="917.949" r="10.822"/><path d="M324.113 936.894c-.267-.432 1.08-3.898 2.994-7.702 4.712-9.364 4.37-15.518-1.419-25.516-2.263-3.91-3.568-7.154-3.013-7.497 1.52-.94 8.248 4.208 11.601 8.877 5.297 7.376 5.963 14.725 2.012 22.21-2.832 5.366-10.877 11.728-12.175 9.628zm-38.625 0c-.267-.432 1.08-3.898 2.994-7.702 4.712-9.364 4.37-15.518-1.419-25.516-2.263-3.91-3.567-7.154-3.013-7.497 1.52-.94 8.248 4.208 11.601 8.877 5.297 7.376 5.963 14.725 2.013 22.21-2.833 5.366-10.878 11.728-12.176 9.628zm19.312 0c-.266-.432 1.081-3.898 2.995-7.702 4.711-9.364 4.369-15.518-1.42-25.516-2.263-3.91-3.567-7.154-3.013-7.497 1.52-.94 8.249 4.208 11.602 8.877 5.297 7.376 5.962 14.725 2.012 22.21-2.832 5.366-10.877 11.728-12.175 9.628z" style="fill:#fff;fill-opacity:1"/><path d="M324.113 936.894c-.267-.432 1.08-3.898 2.994-7.702 4.712-9.364 4.37-15.518-1.419-25.516-2.263-3.91-3.568-7.154-3.013-7.497 1.52-.94 8.248 4.208 11.601 8.877 5.297 7.376 5.963 14.725 2.012 22.21-2.832 5.366-10.877 11.728-12.175 9.628zm-38.625 0c-.267-.432 1.08-3.898 2.994-7.702 4.712-9.364 4.37-15.518-1.419-25.516-2.263-3.91-3.567-7.154-3.013-7.497 1.52-.94 8.248 4.208 11.601 8.877 5.297 7.376 5.963 14.725 2.013 22.21-2.833 5.366-10.878 11.728-12.176 9.628zm19.312 0c-.266-.432 1.081-3.898 2.995-7.702 4.711-9.364 4.369-15.518-1.42-25.516-2.263-3.91-3.567-7.154-3.013-7.497 1.52-.94 8.249 4.208 11.602 8.877 5.297 7.376 5.962 14.725 2.012 22.21-2.832 5.366-10.877 11.728-12.175 9.628z" style="fill:#fff;fill-opacity:1" transform="matrix(-1 0 0 1 539.33 1.39)"/></g></svg>