<svg width="800" height="800" viewBox="0 0 211.667 211.667" xmlns="http://www.w3.org/2000/svg"><path style="fill:#84fbfb;fill-opacity:.69999999;stroke:#0ff;stroke-width:6;stroke-linejoin:round;stroke-miterlimit:4;stroke-dasharray:none;stroke-opacity:1" d="M390 3v57.121c2.147-.072 4.288-.09 6.43-.121h7.619c146.47 1.16 279.518 97.136 322.504 245.797 52.515 181.62-50.558 368.546-232.178 421.062-181.62 52.515-368.478-50.798-420.994-232.418-52.515-181.62 50.558-368.546 232.178-421.062a9.976 9.976 0 0 0 6.828-12.383 9.974 9.974 0 0 0-12.364-6.83l-.023.006C109.002 109.399-1.06 309 54.168 499.998 109.395 690.996 308.931 801.3 499.93 746.072c190.998-55.227 301.063-254.832 245.836-445.83C701.16 145.981 562.366 44.592 410 40.363V3z" transform="scale(.26458)"/></svg>