<svg width="320" height="320" viewBox="0 0 84.667 84.667" xmlns:xlink="http://www.w3.org/1999/xlink" xmlns="http://www.w3.org/2000/svg"><defs><linearGradient id="b"><stop offset="0" stop-color="#c1c1c1"/><stop offset="1" stop-color="#fcfcfc"/></linearGradient><linearGradient id="a"><stop offset="0" stop-color="#fcfcfc"/><stop offset="1" stop-color="#c1c1c1"/></linearGradient><linearGradient xlink:href="#a" id="c" x1="23.442" y1="11.439" x2="28.454" y2="17.982" gradientUnits="userSpaceOnUse" gradientTransform="translate(.013 .015)"/><linearGradient xlink:href="#a" id="d" gradientUnits="userSpaceOnUse" x1="23.442" y1="11.439" x2="28.454" y2="17.982" gradientTransform="matrix(1 0 0 -1 .089 84.642)"/><linearGradient xlink:href="#a" id="e" x1="5.834" y1="42.329" x2="13.278" y2="42.329" gradientUnits="userSpaceOnUse" gradientTransform="matrix(1.024 0 0 1.11374 -.166 -4.807)"/><linearGradient xlink:href="#b" id="f" gradientUnits="userSpaceOnUse" gradientTransform="matrix(-1 0 0 1 84.654 .025)" x1="23.442" y1="11.439" x2="28.454" y2="17.982"/><linearGradient xlink:href="#b" id="g" gradientUnits="userSpaceOnUse" gradientTransform="rotate(180 42.289 42.326)" x1="23.442" y1="11.439" x2="28.454" y2="17.982"/><linearGradient xlink:href="#b" id="h" gradientUnits="userSpaceOnUse" gradientTransform="matrix(-1.024 0 0 1.11374 84.833 -4.797)" x1="5.834" y1="42.329" x2="13.278" y2="42.329"/></defs><path d="M23.442 11.33l-.157.482 4.79 6.27.545-.048.056-.5-3.128-6.183-2.106-.02z" fill="url(#c)"/><path d="M23.518 73.326l-.157-.482 4.79-6.27.545.049.057.5-3.129 6.183-2.106.02z" fill="url(#d)"/><path d="M5.943 41.474v1.728l7.352-.62v-.399z" fill="url(#e)"/><path d="M61.225 11.34l.157.482-4.79 6.27-.545-.048-.057-.5 3.128-6.183 2.107-.02z" fill="url(#f)"/><path d="M61.149 73.336l.157-.482-4.79-6.27-.545.049-.057.5 3.128 6.183 2.107.02z" fill="url(#g)"/><path d="M78.723 41.484v1.728l-7.351-.62v-.399z" fill="url(#h)"/></svg>