<svg width="800" height="800" viewBox="0 0 211.667 211.667" xmlns:xlink="http://www.w3.org/1999/xlink" xmlns="http://www.w3.org/2000/svg"><defs><linearGradient id="b"><stop style="stop-color:#1a1a1a;stop-opacity:.60000002" offset="0"/><stop style="stop-color:#1a1a1a;stop-opacity:0" offset="1"/></linearGradient><linearGradient id="a"><stop style="stop-color:#000;stop-opacity:.56" offset="0"/><stop style="stop-color:#000;stop-opacity:.25904083" offset="1"/></linearGradient><linearGradient xlink:href="#a" id="c" x1="400" y1="200" x2="400.001" y2="340" gradientUnits="userSpaceOnUse"/><linearGradient xlink:href="#b" id="d" x1="400.001" y1="380" x2="400.001" y2="335" gradientUnits="userSpaceOnUse"/></defs><path style="fill:#fff;fill-opacity:.8;stroke-width:6;stroke-linejoin:round" d="m396 128-23 112 18 141 .42 3.988 17.154.012.426-4 18-141-23-112zm4 7 21 105-18 139h-6l-18-139z" transform="scale(.26458)"/><path style="fill:#fff;stroke-width:6;stroke-linejoin:round" d="m398 131-22 109 18 141c-7.935 2.852-13.992 10.568-13.998 19 0 11.045 8.953 20 19.998 20 11.046 0 20-8.954 20-20-.001-8.437-6.06-16.147-14-19l18-141-22-109zm2 4 21 105-18 139h-6l-18-139z" transform="scale(.26458)"/><path style="fill:#009ffd;fill-opacity:.89999998;stroke:url(#c);stroke-width:1.5;stroke-linecap:butt;stroke-linejoin:round;stroke-miterlimit:4;stroke-dasharray:none;paint-order:markers fill stroke" d="m400 135-21 105 14.82 105h12.36L421 240z" transform="scale(.26458)"/><path style="fill:url(#d);fill-opacity:1;stroke-width:6;stroke-linejoin:round" d="m388.78 335 5.572 49.094A16.891 16.891 0 0 0 383.109 400 16.891 16.891 0 0 0 400 416.89 16.891 16.891 0 0 0 416.893 400a16.891 16.891 0 0 0-11.243-15.918L411.22 335h-3.156l-5.56 48.297a16.891 16.891 0 0 0-2.504-.188 16.891 16.891 0 0 0-2.506.186L391.936 335h-3.157z" transform="scale(.26458)"/></svg>