<svg width="640" height="640" viewBox="0 0 169.333 169.333" xmlns:xlink="http://www.w3.org/1999/xlink" xmlns="http://www.w3.org/2000/svg"><defs><linearGradient id="a"><stop style="stop-color:#000;stop-opacity:0" offset="0"/><stop style="stop-color:#000;stop-opacity:1" offset=".503"/><stop style="stop-color:#020202;stop-opacity:0" offset="1"/></linearGradient><linearGradient id="b"><stop style="stop-color:#000;stop-opacity:0" offset="0"/><stop style="stop-color:#fefefe;stop-opacity:.04705882" offset=".645"/><stop style="stop-color:#fff;stop-opacity:.2" offset=".829"/><stop style="stop-color:#fefefe;stop-opacity:0" offset="1"/></linearGradient><linearGradient xlink:href="#a" id="e" gradientUnits="userSpaceOnUse" x1="84.667" y1="140.229" x2="84.667" y2="29.913" gradientTransform="translate(3.551 3.551) scale(.95805)"/><radialGradient xlink:href="#b" id="c" cx="320" cy="320" fx="320" fy="320" r="320" gradientUnits="userSpaceOnUse" spreadMethod="pad"/><filter style="color-interpolation-filters:sRGB" id="d" x="-.003" y="-.003" width="1.006" height="1.006"><feGaussianBlur stdDeviation=".18"/></filter></defs><path style="opacity:1;fill:url(#c);fill-opacity:1;stroke-width:1.78016" d="M0 0v640h640V0z" transform="scale(.26458)"/><path style="mix-blend-mode:normal;fill:#fff;fill-opacity:.64999998;stroke-width:.508873;filter:url(#d)" d="M82.422 12.2c-14.74.427-29.303 5.508-41.104 14.352-12.802 9.493-22.285 23.347-26.509 38.715-4.202 14.985-3.37 31.323 2.335 45.803 5.581 14.386 15.921 26.857 29.01 35.025 13.745 8.666 30.462 12.482 46.604 10.62 15.447-1.693 30.266-8.553 41.565-19.22 11.35-10.619 19.109-24.988 21.756-40.305 2.732-15.347.301-31.545-6.802-45.42-6.989-13.797-18.532-25.229-32.41-32.06-10.629-5.291-22.58-7.89-34.445-7.51zm2.252 7.38c5.884.049 11.71.797 17.41 2.397 13.874 3.81 26.363 12.408 34.892 23.993 6.021 8.121 10.094 17.666 11.813 27.628a65.433 65.433 0 0 1 .801 15.409c-.899 13.661-6.194 26.897-14.992 37.38-9.21 11.08-22.212 18.924-36.309 21.903a65.013 65.013 0 0 1-21.549.962c-9.684-1.184-19.252-4.628-27.489-10.003-10.063-6.506-18.234-15.838-23.373-26.695-4.687-9.873-6.832-20.889-6.161-31.785.417-7.077 2.042-14.225 4.747-20.777 2.464-6.068 5.95-11.811 10.071-16.818 7.682-9.264 17.955-16.356 29.372-20.176 3.793-1.263 7.638-2.192 11.586-2.747 3.036-.45 6.086-.623 9.18-.67z" transform="matrix(1.00493 0 0 1.00487 -.42 -.415)"/><circle style="opacity:.3;fill:#000;fill-opacity:0;stroke:url(#e);stroke-width:.885;stroke-miterlimit:4;stroke-dasharray:none;stroke-opacity:.997901" cx="84.667" cy="84.667" r="52.444"/></svg>