<svg width="800" height="800" viewBox="0 0 211.667 211.667" xmlns:xlink="http://www.w3.org/1999/xlink" xmlns="http://www.w3.org/2000/svg"><defs><linearGradient id="b"><stop offset="0" stop-color="#c1c1c1"/><stop offset="1" stop-color="#fcfcfc"/></linearGradient><linearGradient id="a"><stop offset="0" stop-color="#fcfcfc"/><stop offset="1" stop-color="#c1c1c1"/></linearGradient><linearGradient xlink:href="#a" id="c" x1="23.442" y1="11.439" x2="28.454" y2="17.982" gradientUnits="userSpaceOnUse" gradientTransform="matrix(2.5 0 0 2.5 .033 .037)"/><linearGradient xlink:href="#a" id="d" gradientUnits="userSpaceOnUse" x1="23.442" y1="11.439" x2="28.454" y2="17.982" gradientTransform="matrix(2.5 0 0 -2.5 .223 211.605)"/><linearGradient xlink:href="#a" id="e" x1="5.834" y1="42.329" x2="13.278" y2="42.329" gradientUnits="userSpaceOnUse" gradientTransform="matrix(2.56 0 0 2.78435 -.415 -12.018)"/><linearGradient xlink:href="#b" id="f" gradientUnits="userSpaceOnUse" gradientTransform="matrix(-2.5 0 0 2.5 211.635 .063)" x1="23.442" y1="11.439" x2="28.454" y2="17.982"/><linearGradient xlink:href="#b" id="g" gradientUnits="userSpaceOnUse" gradientTransform="matrix(-2.5 0 0 -2.5 211.445 211.63)" x1="23.442" y1="11.439" x2="28.454" y2="17.982"/><linearGradient xlink:href="#b" id="h" gradientUnits="userSpaceOnUse" gradientTransform="matrix(-2.56 0 0 2.78435 212.083 -11.992)" x1="5.834" y1="42.329" x2="13.278" y2="42.329"/></defs><path d="m58.605 28.325-.393 1.205 11.975 15.675 1.363-.12.14-1.25-7.82-15.457-5.265-.05z" fill="url(#c)" style="fill:url(#c);stroke-width:2.5"/><path d="m58.795 183.315-.393-1.205 11.976-15.675 1.362.122.142 1.25-7.822 15.458z" fill="url(#d)" style="fill:url(#d);stroke-width:2.5"/><path d="M14.857 103.685v4.32l18.38-1.55v-.998z" fill="url(#e)" style="fill:url(#e);stroke-width:2.5"/><path d="m153.063 28.35.392 1.205L141.48 45.23l-1.362-.12-.143-1.25 7.82-15.457 5.268-.05z" fill="url(#f)" style="fill:url(#f);stroke-width:2.5"/><path d="m152.873 183.34.392-1.205-11.975-15.675-1.362.122-.143 1.25 7.82 15.458z" fill="url(#g)" style="fill:url(#g);stroke-width:2.5"/><path d="M196.808 103.71v4.32l-18.378-1.55v-.998z" fill="url(#h)" style="fill:url(#h);stroke-width:2.5"/></svg>