<?xml version="1.0" encoding="UTF-8" standalone="no"?>
<svg
   xmlns:dc="http://purl.org/dc/elements/1.1/"
   xmlns:cc="http://creativecommons.org/ns#"
   xmlns:rdf="http://www.w3.org/1999/02/22-rdf-syntax-ns#"
   xmlns:svg="http://www.w3.org/2000/svg"
   xmlns="http://www.w3.org/2000/svg"
   xmlns:sodipodi="http://sodipodi.sourceforge.net/DTD/sodipodi-0.dtd"
   xmlns:inkscape="http://www.inkscape.org/namespaces/inkscape"
   id="svg2"
   version="1.1"
   xml:space="preserve"
   width="220"
   height="220"
   viewBox="0 0 220 220"
   sodipodi:docname="Sailfish_logo.svg"
   inkscape:version="0.92.2 5c3e80d, 2017-08-06"><sodipodi:namedview
     pagecolor="#ffffff"
     bordercolor="#666666"
     borderopacity="1"
     objecttolerance="10"
     gridtolerance="10"
     guidetolerance="10"
     inkscape:pageopacity="0"
     inkscape:pageshadow="2"
     inkscape:window-width="2612"
     inkscape:window-height="1430"
     id="namedview30"
     showgrid="false"
     inkscape:zoom="4.22"
     inkscape:cx="44.209106"
     inkscape:cy="98.960308"
     inkscape:window-x="0"
     inkscape:window-y="0"
     inkscape:window-maximized="0"
     inkscape:current-layer="g20" /><metadata
     id="metadata8"><rdf:RDF><cc:Work
         rdf:about=""><dc:format>image/svg+xml</dc:format><dc:type
           rdf:resource="http://purl.org/dc/dcmitype/StillImage" /><dc:title></dc:title></cc:Work></rdf:RDF></metadata><defs
     id="defs6"><clipPath
       clipPathUnits="userSpaceOnUse"
       id="clipPath16"><path
         d="M 0,450 H 600 V 0 H 0 Z"
         id="path18"
         inkscape:connector-curvature="0" /></clipPath></defs><g
     id="g10"
     transform="matrix(0.60833334,0,0,-0.60833334,0,220)"
     style="stroke-width:2.05479455"><g
       id="g12"
       style="stroke-width:2.05479455"><g
         id="g14"
         clip-path="url(#clipPath16)"
         style="stroke-width:2.05479455"><g
           id="g20"
           transform="matrix(1.3837975,0,0,1.3837975,163.01367,192.77312)"
           style="stroke-width:2.05479455"><path
             style="fill:#97efef;fill-opacity:1;fill-rule:nonzero;stroke:none;stroke-width:2.05479455"
             d="m -103.17773,-133.74805 c -5.56585,-0.21889 -7.01462,8.53402 -1.625,10.08008 24.300527,7.68041 48.055292,19.55704 64.537105,39.556642 12.259592,14.757603 22.268017,35.207464 15.667969,54.554687 -11.931315,11.625118 -25.298678,25.6104192 -24.578125,43.53125 1.211248,27.798435 20.442181,50.866219 40.802754,67.982592 15.3390882,12.570656 31.99737,24.012689 50.115215,32.097489 4.767599,0.83491 7.750834,-5.49995 4.505859,-8.91992 C 38.98626,91.612434 33.152504,76.869156 30.771484,61.550781 c 4.586166,2.983719 8.334955,-2.15606 11.146485,-4.814453 9.998844,-8.884191 24.256815,-12.180217 37.064977,-7.762145 16.781383,3.620884 32.840154,10.628138 49.243614,15.514098 5.43589,0.12827 6.88988,-8.326563 1.71485,-10.015625 C 100.25823,42.92227 69.239866,34.672486 40.462545,20.880136 30.1461,15.50315 19.518593,9.6526804 12.029297,0.50976562 22.931924,-9.456253 31.875699,-23.763157 29.056641,-39.126953 25.622496,-64.995637 5.0773741,-84.334029 -15.835938,-97.746094 c -26.497305,-16.705466 -56.278243,-28.398886 -86.835942,-35.986326 -0.16849,0.009 -0.33721,-0.032 -0.50585,-0.0156 z m 62.654292,33.828128 c 14.395144,7.572476 27.773729,19.404182 32.132813,35.523438 1.7547768,6.867074 0.1144494,14.242204 -3.726563,20.107422 -1.211319,-21.802274 -13.784084,-41.351196 -29.25,-56.050778 z M 0.20117188,-71.923828 C 11.916635,-60.185981 22.137859,-43.18719 18.058594,-26.046875 11.530972,-7.5003002 -8.3790909,1.3012867 -17.742188,18.09375 c -6.605298,10.715234 -7.860194,24.392883 -3.52539,36.1875 C -31.899537,40.871445 -41.702777,23.338643 -37.794645,5.6724506 -30.53989,-16.909778 -4.0082556,-27.080612 1.7558594,-50.541016 3.500811,-57.605455 2.6495647,-65.195995 0.20117188,-71.923828 Z M 4.546875,7.734375 c 13.091003,14.81277 31.700146,23.181227 49.623047,30.617187 -8.225073,2.177005 -15.545824,7.491026 -21.8125,12.578126 C 17.324345,43.889928 2.2076648,34.897507 -7.2851562,20.894531 -3.9181595,16.029797 0.30481395,11.802653 4.546875,7.734375 Z M -11.865234,32.166016 C -3.2448823,42.42861 8.0104659,50.13277 19.773438,56.367188 20.531961,70.083807 25.623817,84.645618 30.162109,96.341797 18.998026,89.459368 7.0185804,82.985701 -0.09375,71.445312 -8.269586,60.098336 -16.441749,46.032631 -12.365234,31.548828 Z"
             id="path22"
             inkscape:connector-curvature="0" /></g></g></g></g></svg>