<svg width="640" height="640" viewBox="0 0 169.333 169.333" xmlns:xlink="http://www.w3.org/1999/xlink" xmlns="http://www.w3.org/2000/svg"><defs><linearGradient id="a"><stop style="stop-color:#b3b3b3;stop-opacity:1" offset="0"/><stop style="stop-color:#b3b3b3;stop-opacity:0" offset="1"/></linearGradient><linearGradient xlink:href="#a" id="b" x1="320" y1="220" x2="300" y2="220" gradientUnits="userSpaceOnUse"/></defs><path style="fill:#fff;stroke-width:1.78016" d="M319 30.053 315 80l-15 15v175l15 15-.918 21.121A15.099 15.099 0 0 0 304.9 320a15.099 15.099 0 0 0 8 13.313l-2.9 51.744 10 10 10-10-2.9-51.745a15.099 15.099 0 0 0 8-13.312 15.099 15.099 0 0 0-9.182-13.89L325 285l15-15V95l-15-15-4-49.947zM320 86l15 14v165l-15 14-15-14V100z" transform="scale(.26458)"/><path style="fill:url(#b);fill-opacity:1;stroke-width:1.78016" d="M319 30.003 315 80l-15 15v175l15 15-.918 21.121A15.099 15.099 0 0 0 304.9 320a15.099 15.099 0 0 0 8 13.313l-2.9 51.744 10 9.97V279l-15-14V100l15-14V30.003z" transform="scale(.26458)"/><circle style="fill:#ffd5d5;fill-opacity:.903435;stroke-width:.471001" cx="84.667" cy="84.667" r="1.062"/><circle style="fill:gray;fill-opacity:.903435;stroke-width:.226216" cx="84.667" cy="84.667" r=".51"/><path style="fill:#ffd900;fill-opacity:.603028;stroke-width:.422693" d="M88.635 26.458v43.657l-3.968 3.704-3.97-3.704V26.458l3.97-3.704z"/></svg>