<svg width="800" height="800" viewBox="0 0 211.667 211.667" xmlns="http://www.w3.org/2000/svg"><g style="font-size:28.0089px;line-height:1.25;letter-spacing:-.169408px;fill:#fff;fill-opacity:.60000002;stroke:#fff;stroke-width:1.5875;stroke-linejoin:round;stroke-miterlimit:4;stroke-dasharray:none;stroke-opacity:1;paint-order:markers fill stroke"><path d="M-82.64 67.269q-2.716 0-3.948-1.569-1.205-1.596-1.205-4.145v-4.874h-1.848v-3.585l2.128-.168.56-4.201h3.978v4.201h3.193v3.753h-3.193v4.79q0 1.148.504 1.597.504.448 1.176.448.728 0 1.233-.168l.728 3.36q-.532.197-1.373.365-.84.196-1.932.196zm11.203 0q-2.045 0-3.697-.868-1.625-.869-2.577-2.493-.952-1.653-.952-3.977 0-2.27.952-3.894.98-1.652 2.52-2.549 1.541-.896 3.25-.896 2.072 0 3.417.924 1.372.897 2.017 2.437.672 1.54.672 3.417 0 .617-.084 1.205-.056.56-.112.812h-7.983q.336 1.26 1.205 1.765.868.476 2.044.476 1.4 0 2.913-.84l1.513 2.856q-1.12.785-2.521 1.205-1.4.42-2.577.42zm-2.633-9.019h4.145q0-.812-.42-1.4-.392-.617-1.484-.617-.784 0-1.4.476-.617.477-.84 1.541zm10.698 8.683V52.928h3.921l.337 1.68h.112q.84-.811 1.904-1.4 1.092-.616 2.521-.616 2.325 0 3.333 1.569 1.036 1.54 1.036 4.145v8.627h-4.817v-8.01q0-1.345-.336-1.793-.336-.449-1.065-.449-.672 0-1.12.28-.448.28-1.008.785v9.187z" style="font-weight:900;font-family:'Source Sans Pro';-inkscape-font-specification:'Source Sans Pro Heavy';fill:#fff;fill-opacity:.60000002;stroke:#fff;stroke-width:1.5875;stroke-linejoin:round;stroke-miterlimit:4;stroke-dasharray:none;stroke-opacity:1;paint-order:markers fill stroke" transform="rotate(-90)" aria-label="ten"/></g></svg>