<svg width="800" height="800" viewBox="0 0 211.667 211.667" xmlns="http://www.w3.org/2000/svg"><path style="color:#000;fill:#fff;stroke-width:6.49999988;stroke-linejoin:round;paint-order:markers fill stroke;fill-opacity:.99671143;stroke:#fff;stroke-opacity:1;stroke-miterlimit:4;stroke-dasharray:none" d="M400 60c-11.08 0-20 8.92-20 20v320c0 11.08 8.92 20 20 20s20-8.92 20-20V80c0-11.08-8.92-20-20-20zm0 5c8.31 0 15 6.69 15 15v320c0 8.31-6.69 15-15 15-8.31 0-15-6.69-15-15V80c0-8.31 6.69-15 15-15z" transform="scale(.26458)"/><path style="color:#000;fill:#000;stroke-linejoin:round;-inkscape-stroke:none;paint-order:markers fill stroke" d="M105.834 15.717a5.442 5.442 0 0 0-5.451 5.449v84.668a5.443 5.443 0 0 0 5.451 5.451 5.443 5.443 0 0 0 5.451-5.451V21.166a5.442 5.442 0 0 0-5.451-5.45zm0 .316a5.118 5.118 0 0 1 5.133 5.133v84.668a5.118 5.118 0 0 1-5.133 5.133 5.118 5.118 0 0 1-5.133-5.133V21.166a5.118 5.118 0 0 1 5.133-5.133z"/><path style="fill:#fff;stroke-width:.271117;stroke-linejoin:round;paint-order:markers fill stroke;fill-opacity:.69999999" d="M105.834 17.198a3.96 3.96 0 0 1 3.969 3.969v84.667a3.96 3.96 0 0 1-3.97 3.969 3.96 3.96 0 0 1-3.968-3.97V21.168a3.96 3.96 0 0 1 3.969-3.969z"/></svg>