<svg width="800" height="800" viewBox="0 0 211.667 211.667" xmlns="http://www.w3.org/2000/svg"><g style="font-size:31.4538px;line-height:1.25;letter-spacing:.325024px;fill:#fff;fill-opacity:.601585;stroke:#fff;stroke-width:1.5875;stroke-linejoin:round;stroke-miterlimit:4;stroke-dasharray:none;stroke-opacity:1;paint-order:markers fill stroke"><path d="M130.165 84.926q-3.051 0-4.435-1.761-1.353-1.793-1.353-4.656v-5.472h-2.076V69.01l2.39-.188.63-4.718h4.466v4.718h3.586v4.215h-3.586v5.378q0 1.29.566 1.793.566.503 1.321.503.818 0 1.384-.188l.818 3.774q-.597.22-1.541.409-.944.22-2.17.22zm9.132-.377-3.775-15.727h5.347l1.196 6.605q.188 1.164.314 2.36.126 1.194.315 2.421h.125q.19-1.227.378-2.422.22-1.227.503-2.359l1.447-6.605h4.592l1.51 6.605q.283 1.164.503 2.36.22 1.194.44 2.421h.127q.188-1.227.314-2.422t.315-2.359l1.195-6.605h4.97l-3.586 15.727h-6.29l-1.133-5.473-.378-2.202q-.188-1.132-.377-2.422h-.126q-.189 1.29-.346 2.422-.157 1.1-.346 2.202l-1.07 5.473zm29.388.377q-2.013 0-3.806-.975-1.761-.975-2.894-2.8-1.1-1.855-1.1-4.466 0-2.61 1.1-4.435 1.133-1.856 2.894-2.83 1.793-.976 3.806-.976t3.774.975q1.793.975 2.894 2.831 1.132 1.825 1.132 4.435 0 2.61-1.132 4.467-1.1 1.824-2.894 2.799-1.761.975-3.774.975zm0-4.34q1.227 0 1.73-1.039.535-1.069.535-2.862 0-1.793-.535-2.83-.503-1.07-1.73-1.07-1.227 0-1.761 1.07-.504 1.037-.504 2.83 0 1.793.504 2.862.534 1.038 1.76 1.038z" style="font-weight:900;font-family:'Source Sans Pro';-inkscape-font-specification:'Source Sans Pro Heavy';fill:#fff;fill-opacity:.601585;stroke:#fff;stroke-width:1.5875;stroke-linejoin:round;stroke-miterlimit:4;stroke-dasharray:none;stroke-opacity:1;paint-order:markers fill stroke" aria-label="two"/></g></svg>