<svg width="800" height="800" viewBox="0 0 211.667 211.667" xmlns="http://www.w3.org/2000/svg"><g style="font-size:35.4113px;line-height:1.25;letter-spacing:-1.14035px;fill:#fff;fill-opacity:.601585;stroke:#fff;stroke-width:1.5875;stroke-linejoin:round;stroke-miterlimit:4;stroke-dasharray:none;stroke-opacity:1;paint-order:markers fill stroke"><path d="M128.13 115.192q-3.436 0-4.994-1.983-1.522-2.018-1.522-5.24v-6.162h-2.338v-4.533l2.692-.212.708-5.312h5.028v5.312h4.037v4.745h-4.037v6.055q0 1.452.638 2.019.637.566 1.487.566.92 0 1.558-.212l.92 4.25q-.672.247-1.734.46-1.063.247-2.444.247zm5.729-.424V90.12h6.09v5.737l-.283 3.045q.92-.814 2.196-1.522 1.31-.744 3.116-.744 2.939 0 4.214 1.983 1.31 1.948 1.31 5.24v10.908h-6.09V104.64q0-1.7-.426-2.266-.425-.567-1.345-.567-.85 0-1.417.354-.566.354-1.275.992v11.615zm19.469 0V97.062h4.957l.425 3.045h.142q.991-1.806 2.337-2.62 1.381-.85 2.691-.85.815 0 1.31.106.532.071.886.248l-1.133 5.17q-.46-.106-.85-.142-.39-.07-.992-.07-.956 0-2.018.672-1.027.638-1.665 2.302v9.845zm21.522.424q-2.585 0-4.674-1.097-2.054-1.098-3.258-3.152-1.204-2.09-1.204-5.028 0-2.869 1.204-4.922 1.24-2.09 3.187-3.223 1.948-1.133 4.108-1.133 2.62 0 4.32 1.168 1.735 1.134 2.55 3.081.85 1.948.85 4.32 0 .78-.107 1.523-.07.708-.141 1.027h-10.092q.425 1.594 1.522 2.231 1.098.602 2.585.602 1.77 0 3.683-1.062l1.912 3.612q-1.416.991-3.187 1.522-1.77.531-3.258.531zm-3.328-11.402h5.24q0-1.027-.53-1.77-.496-.78-1.877-.78-.992 0-1.77.602-.78.602-1.063 1.948zm20.814 11.402q-2.585 0-4.674-1.097-2.054-1.098-3.258-3.152-1.204-2.09-1.204-5.028 0-2.869 1.204-4.922 1.24-2.09 3.187-3.223 1.948-1.133 4.108-1.133 2.62 0 4.32 1.168 1.735 1.134 2.55 3.081.85 1.948.85 4.32 0 .78-.107 1.523-.07.708-.141 1.027h-10.092q.425 1.594 1.522 2.231 1.098.602 2.585.602 1.77 0 3.683-1.062l1.912 3.612q-1.416.991-3.187 1.522-1.77.531-3.258.531zm-3.328-11.402h5.24q0-1.027-.53-1.77-.496-.78-1.877-.78-.992 0-1.77.602-.78.602-1.063 1.948z" style="font-weight:900;font-family:'Source Sans Pro';-inkscape-font-specification:'Source Sans Pro Heavy';fill:#fff;fill-opacity:.601585;stroke:#fff;stroke-width:1.5875;stroke-linejoin:round;stroke-miterlimit:4;stroke-dasharray:none;stroke-opacity:1;paint-order:markers fill stroke" aria-label="three"/></g></svg>