<svg width="800" height="800" viewBox="0 0 211.667 211.667" xmlns="http://www.w3.org/2000/svg"><g style="font-size:37.126px;line-height:1.25;letter-spacing:1.07421px;fill:#fff;fill-opacity:.601585;stroke:#fff;stroke-width:1.5875;stroke-linejoin:round;stroke-miterlimit:4;stroke-dasharray:none;stroke-opacity:1;paint-order:markers fill stroke"><path d="M124.152-125.887v-13.588h-2.45v-4.752l2.45-.186v-.26q0-2.005.668-3.712.706-1.708 2.302-2.748 1.634-1.04 4.381-1.04 1.3 0 2.302.223 1.04.223 1.633.446l-1.188 4.53q-.89-.223-1.782-.223-.89 0-1.41.52-.52.482-.52 1.781v.446h3.118v4.975h-3.118v13.588zm13.326 0v-18.563h6.385v18.563zm3.193-20.865q-1.56 0-2.525-.854-.965-.89-.965-2.339 0-1.448.965-2.302.965-.89 2.525-.89 1.559 0 2.524.89.965.854.965 2.302t-.965 2.34q-.965.853-2.524.853zm12.954 20.865-6.089-18.563h6.386l2.005 8.093q.668 2.785 1.336 5.792h.149q.668-3.007 1.336-5.792l2.005-8.093h6.089l-5.866 18.563zm25.132.445q-2.71 0-4.9-1.15-2.154-1.151-3.416-3.305-1.263-2.19-1.263-5.272 0-3.007 1.263-5.16 1.3-2.19 3.341-3.379 2.042-1.188 4.307-1.188 2.747 0 4.529 1.226 1.82 1.188 2.673 3.23.891 2.041.891 4.529 0 .817-.111 1.596-.075.743-.149 1.077h-10.58q.445 1.67 1.596 2.339 1.15.631 2.71.631 1.856 0 3.861-1.114l2.005 3.787q-1.485 1.04-3.342 1.597-1.856.556-3.415.556zm-3.49-11.954h5.495q0-1.077-.557-1.856-.52-.817-1.968-.817-1.04 0-1.856.631-.817.631-1.114 2.042z" style="font-weight:900;font-family:'Source Sans Pro';-inkscape-font-specification:'Source Sans Pro Heavy';fill:#fff;fill-opacity:.601585;stroke:#fff;stroke-width:1.5875;stroke-linejoin:round;stroke-miterlimit:4;stroke-dasharray:none;stroke-opacity:1;paint-order:markers fill stroke" transform="matrix(0 .99116 -1.00892 0 0 0)" aria-label="five"/></g></svg>