<svg width="640" height="640" viewBox="0 0 169.333 169.333" xmlns:xlink="http://www.w3.org/1999/xlink" xmlns="http://www.w3.org/2000/svg"><defs><linearGradient id="a"><stop style="stop-color:#b20000;stop-opacity:1" offset="0"/><stop style="stop-color:#ff2a2a;stop-opacity:0" offset="1"/></linearGradient><linearGradient xlink:href="#a" id="b" gradientUnits="userSpaceOnUse" x1="320" y1="215" x2="315" y2="215"/><linearGradient xlink:href="#a" id="c" gradientUnits="userSpaceOnUse" x1="320" y1="215" x2="315" y2="215" gradientTransform="matrix(-.26458 0 0 .26458 169.333 0)"/></defs><path style="fill:#ff2a2a;stroke-width:1.78016" d="m319 20-2.979 290.533a10.274 10.274 0 0 0-6.296 9.467 10.275 10.275 0 0 0 6.103 9.38L315 400l5 5 5-5-.828-70.62a10.274 10.274 0 0 0 6.103-9.38 10.274 10.274 0 0 0-6.296-9.47L321 20z" transform="scale(.26458)"/><path style="fill:url(#b);fill-opacity:1;stroke-width:1.78016" d="m319 20-2.979 290.533a10.274 10.274 0 0 0-6.296 9.467 10.275 10.275 0 0 0 6.103 9.38L315 400l5 5V20z" transform="scale(.26458)"/><path style="fill:url(#c);fill-opacity:1;stroke-width:.471001" d="m84.931 5.292.788 76.87a2.718 2.718 0 0 1 1.666 2.505 2.719 2.719 0 0 1-1.615 2.482l.22 18.684-1.323 1.323V5.292z"/><circle style="fill:#ffd5d5;fill-opacity:.903435;stroke-width:.471001" cx="84.667" cy="84.667" r="1.062"/><circle style="fill:gray;fill-opacity:.903435;stroke-width:.226216" cx="84.667" cy="84.667" r=".51"/></svg>