<svg width="640" height="640" viewBox="0 0 169.333 169.333" xmlns:xlink="http://www.w3.org/1999/xlink" xmlns="http://www.w3.org/2000/svg"><defs><linearGradient id="a"><stop style="stop-color:#b2b2b2;stop-opacity:1" offset="0"/><stop style="stop-color:#ccc;stop-opacity:0" offset="1"/></linearGradient><linearGradient xlink:href="#a" id="b" x1="320" y1="237.5" x2="345" y2="237.5" gradientUnits="userSpaceOnUse"/></defs><path style="fill:#fff;stroke-width:1.78016" d="m319 90-9 50-15 15v115l15 15-.922 18.428A19.857 19.857 0 0 0 300.143 320a19.857 19.857 0 0 0 7.337 15.406L305 370l15 15 15-15-2.48-34.594A19.857 19.857 0 0 0 339.857 320c0-6.68-3.358-12.91-8.937-16.584L330 285l15-15V155l-15-15-9-50zm1 50 19.914 20L340 265l-10.086 10L320 285l-10.086-10-10-10L300 160z" transform="scale(.26458)"/><path style="fill:#ff1a1a;fill-opacity:.6;stroke-width:.422693" d="m87.177 39.687 2.781 2.646v27.782l-5.291 5.291-5.292-5.291V42.333l2.804-2.646 2.488-2.645z"/><path style="fill:url(#b);fill-opacity:1;stroke-width:1.78016" d="M320 90v50l9.486 10L340 160v105l-10 10-10 10v100l15-15-2.48-34.594A19.857 19.857 0 0 0 339.857 320c0-6.68-3.358-12.91-8.937-16.584L330 285l15-15V155l-15-15-9-50z" transform="scale(.26458)"/></svg>