<svg width="800" height="800" viewBox="0 0 211.667 211.667" xmlns="http://www.w3.org/2000/svg"><g style="font-size:270.933px;line-height:1.25;fill:#fff;stroke-width:6.77332"><path d="M142.875 71.437V58.208H68.792v13.23zM166.955.001c27.251 0 43.386 13.23 44.71 39.687v31.089c-.442 12.612-5.023 22.137-10.05 28.575 6.526 6.262 9.875 15.037 10.052 26.326v23.812c-.353 32.632-15.256 48.948-44.713 48.948H44.452c-29.457 0-44.187-16.757-44.452-50.27v-22.49c.177-11.289 3.354-20.064 9.792-26.326C4.765 92.914.442 83.389.002 70.777V39.688C1.323 13.23 17.2.001 44.451.001zm-24.08 140.228V127H68.792v13.23z" style="font-family:NASDAQER;-inkscape-font-specification:NASDAQER;fill:#fff" transform="translate(0 6.616)" aria-label="8"/></g></svg>