<svg version="1.1" id="Layer_1" xmlns="http://www.w3.org/2000/svg" x="0" y="0" viewBox="0 0 800 800" style="enable-background:new 0 0 800 800" xml:space="preserve"><style>.st1{fill:#029cdb}</style><path d="m423.3 78.3-15.1-8.2c-.6-.3-1.4-.3-2 0l-15.1 8.2c-.4.2-.7.5-.7.9v334.4c0 .6.7 1.1 1.7 1.1h30.2c1 0 1.7-.5 1.7-1.1V79.2c0-.4-.2-.7-.7-.9z" style="fill:#020000"/><path class="st1" d="m417.2 82.7-9.4-5.2c-.4-.2-.9-.2-1.3 0l-9.4 5.2c-.3.1-.4.4-.4.6v132c0 .4.4.7 1 .7h18.8c.6 0 1-.3 1-.7v-132c0-.2 0-.4-.3-.6zM416.6 373.3h-18.9c-.6 0-1-.3-1-.6V223.9c0-.3.4-.6 1-.6h18.9c.6 0 1 .3 1 .6v148.9c0 .3-.4.5-1 .5z"/><path d="m408.5 68.9-17.3 9.3c-.4.2-.7.5-.7.9v336.1" style="opacity:.5;fill:none;stroke:#fff;stroke-width:2;stroke-miterlimit:10;enable-background:new"/></svg>