<svg xmlns="http://www.w3.org/2000/svg" viewBox="0 0 800 800" style="enable-background:new 0 0 800 800" xml:space="preserve"><path d="m421.1 139.4-15.1-8.2c-.6-.3-1.4-.3-2 0l-15.1 8.2c-.4.2-.7.5-.7.9v273.2c0 .6.7 1.1 1.7 1.1h30.2c1 0 1.7-.5 1.7-1.1V140.3c0-.4-.3-.7-.7-.9z" style="fill:#020000"/><path d="m415 143.9-9.4-5.2c-.4-.2-.9-.2-1.3 0l-9.4 5.2c-.3.1-.4.4-.4.6v97.8c0 .4.4.7 1 .7h18.8c.6 0 1-.3 1-.7v-97.8c0-.3 0-.5-.3-.6zm-.6 227h-18.9c-.6 0-1-.3-1-.6v-95.7c0-.4.4-.6 1-.6h18.9c.6 0 1 .3 1 .6v95.7c0 .3-.4.6-1 .6zm0-102.5h-18.9c-.6 0-1-.4-1-1V249c0-.6.4-1 1-1h18.9c.6 0 1 .4 1 1v18.4c0 .5-.4 1-1 1z" style="fill:#029cdb"/><path d="m406.3 130.1-17.3 9.3c-.4.2-.7.5-.7.9v275.5" style="opacity:.5;fill:none;stroke:#fff;stroke-width:2;stroke-miterlimit:10;enable-background:new"/></svg>