<svg shape-rendering="crispEdges" viewBox="0 0 2000 2000" style="enable-background:new 0 0 2000 2000" xml:space="preserve" xmlns="http://www.w3.org/2000/svg"><path d="M998 .7h4c-.5 2.7 2 3.5 3.4 4.8C1334.1 334.4 1663 663.2 1991.8 992c1.3 1.3 2.7 2.5 4 3.7 3.5 3.3 2.6 5.9-.6 9.2-59.3 59.2-118.6 118.4-177.8 177.7l-812.1 812.1c-1.3 1.3-3.9 2-3.3 4.7h-4c.5-2.5-1.8-3.2-3-4.4-69.9-70-139.9-140-209.9-210C525 1525 264.9 1264.9 4.8 1004.9c-1.3-1.3-2-3.9-4.7-3.3v-3c2.5.5 3.2-1.8 4.4-3 95.6-95.5 191.2-191.1 286.7-286.6 234.5-234.5 469-469 703.4-703.5 1.4-1.4 3.9-2.1 3.4-4.8zm2 799.4c34.7 34.7 69.2 69.2 103.8 103.7 30.9 30.9 61.7 61.8 92.7 92.5 2.9 2.9 2.6 4.8.1 7.2l-2.1 2.1c-130.3 130.3-260.6 260.6-391 390.9-2.9 2.9-2.8 4.1 0 7 64.2 64 128.3 128.1 192.3 192.3 3.6 3.6 5.2 3.4 8.7-.1 197.1-197.3 394.4-394.5 591.6-591.8 1.3-1.3 2.7-2.4 4.4-3.9-1-.8-1.7-1.3-2.3-1.9-131.6-131.6-263.2-263.2-394.8-394.9-3-3-4.3-2.3-6.9.2-28 28.1-56 56.1-84.1 84.2-37.4 37.5-74.7 74.8-112.4 112.5zm-399.9-.1c.6.7 1.2 1.3 1.8 1.8 65 65 130.1 130.1 195 195.2 2.9 2.9 4.1 2.1 6.5-.3C861.2 938.9 919 881 976.9 823.2c7.7-7.7 15.4-15.3 23-22.9-.4-.6-.7-1-1-1.3-65.4-65.4-130.8-130.8-196.1-196.2-2.6-2.6-3.8-1.7-5.8.3-27.9 28-55.8 55.9-83.7 83.8-37.8 37.7-75.5 75.4-113.2 113.1z" style="fill:#949494;fill-opacity:1"/></svg>