<svg enable-background="new 0 0 800 800" version="1.1" viewBox="0 0 800 800" xml:space="preserve" xmlns="http://www.w3.org/2000/svg"><style>.st1{fill:#029cdb}</style><path d="m416.55 78.3-15.1-8.2c-0.6-0.3-1.4-0.3-2 0l-15.1 8.2c-0.4 0.2-0.7 0.5-0.7 0.9v334.4c0 0.6 0.7 1.1 1.7 1.1h30.2c1 0 1.7-0.5 1.7-1.1v-334.4c0-0.4-0.2-0.7-0.7-0.9z" fill="#020000"/><path class="st1" d="m410.45 82.7-9.4-5.2c-0.4-0.2-0.9-0.2-1.3 0l-9.4 5.2c-0.3 0.1-0.4 0.4-0.4 0.6v132c0 0.4 0.4 0.7 1 0.7h18.8c0.6 0 1-0.3 1-0.7v-132c0-0.2 0-0.4-0.3-0.6zm-0.6 290.6h-18.9c-0.6 0-1-0.3-1-0.6v-148.8c0-0.3 0.4-0.6 1-0.6h18.9c0.6 0 1 0.3 1 0.6v148.9c0 0.3-0.4 0.5-1 0.5z"/><path d="m401.75 68.9-17.3 9.3c-0.4 0.2-0.7 0.5-0.7 0.9v336.1" enable-background="new" fill="none" opacity=".5" stroke="#fff" stroke-miterlimit="10" stroke-width="2"/></svg>
