<?xml version="1.0" encoding="UTF-8"?>
<svg width="180" height="180" xmlns="http://www.w3.org/2000/svg" xmlns:xlink="http://www.w3.org/1999/xlink">
<defs>
<radialGradient id="c" cx="-48.995" cy="1030.2" r="4.609" gradientTransform="matrix(.63355 -.04797 .05447 .71937 16.953 -597.36)" gradientUnits="userSpaceOnUse">
<stop stop-color="#fff" offset="0"/>
<stop offset="1"/>
</radialGradient>
<radialGradient id="d" cx="-48.539" cy="1030.9" r="3.322" gradientTransform="matrix(.67511 0 0 .7674 75.004 -645.18)" gradientUnits="userSpaceOnUse">
<stop stop-color="#7a7a7a" offset="0"/>
<stop stop-color="#1a1a1a" offset="1"/>
</radialGradient>
</defs>
<g transform="translate(-1.456 -1629.2) scale(1.7207)" fill="none" opacity=".541" stroke="#fff">
<rect x="18.036" y="952.63" width="30.714" height="12.143" ry=".714" color-rendering="auto" image-rendering="auto" opacity=".806" shape-rendering="auto" stroke-linecap="round" stroke-linejoin="round" stroke-width=".695" style="isolation:auto;mix-blend-mode:normal"/>
<path d="M20.446 965.009v-11.631h.184m2.174 11.631v-11.631h.184m2.174 11.631v-11.631h.184m2.174 11.631v-11.631h.184m2.174 11.631v-11.631h.184m2.174 11.631v-11.631h.184m2.174 11.631v-11.631h.184m2.174 11.631v-11.631h.184m2.174 11.631v-11.631h.184m2.174 11.631v-11.631h.183m2.175 11.631v-11.631h.183m2.175 11.631v-11.631h.183" fill="none" stroke="#fff" stroke-width=".98474px"/>
</g>
<g transform="translate(0 .45)" fill-rule="evenodd" opacity=".6" shape-rendering="auto">
<circle cx="39.095" cy="148.87" r="7.367" color-rendering="auto" fill="url(#c)" image-rendering="auto" opacity="1" stroke="#000" stroke-linecap="round" stroke-linejoin="round" stroke-width=".31967" style="isolation:auto;mix-blend-mode:normal"/>
<path d="M46.461 148.872a7.369 7.369 0 0 1-5.978 7.236c-6.094-4.125-5.59-11.868.542-14.347a7.37 7.37 0 0 1 5.436 7.111z" color-rendering="auto" fill="url(#d)" image-rendering="auto" opacity="1" style="isolation:auto;mix-blend-mode:normal"/>
</g>
</svg>
