<?xml version="1.0" encoding="UTF-8"?>
<svg width="180" height="180" xmlns="http://www.w3.org/2000/svg" xmlns:xlink="http://www.w3.org/1999/xlink">
<defs>
<linearGradient id="c">
<stop stop-color="#0a0a0a" stop-opacity=".92412" offset="0"/>
<stop stop-color="#1d1d1d" stop-opacity=".57782" offset="1"/>
</linearGradient>
<linearGradient id="d">
<stop stop-color="#0a0a0a" offset="0"/>
<stop stop-color="#272727" offset="1"/>
</linearGradient>
<linearGradient id="g" x1="19.114" x2="87.331" y1="972.08" y2="995.82" gradientTransform="translate(-1.456 -1629.2) scale(1.7207)" gradientUnits="userSpaceOnUse">
<stop stop-color="#b9c099" offset="0"/>
<stop stop-color="#8a955b" stop-opacity=".82296" offset="1"/>
</linearGradient>
<linearGradient id="f" x1="-3.707" x2="-3.707" y1="1142.3" y2="1144.1" gradientTransform="matrix(1.7273 0 0 1.7207 180.74 -1846.7)" gradientUnits="userSpaceOnUse" spreadMethod="reflect">
<stop stop-color="#0a0a0a" stop-opacity=".17255" offset="0"/>
<stop stop-color="#707070" stop-opacity=".24319" offset=".517"/>
<stop stop-color="#fbfbfb" stop-opacity=".3249" offset="1"/>
</linearGradient>
<linearGradient id="e" x1="9.786" x2="97.089" y1="980.98" y2="980.98" gradientTransform="matrix(1.7808 0 0 1.8051 -4.666 -1712)" gradientUnits="userSpaceOnUse" xlink:href="#c"/>
<radialGradient id="h" cx="-60.988" cy="1022.6" r="14.837" gradientTransform="matrix(2.125 2.1765 -1.0828 1.0572 1259.9 -813.55)" gradientUnits="userSpaceOnUse" xlink:href="#d"/>
<radialGradient id="i" cx="-60.988" cy="1022.6" r="14.837" gradientTransform="matrix(1.7865 1.8298 -.91027 .88873 1168.5 -660.06)" gradientUnits="userSpaceOnUse" xlink:href="#d"/>
</defs>
<rect x="2.221" y="2.377" width="175.56" height="175.56" ry="5.07" color-rendering="auto" fill="none" image-rendering="auto" shape-rendering="auto" stroke="#bbb" stroke-linecap="round" stroke-linejoin="round" stroke-opacity=".19066" stroke-width="3.4415" style="isolation:auto;mix-blend-mode:normal"/>
<path d="M19.338 2.93S69.041.308 93.914.352c22.595.039 67.738 2.578 67.738 2.578 2.905.111 5.247 2.372 5.247 5.319v103.64c0 2.947-2.34 5.32-5.247 5.32H19.338c-2.906 0-5.247-2.373-5.247-5.32V8.25c0-2.947 2.34-5.319 5.247-5.319z" color-rendering="auto" fill="url(#e)" fill-rule="evenodd" image-rendering="auto" opacity=".859" shape-rendering="auto" style="isolation:auto;mix-blend-mode:normal"/>
<path d="M173.861 150.089c0-17.28-14.061-31.288-31.407-31.288-17.345 0-31.407 14.008-31.406 31.288 0 8.452 3.248 15.852 8.724 21.52l-57.956.035c5.739-6.64 8.64-14.77 8.738-21.556 0-17.28-14.061-31.288-31.407-31.288-17.345 0-31.407 14.008-31.407 31.288 0 7.865 3.296 16.085 8.108 21.574l-11.79-.018a.118.118 0 0 1-.117-.118v-53.48c0-.065.052-.117.118-.117h171.893c.066 0 .119.052.119.117v53.48a.119.119 0 0 1-.119.118l-10.43.047c5.212-5.697 8.34-13.354 8.34-21.603z" color-rendering="auto" fill="url(#f)" fill-rule="evenodd" image-rendering="auto" opacity=".875" shape-rendering="auto" style="isolation:auto;mix-blend-mode:normal"/>
<path d="M21.739 5.54s48.026-2.499 72.06-2.457c21.833.037 65.453 2.458 65.453 2.458 2.807.105 5.07 2.26 5.07 5.07v98.796a5.059 5.059 0 0 1-5.07 5.07H21.739a5.059 5.059 0 0 1-5.07-5.07V10.611a5.059 5.059 0 0 1 5.07-5.07z" color-rendering="auto" fill="none" image-rendering="auto" opacity=".859" shape-rendering="auto" stroke="#fff" stroke-linecap="round" stroke-linejoin="round" stroke-opacity=".71401" stroke-width="2.5725" style="isolation:auto;mix-blend-mode:normal"/>
<rect x="29.578" y="10" width="52.851" height="20.895" ry="1.229" color-rendering="auto" fill-opacity=".43114" fill-rule="evenodd" image-rendering="auto" opacity=".43605" shape-rendering="auto" stroke="#fff" stroke-linecap="round" stroke-linejoin="round" stroke-width="1.1959" style="isolation:auto;mix-blend-mode:normal"/>
<text x="122.81" y="30.515" fill="#fff" font-family="Sans" font-size="21.509px" font-weight="400" letter-spacing="1.7207px" stroke-width="1px" text-align="center" text-anchor="middle" word-spacing="0" style="line-height:125%" xml:space="preserve"><tspan x="123.67" y="30.515" font-size="12.906px">ENGAGE</tspan></text>
<rect x="31.683" y="42.224" width="117.43" height="42.914" ry="1.245" color-rendering="auto" fill="url(#g)" fill-rule="evenodd" image-rendering="auto" shape-rendering="auto" stroke="url(#c)" stroke-linecap="round" stroke-linejoin="round" stroke-width="2.237" style="isolation:auto;mix-blend-mode:normal"/>
<rect x="29.87" y="40.484" width="121.06" height="46.393" ry="1.346" color-rendering="auto" fill="none" image-rendering="auto" shape-rendering="auto" stroke="#fff" stroke-linecap="round" stroke-linejoin="round" stroke-width="2.3041" style="isolation:auto;mix-blend-mode:normal"/>
<text x="113.579" y="104.613" fill="#fff" font-family="Sans" font-size="21.509px" font-weight="400" letter-spacing="1.7207px" stroke-width="1px" text-align="center" text-anchor="middle" word-spacing="0" style="line-height:125%" xml:space="preserve"><tspan x="114.439" y="104.613" font-size="12.906px">TRANSMIT</tspan></text>
<g opacity=".6" shape-rendering="auto" stroke="#000" stroke-linecap="round" stroke-linejoin="round">
<circle cx="38.893" cy="150.28" r="22.452" color-rendering="auto" fill="url(#h)" fill-rule="evenodd" image-rendering="auto" opacity="1" stroke-width="1.4662" style="isolation:auto;mix-blend-mode:normal"/>
<circle cx="39.03" cy="150.22" r="31.288" color-rendering="auto" fill="none" image-rendering="auto" opacity="1" stroke-width="2.0649" style="isolation:auto;mix-blend-mode:normal"/>
<circle cx="141.94" cy="150.22" r="31.288" color-rendering="auto" fill="#292929" fill-rule="evenodd" image-rendering="auto" opacity="1" stroke-width="2.0649" style="isolation:auto;mix-blend-mode:normal"/>
<circle cx="141.94" cy="150.22" r="18.875" color-rendering="auto" fill="url(#i)" fill-rule="evenodd" image-rendering="auto" opacity="1" stroke-width="3.9852" style="isolation:auto;mix-blend-mode:normal"/>
</g>
</svg>
