<?xml version="1.0" encoding="UTF-8"?>
<svg width="68.95" height="68.95" version="1.1" viewBox="0 0 64.64 64.64" xmlns="http://www.w3.org/2000/svg" xmlns:xlink="http://www.w3.org/1999/xlink">
<g opacity=".6">
<g transform="translate(72.573 -280.99) scale(.31187)" fill="#1a1a1a" opacity=".786" stroke="#1a1a1a">
<path id="a" d="m-129.65 1080.9v18.166" fill="#1a1a1a" fill-rule="evenodd" stroke="#1a1a1a" stroke-linecap="round" stroke-linejoin="round" stroke-width="11.073"/>
<use transform="rotate(15 -129.52 1002.7)" width="100%" height="100%" xlink:href="#a"/>
<use transform="rotate(30 -129.66 1003.9)" width="100%" height="100%" xlink:href="#a"/>
<use transform="rotate(45 -129.68 1004.3)" width="100%" height="100%" xlink:href="#a"/>
<use transform="rotate(60 -129.66 1004.4)" width="100%" height="100%" xlink:href="#a"/>
<use transform="rotate(75 -129.64 1004.6)" width="100%" height="100%" xlink:href="#a"/>
<use transform="rotate(90 -129.6 1004.6)" width="100%" height="100%" xlink:href="#a"/>
<use transform="rotate(105 -129.57 1004.7)" width="100%" height="100%" xlink:href="#a"/>
<use transform="rotate(120 -129.53 1004.7)" width="100%" height="100%" xlink:href="#a"/>
<use transform="rotate(135 -129.48 1004.7)" width="100%" height="100%" xlink:href="#a"/>
<use transform="rotate(150 -129.44 1004.7)" width="100%" height="100%" xlink:href="#a"/>
<use transform="rotate(165 -129.4 1004.7)" width="100%" height="100%" xlink:href="#a"/>
<use transform="rotate(180 -129.36 1004.6)" width="100%" height="100%" xlink:href="#a"/>
<use transform="rotate(195 -129.32 1004.6)" width="100%" height="100%" xlink:href="#a"/>
<use transform="rotate(210 -129.28 1004.5)" width="100%" height="100%" xlink:href="#a"/>
<use transform="rotate(225 -129.23 1004.4)" width="100%" height="100%" xlink:href="#a"/>
<use transform="rotate(240 -129.19 1004.3)" width="100%" height="100%" xlink:href="#a"/>
<use transform="rotate(255 -129.15 1004.2)" width="100%" height="100%" xlink:href="#a"/>
<use transform="rotate(-90 -129.12 1004)" width="100%" height="100%" xlink:href="#a"/>
<use transform="rotate(-75 -129.08 1003.8)" width="100%" height="100%" xlink:href="#a"/>
<use transform="rotate(-60 -129.05 1003.4)" width="100%" height="100%" xlink:href="#a"/>
<use transform="rotate(-45 -129.04 1002.9)" width="100%" height="100%" xlink:href="#a"/>
<use transform="rotate(-30 -129.06 1001.7)" width="100%" height="100%" xlink:href="#a"/>
<use transform="rotate(-15 -129.32 1002.1)" width="100%" height="100%" xlink:href="#a"/>
</g>
<g transform="rotate(6.124 2621.6 851.03) scale(.31187)" fill="#4d4d4d" opacity=".794" stroke="#333">
<path id="b" d="m-129.65 1080.9v18.166" fill="#4d4d4d" fill-rule="evenodd" stroke="#333" stroke-linecap="round" stroke-linejoin="round" stroke-width="11.073"/>
<use transform="rotate(15 -129.52 1002.7)" width="100%" height="100%" xlink:href="#b"/>
<use transform="rotate(30 -129.66 1003.9)" width="100%" height="100%" xlink:href="#b"/>
<use transform="rotate(45 -129.68 1004.3)" width="100%" height="100%" xlink:href="#b"/>
<use transform="rotate(60 -129.66 1004.4)" width="100%" height="100%" xlink:href="#b"/>
<use transform="rotate(75 -129.64 1004.6)" width="100%" height="100%" xlink:href="#b"/>
<use transform="rotate(90 -129.6 1004.6)" width="100%" height="100%" xlink:href="#b"/>
<use transform="rotate(105 -129.57 1004.7)" width="100%" height="100%" xlink:href="#b"/>
<use transform="rotate(120 -129.53 1004.7)" width="100%" height="100%" xlink:href="#b"/>
<use transform="rotate(135 -129.48 1004.7)" width="100%" height="100%" xlink:href="#b"/>
<use transform="rotate(150 -129.44 1004.7)" width="100%" height="100%" xlink:href="#b"/>
<use transform="rotate(165 -129.4 1004.7)" width="100%" height="100%" xlink:href="#b"/>
<use transform="rotate(180 -129.36 1004.6)" width="100%" height="100%" xlink:href="#b"/>
<use transform="rotate(195 -129.32 1004.6)" width="100%" height="100%" xlink:href="#b"/>
<use transform="rotate(210 -129.28 1004.5)" width="100%" height="100%" xlink:href="#b"/>
<use transform="rotate(225 -129.23 1004.4)" width="100%" height="100%" xlink:href="#b"/>
<use transform="rotate(240 -129.19 1004.3)" width="100%" height="100%" xlink:href="#b"/>
<use transform="rotate(255 -129.15 1004.2)" width="100%" height="100%" xlink:href="#b"/>
<use transform="rotate(-90 -129.12 1004)" width="100%" height="100%" xlink:href="#b"/>
<use transform="rotate(-75 -129.08 1003.8)" width="100%" height="100%" xlink:href="#b"/>
<use transform="rotate(-60 -129.05 1003.4)" width="100%" height="100%" xlink:href="#b"/>
<use transform="rotate(-45 -129.04 1002.9)" width="100%" height="100%" xlink:href="#b"/>
<use transform="rotate(-30 -129.06 1001.7)" width="100%" height="100%" xlink:href="#b"/>
<use transform="rotate(-15 -129.32 1002.1)" width="100%" height="100%" xlink:href="#b"/>
</g>
<g transform="rotate(-3.693 -4358.4 -951.55) scale(.31187)">
<path id="c" d="m-129.65 1080.9v18.166" fill="none" stroke="#000" stroke-linecap="round" stroke-linejoin="round" stroke-width="11.073"/>
<use transform="rotate(15 -129.52 1002.7)" width="100%" height="100%" xlink:href="#c"/>
<use transform="rotate(30 -129.66 1003.9)" width="100%" height="100%" xlink:href="#c"/>
<use transform="rotate(45 -129.68 1004.3)" width="100%" height="100%" xlink:href="#c"/>
<use transform="rotate(60 -129.66 1004.4)" width="100%" height="100%" xlink:href="#c"/>
<use transform="rotate(75 -129.64 1004.6)" width="100%" height="100%" xlink:href="#c"/>
<use transform="rotate(90 -129.6 1004.6)" width="100%" height="100%" xlink:href="#c"/>
<use transform="rotate(105 -129.57 1004.7)" width="100%" height="100%" xlink:href="#c"/>
<use transform="rotate(120 -129.53 1004.7)" width="100%" height="100%" xlink:href="#c"/>
<use transform="rotate(135 -129.48 1004.7)" width="100%" height="100%" xlink:href="#c"/>
<use transform="rotate(150 -129.44 1004.7)" width="100%" height="100%" xlink:href="#c"/>
<use transform="rotate(165 -129.4 1004.7)" width="100%" height="100%" xlink:href="#c"/>
<use transform="rotate(180 -129.36 1004.6)" width="100%" height="100%" xlink:href="#c"/>
<use transform="rotate(195 -129.32 1004.6)" width="100%" height="100%" xlink:href="#c"/>
<use transform="rotate(210 -129.28 1004.5)" width="100%" height="100%" xlink:href="#c"/>
<use transform="rotate(225 -129.23 1004.4)" width="100%" height="100%" xlink:href="#c"/>
<use transform="rotate(240 -129.19 1004.3)" width="100%" height="100%" xlink:href="#c"/>
<use transform="rotate(255 -129.15 1004.2)" width="100%" height="100%" xlink:href="#c"/>
<use transform="rotate(-90 -129.12 1004)" width="100%" height="100%" xlink:href="#c"/>
<use transform="rotate(-75 -129.08 1003.8)" width="100%" height="100%" xlink:href="#c"/>
<use transform="rotate(-60 -129.05 1003.4)" width="100%" height="100%" xlink:href="#c"/>
<use transform="rotate(-45 -129.04 1002.9)" width="100%" height="100%" xlink:href="#c"/>
<use transform="rotate(-30 -129.06 1001.7)" width="100%" height="100%" xlink:href="#c"/>
<use transform="rotate(-15 -129.32 1002.1)" width="100%" height="100%" xlink:href="#c"/>
</g>
</g>
<g stroke="#fff" stroke-opacity=".26946">
<path transform="translate(-864.82 405.67)" d="m897.14-388.01v5.106m0 19.33v4.886m3.794-28.822-1.321 4.932m-5.003 18.671-1.265 4.72m11.125-26.859-2.553 4.422m-9.665 16.74-2.443 4.232m17.698-23.064-3.61 3.61m-13.67 13.67-3.454 3.454m23.064-17.698-4.422 2.553m-16.74 9.666-4.232 2.442m26.858-11.125-4.932 1.322m-18.671 5.003-4.72 1.264m28.823-3.794h-5.106m-19.33 0h-4.886m28.822 3.794-4.932-1.321m-18.672-5.003-4.719-1.265m26.859 11.125-4.422-2.553m-16.74-9.665-4.232-2.443m23.064 17.698-3.61-3.61m-13.67-13.67-3.454-3.454m17.697 23.064-2.553-4.422m-9.665-16.74-2.443-4.232m11.125 26.859-1.321-4.933m-5.003-18.671-1.265-4.72" fill="none" stroke="#fff" stroke-linecap="round" stroke-linejoin="round" stroke-opacity=".26946" stroke-width=".83679px"/>
</g>
<circle cx="32.316" cy="5.9062" r="3.75" fill="#f00" fill-rule="evenodd" stroke-width=".93749"/>
<circle cx="32.315" cy="59.062" r="3.75" fill="#fff" fill-rule="evenodd" stroke-width=".93749"/>
</svg>
