<svg xmlns="http://www.w3.org/2000/svg" xmlns:xlink="http://www.w3.org/1999/xlink" viewBox="0 0 64.64 64.64" height="68.95" width="68.95"><g style="opacity:.6"><g style="opacity:.78600003;fill:#1a1a1a;stroke:#1a1a1a" transform="translate(72.573 -280.992) scale(.31187)"><path style="fill:#1a1a1a;fill-rule:evenodd;stroke:#1a1a1a;stroke-width:11.07336426;stroke-linecap:round;stroke-linejoin:round;stroke-miterlimit:4;stroke-dasharray:none;stroke-opacity:1" d="M-129.65 1080.927v18.166" id="a"/><use height="100%" width="100%" transform="rotate(15 -129.522 1002.742)" xlink:href="#a" style="fill:#1a1a1a;stroke:#1a1a1a"/><use height="100%" width="100%" transform="rotate(30 -129.664 1003.88)" xlink:href="#a" style="fill:#1a1a1a;stroke:#1a1a1a"/><use height="100%" width="100%" transform="rotate(45 -129.68 1004.259)" xlink:href="#a" style="fill:#1a1a1a;stroke:#1a1a1a"/><use height="100%" width="100%" transform="rotate(60 -129.665 1004.445)" xlink:href="#a" style="fill:#1a1a1a;stroke:#1a1a1a"/><use height="100%" width="100%" transform="rotate(75 -129.637 1004.552)" xlink:href="#a" style="fill:#1a1a1a;stroke:#1a1a1a"/><use height="100%" width="100%" transform="rotate(90 -129.603 1004.617)" xlink:href="#a" style="fill:#1a1a1a;stroke:#1a1a1a"/><use height="100%" width="100%" transform="rotate(105 -129.566 1004.655)" xlink:href="#a" style="fill:#1a1a1a;stroke:#1a1a1a"/><use height="100%" width="100%" transform="rotate(120 -129.526 1004.674)" xlink:href="#a" style="fill:#1a1a1a;stroke:#1a1a1a"/><use height="100%" width="100%" transform="rotate(135 -129.485 1004.679)" xlink:href="#a" style="fill:#1a1a1a;stroke:#1a1a1a"/><use height="100%" width="100%" transform="rotate(150 -129.444 1004.671)" xlink:href="#a" style="fill:#1a1a1a;stroke:#1a1a1a"/><use height="100%" width="100%" transform="rotate(165 -129.402 1004.651)" xlink:href="#a" style="fill:#1a1a1a;stroke:#1a1a1a"/><use height="100%" width="100%" transform="rotate(180 -129.36 1004.62)" xlink:href="#a" style="fill:#1a1a1a;stroke:#1a1a1a"/><use height="100%" width="100%" transform="rotate(-165 -129.317 1004.575)" xlink:href="#a" style="fill:#1a1a1a;stroke:#1a1a1a"/><use height="100%" width="100%" transform="rotate(-150 -129.275 1004.516)" xlink:href="#a" style="fill:#1a1a1a;stroke:#1a1a1a"/><use height="100%" width="100%" transform="rotate(-135 -129.233 1004.439)" xlink:href="#a" style="fill:#1a1a1a;stroke:#1a1a1a"/><use height="100%" width="100%" transform="rotate(-120 -129.192 1004.34)" xlink:href="#a" style="fill:#1a1a1a;stroke:#1a1a1a"/><use height="100%" width="100%" transform="rotate(-105 -129.153 1004.21)" xlink:href="#a" style="fill:#1a1a1a;stroke:#1a1a1a"/><use height="100%" width="100%" transform="rotate(-90 -129.116 1004.036)" xlink:href="#a" style="fill:#1a1a1a;stroke:#1a1a1a"/><use height="100%" width="100%" transform="rotate(-75 -129.082 1003.796)" xlink:href="#a" style="fill:#1a1a1a;stroke:#1a1a1a"/><use height="100%" width="100%" transform="rotate(-60 -129.054 1003.44)" xlink:href="#a" style="fill:#1a1a1a;stroke:#1a1a1a"/><use height="100%" width="100%" transform="rotate(-45 -129.039 1002.858)" xlink:href="#a" style="fill:#1a1a1a;stroke:#1a1a1a"/><use height="100%" width="100%" transform="rotate(-30 -129.055 1001.714)" xlink:href="#a" style="fill:#1a1a1a;stroke:#1a1a1a"/><use height="100%" width="100%" transform="rotate(-15 -129.315 1002.132)" xlink:href="#a" style="fill:#1a1a1a;stroke:#1a1a1a"/></g><g transform="rotate(6.124 2621.582 851.028) scale(.31187)" style="opacity:.794;fill:#4d4d4d;stroke:#333"><path style="fill:#4d4d4d;fill-rule:evenodd;stroke:#333;stroke-width:11.07336426;stroke-linecap:round;stroke-linejoin:round;stroke-miterlimit:4;stroke-dasharray:none;stroke-opacity:1" d="M-129.65 1080.927v18.166" id="b"/><use height="100%" width="100%" transform="rotate(15 -129.522 1002.742)" xlink:href="#b" style="fill:#4d4d4d;stroke:#333"/><use height="100%" width="100%" transform="rotate(30 -129.664 1003.88)" xlink:href="#b" style="fill:#4d4d4d;stroke:#333"/><use height="100%" width="100%" transform="rotate(45 -129.68 1004.259)" xlink:href="#b" style="fill:#4d4d4d;stroke:#333"/><use height="100%" width="100%" transform="rotate(60 -129.665 1004.445)" xlink:href="#b" style="fill:#4d4d4d;stroke:#333"/><use height="100%" width="100%" transform="rotate(75 -129.637 1004.552)" xlink:href="#b" style="fill:#4d4d4d;stroke:#333"/><use height="100%" width="100%" transform="rotate(90 -129.603 1004.617)" xlink:href="#b" style="fill:#4d4d4d;stroke:#333"/><use height="100%" width="100%" transform="rotate(105 -129.566 1004.655)" xlink:href="#b" style="fill:#4d4d4d;stroke:#333"/><use height="100%" width="100%" transform="rotate(120 -129.526 1004.674)" xlink:href="#b" style="fill:#4d4d4d;stroke:#333"/><use height="100%" width="100%" transform="rotate(135 -129.485 1004.679)" xlink:href="#b" style="fill:#4d4d4d;stroke:#333"/><use height="100%" width="100%" transform="rotate(150 -129.444 1004.671)" xlink:href="#b" style="fill:#4d4d4d;stroke:#333"/><use height="100%" width="100%" transform="rotate(165 -129.402 1004.651)" xlink:href="#b" style="fill:#4d4d4d;stroke:#333"/><use height="100%" width="100%" transform="rotate(180 -129.36 1004.62)" xlink:href="#b" style="fill:#4d4d4d;stroke:#333"/><use height="100%" width="100%" transform="rotate(-165 -129.317 1004.575)" xlink:href="#b" style="fill:#4d4d4d;stroke:#333"/><use height="100%" width="100%" transform="rotate(-150 -129.275 1004.516)" xlink:href="#b" style="fill:#4d4d4d;stroke:#333"/><use height="100%" width="100%" transform="rotate(-135 -129.233 1004.439)" xlink:href="#b" style="fill:#4d4d4d;stroke:#333"/><use height="100%" width="100%" transform="rotate(-120 -129.192 1004.34)" xlink:href="#b" style="fill:#4d4d4d;stroke:#333"/><use height="100%" width="100%" transform="rotate(-105 -129.153 1004.21)" xlink:href="#b" style="fill:#4d4d4d;stroke:#333"/><use height="100%" width="100%" transform="rotate(-90 -129.116 1004.036)" xlink:href="#b" style="fill:#4d4d4d;stroke:#333"/><use height="100%" width="100%" transform="rotate(-75 -129.082 1003.796)" xlink:href="#b" style="fill:#4d4d4d;stroke:#333"/><use height="100%" width="100%" transform="rotate(-60 -129.054 1003.44)" xlink:href="#b" style="fill:#4d4d4d;stroke:#333"/><use height="100%" width="100%" transform="rotate(-45 -129.039 1002.858)" xlink:href="#b" style="fill:#4d4d4d;stroke:#333"/><use height="100%" width="100%" transform="rotate(-30 -129.055 1001.714)" xlink:href="#b" style="fill:#4d4d4d;stroke:#333"/><use height="100%" width="100%" transform="rotate(-15 -129.315 1002.132)" xlink:href="#b" style="fill:#4d4d4d;stroke:#333"/></g><g transform="rotate(-3.693 -4358.366 -951.547) scale(.31187)"><path style="fill:none;fill-rule:evenodd;stroke:#000;stroke-width:11.07336426;stroke-linecap:round;stroke-linejoin:round;stroke-miterlimit:4;stroke-dasharray:none;stroke-opacity:1" d="M-129.65 1080.927v18.166" id="c"/><use height="100%" width="100%" transform="rotate(15 -129.522 1002.742)" xlink:href="#c"/><use height="100%" width="100%" transform="rotate(30 -129.664 1003.88)" xlink:href="#c"/><use height="100%" width="100%" transform="rotate(45 -129.68 1004.259)" xlink:href="#c"/><use height="100%" width="100%" transform="rotate(60 -129.665 1004.445)" xlink:href="#c"/><use height="100%" width="100%" transform="rotate(75 -129.637 1004.552)" xlink:href="#c"/><use height="100%" width="100%" transform="rotate(90 -129.603 1004.617)" xlink:href="#c"/><use height="100%" width="100%" transform="rotate(105 -129.566 1004.655)" xlink:href="#c"/><use height="100%" width="100%" transform="rotate(120 -129.526 1004.674)" xlink:href="#c"/><use height="100%" width="100%" transform="rotate(135 -129.485 1004.679)" xlink:href="#c"/><use height="100%" width="100%" transform="rotate(150 -129.444 1004.671)" xlink:href="#c"/><use height="100%" width="100%" transform="rotate(165 -129.402 1004.651)" xlink:href="#c"/><use height="100%" width="100%" transform="rotate(180 -129.36 1004.62)" xlink:href="#c"/><use height="100%" width="100%" transform="rotate(-165 -129.317 1004.575)" xlink:href="#c"/><use height="100%" width="100%" transform="rotate(-150 -129.275 1004.516)" xlink:href="#c"/><use height="100%" width="100%" transform="rotate(-135 -129.233 1004.439)" xlink:href="#c"/><use height="100%" width="100%" transform="rotate(-120 -129.192 1004.34)" xlink:href="#c"/><use height="100%" width="100%" transform="rotate(-105 -129.153 1004.21)" xlink:href="#c"/><use height="100%" width="100%" transform="rotate(-90 -129.116 1004.036)" xlink:href="#c"/><use height="100%" width="100%" transform="rotate(-75 -129.082 1003.796)" xlink:href="#c"/><use height="100%" width="100%" transform="rotate(-60 -129.054 1003.44)" xlink:href="#c"/><use height="100%" width="100%" transform="rotate(-45 -129.039 1002.858)" xlink:href="#c"/><use height="100%" width="100%" transform="rotate(-30 -129.055 1001.714)" xlink:href="#c"/><use height="100%" width="100%" transform="rotate(-15 -129.315 1002.132)" xlink:href="#c"/></g></g><g style="stroke:#fff;stroke-opacity:.26946107"><path style="fill:none;fill-rule:evenodd;stroke:#fff;stroke-width:.8367942px;stroke-linecap:round;stroke-linejoin:round;stroke-opacity:.26946107" d="M897.143-388.013v5.106m0 19.33v4.886m3.794-28.822-1.321 4.932m-5.003 18.671-1.265 4.72m11.125-26.859-2.553 4.422m-9.665 16.74-2.443 4.232m17.698-23.064-3.61 3.61m-13.67 13.67-3.454 3.454m23.064-17.698-4.422 2.553m-16.74 9.666-4.232 2.442m26.858-11.125-4.932 1.322m-18.671 5.003-4.72 1.264m28.823-3.794h-5.106m-19.33 0h-4.886m28.822 3.794-4.932-1.321m-18.672-5.003-4.719-1.265m26.859 11.125-4.422-2.553m-16.74-9.665-4.232-2.443m23.064 17.698-3.61-3.61m-13.67-13.67-3.454-3.454m17.697 23.064-2.553-4.422m-9.665-16.74-2.443-4.232m11.125 26.859-1.321-4.933m-5.003-18.671-1.265-4.72" transform="translate(-864.823 405.672)"/></g></svg>