<?xml version="1.0" encoding="UTF-8"?>
<svg width="36.726" height="11.319" viewBox="0 0 34.431 10.611" xmlns="http://www.w3.org/2000/svg">
<g transform="translate(-49.912 -223.06) scale(.24893)" fill="#fff">
<circle cx="269.66" cy="917.95" r="10.822" color-rendering="auto" fill-rule="evenodd" image-rendering="auto" shape-rendering="auto" style="isolation:auto;mix-blend-mode:normal"/>
<path d="M324.113 936.894c-.267-.432 1.08-3.898 2.994-7.702 4.712-9.364 4.37-15.518-1.419-25.516-2.263-3.91-3.568-7.154-3.013-7.497 1.52-.94 8.248 4.208 11.601 8.877 5.297 7.376 5.963 14.725 2.012 22.21-2.832 5.366-10.877 11.728-12.175 9.628zm-38.625 0c-.267-.432 1.08-3.898 2.994-7.702 4.712-9.364 4.37-15.518-1.419-25.516-2.263-3.91-3.567-7.154-3.013-7.497 1.52-.94 8.248 4.208 11.601 8.877 5.297 7.376 5.963 14.725 2.013 22.21-2.833 5.366-10.878 11.728-12.176 9.628zm19.312 0c-.266-.432 1.081-3.898 2.995-7.702 4.711-9.364 4.369-15.518-1.42-25.516-2.263-3.91-3.567-7.154-3.013-7.497 1.52-.94 8.249 4.208 11.602 8.877 5.297 7.376 5.962 14.725 2.012 22.21-2.832 5.366-10.877 11.728-12.175 9.628z"/>
<path transform="matrix(-1 0 0 1 539.33 1.39)" d="M324.113 936.894c-.267-.432 1.08-3.898 2.994-7.702 4.712-9.364 4.37-15.518-1.419-25.516-2.263-3.91-3.568-7.154-3.013-7.497 1.52-.94 8.248 4.208 11.601 8.877 5.297 7.376 5.963 14.725 2.012 22.21-2.832 5.366-10.877 11.728-12.175 9.628zm-38.625 0c-.267-.432 1.08-3.898 2.994-7.702 4.712-9.364 4.37-15.518-1.419-25.516-2.263-3.91-3.567-7.154-3.013-7.497 1.52-.94 8.248 4.208 11.601 8.877 5.297 7.376 5.963 14.725 2.013 22.21-2.833 5.366-10.878 11.728-12.176 9.628zm19.312 0c-.266-.432 1.081-3.898 2.995-7.702 4.711-9.364 4.369-15.518-1.42-25.516-2.263-3.91-3.567-7.154-3.013-7.497 1.52-.94 8.249 4.208 11.602 8.877 5.297 7.376 5.962 14.725 2.012 22.21-2.832 5.366-10.877 11.728-12.175 9.628z"/>
</g>
</svg>
