<svg width="1000" height="1000" viewBox="0 0 264.583 264.583" xmlns:xlink="http://www.w3.org/1999/xlink" xmlns="http://www.w3.org/2000/svg"><defs><linearGradient id="g"><stop style="stop-color:#e5ff80;stop-opacity:1" offset="0"/><stop style="stop-color:#b3ff80;stop-opacity:1" offset="1"/></linearGradient><linearGradient id="f"><stop style="stop-color:#4d3a00;stop-opacity:1" offset="0"/><stop style="stop-color:#918e84;stop-opacity:1" offset="1"/></linearGradient><linearGradient id="e"><stop style="stop-color:#fff;stop-opacity:1" offset="0"/><stop style="stop-color:#dfd6bf;stop-opacity:1" offset="1"/></linearGradient><linearGradient id="c"><stop style="stop-color:#fffcf4;stop-opacity:.9921568" offset="0"/><stop style="stop-color:#fff6dc;stop-opacity:1" offset="1"/></linearGradient><linearGradient id="d"><stop style="stop-color:#ffbf00;stop-opacity:1" offset="0"/><stop style="stop-color:#ffdb72;stop-opacity:.99215686" offset=".494"/><stop style="stop-color:#ffdc73;stop-opacity:.99392998" offset=".786"/><stop style="stop-color:#ffcf40;stop-opacity:.99929136" offset="1"/></linearGradient><linearGradient id="b"><stop style="stop-color:#a67c00;stop-opacity:1" offset="0"/><stop style="stop-color:#bf9b30;stop-opacity:1" offset="1"/></linearGradient><linearGradient id="a"><stop style="stop-color:#ffbf00;stop-opacity:1" offset="0"/><stop style="stop-color:#ffdb72;stop-opacity:.99215686" offset=".494"/><stop style="stop-color:#ffdc73;stop-opacity:.99392998" offset=".497"/><stop style="stop-color:#ffcf40;stop-opacity:.99929136" offset="1"/></linearGradient><linearGradient xlink:href="#e" id="s" gradientUnits="userSpaceOnUse" gradientTransform="rotate(180 122.842 114.597) scale(.85714)" x1="132.292" y1="245.787" x2="127.661" y2="245.787"/><linearGradient xlink:href="#e" id="r" gradientUnits="userSpaceOnUse" gradientTransform="rotate(180 122.842 114.597) scale(.85714)" x1="132.292" y1="244.861" x2="136.304" y2="244.861"/><linearGradient xlink:href="#f" id="af" gradientUnits="userSpaceOnUse" gradientTransform="matrix(3.23959 0 0 3.23959 71.428 140.744)" x1="127.662" y1="243.628" x2="132.292" y2="243.628"/><linearGradient xlink:href="#f" id="ai" gradientUnits="userSpaceOnUse" gradientTransform="rotate(-90 140.409 104.498) scale(.85714)" x1="126.735" y1="245.175" x2="129.842" y2="245.177"/><linearGradient xlink:href="#f" id="t" x1="136.26" y1="19.844" x2="132.292" y2="19.844" gradientUnits="userSpaceOnUse"/><linearGradient xlink:href="#f" id="u" gradientUnits="userSpaceOnUse" x1="136.26" y1="19.844" x2="132.292" y2="19.844" gradientTransform="matrix(-1 0 0 1 264.585 0)"/><linearGradient xlink:href="#e" id="w" gradientUnits="userSpaceOnUse" gradientTransform="rotate(180 122.842 114.597) scale(.85714)" x1="132.292" y1="244.861" x2="136.304" y2="244.861"/><linearGradient xlink:href="#e" id="x" gradientUnits="userSpaceOnUse" gradientTransform="rotate(180 122.842 114.597) scale(.85714)" x1="132.292" y1="245.787" x2="127.661" y2="245.787"/><linearGradient xlink:href="#f" id="y" gradientUnits="userSpaceOnUse" x1="136.26" y1="19.844" x2="132.292" y2="19.844"/><linearGradient xlink:href="#f" id="z" gradientUnits="userSpaceOnUse" gradientTransform="matrix(-1 0 0 1 264.585 0)" x1="136.26" y1="19.844" x2="132.292" y2="19.844"/><linearGradient xlink:href="#e" id="B" gradientUnits="userSpaceOnUse" gradientTransform="rotate(180 122.842 114.597) scale(.85714)" x1="132.292" y1="244.861" x2="136.304" y2="244.861"/><linearGradient xlink:href="#e" id="C" gradientUnits="userSpaceOnUse" gradientTransform="rotate(180 122.842 114.597) scale(.85714)" x1="132.292" y1="245.787" x2="127.661" y2="245.787"/><linearGradient xlink:href="#f" id="D" gradientUnits="userSpaceOnUse" x1="136.26" y1="19.844" x2="132.292" y2="19.844"/><linearGradient xlink:href="#f" id="E" gradientUnits="userSpaceOnUse" gradientTransform="matrix(-1 0 0 1 264.585 0)" x1="136.26" y1="19.844" x2="132.292" y2="19.844"/><linearGradient xlink:href="#e" id="G" gradientUnits="userSpaceOnUse" gradientTransform="rotate(180 122.842 114.597) scale(.85714)" x1="132.292" y1="244.861" x2="136.304" y2="244.861"/><linearGradient xlink:href="#e" id="H" gradientUnits="userSpaceOnUse" gradientTransform="rotate(180 122.842 114.597) scale(.85714)" x1="132.292" y1="245.787" x2="127.661" y2="245.787"/><linearGradient xlink:href="#f" id="I" gradientUnits="userSpaceOnUse" x1="136.26" y1="19.844" x2="132.292" y2="19.844"/><linearGradient xlink:href="#f" id="J" gradientUnits="userSpaceOnUse" gradientTransform="matrix(-1 0 0 1 264.585 0)" x1="136.26" y1="19.844" x2="132.292" y2="19.844"/><linearGradient xlink:href="#e" id="L" gradientUnits="userSpaceOnUse" gradientTransform="rotate(180 122.842 114.597) scale(.85714)" x1="132.292" y1="244.861" x2="136.304" y2="244.861"/><linearGradient xlink:href="#e" id="M" gradientUnits="userSpaceOnUse" gradientTransform="rotate(180 122.842 114.597) scale(.85714)" x1="132.292" y1="245.787" x2="127.661" y2="245.787"/><linearGradient xlink:href="#f" id="N" gradientUnits="userSpaceOnUse" x1="136.26" y1="19.844" x2="132.292" y2="19.844"/><linearGradient xlink:href="#f" id="O" gradientUnits="userSpaceOnUse" gradientTransform="matrix(-1 0 0 1 264.585 0)" x1="136.26" y1="19.844" x2="132.292" y2="19.844"/><linearGradient xlink:href="#e" id="Q" gradientUnits="userSpaceOnUse" gradientTransform="rotate(180 122.842 114.597) scale(.85714)" x1="132.292" y1="244.861" x2="136.304" y2="244.861"/><linearGradient xlink:href="#e" id="R" gradientUnits="userSpaceOnUse" gradientTransform="rotate(180 122.842 114.597) scale(.85714)" x1="132.292" y1="245.787" x2="127.661" y2="245.787"/><linearGradient xlink:href="#f" id="S" gradientUnits="userSpaceOnUse" x1="136.26" y1="19.844" x2="132.292" y2="19.844"/><linearGradient xlink:href="#f" id="T" gradientUnits="userSpaceOnUse" gradientTransform="matrix(-1 0 0 1 264.585 0)" x1="136.26" y1="19.844" x2="132.292" y2="19.844"/><linearGradient xlink:href="#e" id="V" gradientUnits="userSpaceOnUse" gradientTransform="rotate(180 122.842 114.597) scale(.85714)" x1="132.292" y1="244.861" x2="136.304" y2="244.861"/><linearGradient xlink:href="#e" id="W" gradientUnits="userSpaceOnUse" gradientTransform="rotate(180 122.842 114.597) scale(.85714)" x1="132.292" y1="245.787" x2="127.661" y2="245.787"/><linearGradient xlink:href="#f" id="X" gradientUnits="userSpaceOnUse" x1="136.26" y1="19.844" x2="132.292" y2="19.844"/><linearGradient xlink:href="#f" id="Y" gradientUnits="userSpaceOnUse" gradientTransform="matrix(-1 0 0 1 264.585 0)" x1="136.26" y1="19.844" x2="132.292" y2="19.844"/><linearGradient xlink:href="#e" id="aa" gradientUnits="userSpaceOnUse" gradientTransform="rotate(180 122.842 114.597) scale(.85714)" x1="132.292" y1="244.861" x2="136.304" y2="244.861"/><linearGradient xlink:href="#e" id="ab" gradientUnits="userSpaceOnUse" gradientTransform="rotate(180 122.842 114.597) scale(.85714)" x1="132.292" y1="245.787" x2="127.661" y2="245.787"/><linearGradient xlink:href="#f" id="ac" gradientUnits="userSpaceOnUse" x1="136.26" y1="19.844" x2="132.292" y2="19.844"/><linearGradient xlink:href="#f" id="ad" gradientUnits="userSpaceOnUse" gradientTransform="matrix(-1 0 0 1 264.585 0)" x1="136.26" y1="19.844" x2="132.292" y2="19.844"/><linearGradient xlink:href="#e" id="ae" gradientUnits="userSpaceOnUse" gradientTransform="translate(18.899 37.239) scale(.85714)" x1="132.292" y1="257.968" x2="132.292" y2="244.739"/><linearGradient xlink:href="#f" id="ag" gradientUnits="userSpaceOnUse" gradientTransform="matrix(3.23959 0 0 3.23959 71.428 140.744)" x1="136.922" y1="243.628" x2="132.292" y2="243.628"/><linearGradient xlink:href="#e" id="m" gradientUnits="userSpaceOnUse" gradientTransform="translate(18.899 37.239) scale(.85714)" x1="132.292" y1="257.968" x2="132.292" y2="244.739"/><linearGradient xlink:href="#f" id="n" gradientUnits="userSpaceOnUse" gradientTransform="matrix(3.23959 0 0 3.23959 71.428 140.744)" x1="127.662" y1="243.628" x2="132.292" y2="243.628"/><linearGradient xlink:href="#f" id="o" gradientUnits="userSpaceOnUse" gradientTransform="matrix(3.23959 0 0 3.23959 71.428 140.744)" x1="136.922" y1="243.628" x2="132.292" y2="243.628"/><linearGradient xlink:href="#f" id="ak" gradientUnits="userSpaceOnUse" gradientTransform="matrix(0 -.85714 .85714 0 35.91 246.494)" x1="134.781" y1="245.178" x2="137.848" y2="245.175"/><linearGradient xlink:href="#f" id="aj" gradientUnits="userSpaceOnUse" gradientTransform="rotate(-90 532.184 396.45) scale(3.23959)" x1="132.292" y1="245.175" x2="135.398" y2="245.175"/><linearGradient xlink:href="#f" id="al" gradientUnits="userSpaceOnUse" gradientTransform="rotate(-90 532.184 396.45) scale(3.23959)" x1="129.224" y1="245.175" x2="132.292" y2="245.175"/><linearGradient xlink:href="#e" id="ah" x1="262.731" y1="130.969" x2="225.425" y2="130.969" gradientUnits="userSpaceOnUse"/><linearGradient xlink:href="#e" id="h" gradientUnits="userSpaceOnUse" x1="225.425" y1="129.646" x2="262.731" y2="129.646"/><linearGradient xlink:href="#f" id="i" gradientUnits="userSpaceOnUse" gradientTransform="rotate(-90 140.409 104.498) scale(.85714)" x1="126.735" y1="245.175" x2="129.842" y2="245.177"/><linearGradient xlink:href="#f" id="j" gradientUnits="userSpaceOnUse" gradientTransform="rotate(-90 532.184 396.45) scale(3.23959)" x1="132.292" y1="245.175" x2="135.398" y2="245.175"/><linearGradient xlink:href="#f" id="k" gradientUnits="userSpaceOnUse" gradientTransform="matrix(0 -.85714 .85714 0 35.91 246.494)" x1="134.781" y1="245.178" x2="137.848" y2="245.175"/><linearGradient xlink:href="#f" id="l" gradientUnits="userSpaceOnUse" gradientTransform="rotate(-90 532.184 396.45) scale(3.23959)" x1="129.224" y1="245.175" x2="132.292" y2="245.175"/><radialGradient xlink:href="#g" id="q" cx="132.292" cy="3.969" fx="132.292" fy="3.969" r="3.175" gradientUnits="userSpaceOnUse"/><radialGradient xlink:href="#g" id="v" gradientUnits="userSpaceOnUse" cx="132.292" cy="3.969" fx="132.292" fy="3.969" r="3.175"/><radialGradient xlink:href="#g" id="A" gradientUnits="userSpaceOnUse" cx="132.292" cy="3.969" fx="132.292" fy="3.969" r="3.175"/><radialGradient xlink:href="#g" id="F" gradientUnits="userSpaceOnUse" cx="132.292" cy="3.969" fx="132.292" fy="3.969" r="3.175"/><radialGradient xlink:href="#g" id="K" gradientUnits="userSpaceOnUse" cx="132.292" cy="3.969" fx="132.292" fy="3.969" r="3.175"/><radialGradient xlink:href="#g" id="P" gradientUnits="userSpaceOnUse" cx="132.292" cy="3.969" fx="132.292" fy="3.969" r="3.175"/><radialGradient xlink:href="#g" id="U" gradientUnits="userSpaceOnUse" cx="132.292" cy="3.969" fx="132.292" fy="3.969" r="3.175"/><radialGradient xlink:href="#g" id="Z" gradientUnits="userSpaceOnUse" cx="132.292" cy="3.969" fx="132.292" fy="3.969" r="3.175"/><path id="p" d="M-620 280h240v140h-240z"/></defs><g transform="translate(-223.573)"><rect style="opacity:1;fill:url(#h);fill-opacity:1;stroke-width:.10621" width="37.306" height="9.525" x="225.425" y="127.529" ry=".794" rx=".794"/><path style="color:#000;opacity:.8;fill:url(#i);fill-opacity:1;stroke-width:.264583;stroke-linejoin:round;-inkscape-stroke:none;paint-order:markers fill stroke" d="m226.218 134.408-.002 1.074c0 .44.355.794.795.794h34.13a.792.792 0 0 0 .792-.793l.002-1.075z"/><path style="color:#000;display:inline;opacity:.8;fill:url(#j);fill-opacity:1;stroke-width:1;stroke-linejoin:round;-inkscape-stroke:none;paint-order:markers fill stroke" d="m855.008 492-.006 8.063h134.992L990 492Z" transform="scale(.26458)"/><path style="color:#000;display:inline;opacity:.3;fill:url(#k);fill-opacity:1;stroke-width:.264583;stroke-linejoin:round;-inkscape-stroke:none;paint-order:markers fill stroke" d="M227.01 128.34a.791.791 0 0 0-.794.793l.002 1.042h35.717l-.002-1.042a.79.79 0 0 0-.793-.793z"/><path style="color:#000;opacity:.3;fill:url(#l);fill-opacity:1;stroke-width:1;stroke-linejoin:round;-inkscape-stroke:none;paint-order:markers fill stroke" d="M855.002 500.063 855 508h134.992l.002-7.938z" transform="scale(.26458)"/></g><g aria-label="MOMEGA" style="font-size:10.5833px;line-height:1.25;stroke-width:.264583"><path style="font-family:'Julius Sans One';-inkscape-font-specification:'Julius Sans One';stroke-width:.0221194" d="m132.906 81.633-.105.642c.066.023.055-.043.064-.086.022-.15.046-.3.067-.45.068.168.136.34.209.503.052.006.048-.076.076-.108.06-.133.126-.264.184-.398.022.18.05.359.075.539.074.023.044-.043.039-.087l-.085-.558c-.053-.01-.049.07-.076.1l-.198.424a18.632 18.632 0 0 0-.222-.524c-.007.003-.025-.005-.028.003zM133.937 81.626c-.172.011-.299.186-.28.354.002.17.158.322.33.304.18 0 .317-.182.297-.355a.315.315 0 0 0-.347-.303zm.033.044c.159-.007.277.151.262.301 0 .147-.127.285-.279.268-.156-.003-.26-.163-.243-.31.005-.137.116-.264.26-.259zM134.473 81.639v.636h.31c.023-.07-.055-.038-.095-.044h-.166v-.283c.075-.002.16.005.228-.003.02-.069-.066-.03-.104-.04-.04-.012-.135.03-.124-.033v-.193c.083-.002.175.005.252-.003.02-.07-.066-.031-.104-.04-.064.002-.139-.005-.197.003zM135.188 81.626c-.176.011-.3.193-.277.362a.33.33 0 0 0 .356.297.366.366 0 0 0 .194-.05v-.284c-.069-.024-.047.044-.05.087v.174c-.13.05-.305.04-.391-.084-.124-.152-.042-.43.163-.455.082-.01.17.013.245.027.04-.053-.035-.05-.07-.06a.624.624 0 0 0-.17-.014zM135.838 81.633l-.269.642c.061.022.068-.038.086-.08l.058-.14h.279c.031.073.06.15.093.22.084.022.03-.046.015-.09-.078-.184-.153-.374-.234-.554-.008.002-.024-.005-.028.002zm.017.097c.042.093.08.188.119.282h-.243c.04-.099.084-.195.12-.295l.002.008z" transform="translate(-1597.611 -972.367) scale(12.86455)"/><path style="color:#000;fill:#000;stroke-linecap:square;-inkscape-stroke:none" d="m134.158 79.748-.015.016-.33.33.345.344.313-.313.281.281-.297.297-.33.328.346.344.328-.328.312-.313.328-.328-.328-.328-.328-.33-.312.315zm0 .064.281.282-.28.281-.282-.281zm.625 0 .297.297.297.297-.297.297-.312.313-.297.296-.282-.28.297-.298.328-.328-.312-.312z" transform="translate(-1597.611 -972.367) scale(12.86455)"/><g style="font-size:5.34243px;stroke-width:.0530068"><path style="font-family:'Oooh Baby';-inkscape-font-specification:'Oooh Baby';stroke-width:.00925854" d="M134.787 90.986c-.158.13-.324.275-.496.383-.056-.006-.066.076 0 .065.073-.028.15.02.228.014-.013.063-.09.133-.066.196.08.018.061-.108.101-.15.025-.084.173-.017.205-.114.033-.04-.04-.091-.04-.03-.015.066-.184.08-.094-.008.056-.115.122-.23.194-.331-.002-.015-.019-.024-.031-.025zm-.739.003a.4.4 0 0 0-.273.191c.037.062.074-.05.112-.067.07-.056.204-.13.28-.048.009.16-.148.272-.257.363-.071.04-.139.126-.218.132-.048-.022-.166-.047-.156.04.06.096.17-.015.246.027.116.016.269.057.362-.034.039-.032-.012-.112-.032-.048-.025.088-.159.054-.231.054-.111-.001-.114-.03-.022-.077.15-.112.348-.245.353-.45-.008-.079-.1-.095-.164-.083zm1.322 0c-.13.093-.29-.024-.427.021-.037.021-.112.121-.042.136.037-.042.058-.125.135-.1.078.004.157.044.236.024-.14.161-.292.331-.355.539-.018.06.076.046.058-.01.076-.233.25-.42.424-.586-.002-.013-.015-.026-.029-.025zm-.702.167c-.048.08-.09.164-.13.248-.086-.004-.244-.013-.1-.084.082-.062.167-.12.245-.186l-.01.014zm-1.041.43c.057.024-.109-.005 0 0z" transform="translate(-1597.611 -972.367) scale(12.86455)" aria-label="247"/></g></g><path style="color:#000;display:inline;fill:url(#m);fill-opacity:1;stroke-width:.264583;stroke-linejoin:round;-inkscape-stroke:none;paint-order:markers fill stroke" d="M128.324 227.545h7.936c.44 0 .793.354.793.794v34.13c0 .44-.354.792-.793.792h-7.937a.792.792 0 0 1-.793-.793v-34.13c0-.44.354-.793.793-.793z" transform="rotate(180 132.292 132.293)"/><path style="color:#000;display:inline;opacity:.8;fill:url(#n);fill-opacity:1;stroke-width:1;stroke-linejoin:round;-inkscape-stroke:none;paint-order:markers fill stroke" d="M488 862.979a2.995 2.995 0 0 0-2.998 3.001l.002 123.022A2.993 2.993 0 0 0 488 992h12V862.979h-11.996z" transform="matrix(-.26458 0 0 -.26458 264.584 264.585)"/><path style="color:#000;display:inline;opacity:.3;fill:url(#o);fill-opacity:1;stroke-width:1;stroke-linejoin:round;-inkscape-stroke:none;paint-order:markers fill stroke" d="M500 862.979V992h12.041a2.99 2.99 0 0 0 2.998-2.998L515 865.98a2.99 2.99 0 0 0-2.996-3.001z" transform="matrix(-.26458 0 0 -.26458 264.584 264.585)"/><g style="display:inline"><g aria-label="Sushimaster" style="font-size:16.8253px;line-height:1.25;stroke-width:.420632"><path style="font-family:'Oooh Baby';-inkscape-font-specification:'Oooh Baby';stroke-width:.479487" d="M104.094 182.125c-.73.023-1.456.128-2.165.299-.559.146-1.111.328-1.639.565a8.135 8.135 0 0 0-1.473.907c-.404.326-.784.698-1.053 1.147-.246.424-.368.955-.21 1.431.181.518.629.882 1.08 1.16.575.351 1.214.576 1.845.8.527.2 1.048.44 1.522.738.455.3.869.719 1.027 1.253.108.367.117.758.058 1.127-.095.605-.42 1.153-.824 1.6-.808.909-1.935 1.487-3.12 1.708-.599.113-1.211.153-1.824.12-.7-.046-1.413-.212-2.05-.539a3.314 3.314 0 0 1-1.003-.781 2.02 2.02 0 0 1-.462-1.547c.048-.263.204-.532.1-.801-.074-.209-.399-.269-.528-.081-.16.212-.222.48-.28.735a2.611 2.611 0 0 0 .291 1.726c.347.603.905 1.06 1.511 1.386 1.023.534 2.198.73 3.344.675a7.58 7.58 0 0 0 2.239-.461c.926-.349 1.734-.965 2.378-1.711.421-.48.748-1.046.943-1.654.236-.775.154-1.657-.29-2.344-.457-.717-1.193-1.199-1.95-1.554-.481-.229-.99-.391-1.494-.558-.5-.183-1.01-.405-1.38-.8a1.036 1.036 0 0 1-.262-.994c.123-.447.489-.786.842-1.076a7.793 7.793 0 0 1 1.955-1.111 9.663 9.663 0 0 1 2.586-.579c.386-.02.787-.054 1.16.085a.733.733 0 0 1 .461.612 1.655 1.655 0 0 1-.488 1.393c-.233.239-.523.41-.815.563-.227.145-.173.558.094.625.29.082.572-.09.8-.252.396-.282.73-.654.94-1.094.295-.567.354-1.28.063-1.86a1.429 1.429 0 0 0-.821-.727c-.355-.124-.736-.14-1.108-.131z" transform="translate(.397)"/><path style="font-family:'Oooh Baby';-inkscape-font-specification:'Oooh Baby';stroke-width:.414645" d="M123.884 181.99c-.218.026-.376.205-.526.35-.496.537-.898 1.153-1.301 1.76-.507.785-.996 1.581-1.46 2.39a29.134 29.134 0 0 0-1.252 2.599c-.483 1.117-.963 2.24-1.305 3.41-.064.252-.14.514-.114.777.018.164.186.262.341.245.222 0 .372-.203.427-.398.177-.523.35-1.053.628-1.533.318-.563.732-1.066 1.17-1.54.683-.714 1.444-1.393 2.37-1.77.28-.106.583-.195.885-.153.128.013.179.151.155.264-.062.431-.254.83-.435 1.222-.342.707-.718 1.398-1.05 2.11-.144.298-.233.653-.118.976.087.25.361.37.61.373.69.026 1.366-.236 1.912-.648.355-.257.689-.54 1.013-.834-.133.388-.282.798-.22 1.214.03.23.183.446.408.52.412.141.864.084 1.272-.042.48-.157.92-.416 1.349-.68a7.822 7.822 0 0 0 1.1-.86 94.805 94.805 0 0 1-.795 1.654c-.06.157.053.356.223.38.131.032.29.005.362-.122a35.14 35.14 0 0 0 1.087-1.397c.933-1.178 1.891-2.341 2.978-3.381.411-.385.837-.757 1.329-1.046.313-.178.682-.347 1.049-.252.11.023.061.149.044.223-.15.51-.388.983-.613 1.463-.398.834-.847 1.65-1.132 2.531-.048.185-.123.385-.064.575.074.174.314.211.47.138.164-.094.238-.28.355-.419.38-.551.857-1.023 1.31-1.512.894-.916 1.803-1.818 2.703-2.729-.287.695-.592 1.383-.867 2.083-.202.554-.386 1.127-.41 1.72.001.402.012.823.192 1.19.147.282.46.441.763.496.478.065.968-.047 1.396-.262a5.302 5.302 0 0 0 1.093-.645c.225-.171.446-.35.652-.544-.058.355-.102.746.073 1.077.156.292.5.416.815.423.734.03 1.432-.29 2.024-.699.262-.181.51-.385.746-.599-.044.324-.053.69.144.968.18.252.513.316.804.298a2.773 2.773 0 0 0 1.187-.287 5 5 0 0 0 1.074-.63c.603-.45 1.13-.99 1.667-1.515.162-.158.357-.353.322-.6-.025-.167-.218-.223-.364-.202-.183.008-.28.186-.407.293-.688.67-1.388 1.345-2.217 1.84-.379.202-.801.422-1.25.398a.283.283 0 0 1-.278-.267c-.032-.38.133-.749.303-1.073.25-.454.561-.87.842-1.306.047-.082.137-.155.104-.26-.013-.159-.167-.268-.32-.258-.158-.012-.276.108-.362.224-.353.4-.69.816-1.043 1.217-.563.631-1.226 1.18-1.985 1.561-.262.133-.54.221-.826.215-.166.005-.362-.075-.39-.258-.038-.304.035-.612.133-.9.197-.526.493-1.01.821-1.464.4-.552.9-1.022 1.432-1.444a4.33 4.33 0 0 1 .853-.53c.313-.139.656-.225.998-.145.167.03.301.18.29.352.015.192-.133.35-.114.542a.314.314 0 0 0 .278.33.35.35 0 0 0 .4-.205c.106-.253.1-.54.069-.807-.039-.312-.226-.615-.524-.737-.384-.16-.82-.121-1.215-.022-.502.14-.964.402-1.389.7a7.968 7.968 0 0 0-2.053 2.21c-.71.696-1.429 1.4-2.284 1.916-.38.204-.801.426-1.251.41a.571.571 0 0 1-.466-.497c-.058-.39.034-.784.115-1.165.182-.761.492-1.481.752-2.218.123-.356.281-.705.475-1.033a.69.69 0 0 0 .023-.661c-.09-.187-.266-.368-.49-.342-.26.046-.427.274-.612.44a175.227 175.227 0 0 0-3.023 3.008c.332-.618.665-1.246.84-1.929.094-.343.087-.733-.12-1.035a.665.665 0 0 0-.627-.336c-.551.022-1.054.295-1.505.592-.872.594-1.614 1.355-2.321 2.131-.374.415-.734.841-1.086 1.274.305-.707.633-1.406.917-2.122.13-.355.261-.714.316-1.09.027-.153-.007-.354-.174-.412-.167-.063-.412-.02-.468.173-.03.116-.019.25-.06.354-.123.426-.289.865-.466 1.283-.16.378-.334.75-.511 1.12-.182.013-.28.188-.411.29-.586.531-1.152 1.077-1.796 1.536-.386.264-.786.523-1.232.674-.222.067-.447.115-.674.06-.096-.036-.067-.168-.07-.25.042-.384.183-.736.31-1.097.092-.257.225-.498.405-.702.332-.425.653-.857.963-1.297.262-.406.537-.805.757-1.236.082-.16.157-.372.036-.532-.138-.161-.399-.149-.56-.029-.331.237-.569.577-.803.905-.35.515-.654 1.062-.941 1.615-.17.02-.261.187-.385.286-.65.61-1.282 1.254-2.041 1.731-.305.18-.652.332-1.013.31-.119-.02-.077-.17-.057-.25.096-.322.25-.618.405-.927.417-.81.92-1.587 1.181-2.467.09-.308.14-.669-.046-.952a.883.883 0 0 0-.77-.408c-.603.003-1.174.249-1.704.518-.823.417-1.522 1.039-2.134 1.721-.094.098-.183.2-.273.3.274-.661.519-1.34.845-1.975.27-.536.51-1.105.93-1.546.57-.678 1.09-1.396 1.611-2.112.39-.567.781-1.137 1.084-1.757.104-.18.161-.504-.09-.589a.412.412 0 0 0-.127-.016zm36.26.863c-.241 0-.415.2-.518.398-.33.552-.673 1.097-1.003 1.65l-.587.97c-.656.008-1.332.05-1.944.308-.281.124-.59.314-.661.636-.04.163.004.383.187.435.146.045.336.02.413-.13.044-.08.05-.184.139-.234.203-.143.468-.193.714-.255.255-.054.515-.084.775-.09-.857 1.569-1.704 3.145-2.442 4.773-.289.667-.575 1.342-.727 2.054-.047.268-.096.563.025.818.104.217.44.243.592.07.117-.143.04-.33.054-.494.035-.41.166-.793.304-1.185.435-1.17 1.006-2.29 1.581-3.395.464-.879.945-1.748 1.435-2.612.588-.06 1.174.034 1.757.096.194.006.413.07.587-.043.158-.117.166-.394.013-.518-.141-.097-.324-.068-.485-.1a33.918 33.918 0 0 0-1.507-.131c-.024-.03.073-.12.096-.173.424-.646.882-1.27 1.278-1.935.105-.196.24-.391.262-.617-.004-.17-.171-.31-.339-.296zm-29.754 1.858c-.246.016-.445.179-.605.352-.308.303-.52.687-.71 1.072-.094.159-.086.404.086.506.15.076.376.074.47-.085.116-.213.275-.402.411-.603.146-.165.362-.248.513-.41.145-.139.327-.315.281-.537-.018-.18-.194-.297-.366-.295-.027 0-.053-.002-.08 0zm32.33 2.106c-.583.021-1.101.333-1.555.672a7.43 7.43 0 0 0-1.513 1.596c-.536.784-.938 1.699-.949 2.662-.02.562.198 1.152.654 1.499.33.253.765.303 1.168.267.825-.062 1.624-.347 2.339-.756.49-.284.927-.65 1.37-1 .106-.105.054-.012.012.067-.204.405-.395.817-.608 1.217-.106.143-.17.38-.026.52a.387.387 0 0 0 .43.026c.204-.165.325-.405.484-.61.764-1.078 1.542-2.159 2.477-3.097a15.349 15.349 0 0 1 2.18-1.823c.193-.12.388-.26.617-.29.129-.011.163.126.192.222.045.145.177.289.342.256.206-.013.333-.215.351-.404.037-.246.014-.55-.212-.7-.257-.162-.585-.118-.861-.036-.582.19-1.086.558-1.563.931a19.699 19.699 0 0 0-2.105 1.991c-.079.099.013-.052.027-.092.26-.544.531-1.085.754-1.646.074-.21.173-.46.053-.672-.103-.163-.346-.194-.508-.11-.11.062-.117.195-.13.304-.137.429-.345.83-.53 1.239-.174.36-.345.725-.528 1.077-.185.05-.296.224-.442.337-.369.352-.75.692-1.155 1.002-.557.437-1.134.874-1.799 1.133a3.926 3.926 0 0 1-1.54.23c-.234-.017-.492-.142-.605-.366-.165-.309-.153-.69-.109-1.012.07-.427.184-.842.37-1.234.27.09.56.076.84.056.755-.074 1.464-.416 2.062-.873.46-.355.872-.836.97-1.426.05-.313.044-.68-.19-.922-.196-.201-.496-.243-.765-.235zm-46.262.434c-.599.04-1.187.261-1.666.623-.33.243-.605.593-.659 1.01a.849.849 0 0 0 .214.747c.29.298.72.363 1.097.489.273.09.557.15.821.265.273.126.447.441.38.739-.075.4-.364.716-.644.994-.51.473-1.119.859-1.797 1.032-.245.049-.512.089-.753 0-.142-.049-.14-.22-.096-.338.106-.306.32-.562.542-.792.3-.297.67-.519 1.04-.7.105-.056.23-.171.165-.301-.08-.13-.256-.087-.38-.065-.443.087-.813.37-1.155.648-.296.255-.578.54-.767.884-.133.263-.215.585-.106.87.113.268.419.374.687.4.809.082 1.609-.212 2.28-.643a6.847 6.847 0 0 0 1.211-.991c.338-.361.628-.827.6-1.34a1.004 1.004 0 0 0-.586-.856c-.311-.146-.65-.22-.974-.33-.305-.11-.648-.156-.903-.373-.152-.126-.112-.345-.045-.505.176-.372.557-.605.922-.748.362-.137.775-.193 1.149-.071.197.058.315.3.22.486-.08.125-.19.267-.136.425.055.195.309.238.475.172.184-.084.287-.28.355-.461a.836.836 0 0 0-.278-.917c-.34-.273-.782-.382-1.213-.353zm36.357 0c-.6.04-1.188.261-1.667.623-.418.297-.734.798-.662 1.326.049.331.321.578.62.696.36.138.737.23 1.104.348.256.074.547.147.696.39.19.27.1.629-.058.89-.306.494-.77.87-1.254 1.179-.434.257-.914.482-1.426.498-.157-.002-.355.006-.46-.132-.066-.165.03-.343.106-.488.305-.53.814-.93 1.347-1.193.124-.064.296-.13.315-.289.008-.135-.145-.189-.257-.167-.48.045-.886.339-1.25.632-.314.264-.613.561-.813.922-.133.263-.216.585-.105.87.112.269.418.374.687.4.808.082 1.608-.212 2.28-.643.445-.29.863-.625 1.228-1.01.334-.362.617-.83.582-1.34a1.008 1.008 0 0 0-.598-.843c-.316-.145-.658-.22-.987-.332-.294-.103-.605-.15-.855-.345-.124-.087-.15-.248-.112-.386.077-.338.367-.576.655-.742.416-.23.923-.356 1.399-.237.17.039.321.184.313.367.008.19-.211.306-.18.501.003.164.165.27.318.263.21.022.365-.158.454-.327.198-.34.126-.816-.187-1.062-.341-.284-.795-.398-1.233-.369zm-41.511.031c-.17.01-.244.182-.304.316-.174.399-.358.794-.576 1.172-.513.927-1.162 1.776-1.88 2.547a9.214 9.214 0 0 1-1.27 1.085c-.252.162-.51.355-.818.385-.182.016-.264-.183-.285-.333-.056-.37-.006-.74.067-1.097.116-.53.307-1.042.517-1.543.255-.586.575-1.14.9-1.685.081-.13.108-.335-.036-.432-.16-.148-.429-.087-.541.089-.418.542-.694 1.176-.959 1.803a10.664 10.664 0 0 0-.538 1.726c-.09.48-.166.987-.025 1.464a.855.855 0 0 0 .624.607c.452.114.917-.058 1.303-.288.691-.418 1.267-.995 1.81-1.585.064-.07.128-.139.19-.21-.168.588-.287 1.22-.139 1.826.067.282.262.553.555.625.275.085.561-.007.807-.132.892-.436 1.675-1.06 2.411-1.72.393-.367.809-.715 1.142-1.14.086-.104.15-.245.093-.38-.075-.205-.371-.235-.526-.102-.517.462-1.025.936-1.539 1.402-.554.51-1.114 1.038-1.803 1.366-.133.054-.297.134-.434.051-.106-.118-.091-.295-.104-.444-.009-.532.143-1.041.3-1.543.37-1.108.864-2.17 1.376-3.218.2-.136.17-.508-.073-.58a.623.623 0 0 0-.245-.031zm51.484.202c.118-.007.276.043.275.185.01.39-.255.715-.52.972a3.65 3.65 0 0 1-1.227.787c-.3.114-.622.176-.927.188-.083.002-.167.01-.249-.005.364-.59.86-1.086 1.384-1.536.36-.292.783-.58 1.264-.59z" transform="translate(.397)"/></g></g><g transform="rotate(30 132.292 132.292)"><circle style="opacity:1;fill:url(#q);fill-opacity:1;stroke-width:.105833" cx="132.292" cy="3.969" r="3.175"/><path style="color:#000;display:inline;opacity:1;fill:url(#r);stroke-width:.264583;stroke-linejoin:round;-inkscape-stroke:none;paint-order:markers fill stroke" d="M129.117 3.958a.786.786 0 0 0-.793.793l.792 30.173c.008.44.354.795.794.795h2.38V5.81Z"/><path style="color:#000;opacity:1;fill:url(#s);fill-opacity:1;stroke-width:.264583;stroke-linejoin:round;-inkscape-stroke:none;paint-order:markers fill stroke" d="M135.465 3.958 132.29 5.81V35.72h2.383a.798.798 0 0 0 .793-.795l.792-30.173a.792.792 0 0 0-.793-.793z"/><path style="color:#000;opacity:.8;fill:url(#t);fill-opacity:1;stroke-width:.264583;stroke-linejoin:round;-inkscape-stroke:none;paint-order:markers fill stroke" d="m135.204 5.027-2.912 1.852V34.66h1.587a.798.798 0 0 0 .794-.793l.793-28.046c.002-.794.002-.794-.262-.794z"/><path style="color:#000;opacity:.3;fill:url(#u);fill-opacity:1;stroke-width:.264583;stroke-linejoin:round;-inkscape-stroke:none;paint-order:markers fill stroke" d="m129.381 5.027 2.913 1.852V34.66H130.706a.798.798 0 0 1-.793-.793l-.794-28.046c-.002-.794-.002-.794.262-.794z"/></g><g transform="rotate(60 132.292 132.292)"><circle style="opacity:1;fill:url(#v);fill-opacity:1;stroke-width:.105833" cx="132.292" cy="3.969" r="3.175"/><path style="color:#000;display:inline;opacity:1;fill:url(#w);stroke-width:.264583;stroke-linejoin:round;-inkscape-stroke:none;paint-order:markers fill stroke" d="M129.117 3.958a.786.786 0 0 0-.793.793l.792 30.173c.008.44.354.795.794.795h2.38V5.81Z"/><path style="color:#000;opacity:1;fill:url(#x);fill-opacity:1;stroke-width:.264583;stroke-linejoin:round;-inkscape-stroke:none;paint-order:markers fill stroke" d="M135.465 3.958 132.29 5.81V35.72h2.383a.798.798 0 0 0 .793-.795l.792-30.173a.792.792 0 0 0-.793-.793z"/><path style="color:#000;opacity:.8;fill:url(#y);fill-opacity:1;stroke-width:.264583;stroke-linejoin:round;-inkscape-stroke:none;paint-order:markers fill stroke" d="m135.204 5.027-2.912 1.852V34.66h1.587a.798.798 0 0 0 .794-.793l.793-28.046c.002-.794.002-.794-.262-.794z"/><path style="color:#000;opacity:.3;fill:url(#z);fill-opacity:1;stroke-width:.264583;stroke-linejoin:round;-inkscape-stroke:none;paint-order:markers fill stroke" d="m129.381 5.027 2.913 1.852V34.66H130.706a.798.798 0 0 1-.793-.793l-.794-28.046c-.002-.794-.002-.794.262-.794z"/></g><g transform="rotate(-30 132.292 132.292)"><circle style="opacity:1;fill:url(#A);fill-opacity:1;stroke-width:.105833" cx="132.292" cy="3.969" r="3.175"/><path style="color:#000;display:inline;opacity:1;fill:url(#B);stroke-width:.264583;stroke-linejoin:round;-inkscape-stroke:none;paint-order:markers fill stroke" d="M129.117 3.958a.786.786 0 0 0-.793.793l.792 30.173c.008.44.354.795.794.795h2.38V5.81Z"/><path style="color:#000;opacity:1;fill:url(#C);fill-opacity:1;stroke-width:.264583;stroke-linejoin:round;-inkscape-stroke:none;paint-order:markers fill stroke" d="M135.465 3.958 132.29 5.81V35.72h2.383a.798.798 0 0 0 .793-.795l.792-30.173a.792.792 0 0 0-.793-.793z"/><path style="color:#000;opacity:.8;fill:url(#D);fill-opacity:1;stroke-width:.264583;stroke-linejoin:round;-inkscape-stroke:none;paint-order:markers fill stroke" d="m135.204 5.027-2.912 1.852V34.66h1.587a.798.798 0 0 0 .794-.793l.793-28.046c.002-.794.002-.794-.262-.794z"/><path style="color:#000;opacity:.3;fill:url(#E);fill-opacity:1;stroke-width:.264583;stroke-linejoin:round;-inkscape-stroke:none;paint-order:markers fill stroke" d="m129.381 5.027 2.913 1.852V34.66H130.706a.798.798 0 0 1-.793-.793l-.794-28.046c-.002-.794-.002-.794.262-.794z"/></g><g transform="rotate(-60 132.292 132.292)"><circle style="opacity:1;fill:url(#F);fill-opacity:1;stroke-width:.105833" cx="132.292" cy="3.969" r="3.175"/><path style="color:#000;display:inline;opacity:1;fill:url(#G);stroke-width:.264583;stroke-linejoin:round;-inkscape-stroke:none;paint-order:markers fill stroke" d="M129.117 3.958a.786.786 0 0 0-.793.793l.792 30.173c.008.44.354.795.794.795h2.38V5.81Z"/><path style="color:#000;opacity:1;fill:url(#H);fill-opacity:1;stroke-width:.264583;stroke-linejoin:round;-inkscape-stroke:none;paint-order:markers fill stroke" d="M135.465 3.958 132.29 5.81V35.72h2.383a.798.798 0 0 0 .793-.795l.792-30.173a.792.792 0 0 0-.793-.793z"/><path style="color:#000;opacity:.8;fill:url(#I);fill-opacity:1;stroke-width:.264583;stroke-linejoin:round;-inkscape-stroke:none;paint-order:markers fill stroke" d="m135.204 5.027-2.912 1.852V34.66h1.587a.798.798 0 0 0 .794-.793l.793-28.046c.002-.794.002-.794-.262-.794z"/><path style="color:#000;opacity:.3;fill:url(#J);fill-opacity:1;stroke-width:.264583;stroke-linejoin:round;-inkscape-stroke:none;paint-order:markers fill stroke" d="m129.381 5.027 2.913 1.852V34.66H130.706a.798.798 0 0 1-.793-.793l-.794-28.046c-.002-.794-.002-.794.262-.794z"/></g><g transform="rotate(-120 132.292 132.292)"><circle style="opacity:1;fill:url(#K);fill-opacity:1;stroke-width:.105833" cx="132.292" cy="3.969" r="3.175"/><path style="color:#000;display:inline;opacity:1;fill:url(#L);stroke-width:.264583;stroke-linejoin:round;-inkscape-stroke:none;paint-order:markers fill stroke" d="M129.117 3.958a.786.786 0 0 0-.793.793l.792 30.173c.008.44.354.795.794.795h2.38V5.81Z"/><path style="color:#000;opacity:1;fill:url(#M);fill-opacity:1;stroke-width:.264583;stroke-linejoin:round;-inkscape-stroke:none;paint-order:markers fill stroke" d="M135.465 3.958 132.29 5.81V35.72h2.383a.798.798 0 0 0 .793-.795l.792-30.173a.792.792 0 0 0-.793-.793z"/><path style="color:#000;opacity:.8;fill:url(#N);fill-opacity:1;stroke-width:.264583;stroke-linejoin:round;-inkscape-stroke:none;paint-order:markers fill stroke" d="m135.204 5.027-2.912 1.852V34.66h1.587a.798.798 0 0 0 .794-.793l.793-28.046c.002-.794.002-.794-.262-.794z"/><path style="color:#000;opacity:.3;fill:url(#O);fill-opacity:1;stroke-width:.264583;stroke-linejoin:round;-inkscape-stroke:none;paint-order:markers fill stroke" d="m129.381 5.027 2.913 1.852V34.66H130.706a.798.798 0 0 1-.793-.793l-.794-28.046c-.002-.794-.002-.794.262-.794z"/></g><g transform="rotate(-150 132.292 132.292)"><circle style="opacity:1;fill:url(#P);fill-opacity:1;stroke-width:.105833" cx="132.292" cy="3.969" r="3.175"/><path style="color:#000;display:inline;opacity:1;fill:url(#Q);stroke-width:.264583;stroke-linejoin:round;-inkscape-stroke:none;paint-order:markers fill stroke" d="M129.117 3.958a.786.786 0 0 0-.793.793l.792 30.173c.008.44.354.795.794.795h2.38V5.81Z"/><path style="color:#000;opacity:1;fill:url(#R);fill-opacity:1;stroke-width:.264583;stroke-linejoin:round;-inkscape-stroke:none;paint-order:markers fill stroke" d="M135.465 3.958 132.29 5.81V35.72h2.383a.798.798 0 0 0 .793-.795l.792-30.173a.792.792 0 0 0-.793-.793z"/><path style="color:#000;opacity:.8;fill:url(#S);fill-opacity:1;stroke-width:.264583;stroke-linejoin:round;-inkscape-stroke:none;paint-order:markers fill stroke" d="m135.204 5.027-2.912 1.852V34.66h1.587a.798.798 0 0 0 .794-.793l.793-28.046c.002-.794.002-.794-.262-.794z"/><path style="color:#000;opacity:.3;fill:url(#T);fill-opacity:1;stroke-width:.264583;stroke-linejoin:round;-inkscape-stroke:none;paint-order:markers fill stroke" d="m129.381 5.027 2.913 1.852V34.66H130.706a.798.798 0 0 1-.793-.793l-.794-28.046c-.002-.794-.002-.794.262-.794z"/></g><g transform="rotate(150 132.292 132.292)" style="display:inline"><circle style="opacity:1;fill:url(#U);fill-opacity:1;stroke-width:.105833" cx="132.292" cy="3.969" r="3.175"/><path style="color:#000;display:inline;opacity:1;fill:url(#V);stroke-width:.264583;stroke-linejoin:round;-inkscape-stroke:none;paint-order:markers fill stroke" d="M129.117 3.958a.786.786 0 0 0-.793.793l.792 30.173c.008.44.354.795.794.795h2.38V5.81Z"/><path style="color:#000;opacity:1;fill:url(#W);fill-opacity:1;stroke-width:.264583;stroke-linejoin:round;-inkscape-stroke:none;paint-order:markers fill stroke" d="M135.465 3.958 132.29 5.81V35.72h2.383a.798.798 0 0 0 .793-.795l.792-30.173a.792.792 0 0 0-.793-.793z"/><path style="color:#000;opacity:.8;fill:url(#X);fill-opacity:1;stroke-width:.264583;stroke-linejoin:round;-inkscape-stroke:none;paint-order:markers fill stroke" d="m135.204 5.027-2.912 1.852V34.66h1.587a.798.798 0 0 0 .794-.793l.793-28.046c.002-.794.002-.794-.262-.794z"/><path style="color:#000;opacity:.3;fill:url(#Y);fill-opacity:1;stroke-width:.264583;stroke-linejoin:round;-inkscape-stroke:none;paint-order:markers fill stroke" d="m129.381 5.027 2.913 1.852V34.66H130.706a.798.798 0 0 1-.793-.793l-.794-28.046c-.002-.794-.002-.794.262-.794z"/></g><g transform="rotate(120 132.292 132.292)"><circle style="opacity:1;fill:url(#Z);fill-opacity:1;stroke-width:.105833" cx="132.292" cy="3.969" r="3.175"/><path style="color:#000;display:inline;opacity:1;fill:url(#aa);stroke-width:.264583;stroke-linejoin:round;-inkscape-stroke:none;paint-order:markers fill stroke" d="M129.117 3.958a.786.786 0 0 0-.793.793l.792 30.173c.008.44.354.795.794.795h2.38V5.81Z"/><path style="color:#000;opacity:1;fill:url(#ab);fill-opacity:1;stroke-width:.264583;stroke-linejoin:round;-inkscape-stroke:none;paint-order:markers fill stroke" d="M135.465 3.958 132.29 5.81V35.72h2.383a.798.798 0 0 0 .793-.795l.792-30.173a.792.792 0 0 0-.793-.793z"/><path style="color:#000;opacity:.8;fill:url(#ac);fill-opacity:1;stroke-width:.264583;stroke-linejoin:round;-inkscape-stroke:none;paint-order:markers fill stroke" d="m135.204 5.027-2.912 1.852V34.66h1.587a.798.798 0 0 0 .794-.793l.793-28.046c.002-.794.002-.794-.262-.794z"/><path style="color:#000;opacity:.3;fill:url(#ad);fill-opacity:1;stroke-width:.264583;stroke-linejoin:round;-inkscape-stroke:none;paint-order:markers fill stroke" d="m129.381 5.027 2.913 1.852V34.66H130.706a.798.798 0 0 1-.793-.793l-.794-28.046c-.002-.794-.002-.794.262-.794z"/></g><path style="color:#000;display:inline;fill:url(#ae);fill-opacity:1;stroke-width:.264583;stroke-linejoin:round;-inkscape-stroke:none;paint-order:markers fill stroke" d="M128.324 227.545h7.936c.44 0 .793.354.793.794v34.13c0 .44-.354.792-.793.792h-7.937a.792.792 0 0 1-.793-.793v-34.13c0-.44.354-.793.793-.793z"/><path style="color:#000;display:inline;opacity:.8;fill:url(#af);fill-opacity:1;stroke-width:1;stroke-linejoin:round;-inkscape-stroke:none;paint-order:markers fill stroke" d="M488 862.979a2.995 2.995 0 0 0-2.998 3.001l.002 123.022A2.993 2.993 0 0 0 488 992h12V862.979h-11.996z" transform="scale(.26458)"/><path style="color:#000;display:inline;opacity:.3;fill:url(#ag);fill-opacity:1;stroke-width:1;stroke-linejoin:round;-inkscape-stroke:none;paint-order:markers fill stroke" d="M500 862.979V992h12.041a2.99 2.99 0 0 0 2.998-2.998L515 865.98a2.99 2.99 0 0 0-2.996-3.001z" transform="scale(.26458)"/><rect style="opacity:1;fill:url(#ah);fill-opacity:1;stroke-width:.10621" width="37.306" height="9.525" x="225.425" y="127.529" ry=".794" rx=".794"/><path style="color:#000;opacity:.8;fill:url(#ai);fill-opacity:1;stroke-width:.264583;stroke-linejoin:round;-inkscape-stroke:none;paint-order:markers fill stroke" d="m226.218 134.408-.002 1.074c0 .44.355.794.795.794h34.13a.792.792 0 0 0 .792-.793l.002-1.075z"/><path style="color:#000;display:inline;opacity:.8;fill:url(#aj);fill-opacity:1;stroke-width:1;stroke-linejoin:round;-inkscape-stroke:none;paint-order:markers fill stroke" d="m855.008 492-.006 8.063h134.992L990 492Z" transform="scale(.26458)"/><path style="color:#000;display:inline;opacity:.3;fill:url(#ak);fill-opacity:1;stroke-width:.264583;stroke-linejoin:round;-inkscape-stroke:none;paint-order:markers fill stroke" d="M227.01 128.34a.791.791 0 0 0-.794.793l.002 1.042h35.717l-.002-1.042a.79.79 0 0 0-.793-.793z"/><path style="color:#000;opacity:.3;fill:url(#al);fill-opacity:1;stroke-width:1;stroke-linejoin:round;-inkscape-stroke:none;paint-order:markers fill stroke" d="M855.002 500.063 855 508h134.992l.002-7.938z" transform="scale(.26458)"/></svg>