<svg width="1000" height="1000" viewBox="0 0 264.583 264.583" xmlns:xlink="http://www.w3.org/1999/xlink" xmlns="http://www.w3.org/2000/svg"><defs><linearGradient id="h"><stop style="stop-color:#e5e5e5;stop-opacity:1" offset="0"/><stop style="stop-color:#f2f2f2;stop-opacity:1" offset=".443"/><stop style="stop-color:#e0e0e0;stop-opacity:1" offset="1"/></linearGradient><linearGradient id="c"><stop style="stop-color:#fff;stop-opacity:1" offset="0"/><stop style="stop-color:#fff;stop-opacity:0" offset="1"/></linearGradient><linearGradient id="a"><stop style="stop-color:#e3b839;stop-opacity:1" offset="0"/><stop style="stop-color:#ffdc73;stop-opacity:1" offset=".3"/><stop style="stop-color:#ffcf40;stop-opacity:1" offset=".489"/><stop style="stop-color:#ffe083;stop-opacity:1" offset=".596"/><stop style="stop-color:#ffbf00;stop-opacity:1" offset="1"/></linearGradient><linearGradient id="b"><stop style="stop-color:#cf3a55;stop-opacity:1" offset="0"/><stop style="stop-color:#cf3a55;stop-opacity:0" offset="1"/></linearGradient><linearGradient xlink:href="#d" id="i" x1="145.523" y1="95.25" x2="132.293" y2="37.042" gradientUnits="userSpaceOnUse"/><linearGradient id="d"><stop style="stop-color:#dedede;stop-opacity:1" offset="0"/><stop style="stop-color:#f2f2f2;stop-opacity:1" offset=".443"/><stop style="stop-color:#e5e5e5;stop-opacity:1" offset="1"/></linearGradient><linearGradient xlink:href="#e" id="j" x1="128.325" y1="113.771" x2="136.262" y2="113.771" gradientUnits="userSpaceOnUse"/><linearGradient id="e"><stop style="stop-color:#1a1a1a;stop-opacity:1" offset="0"/><stop style="stop-color:#4d4d4d;stop-opacity:1" offset=".361"/><stop style="stop-color:#1a1a1a;stop-opacity:1" offset="1"/></linearGradient><linearGradient xlink:href="#f" id="k" x1="128.325" y1="138.907" x2="137.584" y2="138.906" gradientUnits="userSpaceOnUse"/><linearGradient id="f"><stop style="stop-color:#f5b400;stop-opacity:1" offset="0"/><stop style="stop-color:#ffcd44;stop-opacity:1" offset=".377"/><stop style="stop-color:#cea40e;stop-opacity:1" offset=".874"/><stop style="stop-color:#977900;stop-opacity:1" offset="1"/></linearGradient><linearGradient xlink:href="#g" id="l" x1="140.231" y1="108.48" x2="127.002" y2="39.688" gradientUnits="userSpaceOnUse"/><linearGradient id="g"><stop style="stop-color:#d9d9d9;stop-opacity:1" offset="0"/><stop style="stop-color:#e5e5e5;stop-opacity:1" offset=".462"/><stop style="stop-color:#bfbfbf;stop-opacity:1" offset="1"/></linearGradient><radialGradient xlink:href="#h" id="m" cx="137.387" cy="69.385" fx="137.387" fy="69.385" r="9.26" gradientTransform="matrix(.71109 -.15802 1.42857 6.42857 -60.554 -351.575)" gradientUnits="userSpaceOnUse"/></defs><path style="opacity:1;fill:url(#i);fill-opacity:1;stroke-width:.105833" d="M132.292 37.041c10.055 14.552 15.612 51.066 15.876 66.147h-5.291c-.794-26.194-8.468-51.86-13.23-59.532Z"/><path style="opacity:1;fill:url(#j);fill-opacity:1;stroke-width:.105833" d="M128.06 108.479h8.466l.264 10.583h-8.995z"/><path style="opacity:1;fill:url(#k);fill-opacity:1;stroke-width:.105833" d="M127.532 157.427c0 1.587 2.646 1.587 3.967 1.587H133.086c1.325 0 3.97 0 3.97-1.587l-.266-38.365h-8.995z"/><path style="opacity:1;fill:url(#l);fill-opacity:1;stroke-width:.103855" d="M129.647 43.656c-.972 2.751-1.25 5.593-1.588 8.466-.969 20.105.156 32.052.242 51.087l.024 5.27h7.673v-3.174c0-.53.002-1.323.529-1.853.795-.793 4.548-.28 6.35-.264-.678-25.542-7.939-50.272-13.23-59.532z"/><path style="opacity:.600394;fill:url(#m);fill-opacity:1;stroke-width:.105833" d="M132.292 37.041c10.055 14.552 15.612 51.066 15.876 66.147h-5.291c-.794-26.194-8.468-51.86-13.23-59.532Z"/></svg>