<svg width="1000" height="1000" viewBox="0 0 264.583 264.583" xmlns:xlink="http://www.w3.org/1999/xlink" xmlns="http://www.w3.org/2000/svg"><defs><linearGradient id="h"><stop style="stop-color:#d6d6d6;stop-opacity:1" offset="0"/><stop style="stop-color:#f2f2f2;stop-opacity:1" offset=".443"/><stop style="stop-color:#d9d9d9;stop-opacity:.60000002" offset="1"/></linearGradient><linearGradient id="b"><stop style="stop-color:#fff;stop-opacity:1" offset="0"/><stop style="stop-color:#fcffff;stop-opacity:0" offset="1"/></linearGradient><linearGradient id="c"><stop style="stop-color:#cf3a55;stop-opacity:1" offset="0"/><stop style="stop-color:#cf3a55;stop-opacity:0" offset="1"/></linearGradient><linearGradient id="a"><stop style="stop-color:#d8af36;stop-opacity:1" offset="0"/><stop style="stop-color:#ffdc73;stop-opacity:1" offset=".3"/><stop style="stop-color:#ffcf40;stop-opacity:1" offset=".511"/><stop style="stop-color:#fbdd86;stop-opacity:1" offset=".596"/><stop style="stop-color:#ffbf00;stop-opacity:1" offset="1"/></linearGradient><linearGradient xlink:href="#d" id="l" x1="490" y1="75" x2="500" y2="370" gradientUnits="userSpaceOnUse" gradientTransform="scale(.26458)"/><linearGradient id="d"><stop style="stop-color:#ccc;stop-opacity:.60000002" offset="0"/><stop style="stop-color:#d9d9d9;stop-opacity:1" offset=".47"/><stop style="stop-color:#bfbfbf;stop-opacity:1" offset="1"/></linearGradient><linearGradient xlink:href="#e" id="i" x1="132.292" y1="13.229" x2="138.906" y2="93.927" gradientUnits="userSpaceOnUse"/><linearGradient id="e"><stop style="stop-color:#e5e5e5;stop-opacity:1" offset="0"/><stop style="stop-color:#f2f2f2;stop-opacity:1" offset=".443"/><stop style="stop-color:#d9d9d9;stop-opacity:1" offset="1"/></linearGradient><linearGradient xlink:href="#f" id="j" x1="127.529" y1="105.172" x2="137.054" y2="105.172" gradientUnits="userSpaceOnUse"/><linearGradient id="f"><stop style="stop-color:#1a1a1a;stop-opacity:1" offset="0"/><stop style="stop-color:#404040;stop-opacity:1" offset=".361"/><stop style="stop-color:#1a1a1a;stop-opacity:1" offset="1"/></linearGradient><linearGradient xlink:href="#g" id="k" x1="127.264" y1="135.202" x2="137.319" y2="135.202" gradientUnits="userSpaceOnUse"/><linearGradient id="g"><stop style="stop-color:#b78100;stop-opacity:1" offset="0"/><stop style="stop-color:#ffba14;stop-opacity:1" offset=".095"/><stop style="stop-color:#ffce52;stop-opacity:1" offset=".377"/><stop style="stop-color:#d6940d;stop-opacity:1" offset=".897"/><stop style="stop-color:#ba7b00;stop-opacity:1" offset="1"/></linearGradient><radialGradient xlink:href="#h" id="m" cx="129.096" cy="49.137" fx="129.096" fy="49.137" r="6.35" gradientTransform="matrix(1.15416 -.11282 1.4398 14.7297 -89.242 -655.854)" gradientUnits="userSpaceOnUse"/></defs><path style="display:inline;fill:url(#i);fill-opacity:1;stroke-width:.105833" d="M132.292 3.969c6.614 13.758 9.26 73.554 9.524 88.635l-3.174.265c-.794 0-1.588.264-2.382 1.058-.793-26.194-4.233-67.998-7.143-78.846.373-3.934 1.785-7.464 3.175-11.112z"/><path style="display:inline;fill:url(#j);fill-opacity:1;stroke-width:.105833" d="M128.323 98.954h7.937l.265 12.435h-8.467z"/><path style="display:inline;fill:url(#k);fill-opacity:1;stroke-width:.105833" d="M127.794 154.781c0 1.588 2.38 1.588 3.704 1.588H133.085c1.323 0 3.704 0 3.704-1.588l-.264-43.392h-8.467z"/><path style="display:inline;fill:url(#l);fill-opacity:1;stroke-width:.103855" d="M129.117 15.081c-1.059 6.88-1.588 16.404-1.588 21.96l1.323 61.913h6.88v-3.175c0-.53.226-1.446.528-1.852-.793-26.194-4.233-67.998-7.143-78.846z"/><path style="display:inline;fill:url(#m);fill-opacity:1;stroke-width:.105833" d="M132.292 3.969c6.614 13.758 9.26 73.554 9.524 88.635l-3.174.265c-.794 0-1.588.264-2.382 1.058-.793-26.194-4.233-67.998-7.143-78.846.373-3.934 1.785-7.464 3.175-11.112z"/></svg>