<svg width="800" height="800" viewBox="0 0 211.667 211.667" xmlns:xlink="http://www.w3.org/1999/xlink" xmlns="http://www.w3.org/2000/svg"><defs><linearGradient id="b"><stop style="stop-color:#1a1a1a;stop-opacity:.60000002" offset="0"/><stop style="stop-color:#4d4d4d;stop-opacity:0" offset="1"/></linearGradient><linearGradient id="a"><stop style="stop-color:#000;stop-opacity:.26478404" offset="0"/><stop style="stop-color:#000;stop-opacity:.55512559" offset="1"/></linearGradient><linearGradient xlink:href="#a" id="c" x1="400.001" y1="300" x2="400.001" y2="135" gradientUnits="userSpaceOnUse"/><linearGradient xlink:href="#b" id="d" x1="400.001" y1="384" x2="400.001" y2="335" gradientUnits="userSpaceOnUse"/></defs><path style="fill:#fff;fill-opacity:.8;stroke-width:6;stroke-linejoin:round" d="m396 43-23 107 19 236 .273 3h15.448l.279-3 19-236-23-107zm4 8 21 99-19 234h-4l-19-234z" transform="scale(.26458)"/><path style="fill:#fff;stroke:none;stroke-width:.9;stroke-linecap:butt;stroke-linejoin:round;stroke-miterlimit:4;stroke-dasharray:none;paint-order:markers fill stroke" d="m398 46-22 104 19 236c-5.515 2.36-9.991 8.006-9.996 14.004 0 8.282 6.714 14.996 14.996 14.996s14.996-6.714 14.996-14.996c-.005-5.998-4.481-11.645-9.996-14.004l19-236-22-104zm2 5 21 99-19 234h-4l-19-234z" transform="scale(.26458)"/><path style="fill:#fff;fill-opacity:.89999998;stroke:url(#c);stroke-width:1.5;stroke-linecap:butt;stroke-linejoin:round;stroke-miterlimit:4;stroke-dasharray:none;paint-order:markers fill stroke" d="m400 50-21 100 16.617 195h8.766L421 150z" transform="scale(.26458)"/><path style="fill:url(#d);stroke:none;stroke-width:.9;stroke-linecap:butt;stroke-linejoin:round;stroke-miterlimit:4;stroke-dasharray:none;paint-order:markers fill stroke;fill-opacity:1" d="m391.543 335 3.807 56.156a10 10 0 0 0-5.348 8.844A10 10 0 0 0 400 410a10 10 0 0 0 10-10 10 10 0 0 0-5.35-8.852L408.457 335h-3.107l-3.768 55.127A10 10 0 0 0 400 390a10 10 0 0 0-1.58.13L394.65 335h-3.107z" transform="scale(.26458)"/><circle style="fill:#999;stroke:none;stroke-width:.743932;stroke-linecap:butt;stroke-linejoin:miter;stroke-miterlimit:4;stroke-dasharray:none;stroke-dashoffset:0;stroke-opacity:1;paint-order:normal" cx="105.832" cy="105.832" r="1.968"/><circle style="fill:#000;stroke:none;stroke-width:.380045;stroke-linecap:butt;stroke-linejoin:miter;stroke-miterlimit:4;stroke-dasharray:none;stroke-dashoffset:0;stroke-opacity:1;paint-order:normal" cx="105.832" cy="105.832" r="1.005"/></svg>