<svg width="800" height="800" viewBox="0 0 211.667 211.667" xmlns="http://www.w3.org/2000/svg"><path style="opacity:1;fill:#000;stroke-width:.735185" d="M104.385 90.787c-.152 4.39.642 2.503 3.4 4.8 2.423 2.225 6.043.46 3.238-4.435.025-.85 1.225-1.19 1.775.013.772 1.512 3.512 3.69-.318 7.882l-1.782 1.008c.117 5.625-4.468 7.707-7.345 3.275l-2.915-5.108c-1.145-1.49-.183-5.425.26-6.625 0 0 1.245-1.092 1.247-6.655l3.065-58.57c.035-.917 1.323-1.117 1.485.008 0 0 .663 39.765-2.11 64.407z"/><path style="opacity:1;fill:#ccc;stroke-width:.735185" d="m104.855 91.12-.895.475s2.73-46.875 1.925-65.975c0 0 .625.008.69 1.17 1.65 29.405-2.337 61.2-1.72 64.33z"/><path style="fill:#fff;stroke-width:.214628" d="M103.618 91.125c1.427-.22 2.12-.117 2.55.375.334.38.09.675-1.018 1.225-.67.338-.82.51-.765.868.04.25-.26 1.067-.665 1.82-.405.754-.705 1.434-.667 1.512.04.077.39.205.777.285.193.015.44-.51.598-.77 0 0 1.402-3.6 1.812-4.058.15-.167.495-.422.77-.567.582-.313 1.55.145 1.782.845.128.375-.017.573-.905 1.218-.81.59-1.13.984-1.382 1.704-.182.516-.388 1.27-.715 1.518-.223.887.23.745.515.99l.615-1.738c.71-1.997.982-2.362 2.247-2.995 1.033-.515 1.75-.385 2.133.393.63 1.985-1.325 3.35-1.715 2.56-.215-.075-.75 1.512-.838 2.48-.065.722 1.09 1.145 1.09 1.145l.93.292c.358 5.605-2.295 7.125-2.942 7.633-.633.49-2.85 1.112-3.363.942-.357-.12-.47-.372-.845-1.917-.34-1.405-.805-2.525-2.222-5.36l-1.79-3.585.587-1.94c.326-1.065.736-2.467.91-3.112.365-1.33.558-1.466 2.515-1.766z"/><path style="opacity:1;fill:#ccc;stroke-width:1.1775" d="M112.45 90.62s1.8.352 2.183 4.23c.302 2.02-1.193 3.555-2.08 4.165 0 0 3.005-3.765-.105-8.395z"/></svg>