<svg width="800" height="800" viewBox="0 0 211.667 211.667" xmlns="http://www.w3.org/2000/svg"><path style="opacity:1;fill:#000;stroke-width:.735185" d="M95.267 100.52c-.357-2.647.646-27.76.296-33.495-1.288-4.2.062-7.138.062-7.138 1.067-6.224 7.14-13.11 7.14-13.11s1.238-14.67 1.675-15.59c-.145-1.1.175-2.917.175-2.917 1.623-.49 5.862.393 5.862.393-.165-4.348-1.365-4.888-1.365-4.888-.34-1.03-.34-1.942-.34-1.942-.347-3.503.243-8.12.243-8.12l-1.543-4.458c-.902-.99-3.134-3-3.134-3-.503-.535 1.494-2.292 1.494-2.292 8.233 5.72 10.93 13.162 10.93 13.162.285 1.802 1.718 3.115 1.718 3.115l1.5-.055 4.872 4.355-2.925 3.75-2.425.413-1.764 2.12 1.36.645-4.708 18.4c-5.043 13.555-4.7 17.592-4.7 17.592.305 7.255 3.007 15.59 3.007 15.59 4.38 15.508 5.703 32.045-6.865 32.045-10.582 0-10.582-12.57-10.564-14.575z"/><path style="opacity:1;fill:#e6e6e6;stroke-width:.735185" d="M110.475 28.668s-.04-3.518-1.55-4.983c0 0-.785-6.642-.028-10.1 0 0-.155-.79-3.46-6.327 0 0 2.626-.138 4.893 3.35 0 0 3.655 3.912 4.008 5.867 0 0-.045 3.735 1.587 4.718.983 1.037 2.275 2.205 2.818 2.5 1.642 1.442 1.642 2.105 2.375 3.052l-1.115.695s-.278-.32-1.59-2.315c0 0-1.545-1.525-2.705-2.55-1.625-.45-4.685-.355-5.8.885.677.9 1.24 1.963 1.24 1.963l.367 2.995c-.272.3-.982.255-1.042.25z"/><path style="opacity:1;fill:#4d4d4d;stroke-width:.735185" d="M109.903 51.265c.094-1.625.724-4.018-1.738-6.39.037-1.86 3.295-4.475 3.295-4.475.028-1.545 2.083-4.223 2.083-4.223.392.878 1.142 1.453 1.142 1.453.05-1.195 1.738-2.805 1.738-2.805.224.312.927 1.412.927 1.412l-1.123 2.03c-.46.473-2.1.743-2.1.743-.414.325-3.504 12.105-3.504 12.105z"/><path style="opacity:1;fill:#666;stroke-width:.735185" d="M95.093 62.01c.05-.775.82-8.432 7.724-15.92 0 0 1.238-16.688 1.28-17.87 1.22-.108 2.02-.1 2.02-.1s-.192 2.515-.417 5.732c-.095 1.333-.695 2.775-.41 4.433.53 3.097.452 8.1.19 11.3-.458 5.59-1.018 8.372-2.575 8.055 1.217-5.728.087-9.13.087-9.13-.912.175-2.17 4.92-2.17 4.92.763 2.147.065 4.035.065 4.035-1.36.887-4.035 5.425-5.795 4.545z"/><path style="fill:#ccc;stroke-width:1.31116" d="M95.565 67.035c1.67 1.095.88 22.398-.43 28.99.115-4.743.57-28.208.43-28.99z"/></svg>