<svg width="800" height="800" viewBox="0 0 211.667 211.667" xml:space="preserve" xmlns="http://www.w3.org/2000/svg"><path style="stroke-width:2.05053;stroke-linecap:square;paint-order:markers stroke fill" d="M0 135.723v75.944h211.667v-64.618c-8.907-.921-20.544-.964-27.213.075-4.081.636-12.675 1.73-19.525 2.502-4.518.51-10.758 1.615-16.542 2.822-2.636.55-6.108 1.34-15.534 3.836a760.37 760.37 0 0 1-15.805 4.022c-1.56.376-4.67 1.299-6.91 1.893l-4.073.927c-7.95-3.595-16.753-5.843-22.527-7.668-2.973-1.55-6.929-2.305-9.811-3.137-8.922-3.563-18.613-5.886-28.534-8.158-9.38-2.488-15.967-4.003-25.406-5.983-1.442-.294-18.993-2.455-19.787-2.457Z"/><path style="fill:#0ff;stroke-width:.274" d="M0 134.958v1.53c.494.243 1.508.516 3.648 1.077 2.265.594 4.453 1.14 4.862 1.212 1.784.318.448.559-3.242.584-2.191.014-4.38.03-4.863.034-.164.001-.294.01-.405.027v.95c.685.108 2.381.07 6.647-.04l7.12-.183 4.43 1.74c7.842 3.078 10.294 4.115 10.06 4.253-.125.074-2.66.151-5.631.172-2.972.02-8.02.116-11.218.213-5.48.166-5.876.144-6.889-.383-.59-.308-1.956-.885-3.033-1.282-.778-.287-1.203-.431-1.486-.493v.903c.306.199.773.42 1.475.703l1.947.786-1.07.195c-.587.108-1.464.202-1.947.211a2.914 2.914 0 0 0-.405.031v1.056c.43.018 1.245-.079 2.904-.274l2.702-.318 8.375 4.254c9.033 4.588 8.652 4.385 8.487 4.553-.061.063-3.698.564-8.082 1.113a3309.53 3309.53 0 0 1-11.347 1.415c-1.717.208-2.59.323-3.039.461v.99a3.96 3.96 0 0 0 .405-.05c1.852-.317 22.854-2.932 23.542-2.932.462 0 2.163.973 4.7 2.688 3.937 2.664 13.975 9.499 14.496 9.871.148.106.21.255.136.331-.074.076-2.016.471-4.315.877-6.053 1.07-9.347 1.664-13.771 2.487a382.12 382.12 0 0 1-6.667 1.178l-2.75.449-1.24-.952a661.14 661.14 0 0 0-6.93-5.258 913.12 913.12 0 0 1-5.227-3.952c-1.134-.866-2.018-1.49-2.379-1.702v.994c.524.547 1.484 1.362 2.972 2.498a2766.38 2766.38 0 0 1 5.04 3.854 174.5 174.5 0 0 0 3.127 2.337c2.25 1.634 3.078 2.35 2.91 2.523-.082.085-2.623.823-5.647 1.64-5.543 1.498-7.62 2.06-8.402 2.408v.995c.336-.066 3.476-.904 7.506-2.008 4.184-1.146 7.729-2.084 7.88-2.084.31 0 .477.153 5.588 5.113 2.063 2.002 3.96 3.828 4.216 4.057.57.512 7.196 6.908 9.983 9.637 1.12 1.097 1.977 2.041 1.904 2.1-.072.057-2.199.704-4.725 1.437a718.686 718.686 0 0 0-6.754 1.989c-1.99.605-13.223 3.914-17.49 5.151-1 .29-2.036.528-2.301.528-.265 0-1.693-1.25-3.173-2.779-1.145-1.182-2.169-2.18-2.634-2.58v1.407c.377.488.99 1.131 1.959 2.053 1.337 1.271 2.43 2.387 2.43 2.48 0 .091-1.093.505-2.43.917-.992.306-1.599.519-1.959.71v1.066c.405-.046 1.15-.297 2.549-.79 1.325-.469 2.582-.812 2.792-.764.078.017 1.438 1.331 3.434 3.295h1.702c-2.08-2.159-3.656-3.812-3.656-3.873 0-.104.7-.388 1.554-.63 2.463-.697 11.032-3.236 13.846-4.103a632.107 632.107 0 0 1 5.943-1.786c1.858-.547 4.826-1.431 6.597-1.965 1.771-.533 3.372-.882 3.558-.774.186.108 1.353 1.197 2.594 2.42a748.578 748.578 0 0 0 5.879 5.696 655.136 655.136 0 0 1 4.747 4.586c.096.094.332.321.441.429h1.34a371.901 371.901 0 0 1-3.407-3.324 1166.133 1166.133 0 0 0-6.425-6.249c-2.196-2.12-3.923-3.927-3.836-4.016.163-.167 2.539-.72 7.424-1.725 1.56-.32 6.466-1.386 10.902-2.367 4.437-.981 8.248-1.784 8.47-1.784.332 0 2.498 1.776 4.404 3.612.238.23 1.945 1.855 3.795 3.611 1.85 1.757 4.275 4.073 5.39 5.146 2.178 2.099 3.982 3.796 7.541 7.096h1.223c-.293-.278-.57-.53-.903-.868a468.178 468.178 0 0 0-4.215-4.008c-11.663-11.008-14.492-13.836-14.385-14.38.122-1.143 13.46-1.387 19.857-3.035l2.77-.289 2.227 2.044a965.114 965.114 0 0 1 2.523 2.321l2.697 2.501c1.32 1.223 3.74 3.483 5.378 5.023 1.638 1.54 3.26 3.04 3.604 3.335.344.294 1.08.972 1.636 1.507.556.535 1.718 1.635 2.583 2.444.864.808 1.526 1.512 1.47 1.564-.056.052-3.14.614-6.856 1.25l-3.446.591h4.649c2.003-.35 5.572-.981 5.82-1.022.491-.081.946.109 2.128 1.022h1.234c-.158-.126-.709-.592-.774-.639-.483-.344-.554-.5-.27-.596.315-.107 18.335-1.56 19.323-1.557.164 0 1.705 1.157 3.424 2.57.07.058.202.162.276.222h1.117c-1.418-1.143-2.709-2.24-2.88-2.453-.273-.338.855-.38 8.045-.297l8.363.097 3.242 2.44.28.213h1.077c-1.44-1.083-2.851-2.157-2.978-2.285-.176-.175.394-.213 1.62-.108 1.04.089 4.262.357 7.16.597 3.872.32 5.464.559 6.007.9.13.082.919.642 1.29.896h1.175c-.18-.133-.854-.606-.933-.668l-.65-.517 1.351.186c.743.102 1.655.23 2.027.284.371.054 2.316.303 4.322.553.438.055.794.107 1.21.162h4.62c-1.728-.61-4.299-2.513-14.596-9.967-4.173-3.022-4.753-3.466-4.653-3.57.046-.046 2.385.55 5.198 1.324 5.09 1.402 6.074 1.83 9.173 3.983a99.216 99.216 0 0 0 2.161 1.47c3.041 1.932 4.155 2.664 6.536 4.298 1.518 1.041 2.83 1.894 2.915 1.894.06 0 .467.251.95.568h.975l-5.755-3.785c-10.24-6.733-9.6-6.283-8.734-6.137.371.062 2.499.593 4.728 1.18 4.197 1.103 4.593 1.294 11.696 5.633.787.48 1.468.873 1.513.873.038 0 1.89 1.093 3.812 2.236h1.052c-1.942-1.162-4.025-2.41-6.126-3.655-2.938-1.741-5.182-3.202-4.985-3.245.197-.044 2.072.288 4.167.736 3.483.747 4.164 1 7.957 2.964 1.862.963 4.025 2.102 6.113 3.2h1.05c-3.59-1.898-7.101-3.738-7.675-4.014-1.128-.542-1.604-1.174-.676-.898.26.077 1.932.351 3.715.608 2.688.388 3.657.587 6.14 1.72v-1.302l-.061-.01c-1.999-.37-3.345-.854-6.08-2.191a1911.2 1911.2 0 0 0-6.812-3.31c-1.816-.875-3.142-1.629-2.947-1.674.194-.044 1.487.173 2.872.484 1.78.4 4.668 1.514 9.836 3.795 1.73.763 1.92.865 3.192 1.434v-.567l-2.016-.914c-2.338-1.06-4.14-1.966-4.006-2.013.547-.19 2.872.459 6.022 1.603v-1.035c-1.176-.288-2.494-.663-3.453-1.041l-2.822-1.114c-.52-.205-2.04-.778-3.377-1.271-3.857-1.424-3.847-1.898.014-.694 2.223.692 6.761 2.314 9.638 3.401v-.55c-.387-.14-.476-.182-.872-.323-5.823-2.086-6.07-2.325-1.692-1.643.368.058 1.373.348 2.564.712v-1.213c-1.762-.021-3.181-.287-7.086-1.332-4.482-1.2-4.845-1.339-3.512-1.35.843-.006 3.999.574 7.294 1.341l3.304.77v-.532a870.739 870.739 0 0 0-3.98-.945l-2.16-.504 1.08-.207c.595-.115 1.689-.221 2.432-.238.347-.008 1.338.128 2.628.34v-1.3c-.826.174-1.791.38-1.798.365-.01-.02-1.053-.22-2.316-.445a666.012 666.012 0 0 1-5.538-1.022l-3.242-.612 2.455-.476c1.35-.262 2.87-.41 3.377-.331.507.08 3.04.459 5.63.843.551.081.935.148 1.432.227v-.486c-2.822-.448-5.778-.98-5.81-1.106-.033-.127.826-.462 1.909-.745 1.083-.283 2.066-.575 2.184-.65.057-.037.717.005 1.717.098v-1.231c-1.573.464-2.809.436-7.22-.014-1.932-.197-3.81-.369-4.175-.381-1.07-.037-.32-.444 2.086-1.132 1.99-.569 2.584-.62 5.404-.453 1.833.108 2.804.192 3.905.28v-.467c-1.74-.132-3.636-.308-4.384-.416l-1.486-.216 2.378-.894c1.492-.56 2.407-.79 3.492-.86v-1.132c-1.272.508-2.123.49-7.626.265l-3.377-.139.946-.457c3.12-1.51 2.835-1.459 8.296-1.474.77-.002 1.19.007 1.761.01v-.441h-.092c-2.806 0-5.103-.06-5.103-.136 0-.074.975-.64 2.167-1.256l2.167-1.12.86.012v-1.021l-1.006.556-4.863.124c-3.358.085-4.78.034-4.593-.165.149-.159 1.06-.747 2.026-1.308l1.756-1.019 4.998-.143c.77-.022 1.104-.01 1.683-.017v-.546l-.417.014c-2.776.092-5.044.078-5.038-.03.006-.11.57-.636 1.254-1.17.684-.536 1.538-1.209 1.9-1.497.384-.306.857-.423 2.3-.462v-.611c-.503-.021-.87-.045-.87-.072 0-.046.37-.466.87-1.011v-.716l-1.804 1.867h-9.687l.504-.625c.277-.344 1.299-1.474 2.27-2.513l1.767-1.887 4.593.187c.908.037 1.631.078 2.358.119v-.451c-.863-.037-1.466-.065-2.54-.109-1.882-.077-3.493-.213-3.58-.303-.087-.09.982-1.242 2.376-2.56l2.534-2.397 1.21.114v-.561c-.209-.039-.33-.072-.329-.096 0-.028.136-.137.329-.28v-.559c-1.297.75-1.975.898-2.628.666-.149-.053-1.699-.31-3.445-.57-1.746-.26-3.17-.552-3.166-.646.005-.095.583-.536 1.284-.98l2.49-1.577 1.216-.768 4.017.521.232.033v-.476c-.426-.06-.77-.116-1.142-.168l-2.297-.321 2.161-1.058c.44-.216.864-.387 1.278-.556v-.62c-.252.177-1.034.58-2.019 1.031-1.328.607-2.612 1.006-3.176.986-1.178-.042-6.475-.78-7.024-.98-.249-.09.425-.569 1.744-1.237l2.148-1.09 4.164.542c2.196.286 3.963.557 4.163.632v-.496c-1.958-.262-6.322-.924-6.563-1.007-.19-.065.576-.456 1.705-.868l2.052-.75 2.806.401v-.513c-.609-.118-1.008-.21-1.045-.248-.052-.054.424-.18 1.045-.314v-.494c-.283.09-.666.192-1.091.282-1.868.397-2.58.385-6.13-.1-1.486-.204-2.874-.377-3.084-.385-.66-.026-.158-.288 1.356-.707 1.292-.357 1.912-.351 5.443.055 1.538.177 2.843.366 3.506.498v-.491c-.846-.116-1.977-.262-2.84-.358-1.007-.113-1.887-.298-1.955-.41-.211-.352 2.637-.566 4.058-.306l.737.134v-1.007c-8.91-.923-20.539-.986-27.213.054-4.082.636-12.675 1.743-19.525 2.516-4.518.51-10.758 1.55-16.542 2.757-2.636.55-6.108 1.427-15.534 3.923a760.697 760.697 0 0 1-15.805 4.022c-1.56.376-4.67 1.171-6.91 1.766l-4.073 1.081-2.681-1.063c-8.01-3.177-10.755-4.149-19.566-6.93a340.08 340.08 0 0 1-4.457-1.438 127.466 127.466 0 0 0-5.133-1.589c-.446-.128-4.459-1.363-8.916-2.745-7.273-2.255-14.953-4.376-19.857-5.485-2.377-.537-8.196-1.952-16.48-4.006-3.79-.94-7.497-1.832-8.24-1.983-1.442-.294-19.94-2.75-20.735-2.752Zm6.78 1.988c.155-.015.438.01.852.074.669.105 2.736.372 4.593.594 6.654.796 9.373 1.26 12.832 2.19 4.285 1.15 3.558 1.193-4.322.252-5.51-.658-13.463-2.323-14.049-2.94-.092-.098-.062-.154.093-.17zm12.012 3.946c.055-.056 1.669.08 3.588.304 1.918.224 5.92.677 8.892 1.006 2.971.33 5.767.763 6.213.963.771.346 5.682 2.122 10.199 3.688 1.152.4 2.093.825 2.093.945s-.151.205-.337.188c-.186-.018-3.134-.327-6.552-.687-3.417-.36-7.368-.774-8.78-.92-2.534-.264-2.949-.396-10.131-3.22a89.085 89.085 0 0 1-2.702-1.106c-.446-.2-1.21-.519-1.697-.71-.488-.191-.841-.394-.786-.45zm27.236 4.163c.9.1 4.486.939 9.768 2.292 3.67.94 10.462 3.103 10.462 3.331 0 .204-.872.082-3.378-.474-1.337-.297-3.586-.794-4.998-1.104-3.55-.781-12.372-3.733-12.073-4.04.016-.018.09-.019.219-.005zm153.397 1.63c1.767-.02 4.839.164 6.372.427l1.08.185-.81.188c-1.832.426-9.42-.258-7.869-.71.194-.056.638-.084 1.227-.09zm-168.003.443 6.544 3.059c3.6 1.682 7.383 3.447 8.41 3.92 1.026.475 1.816.911 1.756.97-.061.06-4.67.31-10.242.555-5.572.245-10.86.483-11.752.528-1.609.082-1.681.05-9.86-4.166-4.532-2.337-8.18-4.267-8.105-4.288.375-.107 2.351-.165 12.367-.363zm159.46.09c1.863.051 1.993.294.497.755-1.068.33-2.152.342-5.71.064-3.274-.256-1.749-.702 2.77-.81a49.238 49.238 0 0 1 2.444-.01zm5.004.285c.387.01.833.034 1.371.073 5.45.388 6.13.643 3.326 1.245-1.427.307-1.746.32-3.026.119-.371-.059-1.83-.2-3.242-.314l-2.567-.207 1.457-.514c.904-.32 1.522-.43 2.681-.402zm-160.88.053c.05-.051 2.635.154 5.743.456 3.108.303 7.354.694 9.434.87 3.16.266 4.093.455 5.673 1.147 3.758 1.644 14.321 6.404 14.431 6.502.223.2-2.693.012-11.189-.718l-8.645-.743-2.026-.987c-1.115-.542-4.61-2.212-7.768-3.71-3.159-1.498-5.702-2.766-5.652-2.817zm147.529.85c.491.007 1.072.03 1.784.065 1.857.092 3.48.23 3.606.307.126.077-.42.37-1.215.653-1.363.484-2.154.561-3.742.365-.371-.046-1.648-.173-2.837-.28l-2.16-.198 1.485-.507c.939-.32 1.604-.43 3.079-.406zm-5.76.307c.156.017.25.067.25.145 0 .149-.446.27-.991.27-1.158 0-1.119-.128.113-.37.252-.049.472-.063.628-.045zm14.337.22c.333.014.712.047 1.168.093 1.193.123 2.292.244 2.44.27.149.025.933.061 1.743.079 1.764.038 1.576.305-.782 1.107-.958.325-1.808.578-1.891.56-.565-.117-5.95-.768-6.477-.783-.915-.026-.552-.293 1.247-.917.976-.34 1.555-.453 2.552-.41zm8.352.701 4.038.495c2.221.272 4.002.532 3.957.578-.044.045-.922.397-1.95.78-1.03.384-2.236.682-2.683.662-1.953-.088-7.134-.894-7.015-1.092.072-.12.923-.489 1.892-.82zm-21.477.38c.527.013 1.154.042 1.927.085 2.005.11 3.542.292 3.417.402-.126.11-.996.535-1.934.943-.939.408-1.79.723-1.891.7-.102-.023-1.62-.23-3.373-.458-1.754-.23-3.09-.508-2.972-.62.12-.11.867-.42 1.663-.685.92-.307 1.584-.408 3.163-.367zm-8.615 0c.393-.007.806-.004 1.233.008 2.506.072 2.681.11 1.827.397a39.12 39.12 0 0 1-1.351.43c-.223.063-1.56.046-2.972-.039l-2.566-.153 1.144-.357c.528-.164 1.509-.266 2.685-.285zm-6.313.35c.205.015.226.062.052.143-.509.235-3.326.406-3.084.187.062-.056.902-.178 1.868-.27.566-.054.958-.073 1.164-.06zm21.935.13 3.766.435c2.07.239 3.8.47 3.842.513.042.044-.619.442-1.47.885-1.927 1.004-3.575 1.102-7.218.429-1.486-.275-2.763-.523-2.837-.552-.074-.028.777-.424 1.891-.88zm-125.268.087c.139-.048 1.817.225 3.73.605 1.912.38 5.24 1.015 7.395 1.412 3.076.566 4.584 1.012 7.023 2.073 1.71.744 4.93 2.11 7.16 3.036 4.015 1.668 4.214 1.956.945 1.372-.817-.146-3.99-.683-7.053-1.194l-5.568-.928-4.699-2.121c-8.42-3.802-9.188-4.168-8.933-4.255zm99.365.886c.555.007.912.044.91.12 0 .1-.7.403-1.553.673-1.542.489-4.265.596-5.873.232-.806-.183-.804-.186.405-.527.984-.278 4.444-.52 6.11-.498zm34.792.073 4.133.5c2.274.275 4.134.581 4.134.682 0 .1-1.003.646-2.23 1.213-1.225.567-2.288 1.015-2.363.995a225.29 225.29 0 0 0-3.512-.58c-1.858-.298-3.474-.637-3.591-.753-.118-.117.606-.627 1.607-1.134zm-22.868.088 3.581.408c1.97.225 3.632.461 3.694.524.061.064-.71.58-1.714 1.148-1.005.568-2.196 1.073-2.648 1.123-.674.075-6.046-.732-6.958-1.044-.14-.049.711-.554 1.894-1.124zm-7.203.036c.524-.004 1.134.003 1.865.02l3.648.085-1.842.903c-1.162.57-2.21.888-2.837.864-1.892-.074-5.452-.573-5.452-.765 0-.106.638-.412 1.418-.681.853-.294 1.631-.413 3.2-.426zm15.915 1.019 3.31.467c5.104.72 5.032.651 2.305 2.18-2.27 1.273-2.495 1.36-3.049 1.162-.149-.053-1.776-.377-3.617-.719-3.778-.702-3.772-.681-.638-2.247zm-28.859.559c.653-.004 1.467.01 2.517.032l2.432.05-2.027 1.085c-1.749.936-2.247 1.078-3.646 1.044-3.374-.083-4.999-.246-4.999-.502 0-.146.186-.265.414-.265.228 0 1.032-.32 1.786-.714 1.061-.553 1.565-.72 3.523-.73zm6.866.166c.205.08 1.397.228 2.65.327 1.252.098 2.678.263 3.168.366.878.185.857.205-1.6 1.498-1.369.72-2.519 1.294-2.556 1.274-.097-.052-2.735-.509-4.923-.851l-1.883-.295 2.385-1.233c1.312-.678 2.554-1.167 2.759-1.086zm-12.589.473c.54.014.406.146-.675.659-.85.403-2.1.696-3.377.792-2.001.15-2.014.147-1.081-.276 1.11-.502 4.165-1.202 5.133-1.175zm44.15.338c.255-.005.535.016.886.051 1.739.174 6.65.966 6.772 1.092.045.047-1.015.726-2.356 1.51-2.398 1.403-2.577 1.477-3.118 1.29-.15-.052-1.821-.379-3.715-.727-1.895-.349-3.445-.704-3.445-.789 0-.085.978-.69 2.172-1.342 1.507-.822 2.04-1.071 2.804-1.085zm-23.789.107 3.734.506c2.053.278 3.732.596 3.732.707 0 .11-.988.776-2.197 1.48-1.208.704-2.393 1.265-2.634 1.247-1.288-.098-7.056-1.238-7.056-1.395 0-.102.334-.323.743-.492.409-.17 1.404-.7 2.21-1.18zm32.385 1.118 3.953.497c2.174.272 4.056.59 4.183.704.126.115-.36.557-1.081.983a48.81 48.81 0 0 0-2.44 1.556c-.62.43-1.29.77-1.485.754-1.081-.085-7.785-1.476-7.78-1.614.005-.09 1.053-.775 2.33-1.521zm-54.502.304 3.335.194c1.834.106 3.232.291 3.107.411-.126.12-1.132.701-2.237 1.29-1.105.59-2.32 1.073-2.701 1.073-.842 0-5.396-.377-5.961-.493-.223-.046.689-.622 2.026-1.28zm31.61.022c.738.019 1.69.219 3.32.521 2.119.394 3.75.82 3.625.95-.125.128-1.186.856-2.36 1.618-1.172.762-2.258 1.375-2.413 1.362-.155-.012-.95-.184-1.767-.38-.818-.196-2.485-.583-3.705-.86l-2.218-.504 1.504-.932c2.158-1.337 2.787-1.808 4.015-1.775zm-34.813.348c.197-.01.335-.006.396.014.153.053-.538.514-1.536 1.025-1.64.84-2.088.94-4.68 1.04-2.994.117-2.981.134-.618-.902.815-.358 5.063-1.107 6.438-1.177zm-56.136.04c1.21.089 9.227 2.7 13.411 4.397 2.675 1.085 4.914 2.021 4.976 2.081.062.06-.13.11-.428.11-.297 0-.609-.072-.693-.158-.084-.087-1.768-.595-3.742-1.13-1.975-.536-4.814-1.48-6.31-2.098a1397.27 1397.27 0 0 0-5.098-2.095c-1.308-.535-2.328-1.025-2.264-1.09.017-.018.068-.023.148-.017zm-35.433.031c1.754-.027 2.26.053 2.459.226.252.22 2.585 1.75 5.186 3.401 2.6 1.652 6.6 4.206 8.887 5.676l4.16 2.672-1.999.192c-1.099.105-4.55.388-7.671.629-3.12.24-6.525.507-7.565.593-1.04.086-3.04.246-4.443.357l-2.552.201-6.769-4.615a1960.135 1960.135 0 0 0-9.2-6.243c-2.882-1.93-2.688-1.78-2.528-1.945.071-.073 5.508-.399 12.082-.724 5.196-.257 8.2-.393 9.953-.42zm4.353.019c.134-.016.318-.012.522.016.41.054 2.384.228 4.39.385s6.261.492 9.456.745l5.809.46 7.834 4.726c9.57 5.774 10.13 6.127 10.13 6.388.001.209-.318.224-1.08.053-.222-.05-4.234-.233-8.914-.407-4.68-.174-9.002-.41-9.602-.525-.73-.139-4.023-2.092-9.92-5.882-4.855-3.12-8.832-5.757-8.837-5.859-.002-.05.08-.085.212-.1zm98.524.066 2.432.338c4.047.563 4.457.64 4.457.831 0 .102-.966.711-2.148 1.354-1.618.88-2.437 1.163-3.31 1.144-1.157-.025-5.12-.677-5.889-.97-.252-.095.512-.633 2.026-1.425zm32.014 1.058c.432-.02.932.082 1.756.238.298.057 1.787.325 3.31.597 1.523.272 2.768.57 2.766.66-.002.092-.397.434-.878.761-.481.328-1.543 1.087-2.36 1.689l-1.487 1.094-1.485-.334c-3.106-.698-6.605-1.546-6.674-1.617-.04-.04.99-.789 2.288-1.662 1.517-1.02 2.045-1.393 2.764-1.426zm-23.65.11 1.761.302c.97.166 2.613.437 3.653.602 2.297.363 2.602.592 1.434 1.078-.491.205-.954.446-1.029.536-.074.09-.753.566-1.509 1.058-.756.492-1.485.878-1.62.86a49.03 49.03 0 0 1-1.328-.25l-3.58-.705c-1.374-.271-2.497-.566-2.495-.655.002-.09 1.064-.762 2.358-1.495zm-29.966.427c.214.04.099.175-.446.385-.355.136-1.253.33-1.996.431-1.717.234-1.09-.202.917-.637.77-.167 1.311-.22 1.525-.18zm-53.724.487c.476.014 1.963.243 5.219.79 1.709.287 4.322.716 5.808.952 6.385 1.018 5.624.711 12.963 5.219 3.718 2.283 7.517 4.608 8.443 5.166.926.559 1.686 1.11 1.689 1.225.006.253-.193.236-2.427-.2-.966-.188-3.155-.556-4.863-.817-1.71-.26-4.59-.722-6.402-1.027-3.68-.618-2.142.165-13.775-7.003-2.404-1.482-4.435-2.694-4.513-2.694-.138 0-2.047-1.287-2.31-1.557-.037-.04.009-.059.168-.054zm116.181.46 3.91.714c2.151.393 3.992.714 4.09.714.49 0-.016.59-2.092 2.432-1.5 1.332-2.484 2.006-2.903 1.99-.868-.034-7.796-1.968-7.783-2.173.01-.157.79-.768 3.532-2.769zm-54.33.073c.348.006.756.038 1.296.082 1.2.1 2.715.255 3.365.347l1.181.166-2.255 1.208c-1.241.665-2.381 1.25-2.533 1.302-.314.106-6.652-.573-6.804-.73-.055-.056 1.017-.635 2.381-1.287 1.84-.88 2.33-1.105 3.37-1.088zm-3.993.055c.527-.005.853.01.853.044 0 .07-.942.58-2.094 1.134-1.983.952-2.254 1.008-5.133 1.055-1.671.027-3.04-.024-3.04-.113 0-.09 1.004-.55 2.23-1.025 1.798-.697 2.79-.894 5.133-1.021a49.348 49.348 0 0 1 2.051-.074zm34.776.248c.444-.036.927.044 1.666.18 3.346.618 6.016 1.243 6.004 1.406-.007.089-1.073.88-2.37 1.76-1.297.878-2.476 1.59-2.622 1.584-.145-.007-.75-.176-1.344-.374-.595-.198-2.294-.649-3.775-1-3.004-.714-2.97-.554-.45-2.154 1.522-.965 2.151-1.344 2.89-1.402zm-23.364.325 3.298.5c1.814.276 3.48.535 3.704.577.222.042-.368.49-1.312.995a122.74 122.74 0 0 0-2.642 1.455c-1.068.617-.823.62-4.151-.06-1.412-.288-2.84-.538-3.174-.555-.335-.017-.609-.113-.609-.214 0-.1 1.1-.749 2.443-1.44zm-20.568.177c.692-.01-.062.44-1.743 1.037-1.568.557-5.355.993-5.111.589.298-.497 4.946-1.599 6.854-1.626zm76.913.913c.186-.026.372-.007.602.027 4.355.665 6.687 1.097 6.873 1.272.19.179-1.253 1.731-3.973 4.276-.43.402-.917.722-1.081.71-.378-.028-6.932-1.608-7.405-1.786-.21-.079.643-1.033 2.127-2.377 1.742-1.578 2.3-2.046 2.857-2.122zm-47.587.19 3.782.785 3.782.784-1.09.712c-2.231 1.455-4.299 2.382-4.853 2.176-.298-.11-1.969-.486-3.715-.835-1.746-.349-3.173-.712-3.17-.806.001-.095 1.187-.768 2.634-1.494zm23.322.017 3.603.841c4.45 1.038 4.598 1.083 4.496 1.37-.045.129-1.021.993-2.169 1.922-1.49 1.206-2.3 1.68-2.837 1.658-.837-.035-7.611-2.063-7.876-2.358-.092-.103-.017-.244.167-.311.185-.068 1.3-.798 2.476-1.623zm-52.266 1.098c1.778 0 3.157.078 3.064.174-.093.096-1.232.659-2.531 1.25-2.314 1.055-2.427 1.077-5.594 1.077-1.778 0-3.156-.079-3.063-.175.093-.096 1.232-.658 2.53-1.25 2.314-1.055 2.428-1.076 5.594-1.076zm5.208.026 3.425.312c1.884.172 3.425.385 3.425.474 0 .088-1.142.692-2.536 1.341-2.258 1.053-3.69 1.375-4.623 1.041-.148-.053-1.346-.18-2.661-.283-1.316-.103-2.288-.277-2.162-.387.127-.11 1.333-.718 2.68-1.35zm-33.543.303c.054-.057.791.104 1.637.357s1.712.391 1.925.307c.213-.084.327-.053.254.07-.074.123 2.119.832 4.873 1.576 4.674 1.264 5.207 1.476 8.022 3.199a2620.21 2620.21 0 0 0 7.743 4.711c2.6 1.576 4.843 2.973 4.984 3.105.255.238-.24.3-.797.1-.148-.055-2.944-.809-6.213-1.678-3.27-.869-6.187-1.706-6.484-1.86-1.43-.744-16.031-9.798-15.944-9.887zm21.346.042c.505-.024.832-.026.858 0 .052.054-.424.327-1.057.607l-2.232.987c-1.067.472-5.317.848-5.838.517-.625-.398 3.7-1.745 6.34-1.974.74-.065 1.424-.112 1.929-.137zm44.494.263 1.663.375c.914.206 2.743.662 4.063 1.012l2.4.638-2.13 1.412c-3.22 2.136-2.738 2.079-7.06.835-2.118-.61-3.85-1.193-3.85-1.295 0-.103.274-.331.608-.507.334-.176 1.44-.804 2.457-1.395zm-23.829.205 3.649.59c2.007.325 3.649.676 3.649.781 0 .105-1.125.714-2.5 1.354-1.374.64-2.68 1.152-2.903 1.137-.735-.048-6.617-1.147-6.732-1.258-.141-.136-.309-.04 2.475-1.427zm47.737.28 4.124 1.091c2.268.6 4.171 1.14 4.229 1.199.058.06-.952 1.192-2.243 2.518-1.291 1.325-2.415 2.395-2.497 2.378-.278-.06-8.254-3.125-8.371-3.218-.063-.05.08-.246.32-.435.24-.19 1.336-1.062 2.436-1.939zm-38.489 1.397c.747.025 1.693.22 3.262.526 2.05.399 3.751.828 3.782.956.031.127-1.099.842-2.51 1.59-1.412.746-2.628 1.346-2.702 1.332-.074-.014-1.654-.385-3.512-.824-1.857-.44-3.56-.837-3.782-.882-.223-.046.42-.55 1.43-1.121 2.098-1.188 2.788-1.62 4.032-1.577zm23.757.305 1.397.414c4.286 1.267 6.659 2.11 6.532 2.321-.079.131-1.11.936-2.292 1.788-1.182.852-2.366 1.537-2.63 1.523-.391-.021-6.737-1.966-8.152-2.499-.218-.082.78-.854 2.385-1.844zm-56.215.364a6.854 6.854 0 0 1 1.06.004c.817.068 2.155.139 2.972.158l1.486.034-1.891.93c-1.04.512-2.074.925-2.297.919-.619-.019-3.242-1.103-3.242-1.34 0-.339.877-.63 1.912-.705zm7.872.082 3.265.32c1.796.175 3.305.358 3.352.407.048.05-1.087.64-2.523 1.313-1.435.673-2.683 1.234-2.773 1.248-.468.07-6.494-.604-6.626-.742-.084-.088 1.075-.697 2.576-1.353zm72.295.27 3.2.77c1.76.422 3.587.846 4.06.94l.86.172-1.089 1.25c-.6.688-1.636 1.845-2.305 2.57-.668.727-1.295 1.31-1.392 1.297-.588-.08-7.943-1.898-8.027-1.984-.056-.058.977-1.21 2.296-2.56zm-39.254.64 3.105.837c1.708.46 3.578.969 4.157 1.13l1.052.29-2.538 1.499c-1.396.824-2.599 1.491-2.673 1.481-.074-.01-1.935-.526-4.135-1.147-4.55-1.285-4.505-1.167-1.131-2.949zm-23.66.286c.53.01 2.178.241 3.664.514 2.347.432 2.613.535 2.027.784-.372.158-1.457.677-2.412 1.154-.955.476-1.989.85-2.297.832-1.522-.093-6.639-.932-6.639-1.088 0-.47 4.502-2.217 5.657-2.196zm8.482 1.108 2.454.576c1.35.317 3.001.73 3.67.916l1.216.339-1.391.735c-.766.405-2.042.99-2.837 1.302-.796.31-1.507.553-1.581.54-.075-.014-.5-.128-.945-.254-.446-.125-2.005-.501-3.464-.835-1.459-.334-2.593-.669-2.52-.744.073-.075 1.317-.685 2.765-1.356zm-25.895.345c.083-.019.2 0 .342.06.26.11 1.932.734 3.715 1.388 4.63 1.698 6.002 2.28 7.835 3.325.891.508 2.228 1.265 2.971 1.683 1.112.624 4.764 2.84 9.456 5.737 1.102.68.363.602-1.756-.186-.966-.36-3.157-1.157-4.87-1.773-1.712-.615-4.143-1.743-5.403-2.506-3.121-1.891-4.7-2.853-8.58-5.224-1.824-1.116-3.435-2.028-3.579-2.028-.144 0-.262-.14-.262-.308 0-.092.048-.149.131-.168zm66.06.008c1.226.23 7.853 2.772 7.775 2.982-.042.114-1.073 1.032-2.291 2.041-1.219 1.01-2.313 1.828-2.432 1.818-.184-.015-6.483-2.574-8.033-3.264-.446-.198-.168-.487 1.891-1.967 1.81-1.302 2.583-1.705 3.09-1.61zm-15.871 1.027c.798-.098 1.627.24 3.601.879 1.919.62 3.765 1.19 4.101 1.267.337.077.673.24.747.364.074.124-.96.859-2.296 1.634-1.337.775-2.706 1.398-3.043 1.384-.337-.013-2.362-.623-4.5-1.354l-3.887-1.33 1.86-1.11c1.852-1.104 2.619-1.637 3.417-1.734zm-43.778.009c.197 0 .487.088.753.265.33.219.294.27-.187.274-.326.002-.667-.121-.759-.274-.106-.177-.003-.265.193-.265zm-52.068.27c.578.003 1.175.346 2.056 1.18.684.648 1.783 1.677 2.443 2.288 6.107 5.651 7.257 6.78 7.257 7.119 0 .113.17.246.378.295.419.1 8.76 7.755 8.79 8.067.023.251-.622.349-7.142 1.088-2.688.304-9.419 1.117-12.867 1.155-.353.227-1.344.492-2.204.588l-1.564.176-2.074-2.019c-2.513-2.444-5.25-5.054-11.009-10.49-1.188-1.123-2.413-2.302-2.721-2.62-.308-.32-1.55-1.504-2.762-2.634-1.21-1.13-2.148-2.142-2.083-2.25.066-.11 1.612-.289 3.437-.399 1.825-.11 3.866-.25 4.534-.312 4.737-.432 14.863-1.236 15.531-1.232zm3.161.004c.548-.005 5.35.184 10.672.419l9.675.428 1.322 1.309c1.758 1.74 1.711 1.696 9.485 8.82a792.415 792.415 0 0 1 5.367 4.97c1.318 1.236 2.504 2.289 2.635 2.34.13.05.237.207.237.347 0 .15-4.194.254-10.198.25l-10.199-.004-.929-.842c-4.211-3.85-8.173-7.965-12.406-11.793a404.117 404.117 0 0 1-4.846-4.508l-1.811-1.728zm52.158.354c.587.019 1.499.127 2.978.33 1.966.272 3.668.58 3.783.685.115.105-.56.505-1.5.889l-1.709.697-2.5-1.018c-2.158-.877-2.443-1.067-2.075-1.381.177-.15.437-.221 1.023-.202zm25.064.133 2.496.721c1.373.397 3.133.869 3.91 1.05 1.13.261 1.354.402 1.116.698-.165.203-.403.37-.53.37-.128 0-1.14.438-2.251.973-1.11.535-2.056.962-2.1.95a10.605 10.605 0 0 1-.35-.113c-.149-.05-1.79-.498-3.647-.996-1.858-.497-3.481-.996-3.607-1.11-.127-.112.056-.296.405-.408.35-.111 1.518-.637 2.596-1.168zm-55.062.743c.141-.146 15.51 2.204 17.008 2.6.396.105 3.428 2.63 6.737 5.61 3.309 2.98 6.845 6.124 7.858 6.985 1.013.862 2.294 2.019 2.846 2.57.553.553 1.086 1.004 1.186 1.004.1 0 .252.188.337.417.086.23.13.4.097.379-.154-.1-11.734-1.334-14.205-1.514-3.301-.24-2.182.528-10.574-7.254-.669-.62-2.492-2.287-4.052-3.705-1.56-1.418-3.144-2.903-3.518-3.3-.375-.398-1.398-1.38-2.275-2.181-.877-.802-1.527-1.527-1.445-1.611zm38.934.501c.786-.146 7.75 1.261 7.744 1.564-.002.094-.763.457-1.69.808-.926.35-2.083.82-2.571 1.042-1.086.495-1.098.494-3.435-.137-2.052-.554-4.188-1.428-4.188-1.714 0-.098.335-.3.743-.448.409-.149 1.168-.428 1.688-.621.52-.194 1.29-.416 1.71-.494zm56.375.133 1.69.338c3.337.67 6.417 1.455 6.404 1.635-.007.101-.906.903-1.998 1.782-1.677 1.35-2.148 1.593-3.027 1.567-1.652-.05-7.478-1.21-7.562-1.507-.042-.148.375-.597.926-.997a64.54 64.54 0 0 0 2.285-1.773zm-146.042.379c.85.105 1.71.979 5.829 4.96a627.204 627.204 0 0 0 5.362 5.132c.944.883 1.926 1.812 2.182 2.065.257.252 1.67 1.584 3.14 2.96a966.21 966.21 0 0 1 3.867 3.633l1.193 1.134-2.806.591c-1.544.326-4.813 1.025-7.264 1.555-2.452.53-7.415 1.598-11.03 2.374a745.978 745.978 0 0 1-6.618 1.405c-.027-.003-1.087-1.035-2.357-2.292-1.27-1.258-3.155-3.1-4.188-4.093-1.034-.994-3.946-3.815-6.472-6.27-2.525-2.454-5.401-5.205-6.39-6.113-.99-.908-1.81-1.777-1.824-1.933-.014-.155 2.68-.764 5.986-1.353 3.306-.59 6.498-1.178 7.092-1.31 1.91-.42 11.923-2.21 13.332-2.381.401-.05.683-.1.966-.064zm130.735.327 1.644.68a178.75 178.75 0 0 0 4.277 1.667c1.449.543 2.632 1.064 2.632 1.157-.001.094-1.02.764-2.265 1.49s-2.49 1.312-2.768 1.302c-.448-.016-8.443-2.915-8.663-3.141-.049-.05 1.089-.78 2.527-1.623zm-15.394.449 3.937 1.295c2.165.713 4.03 1.384 4.144 1.492.114.109-.9.72-2.253 1.36-1.353.64-2.723 1.156-3.044 1.148-.558-.014-7.95-2.329-8.175-2.56-.06-.062 1.13-.702 2.642-1.424zm-16.341.562 3.732 1.023c2.053.563 3.892 1.109 4.087 1.213.208.112-.749.61-2.324 1.211-1.472.562-2.787 1.003-2.92.98-1.071-.185-7.934-2.072-7.934-2.181 0-.076 1.207-.613 2.68-1.192zm56.167.287 4.67.076 4.672.077-2.02 1.563-2.02 1.564-4.653.12c-2.559.065-4.704.067-4.766.003-.063-.064.838-.856 2.002-1.76zm-84.858.643c.311-.043 1.37.182 2.79.609.67.201 3.677 1.024 6.684 1.83 5.099 1.364 5.556 1.54 6.78 2.601a367.91 367.91 0 0 0 4.501 3.779c3.246 2.689 6.573 5.508 8.2 6.95.856.77.854.907 2.197 2.075.202.27.263.739 0 .884-.071-.072-.798-.212-1.615-.311-1.348-.164-9.614-1.634-10.96-1.949-.306-.072-.806-.353-1.11-.625l-2.27-2.022c-.947-.84-2.21-1.976-2.808-2.524-.599-.547-1.453-1.31-1.899-1.695a336.728 336.728 0 0 1-3.242-2.887 18728.09 18728.09 0 0 0-4.727-4.252 217.787 217.787 0 0 1-2.567-2.33c-.077-.075-.057-.12.046-.133zm18.175.924c.11-.015.289.079.457.251.224.23.539.419.7.419.16 0 .919.305 1.686.678a55.71 55.71 0 0 0 2.842 1.266c.796.323 2.163 1.018 3.036 1.545.874.526 1.641.958 1.705.958.063 0 .78.437 1.593.972.813.535 1.541.973 1.618.973.077 0 1.071.625 2.21 1.39 1.986 1.334 2.535 1.977.71.832-.487-.305-1.122-.555-1.41-.555-.288 0-1.166-.258-1.951-.574-1.874-.754-13.45-7.817-13.28-8.102a.11.11 0 0 1 .084-.053zm20.017.641 4.183 1.312c2.3.722 4.181 1.385 4.18 1.473 0 .09-1.078.569-2.393 1.065-1.316.497-2.683.896-3.038.886-.553-.015-6.888-1.881-8.075-2.378-.36-.151-.36-.185 0-.3.223-.073 1.471-.565 2.774-1.095zm16.19.062 3.855 1.404c2.12.771 4.067 1.466 4.327 1.544.26.077.473.22.472.317 0 .097-1.083.645-2.406 1.218-1.323.573-2.63 1.03-2.903 1.017-.274-.014-2.383-.66-4.686-1.436l-4.188-1.411 2.765-1.326zm16.02.248c.333.002 2.246.313 4.252.692 2.006.379 3.685.69 3.73.691.375.015-.55.696-2.233 1.646-2.04 1.152-2.498 1.235-4.739.857-.669-.113-2.188-.351-3.377-.53-1.189-.179-2.332-.386-2.541-.46-.5-.179 4.113-2.9 4.908-2.896zm-47.616.073c.14.018.353.077.642.19.396.155.99.332 1.32.394.33.063 1.118.252 1.75.422 3.542.95 3.472.922 2.904 1.157-1.077.445-1.885.305-4.023-.699a56.193 56.193 0 0 0-1.895-.832c-.87-.36-1.117-.684-.698-.632zm66.322 1.263-.817.54c-.45.296-1.544.931-2.432 1.413l-1.614.875h-4.31c-2.653.001-4.21-.097-4.052-.256.141-.142 1.03-.706 1.975-1.253l1.717-.994 4.767-.162zm-57.722 1.195c.727-.012 1.653.226 3.586.802 5.63 1.675 5.546 1.605 2.766 2.34-.913.24-1.825.431-2.027.423-.201-.008-1.578-.57-3.06-1.25s-2.85-1.236-3.039-1.236c-.657 0-.342-.503.505-.807.468-.168.833-.265 1.27-.272zm16.686.216 4.408 1.5 4.407 1.5-2.687 1.015c-2.816 1.064-2.891 1.086-3.072.9-.062-.064-1.633-.568-3.49-1.12-4.357-1.298-5.001-1.56-4.544-1.853.196-.125 1.396-.613 2.667-1.084zm-30.613.209c.146-.006.491.093.892.266.534.23 3.283 1.219 6.108 2.198 5.027 1.744 5.874 2.284 7.896 3.92l5.555 4.497c1.366.417 4.877 4.032 6.303 4.844.571.521 1.361.936 2.074 1.463.274.34.26.417-.083.417l-11.83-3.036c-1.944-.757-2.879-2.53-4.73-4.19-.064.133-1.196-.784-5.665-4.585-1.079-.917-3.002-2.542-4.275-3.612-1.273-1.07-2.316-2.033-2.32-2.14 0-.026.027-.04.075-.042zm46.788.347 4.13.622c2.516.379 4.09.735 4.034.912-.052.16-1.058.697-2.236 1.193-1.177.496-2.262.893-2.41.882-1.123-.082-7.965-1.253-8.09-1.384-.086-.09.907-.629 2.208-1.195zm28.803 1.01c.647.01 1.056.038 1.056.085 0 .11-.896.657-1.99 1.215l-1.992 1.013-4.83.014-4.831.014 2.026-.993c1.114-.546 2.452-1.038 2.972-1.095 1.574-.172 5.65-.286 7.59-.253zm-18.801.419 4.458.012 4.457.013-2.026.997-2.026.997-4.593.127c-2.526.07-4.504.033-4.396-.083.108-.115 1.08-.626 2.161-1.136zm-33.027.685c.585.043 1.539.271 2.714.656a143.3 143.3 0 0 0 4.175 1.296c.928.265 1.688.57 1.688.679 0 .267-2.932.975-3.143.758-.092-.095-.51.01-.93.233-.903.48-.926.48-2.14.015-.52-.2-1.433-.514-2.027-.7-1.85-.577-2.564-.91-2.43-1.133.07-.117-.023-.209-.207-.202-.896.034-1.297-.1-1.13-.377.1-.167.41-.24.691-.165.28.076.442.024.359-.114-.139-.231.314-.359 1.16-.328.185.007.277-.085.205-.204-.071-.12.18-.297.557-.395.108-.028.262-.034.458-.02zm-8.631.24c.122-.127 2.12.81 3.295 1.542.445.278.889.46.984.405.096-.055.244.086.33.314.19.51.27.531-1.12-.29-.635-.376-1.266-.684-1.402-.684-.344 0-2.216-1.155-2.087-1.288zm25.398.414 4.207.592c4.21.594 4.758.721 4.054.942-.207.065-1.264.443-2.35.84-1.086.397-2.241.71-2.567.695-.544-.026-7.086-.968-8.022-1.156-.223-.045.738-.493 2.136-.997zm25.799 1.16 4.51.006-2.14.965v.001l-2.138.965h-4.602c-2.544 0-4.487-.105-4.345-.236.141-.13 1.145-.567 2.23-.972 1.845-.688 2.273-.737 6.485-.73zm-11.614.254c2.277-.02 4.197.02 4.266.092.069.071-.737.458-1.791.86-1.768.674-2.246.73-6.143.73-2.325 0-4.11-.104-3.97-.232.142-.128.986-.498 1.878-.823 1.357-.493 2.294-.595 5.76-.627zm-34.318.76c.112-.007.323.07.691.229 1.176.506 4.476 2.335 5.376 2.979.408.292.743.461.743.376 0-.086.608.23 1.35.7.744.47 1.352.906 1.352.97 0 .297-.824.019-2.432-.822-.966-.505-2.303-1.202-2.972-1.55-3.558-1.85-4.153-2.217-4.207-2.6-.026-.182-.013-.274.099-.282zm13.955.305c.723-.004 1.68.118 3.527.363 2.08.275 3.954.509 4.164.517.747.03-.019.41-1.809.897-.998.271-2.423.481-3.166.466-1.96-.039-7.345-.907-7.006-1.129.158-.104 1.13-.428 2.161-.72.915-.26 1.405-.39 2.129-.394zm-14.98.653c.123 0 .245.02.338.058.185.077.034.14-.338.14-.371 0-.523-.063-.337-.14a.914.914 0 0 1 .337-.058zm-2.65.094c.018-.004.046 0 .083.015.298.108.906.297 1.351.419.984.275 2.009.833 2.972 1.382.55.011 2.234 1.555 2.825 1.131 1.423.688 3.114 1.684 4.706 2.615l13.02 9.066c.149.248-.23.355-.45.127-.12-.122-3.331-1.035-7.538-2.144-2.824-.769-3.402-1.976-4.868-2.603-.988-.943-1.43-1.18-2.495-2.079-.146 0-.669-.344-1.162-.764a57.465 57.465 0 0 0-2.392-1.876c-.823-.611-1.5-1.247-1.504-1.414-1.461-1.183-2.51-1.653-3.704-2.78-.638-.626-.973-1.068-.844-1.095zm31.94.416c2.184-.053 4.046.012 3.792.241-.141.127-1.015.44-1.942.695-1.788.492-9.527.684-9.527.236 0-.125.882-.439 1.959-.698 1.03-.248 3.535-.42 5.718-.474zm22.784.008c2.86.001 5.2.095 5.198.21 0 .115-1.065.616-2.363 1.115-1.3.498-2.544.885-2.767.86-.223-.025-2.328-.139-4.678-.253-2.35-.113-4.328-.264-4.397-.334-.068-.07.76-.459 1.842-.863 1.87-.7 2.214-.737 7.165-.735zm-13.766.044c.64-.006 1.403.003 2.352.02l4.323.077-2.163.764c-1.421.502-2.625.745-3.512.709-.742-.03-2.748-.125-4.457-.209l-3.106-.153 2.296-.633c1.512-.416 2.344-.559 4.267-.575zm-26.345 1.044c.346.01.81.052 1.382.126 1.118.146 1.979.357 1.912.468-.238.395-1.974.419-3.071.043-1.252-.43-1.262-.67-.223-.637zm-3.536.308c.251-.002.532.12.624.273.211.352-.146.352-.676 0-.349-.232-.342-.27.052-.273zm13.697.582c3.937.03 3.943.031 2.461.42-1.447.379-5.999.435-8.105.099-.937-.15-.934-.153.376-.35.726-.11 3.097-.186 5.268-.17zm11.287.016c2.027.006 3.923.092 4.18.255.151.096-.52.38-1.49.631-1.765.456-3.881.507-8.139.197-2.276-.166-2.196-.308.476-.853.785-.16 2.945-.236 4.973-.23zm-23.546.085c.045-.02.132-.007.252.04.231.091.42.214.42.274 0 .225-.515.1-.674-.165-.047-.079-.044-.13.002-.15zm33.016.173c1.466-.022 3.223.058 5.479.226 2.745.203 2.742.246-.096 1.121-1.956.603-2.83.633-7.604.262-3.65-.285-4.2-.372-3.647-.579 1.789-.672 3.424-.993 5.868-1.03zm-30.75.806c.448 0 11.71 5.535 12.12 5.956.585.6-5.847-1.644-7.233-2.525-.519-.33-1.72-1.003-2.667-1.496-.948-.492-1.951-1.129-2.229-1.415-.493-.507-.493-.52.01-.52zm-59.395.557c7.241 0 9.485.08 9.76.353.196.194 1.937 1.777 3.869 3.518a1646.3 1646.3 0 0 1 5.403 4.89c3.049 2.778 3.561 3.184 3.768 2.972.107-.11.154-.07.104.09-.075.243 3.47 3.567 7.023 6.587 1.069.909 1.003.942-2.25 1.15a1315.122 1315.122 0 0 0-15.264 1.118c-1.471.13-1.5.118-2.972-1.261a994.43 994.43 0 0 0-2.437-2.277c-.523-.486-2.225-2.08-3.782-3.54a341.013 341.013 0 0 0-3.9-3.613c-1.368-1.226-4.454-4.118-6.36-5.962-.818-.79-2.056-1.943-2.751-2.561l-1.265-1.125.826-.17c.454-.093 5.056-.17 10.228-.17zm72.384.028c2.308.006 4.646.09 5.004.249l.54.24-.54.035a27.44 27.44 0 0 0-1.756.228c-.67.106-1.52.167-1.892.136-.371-.031-1.999-.138-3.617-.238-1.857-.115-2.803-.272-2.566-.426.24-.156 2.52-.23 4.827-.224zm-60.937.318c.87-.077 3.504.166 10.645.912l6.301.66 1.018.916a162.78 162.78 0 0 0 5.696 4.915c.966.791 2 1.65 2.296 1.909a491.662 491.662 0 0 0 5.95 5.07c2.817 2.354 5.262 4.5 5.262 4.617 0 .138-8.518.036-13.282-.159l-3.692-.15-1.557-1.39c-5.325-4.751-6.586-5.885-7.691-6.913-.678-.63-1.59-1.46-2.026-1.844-2.318-2.037-7.13-6.362-7.954-7.149-.52-.496-1.037-.902-1.148-.904-.112-.001-.203-.143-.203-.314 0-.09.095-.15.385-.176zm70.319.126c.856-.018 1.84.017 3.05.103 1.858.13 3.895.242 4.526.248 1.727.015 1.385.396-.83.926-1.088.26-2.152.455-2.364.432-4.994-.542-7.06-.741-7.927-.764-1.517-.04-1.016-.333 1.254-.734a14.642 14.642 0 0 1 2.29-.211zm-24.63.525c.06-.014.357.106.935.405.668.347 1.459.666 1.756.71 1 .149 5.033 1.828 6.575 2.739a823.738 823.738 0 0 1 9.77 5.84c1.708 1.04 3.439 2.068 3.844 2.286.406.218.808.513.894.656.156.26-.216.373-.446.137-.066-.068-1.974-.619-4.24-1.224l-4.12-1.102-5.935-4.08c-3.265-2.243-6.028-4.224-6.14-4.402-.11-.178-.75-.622-1.418-.988-1.017-.556-1.575-.952-1.475-.977zm36.595.301c.961-.008 2.264.083 4.56.266 2.768.222 5.215.476 5.438.566.23.093-.533.44-1.757.802-2.316.683-2.954.732-5.268.398a176.61 176.61 0 0 0-4.672-.557c-1.752-.188-3.11-.42-3.017-.515.092-.096 1.085-.382 2.206-.635.93-.21 1.55-.317 2.51-.325zm-28.048.227c.332-.34 16.134 6.252 17.094 7.132.418.383-.346.247-3.228-.573-1.83-.521-4.52-1.686-8.336-3.61-3.098-1.564-5.587-2.89-5.53-2.949zm7.99.141c2.623 0 9.036.617 8.788.847-.427.393-3.523.45-5.884.11-1.337-.195-2.948-.364-3.58-.377-1.924-.04-1.296-.58.675-.58zm-43.365.597c.142.015.344.046.611.088 1.675.263 6.886 1.253 8.24 1.566.669.155 1.763.41 2.432.57.668.158 1.398.285 1.62.28.996-.02 1.714.332 3.432 1.683 1.984 1.565 3.094 3.402 6.22 4.948.264.23 1.756 1.417 3.316 2.637 1.56 1.22 2.985 2.344 3.166 2.497.649.552 1.048.87 2.778 2.207.966.747 1.872 1.463 2.013 1.591.361.328-1.842.236-8.091-.34a1509.43 1509.43 0 0 0-5.697-.518c-.162-.011-1.012-.616-1.891-1.343-1.963-1.626-14.342-12.19-16.147-13.78a868.714 868.714 0 0 0-1.891-1.66c-.431-.377-.537-.473-.11-.426zm55.374.638a39.54 39.54 0 0 1 4.954.273c3.789.442 5.432.642 5.933.72.149.024-.094.159-.54.299-1.752.552-5.36.507-9.456-.118-2.229-.34-3.93-.694-3.782-.787.377-.235 1.462-.366 2.891-.387zm-7.603.768c1.22-.082 9.687.938 9.939 1.197.34.35-4.78.007-7.794-.522-2.766-.486-3.154-.608-2.145-.675zm-.43 1.645c.276-.006 1.182.25 2.63.77 2.248.81 9.52 3.74 11.292 4.552 1.275.584.387.555-2.026-.066-2.058-.53-3.467-1.08-6.708-2.62-1.162-.552-2.166-1.004-2.231-1.004-.066 0-.877-.373-1.804-.83-1.073-.528-1.428-.796-1.152-.802zm-8.682.104c.878.055 7.97 2.709 10.176 3.838 4.447 2.276 12.536 6.627 12.82 6.896.333.316.232.303-2.688-.343-6.062-1.34-5.036-.867-14.531-6.686-1.454-.891-2.698-1.62-2.764-1.62-.174 0-3.103-1.945-3.103-2.06 0-.021.031-.029.09-.025zm22.81.068c.564.005 1.08.038 1.415.098.669.119 3.04.492 5.268.829 2.229.337 4.168.72 4.31.85.32.298-4.945.257-6.606-.052-2.211-.41-7.425-1.37-7.7-1.417-.148-.026.58-.132 1.62-.237.521-.052 1.13-.075 1.694-.07zm-43.957.349c.815.059 4.207 1.043 5.41 1.457.088.128.878.29 1.756.36.879.07 1.639.251 1.689.405.05.153.55.279 1.113.279.791 0 1.426.3 2.8 1.32a367.51 367.51 0 0 0 5.313 3.82 338.317 338.317 0 0 1 5.755 4.162c3.095 2.314 4.798 3.48 5.083 3.48.134 0 .243.117.243.26 0 .143.245.339.545.437.299.097.474.293.389.435-.086.142-.24.241-.342.22-.213-.044-4.909-.746-6.13-.917-.446-.062-1.9-.261-3.23-.441l-2.421-.327-4.134-3.237c-7.761-6.077-8.373-6.573-9.423-7.64-1.075-1.075-2.68-1.772-3.824-2.934-.961-.953-1.058-1.14-.592-1.14zm40.374.567 1.35.16c.744.088 1.534.269 1.757.402.36.216.36.24 0 .219-.223-.013-1.013-.195-1.756-.403zm-.96 1.62c.29.023 1.05.214 1.97.504 2.32.73 12.09 4.438 12.321 4.676.152.157-.388.13-1.173-.057-2.586-.617-12.945-4.598-13.24-5.088-.019-.032.026-.043.122-.035zm5.096.058c.413-.025 6.882 1.632 7.052 1.806.19.195-.564.094-2.273-.307-2.12-.497-5.23-1.472-4.78-1.5zm-12.24.857c.209-.214 7.056 1.668 8.644 2.376.892.397 3.08 1.431 4.863 2.297 1.783.866 4.276 2.06 5.539 2.654 1.263.593 2.536 1.24 2.829 1.438.53.359.53.36 0 .33-.293-.018-2.017-.264-3.831-.548-3.17-.496-3.45-.596-7.16-2.578a7475.439 7475.439 0 0 0-7.425-3.961c-1.96-1.045-3.516-1.948-3.458-2.008z"/><path style="fill:#000;stroke-width:.134977" d="M169.12 166.727c.272-5.39-1.59-13.743-3.403-20.088-2.115-7.404-4.68-15.615-7.343-18.94-1-1.247-2.714-2.784-3.534-3.317l-.47-.305-.084.525c-.362 2.262-.362 3.247-.003 6.359.313 2.698.414 3.25.815 4.415 1.18 3.43 3.063 6.262 5.51 8.288.522.432.878.794.792.804-.368.043-3.15-.653-4.396-1.1-4.795-1.719-7.952-4.748-9.165-8.794-.34-1.13-.52-2.958-.415-4.195l.118-1.419c.024-.307-.016-.28-.392.25-.592.835-1.707 3.008-2.11 4.11-.462 1.267-.872 3.29-.952 4.702-.086 1.504.217 4.08.664 5.653.192.68.332 1.258.31 1.287-.023.028-.48-.47-1.016-1.105-3.84-4.558-4.974-9.564-3.273-14.46.573-1.65 1.528-3.3 2.724-4.707.651-.767.846-1.071.624-.974-3.518 1.533-6.458 4.488-7.984 8.025l-.482 1.118-.056-1.216c-.228-4.973 1.205-8.632 4.486-11.454 2.215-1.904 5.92-3.177 9.021-3.1 1.324.033 1.434-.023 1.363-.7-.064-.606.465-2.605.973-3.68.972-2.058 2.36-3.65 4.354-4.993 1.838-1.237 3.084-1.707 5.45-2.054 1.818-.267 2.128-.277 3.344-.11 1.632.225 3.396.797 4.805 1.56 1.052.57 2.607 1.605 2.44 1.624-.049.005-.529-.03-1.067-.079-3.261-.299-6.836.6-9.225 2.318-.732.526-2.682 2.725-2.525 2.847.032.025.383-.055.78-.177 1.046-.324 3.236-.429 4.392-.211 2.054.387 4.065 1.44 5.571 2.917.426.417 1.18 1.384 1.675 2.148 1.517 2.34 2.219 4.449 2.613 7.849.335 2.898.317 2.963-.495 1.774-2.636-3.86-5.93-6.325-9.435-7.058-2.163-.452-4.438-.33-6.423.343l-.643.218.65.6c7.401 6.828 14.355 27.362 15.908 32.404.528 1.713 3.494 7.358 3.912 10.163-.317 3.887-5.766 6.574-8.404 1.935z"/><path style="fill:#000;stroke-width:.134977" d="M183.126 161.137c-1.07-5.29-1.695-6.606-.844-13.15.994-7.635 2.38-13.778 5.287-18.416.848-1.354 2.27-3.156 3.002-3.804l.42-.371.16.507c.694 2.182.84 3.156.946 6.287.092 2.715.073 3.276-.15 4.487-.659 3.568-2.1 6.647-4.22 9.014-.452.505-.75.916-.664.913.37-.013 3.018-1.113 4.184-1.74 4.487-2.411 7.16-5.876 7.76-10.056.167-1.169.075-3.003-.212-4.21a377.04 377.04 0 0 1-.328-1.386c-.07-.3-.025-.28.425.189.71.738 2.134 2.721 2.696 3.752.646 1.184 1.351 3.124 1.64 4.508.307 1.474.39 4.067.182 5.689-.09.7-.143 1.294-.116 1.318.026.025.404-.535.84-1.243 3.122-5.077 3.5-10.196 1.093-14.785-.812-1.546-2.001-3.037-3.393-4.251-.758-.662-.996-.934-.761-.87 3.706.994 7.052 3.48 9.085 6.751l.643 1.035-.125-1.212c-.512-4.951-2.472-8.357-6.135-10.661-2.473-1.555-6.325-2.265-9.381-1.728-1.305.23-1.422.19-1.452-.49-.026-.608-.846-2.507-1.508-3.495-1.267-1.891-2.876-3.26-5.047-4.291-2-.952-3.302-1.232-5.694-1.224-1.838.006-2.146.042-3.324.388-1.58.464-3.24 1.292-4.52 2.255-.955.72-2.34 1.974-2.172 1.969.05-.002.519-.109 1.044-.237 3.18-.78 6.85-.421 9.467.924.801.412 3.055 2.297 2.919 2.441-.028.03-.387.002-.798-.06-1.083-.165-3.264.056-4.374.443a11.05 11.05 0 0 0-5.078 3.71c-.359.477-.96 1.544-1.337 2.374-1.153 2.54-1.534 4.729-1.42 8.15.098 2.915.126 2.977.752 1.681 2.035-4.21 4.927-7.135 8.285-8.38 2.072-.768 4.34-.985 6.402-.614l.669.12-.554.69c-6.307 7.85-9.208 14.658-10.218 29.456-.122 1.789-.23 5.93-.227 8.765 2.05 2.289 5.007 2.694 6.151-1.142z"/><path style="fill:#000;stroke-width:.179437" d="M40.08 163.376c.995-18.025 1.77-32.837 9.8-42.118 1.447-1.673 1.443-1.724-.141-1.922-4.096-.512-9.943 3.38-12.358 8.225-.182.364-.403.665-.491.667-.304.008.017-5.185.415-6.725.62-2.396 1.66-4.28 3.227-5.848 2.161-2.162 4.44-3.023 7.391-2.795l1.43.11-.477-.624c-.645-.846-2.601-2.116-4.02-2.61-.922-.32-1.675-.42-3.589-.48-1.332-.04-2.773.006-3.202.105l-.78.18.421-.453c.672-.723 2.515-1.978 3.76-2.56 3.574-1.673 7.955-1.688 11.222-.04 3.07 1.55 5.4 4.342 6.187 7.412l.224.875h1.832c3.162 0 5.531.98 7.804 3.23 1.528 1.511 2.258 2.68 2.934 4.7.412 1.226.96 4.91.761 5.108-.042.042-.318-.35-.614-.873-1.523-2.697-4.418-5.102-7.414-6.159l-.751-.265 1.258 1.325c4.655 4.9 4.988 11.193.91 17.203-.385.567-.723 1.031-.75 1.031-.027 0 .062-.625.199-1.39.303-1.69.195-4.658-.23-6.325-.404-1.59-1.859-4.53-2.87-5.803-.458-.576-.866-1.014-.905-.975-.04.04.007.348.103.685.097.336.223 1.22.28 1.962.223 2.88-.844 5.835-2.915 8.072-1.388 1.5-2.412 2.271-4.292 3.236-1.14.584-3.89 1.615-4.31 1.615-.05 0 .378-.524.951-1.165 1.72-1.921 2.67-3.706 3.435-6.461.23-.827.298-1.826.294-4.307-.006-2.755-.067-3.473-.42-4.89-.226-.912-.466-1.66-.533-1.66-.155 0-2.8 3.988-3.8 5.728-5.547 9.653-3.41 18.039-3.413 29.251v2.616c2.233 8.26-6.468 7.643-6.564 3.112z"/><path style="fill:#000;stroke-width:.196068" d="M40.989 158.495c2.532-19.562-4.73-38.75-11.502-50.324-1.221-2.087-1.207-2.14.535-2.037 4.502.269 10.006 5.618 11.632 11.306.122.427.3.794.394.814.324.07 1.018-5.573.898-7.307-.187-2.698-.927-4.93-2.298-6.928-1.89-2.753-4.165-4.134-7.382-4.48l-1.557-.166.636-.575c.863-.78 3.217-1.753 4.84-2 1.055-.16 1.884-.118 3.952.201 1.44.222 2.978.56 3.419.752l.801.349-.361-.57c-.577-.911-2.306-2.628-3.527-3.502-3.506-2.511-8.21-3.403-12.048-2.284-3.607 1.05-6.669 3.584-8.128 6.725l-.415.895-1.967-.366c-3.398-.632-6.138-.053-9.03 1.91-1.943 1.318-2.96 2.429-4.091 4.462-.687 1.236-2.012 5.083-1.838 5.336.037.054.412-.313.833-.815 2.176-2.593 5.766-4.597 9.196-5.134l.86-.135-1.617 1.172c-5.979 4.334-7.594 11.027-4.415 18.298.3.686.57 1.253.6 1.258.03.005.058-.685.064-1.534.013-1.876.721-5.042 1.51-6.749.752-1.626 2.903-4.494 4.244-5.659.607-.527 1.132-.917 1.167-.866.035.05-.077.371-.248.714-.171.342-.483 1.266-.693 2.052-.815 3.05-.259 6.437 1.519 9.254 1.192 1.888 2.137 2.922 3.964 4.334 1.108.855 3.856 2.512 4.307 2.596.054.01-.3-.638-.789-1.441-1.464-2.408-2.127-4.516-2.399-7.628-.082-.934.045-2.021.546-4.685.556-2.959.765-3.718 1.427-5.169.426-.935.833-1.69.904-1.676.167.03 2.213 4.843 2.939 6.912 4.029 11.478 8.771 26.806 6.534 38.852l-.523 2.81c3.029 3.26 4.545 5.987 5.554 1.14 0 0 1.117 2.25 1.553-.112z"/></svg>