<svg width="800" height="800" viewBox="0 0 211.667 211.667" xmlns="http://www.w3.org/2000/svg"><path d="m58.605 28.325-.392 1.205 11.975 15.675 1.36-.12.142-1.25-7.82-15.457-5.265-.05zm.19 154.99-.393-1.205 11.976-15.675 1.362.122.143 1.25-7.823 15.458zm-43.938-79.63v4.32l18.38-1.55v-.998zM153.063 28.35l.393 1.205L141.48 45.23l-1.362-.12-.143-1.25 7.82-15.458 5.268-.05zm-.19 154.99.393-1.205-11.975-15.675-1.362.122-.143 1.25 7.82 15.458zm43.935-79.63v4.32l-18.377-1.55v-.998z" fill="#fdffff"/></svg>