<svg width="1000" height="1000" viewBox="0 0 264.583 264.583" xml:space="preserve" xmlns="http://www.w3.org/2000/svg"><path style="opacity:1;fill:#fff;stroke-width:1.33981;stroke-linecap:square;stroke-linejoin:bevel" d="M96.826 0h64.934v38.074H100.34L71.944 9.603C74.367 7.18 84.098 0 96.826 0ZM96.826 264.583h64.934v-38.074H100.34L71.944 254.98c2.423 2.423 12.154 9.603 24.882 9.603zM58.746 223.59v-88.298H76.68l20.14 19.758v66.809l-29.058 28.995c-1.36-1.637-9.016-7.712-9.016-27.265ZM205.839 36.568v92.723h-17.934l-20.14-19.758L167.759 0c19.148 0 38.08 16.606 38.08 36.568z"/><path style="opacity:1;fill:#fff;stroke-width:.405785;stroke-linecap:square;stroke-linejoin:bevel" d="M101.319 113.702h60.44l19.503 18.258-19.502 18.714h-60.441l-19.435-18.44Z"/></svg>