<svg xmlns="http://www.w3.org/2000/svg" width="800" height="750"><path fill="#141414" d="M140.625 629.648h-17.5V591.25h25.371l7.426-6.762h-33.246c-7.031 0-11.465 4.028-13.34 7.778s-1.852 7.398-1.852 7.398v21.55s-.023 3.65 1.852 7.4c1.875 3.773 6.328 7.773 13.34 7.773l14.765-.117Zm31.5-38.398h14.34s.84.059 1.582.43c.762.37 1.25.43 1.25 2.422v7.52h9.433v17.64h-9.43v7.535c0 1.992-.484 2.031-1.25 2.422-.5.234-1.034.379-1.581.43H162.25l-7.441 6.738h31.66s2.25.039 4.61-1.153c2.362-1.168 4.98-4.199 4.98-8.437v-.8h4.394a5.542 5.542 0 0 0 4.473-2.696c.605-1.211.57-2.324.57-2.324v-21.051s.035-1.137-.57-2.367a5.544 5.544 0 0 0-4.473-2.7h-4.398v-.757c0-4.239-2.614-7.286-4.977-8.457-2.363-1.168-4.61-1.133-4.61-1.133H175.2Zm0 0"/><path fill="#141414" d="m141.602 643.828 35-35.098-15.551-6.968 15.023-27.114h-3.633l-35 35.102 15.57 6.969-15.023 27.11Zm0 0"/></svg>