<svg xmlns="http://www.w3.org/2000/svg" width="800" height="750"><path fill="#141414" d="m50.953 116.352 11.23 22.984c8.5 0 8.75-8.3 12.27-19.04V72.09l-3.531-4.57-19.969 10.902Zm-27.457.562-19.86 14.45c-1.238-2.95-2.21-6.716-3.636-11.063V72.094l3.535-4.57 19.961 10.902Zm0 1.098h27.168l10.473 21.324h-45.59c-9.277 0-11.543-7.164-11.543-7.164ZM59.57 0H11.762C7.09 0 5.297.469 3.672 4.55l20.156 16.778h26.738Zm14.883 61.45-.762-40.59C68.926 5.84 67.816 0 60.523 0l-9.57 22.828v32.274l19.969 10.914ZM0 61.45l.762-40.59L3.34 5.565l20.156 16.66v32.876L3.536 66.016Zm0 0"/></svg>