<svg xmlns="http://www.w3.org/2000/svg" width="800" height="750"><path fill="#141414" d="M37.227 0v30.469H0C3.281 13.379 5.738-.02 25.727 0Zm39.761 120.879v65.293h38.535v-76.07c-16.25 9.937-33.097 10.777-38.535 10.777Zm-39.761-31.66V31.875H0V100c15.7-9.922 31.977-10.781 37.203-10.781Zm39.761 0V31.875h38.535V100c-16.25-9.922-33.097-10.781-38.535-10.781Zm0 0"/><path fill="#141414" d="m75.469 90.625-.02 28.852h-36.8V90.625Zm-38.242.02c-11.114.25-23.73 2.5-37.227 11.035v6.761c13.5 8.547 26.113 10.797 37.227 11.047Zm39.75-.02c11.5.25 24.59 2.5 38.546 11.05v6.759c-13.964 8.543-27.046 10.785-38.546 11.043ZM76.895 0v30.469l38.628-.02C112.125 13.38 109.574-.02 88.824 0Zm0 218.066v-30.464h38.628c-3.398 17.082-5.949 30.464-26.699 30.464Zm0 0"/><path fill="#141414" d="M96.172 218.066c11.406-.84 17.281-11.703 19.351-25.761v25.761ZM96.559 0h18.964v24.078C112.852 15.215 110.996 2.23 96.56-.02Zm0 0"/></svg>