<svg xmlns="http://www.w3.org/2000/svg" width="800" height="750"><path fill="#141414" d="M37.227 0v30.469H0C3.281 13.379 5.738-.02 25.727 0Zm0 218.066v-30.464H0c3.281 17.082 5.727 30.464 25.727 30.464Zm39.761-97.187v65.293h38.535v-76.07c-16.25 9.937-33.097 10.777-38.535 10.777Zm0-31.66V31.875h38.535V100c-16.25-9.922-33.097-10.781-38.535-10.781Zm-1.52 1.406-.019 28.852h-36.8V90.625Zm-36.82 96.977H75.45v30.464h-36.8Zm-1.421-96.957c-11.114.25-23.73 2.5-37.227 11.035v6.761c13.5 8.547 26.113 10.797 37.227 11.047Zm0 0"/><path fill="#141414" d="M76.977 90.625c11.5.25 24.59 2.5 38.546 11.05v6.759c-13.964 8.543-27.046 10.785-38.546 11.043ZM76.895 0v30.469l38.628-.02C112.125 13.38 109.574-.02 88.824 0Zm0 218.066v-30.464h38.628c-3.398 17.082-5.949 30.464-26.699 30.464ZM63.28 0l-11.27 30.45H38.649V0ZM75.45 0v30.469H53.535L64.805 0Zm0 0"/></svg>