<svg width="800" height="800" viewBox="0 0 211.667 211.667" xmlns="http://www.w3.org/2000/svg"><g style="font-size:26.3065px;line-height:1.25;letter-spacing:-.179362px;fill:#fff;fill-opacity:.601585;stroke:#fff;stroke-width:1.5875;stroke-linejoin:round;stroke-miterlimit:4;stroke-dasharray:none;stroke-opacity:1;paint-order:markers fill stroke"><path d="M125.495 58.458q-1.684 0-3.183-.816-1.473-.815-2.42-2.341-.921-1.552-.921-3.736 0-2.183.92-3.709.948-1.552 2.42-2.367 1.5-.816 3.184-.816 1.684 0 3.157.816 1.5.815 2.42 2.367.947 1.526.947 3.71 0 2.183-.947 3.735-.92 1.526-2.42 2.341-1.473.816-3.157.816zm0-3.63q1.026 0 1.447-.869.447-.894.447-2.394t-.447-2.367q-.421-.895-1.447-.895t-1.473.895q-.421.868-.421 2.367 0 1.5.42 2.394.448.868 1.474.868zm8.712 3.314V44.989h3.683l.316 1.578h.105q.79-.763 1.789-1.315 1.026-.579 2.367-.579 2.184 0 3.13 1.473.974 1.447.974 3.894v8.102h-4.524v-7.524q0-1.262-.316-1.683-.316-.421-1-.421-.631 0-1.052.263-.42.263-.947.736v8.629zm21.234.316q-1.92 0-3.472-.816-1.526-.815-2.42-2.341-.895-1.552-.895-3.736 0-2.13.895-3.656.92-1.552 2.367-2.394 1.447-.842 3.052-.842 1.946 0 3.21.868 1.288.842 1.893 2.289.632 1.447.632 3.21 0 .578-.08 1.13-.052.527-.105.763h-7.497q.316 1.184 1.131 1.658.816.447 1.92.447 1.316 0 2.737-.79l1.42 2.684q-1.052.736-2.367 1.131-1.316.395-2.42.395zm-2.473-8.471h3.894q0-.763-.395-1.315-.368-.58-1.394-.58-.737 0-1.315.448-.58.447-.79 1.447z" style="font-weight:900;font-family:'Source Sans Pro';-inkscape-font-specification:'Source Sans Pro Heavy';fill:#fff;fill-opacity:.601585;stroke:#fff;stroke-width:1.5875;stroke-linejoin:round;stroke-miterlimit:4;stroke-dasharray:none;stroke-opacity:1;paint-order:markers fill stroke" aria-label="one"/></g></svg>