<svg width="800" height="800" viewBox="0 0 211.667 211.667" xmlns="http://www.w3.org/2000/svg"><g style="font-size:35.4113px;line-height:1.25;letter-spacing:-1.14035px;fill:#e6ffff;fill-opacity:.40000001;stroke:#fff;stroke-width:1.5875;stroke-linejoin:round;stroke-miterlimit:4;stroke-dasharray:none;stroke-opacity:.296212;paint-order:markers fill stroke"><path d="M128.13 115.192q-3.436 0-4.994-1.983-1.522-2.018-1.522-5.24v-6.162h-2.338v-4.533l2.692-.212.708-5.312h5.028v5.312h4.037v4.745h-4.037v6.055q0 1.452.638 2.019.637.566 1.487.566.92 0 1.558-.212l.92 4.25q-.672.247-1.734.46-1.063.247-2.444.247zm5.729-.424V90.12h6.09v5.737l-.283 3.045q.92-.814 2.196-1.522 1.31-.744 3.116-.744 2.939 0 4.214 1.983 1.31 1.948 1.31 5.24v10.908h-6.09V104.64q0-1.7-.426-2.266-.425-.567-1.345-.567-.85 0-1.417.354-.566.354-1.275.992v11.615zm19.469 0V97.062h4.957l.425 3.045h.142q.991-1.806 2.337-2.62 1.381-.85 2.691-.85.815 0 1.31.106.532.071.886.248l-1.133 5.17q-.46-.106-.85-.142-.39-.07-.992-.07-.956 0-2.018.672-1.027.638-1.665 2.302v9.845zm21.522.424q-2.585 0-4.674-1.097-2.054-1.098-3.258-3.152-1.204-2.09-1.204-5.028 0-2.869 1.204-4.922 1.24-2.09 3.187-3.223 1.948-1.133 4.108-1.133 2.62 0 4.32 1.168 1.735 1.134 2.55 3.081.85 1.948.85 4.32 0 .78-.107 1.523-.07.708-.141 1.027h-10.092q.425 1.594 1.522 2.231 1.098.602 2.585.602 1.77 0 3.683-1.062l1.912 3.612q-1.416.991-3.187 1.522-1.77.531-3.258.531zm-3.328-11.402h5.24q0-1.027-.53-1.77-.496-.78-1.877-.78-.992 0-1.77.602-.78.602-1.063 1.948zm20.814 11.402q-2.585 0-4.674-1.097-2.054-1.098-3.258-3.152-1.204-2.09-1.204-5.028 0-2.869 1.204-4.922 1.24-2.09 3.187-3.223 1.948-1.133 4.108-1.133 2.62 0 4.32 1.168 1.735 1.134 2.55 3.081.85 1.948.85 4.32 0 .78-.107 1.523-.07.708-.141 1.027h-10.092q.425 1.594 1.522 2.231 1.098.602 2.585.602 1.77 0 3.683-1.062l1.912 3.612q-1.416.991-3.187 1.522-1.77.531-3.258.531zm-3.328-11.402h5.24q0-1.027-.53-1.77-.496-.78-1.877-.78-.992 0-1.77.602-.78.602-1.063 1.948z" style="font-weight:900;font-family:'Source Sans Pro';-inkscape-font-specification:'Source Sans Pro Heavy';fill:#e6ffff;fill-opacity:.40000001;stroke:#fff;stroke-width:1.5875;stroke-linejoin:round;stroke-miterlimit:4;stroke-dasharray:none;stroke-opacity:.296212;paint-order:markers fill stroke" aria-label="three"/></g><g style="font-size:63.319px;line-height:1.25;letter-spacing:-.382979px;fill:#e6ffff;fill-opacity:.40000001;stroke:#fff;stroke-width:1.5875;stroke-miterlimit:4;stroke-dasharray:none;stroke-opacity:.296212"><path d="M132.172-89.135q-3.039 0-6.458-1.203-3.356-1.267-5.825-3.61l4.559-6.078q2.216 1.71 4.305 2.343 2.09.57 3.673.57 1.71 0 2.406-.444.76-.506.76-1.456 0-1.266-1.647-1.9-1.646-.696-4.179-1.646-3.292-1.266-5.698-3.546-2.407-2.342-2.407-5.952 0-4.685 3.483-7.471 3.483-2.786 9.055-2.786 3.609 0 6.585 1.203 2.976 1.14 5.065 2.976l-4.559 6.078q-1.773-1.266-3.482-1.773-1.71-.506-3.23-.506-2.785 0-2.785 1.773 0 1.013 1.266 1.71 1.266.633 4.306 1.582 3.609 1.14 5.952 3.483 2.406 2.343 2.406 6.142 0 4.432-3.483 7.471-3.42 3.04-10.068 3.04zm18.487-.76v-31.66h10.89v31.66zm15.066 0 9.498-16.463-8.991-15.197h11.65l2.28 4.433q.633 1.33 1.266 2.723.634 1.393 1.267 2.722h.253q.443-1.33.95-2.722.506-1.393.95-2.723l1.52-4.433h11.27l-8.991 16.463 9.498 15.197h-11.651l-2.533-4.432q-.696-1.33-1.393-2.723-.696-1.393-1.393-2.723h-.253q-.507 1.33-1.077 2.723-.57 1.33-1.076 2.723l-1.773 4.432z" style="font-weight:900;font-family:'Source Sans Pro';-inkscape-font-specification:'Source Sans Pro Heavy';fill:#e6ffff;fill-opacity:.40000001;stroke:#fff;stroke-width:1.5875;stroke-linejoin:round;stroke-miterlimit:4;stroke-dasharray:none;stroke-opacity:.296212;paint-order:markers fill stroke" transform="rotate(90)" aria-label="six"/></g><g style="font-size:42.6237px;line-height:1.25;letter-spacing:-.9525px;fill:#e6ffff;fill-opacity:.40000001;stroke:#fff;stroke-width:1.5875;stroke-linejoin:round;stroke-miterlimit:4;stroke-dasharray:none;stroke-opacity:.296212;paint-order:markers fill stroke"><path d="M12.796 116.87V95.558h5.967l.512 2.558h.17q1.279-1.236 2.899-2.131 1.662-.938 3.836-.938 3.538 0 5.072 2.387 1.577 2.344 1.577 6.308v13.128h-7.331v-12.19q0-2.046-.512-2.728-.511-.682-1.62-.682-1.022 0-1.704.426-.682.426-1.535 1.194v13.98zm23.854 0V95.558h7.332v21.312zm3.666-23.954q-1.79 0-2.898-.98-1.109-1.024-1.109-2.686t1.109-2.643q1.108-1.023 2.898-1.023t2.898 1.023q1.109.98 1.109 2.643 0 1.662-1.109 2.685-1.108.98-2.898.98zm7.657 23.954V95.558h5.968l.511 2.558h.17q1.28-1.236 2.9-2.131 1.662-.938 3.835-.938 3.538 0 5.073 2.387 1.577 2.344 1.577 6.308v13.128h-7.332v-12.19q0-2.046-.511-2.728-.512-.682-1.62-.682-1.023 0-1.705.426-.682.426-1.534 1.194v13.98zm33.744.512q-3.112 0-5.627-1.322-2.472-1.321-3.921-3.793-1.45-2.515-1.45-6.053 0-3.452 1.45-5.924 1.492-2.515 3.836-3.88 2.344-1.363 4.944-1.363 3.155 0 5.2 1.406 2.089 1.364 3.07 3.709 1.022 2.344 1.022 5.2 0 .938-.128 1.833-.085.852-.17 1.236H77.795q.512 1.918 1.833 2.685 1.321.725 3.112.725 2.13 0 4.432-1.28l2.302 4.348q-1.705 1.194-3.836 1.833-2.131.64-3.921.64zm-4.007-13.725h6.308q0-1.236-.64-2.131-.596-.938-2.258-.938-1.194 0-2.131.725-.938.724-1.279 2.344z" style="font-weight:900;font-family:'Source Sans Pro';-inkscape-font-specification:'Source Sans Pro Heavy';fill:#e6ffff;fill-opacity:.40000001;stroke:#fff;stroke-width:1.5875;stroke-linejoin:round;stroke-miterlimit:4;stroke-dasharray:none;stroke-opacity:.296212;paint-order:markers fill stroke" aria-label="nine"/></g><g style="font-size:28.0034px;line-height:1.25;letter-spacing:-1.04651px;fill:#e6ffff;fill-opacity:.40000001;stroke:#fff;stroke-width:1.5875;stroke-linejoin:round;stroke-miterlimit:4;stroke-dasharray:none;stroke-opacity:.296212;paint-order:markers fill stroke"><path d="M-84.827 113.18q-2.716 0-3.948-1.568-1.204-1.596-1.204-4.144v-4.873h-1.849v-3.584l2.129-.168.56-4.2h3.976v4.2h3.192v3.752h-3.192v4.789q0 1.148.504 1.596.504.448 1.176.448.728 0 1.232-.168l.729 3.36q-.533.196-1.373.364-.84.196-1.932.196zm6.795-.336-3.36-14.001h4.76l1.064 5.88q.168 1.037.28 2.1.112 1.065.28 2.157h.112q.168-1.092.336-2.156.196-1.092.448-2.1l1.288-5.881h4.089l1.344 5.88q.252 1.037.448 2.1.196 1.065.392 2.157h.112q.168-1.092.28-2.156.112-1.064.28-2.1l1.064-5.881h4.425l-3.193 14.001h-5.6l-1.008-4.872-.337-1.96q-.168-1.009-.336-2.157h-.112q-.168 1.148-.308 2.157-.14.98-.308 1.96l-.952 4.872zm25.108.336q-2.044 0-3.696-.868-1.624-.868-2.577-2.492-.952-1.652-.952-3.976 0-2.269.952-3.893.98-1.652 2.52-2.548 1.54-.896 3.25-.896 2.071 0 3.416.924 1.372.896 2.016 2.436.672 1.54.672 3.417 0 .616-.084 1.204-.056.56-.112.812H-55.5q.336 1.26 1.204 1.764.868.476 2.044.476 1.4 0 2.913-.84l1.512 2.856q-1.12.784-2.52 1.204-1.4.42-2.577.42zm-2.632-9.017h4.144q0-.812-.42-1.4-.392-.616-1.484-.616-.784 0-1.4.476-.616.476-.84 1.54zm14.131 9.017q-1.624 0-2.576-.644-.924-.672-1.344-1.848-.392-1.204-.392-2.772V93.354h4.816v14.73q0 .7.252.98.28.252.532.252h.224q.112-.028.28-.056l.56 3.528q-.364.168-.952.28-.588.112-1.4.112zm6.291-.336-4.593-14.001h4.817l1.512 6.104q.504 2.1 1.008 4.369h.112q.504-2.268 1.008-4.369l1.512-6.104h4.593l-4.425 14.001zm17.099.336q-2.044 0-3.696-.868-1.624-.868-2.577-2.492-.952-1.652-.952-3.976 0-2.269.952-3.893.98-1.652 2.52-2.548 1.54-.896 3.25-.896 2.071 0 3.416.924 1.372.896 2.016 2.436.672 1.54.672 3.417 0 .616-.084 1.204-.056.56-.112.812h-7.981q.336 1.26 1.204 1.764.868.476 2.044.476 1.4 0 2.913-.84l1.512 2.856q-1.12.784-2.52 1.204-1.4.42-2.577.42zm-2.632-9.017h4.144q0-.812-.42-1.4-.392-.616-1.484-.616-.784 0-1.4.476-.616.476-.84 1.54z" style="font-weight:900;font-family:'Source Sans Pro';-inkscape-font-specification:'Source Sans Pro Heavy';fill:#e6ffff;fill-opacity:.40000001;stroke:#fff;stroke-width:1.5875;stroke-linejoin:round;stroke-miterlimit:4;stroke-dasharray:none;stroke-opacity:.296212;paint-order:markers fill stroke" transform="rotate(-90)" aria-label="twelve"/></g><g style="font-size:26.3065px;line-height:1.25;letter-spacing:-.179362px;fill:#fff4e8;fill-opacity:.5;stroke:#fff;stroke-width:1.5875;stroke-linejoin:round;stroke-miterlimit:4;stroke-dasharray:none;stroke-opacity:.296212;paint-order:markers fill stroke"><path d="M125.495 58.458q-1.684 0-3.183-.816-1.473-.815-2.42-2.341-.921-1.552-.921-3.736 0-2.183.92-3.709.948-1.552 2.42-2.367 1.5-.816 3.184-.816 1.684 0 3.157.816 1.5.815 2.42 2.367.947 1.526.947 3.71 0 2.183-.947 3.735-.92 1.526-2.42 2.341-1.473.816-3.157.816zm0-3.63q1.026 0 1.447-.869.447-.894.447-2.394t-.447-2.367q-.421-.895-1.447-.895t-1.473.895q-.421.868-.421 2.367 0 1.5.42 2.394.448.868 1.474.868zm8.712 3.314V44.989h3.683l.316 1.578h.105q.79-.763 1.789-1.315 1.026-.579 2.367-.579 2.184 0 3.13 1.473.974 1.447.974 3.894v8.102h-4.524v-7.524q0-1.262-.316-1.683-.316-.421-1-.421-.631 0-1.052.263-.42.263-.947.736v8.629zm21.234.316q-1.92 0-3.472-.816-1.526-.815-2.42-2.341-.895-1.552-.895-3.736 0-2.13.895-3.656.92-1.552 2.367-2.394 1.447-.842 3.052-.842 1.946 0 3.21.868 1.288.842 1.893 2.289.632 1.447.632 3.21 0 .578-.08 1.13-.052.527-.105.763h-7.497q.316 1.184 1.131 1.658.816.447 1.92.447 1.316 0 2.737-.79l1.42 2.684q-1.052.736-2.367 1.131-1.316.395-2.42.395zm-2.473-8.471h3.894q0-.763-.395-1.315-.368-.58-1.394-.58-.737 0-1.315.448-.58.447-.79 1.447z" style="font-weight:900;font-family:'Source Sans Pro';-inkscape-font-specification:'Source Sans Pro Heavy';fill:#fff4e8;fill-opacity:.5;stroke:#fff;stroke-width:1.5875;stroke-linejoin:round;stroke-miterlimit:4;stroke-dasharray:none;stroke-opacity:.296212;paint-order:markers fill stroke" aria-label="one"/></g><g style="font-size:31.4538px;line-height:1.25;letter-spacing:.325024px;fill:#edffe5;fill-opacity:.45000005;stroke:#fff;stroke-width:1.5875;stroke-linejoin:round;stroke-miterlimit:4;stroke-dasharray:none;stroke-opacity:.296212;paint-order:markers fill stroke"><path d="M130.165 84.926q-3.051 0-4.435-1.761-1.353-1.793-1.353-4.656v-5.472h-2.076V69.01l2.39-.188.63-4.718h4.466v4.718h3.586v4.215h-3.586v5.378q0 1.29.566 1.793.566.503 1.321.503.818 0 1.384-.188l.818 3.774q-.597.22-1.541.409-.944.22-2.17.22zm9.132-.377-3.775-15.727h5.347l1.196 6.605q.188 1.164.314 2.36.126 1.194.315 2.421h.125q.19-1.227.378-2.422.22-1.227.503-2.359l1.447-6.605h4.592l1.51 6.605q.283 1.164.503 2.36.22 1.194.44 2.421h.127q.188-1.227.314-2.422t.315-2.359l1.195-6.605h4.97l-3.586 15.727h-6.29l-1.133-5.473-.378-2.202q-.188-1.132-.377-2.422h-.126q-.189 1.29-.346 2.422-.157 1.1-.346 2.202l-1.07 5.473zm29.388.377q-2.013 0-3.806-.975-1.761-.975-2.894-2.8-1.1-1.855-1.1-4.466 0-2.61 1.1-4.435 1.133-1.856 2.894-2.83 1.793-.976 3.806-.976t3.774.975q1.793.975 2.894 2.831 1.132 1.825 1.132 4.435 0 2.61-1.132 4.467-1.1 1.824-2.894 2.799-1.761.975-3.774.975zm0-4.34q1.227 0 1.73-1.039.535-1.069.535-2.862 0-1.793-.535-2.83-.503-1.07-1.73-1.07-1.227 0-1.761 1.07-.504 1.037-.504 2.83 0 1.793.504 2.862.534 1.038 1.76 1.038z" style="font-weight:900;font-family:'Source Sans Pro';-inkscape-font-specification:'Source Sans Pro Heavy';fill:#edffe5;fill-opacity:.45000005;stroke:#fff;stroke-width:1.5875;stroke-linejoin:round;stroke-miterlimit:4;stroke-dasharray:none;stroke-opacity:.296212;paint-order:markers fill stroke" aria-label="two"/></g><g style="font-size:25.4117px;line-height:1.25;letter-spacing:-.455083px;fill:#fff4e8;fill-opacity:.5;stroke:#fff;stroke-width:1.5875;stroke-linejoin:round;stroke-miterlimit:4;stroke-dasharray:none;stroke-opacity:.296212;paint-order:markers fill stroke"><path d="M125.126-153.11v-9.301h-1.677v-3.253l1.677-.127v-.178q0-1.372.457-2.541.483-1.17 1.576-1.88 1.118-.712 2.998-.712.89 0 1.576.152.711.153 1.118.305l-.813 3.1q-.61-.152-1.22-.152t-.966.356q-.355.33-.355 1.22v.304h2.134v3.406h-2.134v9.3zm13.318.304q-1.627 0-3.075-.788-1.423-.787-2.338-2.261-.89-1.5-.89-3.609t.89-3.583q.915-1.499 2.338-2.287 1.448-.788 3.075-.788 1.626 0 3.05.788 1.448.788 2.337 2.287.915 1.474.915 3.583 0 2.11-.915 3.609-.89 1.474-2.338 2.261-1.423.788-3.05.788zm0-3.507q.99 0 1.397-.838.432-.864.432-2.313 0-1.448-.432-2.287-.406-.864-1.397-.864t-1.423.864q-.407.839-.407 2.287 0 1.449.407 2.313.432.838 1.423.838zm11.996 3.507q-2.083 0-3.024-1.397-.94-1.423-.94-3.787v-7.827h4.371v7.268q0 1.22.305 1.627.33.406.966.406.61 0 1.016-.254.407-.254.813-.864v-8.183h4.371v12.706h-3.558l-.305-1.677h-.101q-.763.915-1.703 1.449-.915.533-2.21.533zm10.37-.304v-12.707h3.558l.305 2.186h.102q.711-1.296 1.677-1.88.991-.61 1.931-.61.585 0 .94.076.382.05.636.178l-.813 3.71q-.33-.077-.61-.102-.28-.05-.712-.05-.686 0-1.448.482-.737.457-1.195 1.652v7.064z" style="font-weight:900;font-family:'Source Sans Pro';-inkscape-font-specification:'Source Sans Pro Heavy';fill:#fff4e8;fill-opacity:.5;stroke:#fff;stroke-width:1.5875;stroke-linejoin:round;stroke-miterlimit:4;stroke-dasharray:none;stroke-opacity:.296212;paint-order:markers fill stroke" transform="matrix(0 .96434 -1.03697 0 0 0)" aria-label="four"/></g><g style="font-size:37.126px;line-height:1.25;letter-spacing:1.07421px;fill:#edffe5;fill-opacity:.45000005;stroke:#fff;stroke-width:1.5875;stroke-linejoin:round;stroke-miterlimit:4;stroke-dasharray:none;stroke-opacity:.296212;paint-order:markers fill stroke"><path d="M124.152-125.887v-13.588h-2.45v-4.752l2.45-.186v-.26q0-2.005.668-3.712.706-1.708 2.302-2.748 1.634-1.04 4.381-1.04 1.3 0 2.302.223 1.04.223 1.633.446l-1.188 4.53q-.89-.223-1.782-.223-.89 0-1.41.52-.52.482-.52 1.781v.446h3.118v4.975h-3.118v13.588zm13.326 0v-18.563h6.385v18.563zm3.193-20.865q-1.56 0-2.525-.854-.965-.89-.965-2.339 0-1.448.965-2.302.965-.89 2.525-.89 1.559 0 2.524.89.965.854.965 2.302t-.965 2.34q-.965.853-2.524.853zm12.954 20.865-6.089-18.563h6.386l2.005 8.093q.668 2.785 1.336 5.792h.149q.668-3.007 1.336-5.792l2.005-8.093h6.089l-5.866 18.563zm25.132.445q-2.71 0-4.9-1.15-2.154-1.151-3.416-3.305-1.263-2.19-1.263-5.272 0-3.007 1.263-5.16 1.3-2.19 3.341-3.379 2.042-1.188 4.307-1.188 2.747 0 4.529 1.226 1.82 1.188 2.673 3.23.891 2.041.891 4.529 0 .817-.111 1.596-.075.743-.149 1.077h-10.58q.445 1.67 1.596 2.339 1.15.631 2.71.631 1.856 0 3.861-1.114l2.005 3.787q-1.485 1.04-3.342 1.597-1.856.556-3.415.556zm-3.49-11.954h5.495q0-1.077-.557-1.856-.52-.817-1.968-.817-1.04 0-1.856.631-.817.631-1.114 2.042z" style="font-weight:900;font-family:'Source Sans Pro';-inkscape-font-specification:'Source Sans Pro Heavy';fill:#edffe5;fill-opacity:.45000005;stroke:#fff;stroke-width:1.5875;stroke-linejoin:round;stroke-miterlimit:4;stroke-dasharray:none;stroke-opacity:.296212;paint-order:markers fill stroke" transform="matrix(0 .99116 -1.00892 0 0 0)" aria-label="five"/></g><g style="font-size:27.5926px;line-height:1.25;letter-spacing:-.312994px;fill:#edffe5;fill-opacity:.45000005;stroke:#fff;stroke-width:1.5875;stroke-linejoin:round;stroke-miterlimit:4;stroke-dasharray:none;stroke-opacity:.296212;paint-order:markers fill stroke"><path d="M30.216 141.875q-2.014 0-3.642-.855-1.6-.855-2.538-2.456-.938-1.628-.938-3.918 0-2.235.938-3.835.965-1.628 2.483-2.511 1.518-.883 3.2-.883 2.043 0 3.367.91 1.352.883 1.987 2.4.662 1.518.662 3.367 0 .607-.083 1.187-.055.552-.11.8h-7.864q.331 1.242 1.186 1.738.856.47 2.015.47 1.38 0 2.87-.829l1.49 2.815q-1.104.773-2.484 1.186-1.38.414-2.539.414zm-2.593-8.885h4.083q0-.8-.413-1.38-.387-.606-1.463-.606-.772 0-1.38.469-.607.469-.827 1.517zm10.393 8.554v-13.796h4.746v13.796zm2.373-15.507q-1.16 0-1.877-.634-.717-.663-.717-1.739t.717-1.71q.718-.663 1.877-.663t1.876.662q.717.635.717 1.711t-.717 1.739q-.717.634-1.876.634zm10.282 21.191q-1.573 0-2.897-.358-1.325-.332-2.125-1.077-.772-.745-.772-1.986 0-1.628 1.931-2.65v-.11q-.524-.386-.91-.938-.36-.58-.36-1.434 0-.718.415-1.408.441-.69 1.131-1.186v-.11q-.745-.497-1.324-1.408-.552-.938-.552-2.124 0-1.711.828-2.815.855-1.131 2.207-1.655 1.352-.552 2.87-.552 1.214 0 2.207.33h5.132v3.422h-1.986q.082.249.138.635.082.386.082.8 0 1.628-.745 2.65-.745.992-2.014 1.461-1.27.47-2.814.47-.69 0-1.546-.194-.33.304-.33.8 0 .442.44.635.47.193 1.49.193h2.07q2.594 0 4.001.856 1.435.828 1.435 2.731 0 1.49-.993 2.622-.966 1.131-2.76 1.766-1.793.634-4.249.634zm.442-12.858q.662 0 1.076-.469.414-.469.414-1.462 0-.966-.414-1.408-.414-.469-1.076-.469-.663 0-1.077.47-.413.44-.413 1.407 0 .993.413 1.462.414.47 1.077.47zm.33 9.933q1.16 0 1.932-.358.773-.331.773-.91 0-.553-.497-.69-.469-.139-1.352-.139h-1.076q-.828 0-1.27-.055-.413-.027-.717-.11-.496.497-.496.993 0 .662.745.966.772.303 1.959.303zm8.959-2.759V122.34h4.746v4.47l-.221 2.373q.717-.635 1.71-1.187 1.022-.58 2.429-.58 2.29 0 3.283 1.546 1.021 1.518 1.021 4.084v8.498h-4.746v-7.891q0-1.325-.33-1.766-.332-.442-1.05-.442-.661 0-1.103.276-.441.276-.993.773v9.05zm21.43.331q-2.677 0-3.89-1.545-1.187-1.573-1.187-4.084v-4.8h-1.821v-3.533l2.097-.165.552-4.139H81.5v4.139h3.145v3.697H81.5v4.719q0 1.13.496 1.572.497.442 1.16.442.717 0 1.213-.166l.718 3.311q-.525.194-1.352.36-.828.192-1.904.192z" style="font-weight:900;font-family:'Source Sans Pro';-inkscape-font-specification:'Source Sans Pro Heavy';fill:#edffe5;fill-opacity:.45000005;stroke:#fff;stroke-width:1.5875;stroke-linejoin:round;stroke-miterlimit:4;stroke-dasharray:none;stroke-opacity:.296212;paint-order:markers fill stroke" aria-label="eight"/></g><g style="font-size:20.6877px;line-height:1.25;letter-spacing:-.79375px;fill:#fff4e8;fill-opacity:.5;stroke:#fff;stroke-width:1.5875;stroke-linejoin:round;stroke-miterlimit:4;stroke-dasharray:none;stroke-opacity:.296212;paint-order:markers fill stroke"><path d="M39.331 161.776q-.993 0-2.11-.394-1.096-.413-1.903-1.179l1.49-1.986q.724.559 1.406.766.683.186 1.2.186.559 0 .786-.145.249-.165.249-.476 0-.413-.538-.62-.538-.228-1.366-.538-1.075-.414-1.862-1.159-.786-.765-.786-1.944 0-1.531 1.138-2.442 1.138-.91 2.958-.91 1.18 0 2.152.393.972.373 1.655.973l-1.49 1.986q-.579-.414-1.137-.58-.559-.165-1.055-.165-.91 0-.91.58 0 .33.413.558.414.207 1.407.517 1.179.372 1.944 1.138.787.765.787 2.006 0 1.449-1.138 2.442-1.117.993-3.29.993zm10.171 0q-1.51 0-2.73-.642-1.2-.641-1.904-1.841-.703-1.22-.703-2.938 0-1.675.703-2.875.724-1.22 1.862-1.883 1.138-.662 2.4-.662 1.53 0 2.524.683 1.013.662 1.49 1.8.496 1.138.496 2.524 0 .455-.062.89-.042.413-.083.6h-5.896q.248.93.89 1.302.64.352 1.51.352 1.034 0 2.151-.62l1.117 2.11q-.827.579-1.862.89-1.034.31-1.903.31zm-1.945-6.662h3.062q0-.6-.31-1.034-.29-.455-1.096-.455-.58 0-1.035.351-.455.352-.62 1.138zm9.468 6.413-3.393-10.344h3.558l1.117 4.51q.373 1.552.745 3.228h.083q.372-1.676.745-3.228l1.117-4.51h3.393l-3.269 10.344zm12.612.249q-1.51 0-2.731-.642-1.2-.641-1.903-1.841-.704-1.22-.704-2.938 0-1.675.704-2.875.724-1.22 1.862-1.883 1.137-.662 2.4-.662 1.53 0 2.523.683 1.014.662 1.49 1.8.496 1.138.496 2.524 0 .455-.062.89-.041.413-.083.6h-5.896q.249.93.89 1.302.641.352 1.51.352 1.035 0 2.152-.62l1.117 2.11q-.828.579-1.862.89-1.034.31-1.903.31zm-1.945-6.662h3.062q0-.6-.31-1.034-.29-.455-1.097-.455-.58 0-1.034.351-.455.352-.621 1.138zm7.233 6.413v-10.344h2.896l.249 1.242h.082q.621-.6 1.407-1.035.807-.455 1.862-.455 1.717 0 2.462 1.159.765 1.138.765 3.062v6.371H81.09v-5.916q0-.993-.248-1.324-.248-.331-.786-.331-.497 0-.828.206-.33.207-.745.58v6.785z" style="font-weight:900;font-family:'Source Sans Pro';-inkscape-font-specification:'Source Sans Pro Heavy';text-align:end;text-anchor:end;fill:#fff4e8;fill-opacity:.5;stroke:#fff;stroke-width:1.5875;stroke-linejoin:round;stroke-miterlimit:4;stroke-dasharray:none;stroke-opacity:.296212;paint-order:markers fill stroke" aria-label="seven"/></g><g style="font-size:28.0089px;line-height:1.25;letter-spacing:-.169408px;fill:#fff4e8;fill-opacity:.5;stroke:#fff;stroke-width:1.5875;stroke-linejoin:round;stroke-miterlimit:4;stroke-dasharray:none;stroke-opacity:.296212;paint-order:markers fill stroke"><path d="M-82.64 67.269q-2.716 0-3.948-1.569-1.205-1.596-1.205-4.145v-4.874h-1.848v-3.585l2.128-.168.56-4.201h3.978v4.201h3.193v3.753h-3.193v4.79q0 1.148.504 1.597.504.448 1.176.448.728 0 1.233-.168l.728 3.36q-.532.197-1.373.365-.84.196-1.932.196zm11.203 0q-2.045 0-3.697-.868-1.625-.869-2.577-2.493-.952-1.653-.952-3.977 0-2.27.952-3.894.98-1.652 2.52-2.549 1.541-.896 3.25-.896 2.072 0 3.417.924 1.372.897 2.017 2.437.672 1.54.672 3.417 0 .617-.084 1.205-.056.56-.112.812h-7.983q.336 1.26 1.205 1.765.868.476 2.044.476 1.4 0 2.913-.84l1.513 2.856q-1.12.785-2.521 1.205-1.4.42-2.577.42zm-2.633-9.019h4.145q0-.812-.42-1.4-.392-.617-1.484-.617-.784 0-1.4.476-.617.477-.84 1.541zm10.698 8.683V52.928h3.921l.337 1.68h.112q.84-.811 1.904-1.4 1.092-.616 2.521-.616 2.325 0 3.333 1.569 1.036 1.54 1.036 4.145v8.627h-4.817v-8.01q0-1.345-.336-1.793-.336-.449-1.065-.449-.672 0-1.12.28-.448.28-1.008.785v9.187z" style="font-weight:900;font-family:'Source Sans Pro';-inkscape-font-specification:'Source Sans Pro Heavy';fill:#fff4e8;fill-opacity:.5;stroke:#fff;stroke-width:1.5875;stroke-linejoin:round;stroke-miterlimit:4;stroke-dasharray:none;stroke-opacity:.296212;paint-order:markers fill stroke" transform="rotate(-90)" aria-label="ten"/></g><g style="font-size:24.6428px;line-height:1.25;letter-spacing:-.985699px;fill:#edffe5;fill-opacity:.45000005;stroke:#fff;stroke-width:1.5875;stroke-linejoin:round;stroke-miterlimit:4;stroke-dasharray:none;stroke-opacity:.296212;paint-order:markers fill stroke"><path d="M-83.743 88.705q-1.799 0-3.252-.764-1.43-.764-2.268-2.193-.837-1.454-.837-3.5 0-1.996.837-3.425.863-1.454 2.218-2.242 1.356-.789 2.859-.789 1.823 0 3.006.813 1.208.789 1.774 2.144.592 1.356.592 3.007 0 .542-.074 1.06-.05.492-.099.714h-7.023q.296 1.109 1.06 1.552.764.42 1.799.42 1.232 0 2.563-.74l1.33 2.514q-.985.69-2.217 1.06-1.233.369-2.268.369zm-2.316-7.935h3.647q0-.715-.37-1.232-.345-.542-1.306-.542-.69 0-1.232.419t-.74 1.355zm12.371 7.935q-1.43 0-2.268-.567-.813-.591-1.182-1.626-.345-1.06-.345-2.44V71.258h4.238V84.22q0 .616.222.862.246.222.468.222h.197q.099-.024.247-.049l.493 3.105q-.32.148-.838.246-.518.099-1.232.099zm8.28 0q-1.8 0-3.253-.764-1.43-.764-2.267-2.193-.838-1.454-.838-3.5 0-1.996.838-3.425.862-1.454 2.217-2.242 1.356-.789 2.859-.789 1.824 0 3.006.813 1.208.789 1.775 2.144.591 1.356.591 3.007 0 .542-.074 1.06-.05.492-.098.714h-7.024q.296 1.109 1.06 1.552.764.42 1.799.42 1.232 0 2.563-.74l1.33 2.514q-.985.69-2.217 1.06-1.232.369-2.267.369zm-2.317-7.935h3.647q0-.715-.37-1.232-.344-.542-1.305-.542-.69 0-1.233.419-.542.419-.739 1.355zm11.237 7.64-4.041-12.322h4.238l1.331 5.372q.444 1.848.887 3.844h.099q.443-1.996.887-3.844l1.33-5.372h4.042l-3.893 12.321zm14.983.295q-1.799 0-3.253-.764-1.43-.764-2.267-2.193-.838-1.454-.838-3.5 0-1.996.838-3.425.863-1.454 2.218-2.242 1.355-.789 2.858-.789 1.824 0 3.007.813 1.207.789 1.774 2.144.592 1.356.592 3.007 0 .542-.074 1.06-.05.492-.099.714h-7.023q.296 1.109 1.06 1.552.763.42 1.798.42 1.233 0 2.563-.74l1.331 2.514q-.986.69-2.218 1.06-1.232.369-2.267.369zm-2.316-7.935h3.647q0-.715-.37-1.232-.345-.542-1.306-.542-.69 0-1.232.419t-.74 1.355zm8.575 7.64V76.087h3.45l.296 1.478h.099q.739-.714 1.675-1.232.961-.542 2.218-.542 2.045 0 2.933 1.38.911 1.355.911 3.647v7.59h-4.238V81.36q0-1.182-.296-1.577-.296-.394-.936-.394-.592 0-.986.246-.394.247-.887.69v8.083z" style="font-weight:900;font-family:'Source Sans Pro';-inkscape-font-specification:'Source Sans Pro Heavy';fill:#edffe5;fill-opacity:.45000005;stroke:#fff;stroke-width:1.5875;stroke-linejoin:round;stroke-miterlimit:4;stroke-dasharray:none;stroke-opacity:.296212;paint-order:markers fill stroke" transform="rotate(-90)" aria-label="eleven"/></g></svg>