<svg width="800" height="800" viewBox="0 0 211.667 211.667" xmlns="http://www.w3.org/2000/svg"><g style="font-size:42.6237px;line-height:1.25;letter-spacing:-.9525px;fill:#fff;fill-opacity:.60000002;stroke:#fff;stroke-width:1.5875;stroke-linejoin:round;stroke-miterlimit:4;stroke-dasharray:none;stroke-opacity:1;paint-order:markers fill stroke"><path d="M12.796 116.87V95.558h5.967l.512 2.558h.17q1.279-1.236 2.899-2.131 1.662-.938 3.836-.938 3.538 0 5.072 2.387 1.577 2.344 1.577 6.308v13.128h-7.331v-12.19q0-2.046-.512-2.728-.511-.682-1.62-.682-1.022 0-1.704.426-.682.426-1.535 1.194v13.98zm23.854 0V95.558h7.332v21.312zm3.666-23.954q-1.79 0-2.898-.98-1.109-1.024-1.109-2.686t1.109-2.643q1.108-1.023 2.898-1.023t2.898 1.023q1.109.98 1.109 2.643 0 1.662-1.109 2.685-1.108.98-2.898.98zm7.657 23.954V95.558h5.968l.511 2.558h.17q1.28-1.236 2.9-2.131 1.662-.938 3.835-.938 3.538 0 5.073 2.387 1.577 2.344 1.577 6.308v13.128h-7.332v-12.19q0-2.046-.511-2.728-.512-.682-1.62-.682-1.023 0-1.705.426-.682.426-1.534 1.194v13.98zm33.744.512q-3.112 0-5.627-1.322-2.472-1.321-3.921-3.793-1.45-2.515-1.45-6.053 0-3.452 1.45-5.924 1.492-2.515 3.836-3.88 2.344-1.363 4.944-1.363 3.155 0 5.2 1.406 2.089 1.364 3.07 3.709 1.022 2.344 1.022 5.2 0 .938-.128 1.833-.085.852-.17 1.236H77.795q.512 1.918 1.833 2.685 1.321.725 3.112.725 2.13 0 4.432-1.28l2.302 4.348q-1.705 1.194-3.836 1.833-2.131.64-3.921.64zm-4.007-13.725h6.308q0-1.236-.64-2.131-.596-.938-2.258-.938-1.194 0-2.131.725-.938.724-1.279 2.344z" style="font-weight:900;font-family:'Source Sans Pro';-inkscape-font-specification:'Source Sans Pro Heavy';fill:#fff;fill-opacity:.60000002;stroke:#fff;stroke-width:1.5875;stroke-linejoin:round;stroke-miterlimit:4;stroke-dasharray:none;stroke-opacity:1;paint-order:markers fill stroke" aria-label="nine"/></g></svg>