<svg width="800" height="800" viewBox="0 0 211.667 211.667" xmlns="http://www.w3.org/2000/svg"><g style="font-size:27.5926px;line-height:1.25;letter-spacing:-.312994px;fill:#fff;fill-opacity:.601585;stroke:#fff;stroke-width:1.5875;stroke-linejoin:round;stroke-miterlimit:4;stroke-dasharray:none;stroke-opacity:1;paint-order:markers fill stroke"><path d="M30.216 141.875q-2.014 0-3.642-.855-1.6-.855-2.538-2.456-.938-1.628-.938-3.918 0-2.235.938-3.835.965-1.628 2.483-2.511 1.518-.883 3.2-.883 2.043 0 3.367.91 1.352.883 1.987 2.4.662 1.518.662 3.367 0 .607-.083 1.187-.055.552-.11.8h-7.864q.331 1.242 1.186 1.738.856.47 2.015.47 1.38 0 2.87-.829l1.49 2.815q-1.104.773-2.484 1.186-1.38.414-2.539.414zm-2.593-8.885h4.083q0-.8-.413-1.38-.387-.606-1.463-.606-.772 0-1.38.469-.607.469-.827 1.517zm10.393 8.554v-13.796h4.746v13.796zm2.373-15.507q-1.16 0-1.877-.634-.717-.663-.717-1.739t.717-1.71q.718-.663 1.877-.663t1.876.662q.717.635.717 1.711t-.717 1.739q-.717.634-1.876.634zm10.282 21.191q-1.573 0-2.897-.358-1.325-.332-2.125-1.077-.772-.745-.772-1.986 0-1.628 1.931-2.65v-.11q-.524-.386-.91-.938-.36-.58-.36-1.434 0-.718.415-1.408.441-.69 1.131-1.186v-.11q-.745-.497-1.324-1.408-.552-.938-.552-2.124 0-1.711.828-2.815.855-1.131 2.207-1.655 1.352-.552 2.87-.552 1.214 0 2.207.33h5.132v3.422h-1.986q.082.249.138.635.082.386.082.8 0 1.628-.745 2.65-.745.992-2.014 1.461-1.27.47-2.814.47-.69 0-1.546-.194-.33.304-.33.8 0 .442.44.635.47.193 1.49.193h2.07q2.594 0 4.001.856 1.435.828 1.435 2.731 0 1.49-.993 2.622-.966 1.131-2.76 1.766-1.793.634-4.249.634zm.442-12.858q.662 0 1.076-.469.414-.469.414-1.462 0-.966-.414-1.408-.414-.469-1.076-.469-.663 0-1.077.47-.413.44-.413 1.407 0 .993.413 1.462.414.47 1.077.47zm.33 9.933q1.16 0 1.932-.358.773-.331.773-.91 0-.553-.497-.69-.469-.139-1.352-.139h-1.076q-.828 0-1.27-.055-.413-.027-.717-.11-.496.497-.496.993 0 .662.745.966.772.303 1.959.303zm8.959-2.759V122.34h4.746v4.47l-.221 2.373q.717-.635 1.71-1.187 1.022-.58 2.429-.58 2.29 0 3.283 1.546 1.021 1.518 1.021 4.084v8.498h-4.746v-7.891q0-1.325-.33-1.766-.332-.442-1.05-.442-.661 0-1.103.276-.441.276-.993.773v9.05zm21.43.331q-2.677 0-3.89-1.545-1.187-1.573-1.187-4.084v-4.8h-1.821v-3.533l2.097-.165.552-4.139H81.5v4.139h3.145v3.697H81.5v4.719q0 1.13.496 1.572.497.442 1.16.442.717 0 1.213-.166l.718 3.311q-.525.194-1.352.36-.828.192-1.904.192z" style="font-weight:900;font-family:'Source Sans Pro';-inkscape-font-specification:'Source Sans Pro Heavy';fill:#fff;fill-opacity:.601585;stroke:#fff;stroke-width:1.5875;stroke-linejoin:round;stroke-miterlimit:4;stroke-dasharray:none;stroke-opacity:1;paint-order:markers fill stroke" aria-label="eight"/></g></svg>