<svg width="800" height="800" viewBox="0 0 211.667 211.667" xmlns="http://www.w3.org/2000/svg"><g style="font-size:25.4117px;line-height:1.25;letter-spacing:-.455083px;fill:#fff;fill-opacity:.601585;stroke:#fff;stroke-width:1.5875;stroke-linejoin:round;stroke-miterlimit:4;stroke-dasharray:none;stroke-opacity:1;paint-order:markers fill stroke"><path d="M125.126-153.11v-9.301h-1.677v-3.253l1.677-.127v-.178q0-1.372.457-2.541.483-1.17 1.576-1.88 1.118-.712 2.998-.712.89 0 1.576.152.711.153 1.118.305l-.813 3.1q-.61-.152-1.22-.152t-.966.356q-.355.33-.355 1.22v.304h2.134v3.406h-2.134v9.3zm13.318.304q-1.627 0-3.075-.788-1.423-.787-2.338-2.261-.89-1.5-.89-3.609t.89-3.583q.915-1.499 2.338-2.287 1.448-.788 3.075-.788 1.626 0 3.05.788 1.448.788 2.337 2.287.915 1.474.915 3.583 0 2.11-.915 3.609-.89 1.474-2.338 2.261-1.423.788-3.05.788zm0-3.507q.99 0 1.397-.838.432-.864.432-2.313 0-1.448-.432-2.287-.406-.864-1.397-.864t-1.423.864q-.407.839-.407 2.287 0 1.449.407 2.313.432.838 1.423.838zm11.996 3.507q-2.083 0-3.024-1.397-.94-1.423-.94-3.787v-7.827h4.371v7.268q0 1.22.305 1.627.33.406.966.406.61 0 1.016-.254.407-.254.813-.864v-8.183h4.371v12.706h-3.558l-.305-1.677h-.101q-.763.915-1.703 1.449-.915.533-2.21.533zm10.37-.304v-12.707h3.558l.305 2.186h.102q.711-1.296 1.677-1.88.991-.61 1.931-.61.585 0 .94.076.382.05.636.178l-.813 3.71q-.33-.077-.61-.102-.28-.05-.712-.05-.686 0-1.448.482-.737.457-1.195 1.652v7.064z" style="font-weight:900;font-family:'Source Sans Pro';-inkscape-font-specification:'Source Sans Pro Heavy';fill:#fff;fill-opacity:.601585;stroke:#fff;stroke-width:1.5875;stroke-linejoin:round;stroke-miterlimit:4;stroke-dasharray:none;stroke-opacity:1;paint-order:markers fill stroke" transform="matrix(0 .96434 -1.03697 0 0 0)" aria-label="four"/></g></svg>