<svg width="800" height="800" viewBox="0 0 211.667 211.667" xmlns="http://www.w3.org/2000/svg"><g style="font-size:28.0034px;line-height:1.25;letter-spacing:-1.04651px;fill:#fff;fill-opacity:.59894162;stroke:#fff;stroke-width:1.5875;stroke-linejoin:round;stroke-miterlimit:4;stroke-dasharray:none;stroke-opacity:1;paint-order:markers fill stroke"><path d="M-84.827 113.18q-2.716 0-3.948-1.568-1.204-1.596-1.204-4.144v-4.873h-1.849v-3.584l2.129-.168.56-4.2h3.976v4.2h3.192v3.752h-3.192v4.789q0 1.148.504 1.596.504.448 1.176.448.728 0 1.232-.168l.729 3.36q-.533.196-1.373.364-.84.196-1.932.196zm6.795-.336-3.36-14.001h4.76l1.064 5.88q.168 1.037.28 2.1.112 1.065.28 2.157h.112q.168-1.092.336-2.156.196-1.092.448-2.1l1.288-5.881h4.089l1.344 5.88q.252 1.037.448 2.1.196 1.065.392 2.157h.112q.168-1.092.28-2.156.112-1.064.28-2.1l1.064-5.881h4.425l-3.193 14.001h-5.6l-1.008-4.872-.337-1.96q-.168-1.009-.336-2.157h-.112q-.168 1.148-.308 2.157-.14.98-.308 1.96l-.952 4.872zm25.108.336q-2.044 0-3.696-.868-1.624-.868-2.577-2.492-.952-1.652-.952-3.976 0-2.269.952-3.893.98-1.652 2.52-2.548 1.54-.896 3.25-.896 2.071 0 3.416.924 1.372.896 2.016 2.436.672 1.54.672 3.417 0 .616-.084 1.204-.056.56-.112.812H-55.5q.336 1.26 1.204 1.764.868.476 2.044.476 1.4 0 2.913-.84l1.512 2.856q-1.12.784-2.52 1.204-1.4.42-2.577.42zm-2.632-9.017h4.144q0-.812-.42-1.4-.392-.616-1.484-.616-.784 0-1.4.476-.616.476-.84 1.54zm14.131 9.017q-1.624 0-2.576-.644-.924-.672-1.344-1.848-.392-1.204-.392-2.772V93.354h4.816v14.73q0 .7.252.98.28.252.532.252h.224q.112-.028.28-.056l.56 3.528q-.364.168-.952.28-.588.112-1.4.112zm6.291-.336-4.593-14.001h4.817l1.512 6.104q.504 2.1 1.008 4.369h.112q.504-2.268 1.008-4.369l1.512-6.104h4.593l-4.425 14.001zm17.099.336q-2.044 0-3.696-.868-1.624-.868-2.577-2.492-.952-1.652-.952-3.976 0-2.269.952-3.893.98-1.652 2.52-2.548 1.54-.896 3.25-.896 2.071 0 3.416.924 1.372.896 2.016 2.436.672 1.54.672 3.417 0 .616-.084 1.204-.056.56-.112.812h-7.981q.336 1.26 1.204 1.764.868.476 2.044.476 1.4 0 2.913-.84l1.512 2.856q-1.12.784-2.52 1.204-1.4.42-2.577.42zm-2.632-9.017h4.144q0-.812-.42-1.4-.392-.616-1.484-.616-.784 0-1.4.476-.616.476-.84 1.54z" style="font-weight:900;font-family:'Source Sans Pro';-inkscape-font-specification:'Source Sans Pro Heavy';fill:#fff;fill-opacity:.59894162;stroke:#fff;stroke-width:1.5875;stroke-linejoin:round;stroke-miterlimit:4;stroke-dasharray:none;stroke-opacity:1;paint-order:markers fill stroke" transform="rotate(-90)" aria-label="twelve"/></g></svg>