<svg width="800" height="800" viewBox="0 0 211.667 211.667" xmlns="http://www.w3.org/2000/svg"><g style="font-size:63.319px;line-height:1.25;letter-spacing:-.382979px;fill:#fff;fill-opacity:.601585;stroke:#fff;stroke-width:1.5875;stroke-miterlimit:4;stroke-dasharray:none;stroke-opacity:1"><path d="M132.172-89.135q-3.039 0-6.458-1.203-3.356-1.267-5.825-3.61l4.559-6.078q2.216 1.71 4.305 2.343 2.09.57 3.673.57 1.71 0 2.406-.444.76-.506.76-1.456 0-1.266-1.647-1.9-1.646-.696-4.179-1.646-3.292-1.266-5.698-3.546-2.407-2.342-2.407-5.952 0-4.685 3.483-7.471 3.483-2.786 9.055-2.786 3.609 0 6.585 1.203 2.976 1.14 5.065 2.976l-4.559 6.078q-1.773-1.266-3.482-1.773-1.71-.506-3.23-.506-2.785 0-2.785 1.773 0 1.013 1.266 1.71 1.266.633 4.306 1.582 3.609 1.14 5.952 3.483 2.406 2.343 2.406 6.142 0 4.432-3.483 7.471-3.42 3.04-10.068 3.04zm18.487-.76v-31.66h10.89v31.66zm15.066 0 9.498-16.463-8.991-15.197h11.65l2.28 4.433q.633 1.33 1.266 2.723.634 1.393 1.267 2.722h.253q.443-1.33.95-2.722.506-1.393.95-2.723l1.52-4.433h11.27l-8.991 16.463 9.498 15.197h-11.651l-2.533-4.432q-.696-1.33-1.393-2.723-.696-1.393-1.393-2.723h-.253q-.507 1.33-1.077 2.723-.57 1.33-1.076 2.723l-1.773 4.432z" style="font-weight:900;font-family:'Source Sans Pro';-inkscape-font-specification:'Source Sans Pro Heavy';fill:#fff;fill-opacity:.601585;stroke:#fff;stroke-width:1.5875;stroke-linejoin:round;stroke-miterlimit:4;stroke-dasharray:none;stroke-opacity:1;paint-order:markers fill stroke" transform="rotate(90)" aria-label="six"/></g></svg>