<svg width="800" height="800" viewBox="0 0 211.667 211.667" xmlns="http://www.w3.org/2000/svg"><g style="font-size:20.6877px;line-height:1.25;letter-spacing:-.79375px;fill:#fff;fill-opacity:.601585;stroke:#fff;stroke-width:1.5875;stroke-linejoin:round;stroke-miterlimit:4;stroke-dasharray:none;stroke-opacity:1;paint-order:markers fill stroke"><path d="M39.331 161.776q-.993 0-2.11-.394-1.096-.413-1.903-1.179l1.49-1.986q.724.559 1.406.766.683.186 1.2.186.559 0 .786-.145.249-.165.249-.476 0-.413-.538-.62-.538-.228-1.366-.538-1.075-.414-1.862-1.159-.786-.765-.786-1.944 0-1.531 1.138-2.442 1.138-.91 2.958-.91 1.18 0 2.152.393.972.373 1.655.973l-1.49 1.986q-.579-.414-1.137-.58-.559-.165-1.055-.165-.91 0-.91.58 0 .33.413.558.414.207 1.407.517 1.179.372 1.944 1.138.787.765.787 2.006 0 1.449-1.138 2.442-1.117.993-3.29.993zm10.171 0q-1.51 0-2.73-.642-1.2-.641-1.904-1.841-.703-1.22-.703-2.938 0-1.675.703-2.875.724-1.22 1.862-1.883 1.138-.662 2.4-.662 1.53 0 2.524.683 1.013.662 1.49 1.8.496 1.138.496 2.524 0 .455-.062.89-.042.413-.083.6h-5.896q.248.93.89 1.302.64.352 1.51.352 1.034 0 2.151-.62l1.117 2.11q-.827.579-1.862.89-1.034.31-1.903.31zm-1.945-6.662h3.062q0-.6-.31-1.034-.29-.455-1.096-.455-.58 0-1.035.351-.455.352-.62 1.138zm9.468 6.413-3.393-10.344h3.558l1.117 4.51q.373 1.552.745 3.228h.083q.372-1.676.745-3.228l1.117-4.51h3.393l-3.269 10.344zm12.612.249q-1.51 0-2.731-.642-1.2-.641-1.903-1.841-.704-1.22-.704-2.938 0-1.675.704-2.875.724-1.22 1.862-1.883 1.137-.662 2.4-.662 1.53 0 2.523.683 1.014.662 1.49 1.8.496 1.138.496 2.524 0 .455-.062.89-.041.413-.083.6h-5.896q.249.93.89 1.302.641.352 1.51.352 1.035 0 2.152-.62l1.117 2.11q-.828.579-1.862.89-1.034.31-1.903.31zm-1.945-6.662h3.062q0-.6-.31-1.034-.29-.455-1.097-.455-.58 0-1.034.351-.455.352-.621 1.138zm7.233 6.413v-10.344h2.896l.249 1.242h.082q.621-.6 1.407-1.035.807-.455 1.862-.455 1.717 0 2.462 1.159.765 1.138.765 3.062v6.371H81.09v-5.916q0-.993-.248-1.324-.248-.331-.786-.331-.497 0-.828.206-.33.207-.745.58v6.785z" style="font-weight:900;font-family:'Source Sans Pro';-inkscape-font-specification:'Source Sans Pro Heavy';text-align:end;text-anchor:end;fill:#fff;fill-opacity:.601585;stroke:#fff;stroke-width:1.5875;stroke-linejoin:round;stroke-miterlimit:4;stroke-dasharray:none;stroke-opacity:1;paint-order:markers fill stroke" aria-label="seven"/></g></svg>