<svg width="800" height="800" viewBox="0 0 211.667 211.667" xmlns="http://www.w3.org/2000/svg"><g style="font-size:24.6428px;line-height:1.25;letter-spacing:-.985699px;fill:#fff;fill-opacity:.6;stroke:#fff;stroke-width:1.32291666;stroke-linejoin:round;stroke-miterlimit:4;stroke-dasharray:none;stroke-opacity:1;paint-order:markers fill stroke"><path d="M-83.743 88.705q-1.799 0-3.252-.764-1.43-.764-2.268-2.193-.837-1.454-.837-3.5 0-1.996.837-3.425.863-1.454 2.218-2.242 1.356-.789 2.859-.789 1.823 0 3.006.813 1.208.789 1.774 2.144.592 1.356.592 3.007 0 .542-.074 1.06-.05.492-.099.714h-7.023q.296 1.109 1.06 1.552.764.42 1.799.42 1.232 0 2.563-.74l1.33 2.514q-.985.69-2.217 1.06-1.233.369-2.268.369zm-2.316-7.935h3.647q0-.715-.37-1.232-.345-.542-1.306-.542-.69 0-1.232.419t-.74 1.355zm12.371 7.935q-1.43 0-2.268-.567-.813-.591-1.182-1.626-.345-1.06-.345-2.44V71.258h4.238V84.22q0 .616.222.862.246.222.468.222h.197q.099-.024.247-.049l.493 3.105q-.32.148-.838.246-.518.099-1.232.099zm8.28 0q-1.8 0-3.253-.764-1.43-.764-2.267-2.193-.838-1.454-.838-3.5 0-1.996.838-3.425.862-1.454 2.217-2.242 1.356-.789 2.859-.789 1.824 0 3.006.813 1.208.789 1.775 2.144.591 1.356.591 3.007 0 .542-.074 1.06-.05.492-.098.714h-7.024q.296 1.109 1.06 1.552.764.42 1.799.42 1.232 0 2.563-.74l1.33 2.514q-.985.69-2.217 1.06-1.232.369-2.267.369zm-2.317-7.935h3.647q0-.715-.37-1.232-.344-.542-1.305-.542-.69 0-1.233.419-.542.419-.739 1.355zm11.237 7.64-4.041-12.322h4.238l1.331 5.372q.444 1.848.887 3.844h.099q.443-1.996.887-3.844l1.33-5.372h4.042l-3.893 12.321zm14.983.295q-1.799 0-3.253-.764-1.43-.764-2.267-2.193-.838-1.454-.838-3.5 0-1.996.838-3.425.863-1.454 2.218-2.242 1.355-.789 2.858-.789 1.824 0 3.007.813 1.207.789 1.774 2.144.592 1.356.592 3.007 0 .542-.074 1.06-.05.492-.099.714h-7.023q.296 1.109 1.06 1.552.763.42 1.798.42 1.233 0 2.563-.74l1.331 2.514q-.986.69-2.218 1.06-1.232.369-2.267.369zm-2.316-7.935h3.647q0-.715-.37-1.232-.345-.542-1.306-.542-.69 0-1.232.419t-.74 1.355zm8.575 7.64V76.087h3.45l.296 1.478h.099q.739-.714 1.675-1.232.961-.542 2.218-.542 2.045 0 2.933 1.38.911 1.355.911 3.647v7.59h-4.238V81.36q0-1.182-.296-1.577-.296-.394-.936-.394-.592 0-.986.246-.394.247-.887.69v8.083z" style="font-weight:900;font-family:'Source Sans Pro';-inkscape-font-specification:'Source Sans Pro Heavy';fill:#fff;fill-opacity:.6;stroke:#fff;stroke-width:1.32291666;stroke-linejoin:round;stroke-miterlimit:4;stroke-dasharray:none;stroke-opacity:1;paint-order:markers fill stroke" transform="rotate(-90)" aria-label="eleven"/></g></svg>