<svg width="800" height="800" viewBox="0 0 211.667 211.667" xmlns="http://www.w3.org/2000/svg"><path style="color:#000;fill:#fff;stroke-width:6.49999988;stroke-linejoin:round;paint-order:markers fill stroke;fill-opacity:1;stroke:#fff;stroke-opacity:1;stroke-miterlimit:4;stroke-dasharray:none" d="M400 180c-11.08 0-20 8.92-20 20v200c0 11.08 8.92 20 20 20s20-8.92 20-20V200c0-11.08-8.92-20-20-20zm0 5c8.35 0 15.07 4.237 15.07 14.855v200.198C415.07 410.67 408.35 415 400 415c-8.35 0-15.07-4.329-15.07-14.947V199.855c0-10.618 6.72-14.855 15.07-14.855z" transform="scale(.26458)"/><path style="color:#000;fill:#000;stroke-linejoin:round;-inkscape-stroke:none;paint-order:markers fill stroke" d="M105.834 47.496a5.412 5.412 0 0 0-5.422 5.42v52.918a5.413 5.413 0 0 0 5.422 5.422 5.413 5.413 0 0 0 5.422-5.422V52.916c0-3.001-2.42-5.42-5.422-5.42zm0 .258c2.862 0 5.162 2.3 5.162 5.162v52.918c0 2.862-2.3 5.162-5.162 5.162a5.148 5.148 0 0 1-5.162-5.162V52.916c0-2.862 2.3-5.162 5.162-5.162z"/><path style="color:#000;fill:#fff;stroke-width:.220299;stroke-linejoin:round;-inkscape-stroke:none;paint-order:markers fill stroke;fill-opacity:.69999999" d="M105.834 48.948c2.209 0 3.987 1.121 3.987 3.93v52.97c0 2.81-1.778 3.955-3.987 3.955-2.21 0-3.988-1.146-3.988-3.955v-52.97c0-2.809 1.779-3.93 3.988-3.93z"/></svg>