<svg width="800" height="800" viewBox="0 0 211.667 211.667" xmlns="http://www.w3.org/2000/svg"><path style="fill:#fff;fill-opacity:.68;stroke-width:6;stroke-linejoin:round" d="M400.889 47.246c-2.298-.004-4.597.016-6.897.057-67.106 1.041-134.14 21.91-190.027 59.453-60.742 40.44-108.266 100.193-133.945 168.588-21.037 55.576-27.68 116.31-19.153 174.937 10.222 71.944 43.383 140.387 93.717 192.996 31.576 33.14 69.536 60.048 111.271 78.67 40.438 18.153 84.906 28.641 129.2 30.483 66.026 2.86 132.498-13.24 189.927-46.159 57.476-32.664 105.41-82.187 136.309-140.341 27.913-52.3 42.225-111.428 41.436-170.528-.799-75.917-27.203-151.692-74.075-211.71-44.323-57.339-106.713-100.254-176-121.186-33.02-10.019-67.29-15.194-101.761-15.26zm-.012 4.916c33.992.065 67.783 5.168 100.344 15.047 68.32 20.64 129.842 62.957 173.549 119.496 46.218 59.183 72.253 133.902 73.04 208.762.779 58.276-13.332 116.58-40.857 168.15-30.469 57.344-77.735 106.177-134.41 138.387-56.629 32.46-122.175 48.336-187.281 45.516-43.677-1.816-87.525-12.16-127.399-30.06-41.153-18.362-78.584-44.896-109.72-77.573C98.51 588.01 65.812 520.52 55.733 449.58c-8.41-57.81-1.86-117.698 18.884-172.5 25.322-67.441 72.185-126.362 132.08-166.238 55.108-37.02 121.208-57.598 187.38-58.625 2.267-.04 4.534-.06 6.8-.055z" transform="scale(.26458)"/></svg>