<svg width="1000" height="1000" viewBox="0 0 264.583 264.583" xmlns="http://www.w3.org/2000/svg"><path style="display:inline;fill:#b3b3b3;fill-opacity:1;stroke-width:6.00001;stroke-linejoin:round" d="M146.723 74.553c-4.4 0-8.461.844-12.186 2.531-.414.188-.825.385-1.23.594-2.433 1.25-4.717 2.875-6.85 4.875-.333.31-.656.63-.969.955a23.953 23.953 0 0 0-2.529 3.111c-.09.133-.172.27-.26.404-.155.238-.312.474-.459.717-2.52 4.187-3.781 9.212-3.781 15.078 0 1.023.04 2.035.117 3.036a36.202 36.202 0 0 0 1.715 8.588l.074.218a36.205 36.205 0 0 0 2.274 5.32c.007.013.012.027.02.04l.023.043c.46.874.956 1.738 1.492 2.591a41.85 41.85 0 0 0 1.75 2.567 62.895 62.895 0 0 0 4.033 4.931v.002c.722.8 1.47 1.588 2.242 2.366a76.833 76.833 0 0 0 4.934 4.535h.002a81.71 81.71 0 0 0 2.69 2.166h.001c.922.71 1.868 1.41 2.84 2.1h.002a93.8 93.8 0 0 0 2.99 2.033c1.022-.711 2.023-1.425 3-2.141a127.04 127.04 0 0 0 8.2-6.525 104.044 104.044 0 0 0 4.798-4.434 89.043 89.043 0 0 0 4.266-4.5 30.908 30.908 0 0 0 3.736-4.834v-.002a29.827 29.827 0 0 0 2.666-5.434 31.309 31.309 0 0 0 .934-2.941c.133-.503.254-1.01.365-1.525.556-2.577.834-5.31.834-8.2 0-5.864-1.344-10.891-4.033-15.078-.244-.38-.5-.753-.766-1.119v-.002c-.116-.16-.243-.312-.363-.469a24.406 24.406 0 0 0-3.373-3.597c-.999-1-2.033-1.907-3.107-2.719a26.581 26.581 0 0 0-3.338-2.156h-.002c-3.832-2.083-8.082-3.125-12.748-3.125h-.002zm-1.6 158.398a163.89 163.89 0 0 0-4.166 2.694 144.174 144.174 0 0 0-7.732 5.533c-1.223.939-2.411 1.886-3.567 2.842-1.12.926-2.207 1.86-3.265 2.802l-.194.172c-1.055.944-2.08 1.898-3.072 2.858l-.002.002c-.964.932-1.894 1.87-2.799 2.818l-.346.365a93.07 93.07 0 0 0-2.496 2.746l-.091.104a45.177 45.177 0 0 0-4.668 6.4 41.586 41.586 0 0 0-2.625 5.15c-2.251 5.3-3.375 11.05-3.375 17.249 0 4.133.45 7.966 1.35 11.5a36.625 36.625 0 0 0 1.687 5.076c.45 1.078.95 2.121 1.5 3.133a32.894 32.894 0 0 0 2.812 4.326c.7.911 1.45 1.79 2.25 2.635.422.4.855.787 1.299 1.162h.002c.889.75 1.821 1.45 2.799 2.1h.002c.488.324.987.637 1.498.937h.002c1.022.6 2.087 1.15 3.197 1.65h.002c1.11.5 2.266.95 3.465 1.35h.002c.6.2 1.21.387 1.832.562h.002c1.244.35 2.533.65 3.865.9h.002c1.333.25 2.71.45 4.131.6h.002c.71.075 1.431.138 2.164.188h.002c1.466.1 2.977.15 4.531.15 5.134 0 9.786-.401 13.957-1.201 2.781-.533 5.349-1.244 7.702-2.133 1.176-.444 2.3-.933 3.369-1.467 2.673-1.333 5.012-2.945 7.017-4.834.401-.377.79-.764 1.164-1.164v-.002c.374-.4.735-.81 1.082-1.232v-.002a26.01 26.01 0 0 0 1.926-2.664v-.002c.294-.466.575-.943.842-1.432v-.002c.267-.488.521-.987.762-1.498v-.002c.481-1.022.909-2.09 1.283-3.201.187-.555.361-1.12.521-1.697v-.002c.16-.577.308-1.165.442-1.764v-.004c.133-.599.254-1.21.361-1.83v-.004a41.4 41.4 0 0 0 .281-1.897v-.004c.08-.643.146-1.297.2-1.962v-.004c.053-.666.094-1.342.12-2.03v-.004c.027-.687.04-1.386.04-2.095v-.004c0-.666-.014-1.327-.043-1.983v-.004a42.947 42.947 0 0 0-.131-1.953v-.002a41.732 41.732 0 0 0-.219-1.926v-.002c-.788-5.737-2.757-11.081-5.908-16.031-.35-.55-.715-1.093-1.094-1.633v-.002a46.34 46.34 0 0 0-2.45-3.181v-.002a49.744 49.744 0 0 0-1.356-1.545 136.742 136.742 0 0 0-11.15-11.422 132.714 132.714 0 0 0-12.317-9.914z" transform="scale(.26458)"/><path style="display:inline;fill:#b3b3b3;fill-opacity:1;stroke-width:1.5875;stroke-linejoin:round" d="M64.831 9.374c3.73 3.954 5.6 9.191 5.6 15.714 0 5.832-1.412 10.724-4.235 14.675-2.822 3.951-6.726 7.244-11.712 9.878 5.174 3.292 9.595 7.008 13.264 11.147 3.67 4.046 5.504 9.08 5.504 15.1 0 8.466-2.87 15.286-8.608 20.46-5.739 5.175-14.393 7.762-25.964 7.762-11.39 0-19.902-2.384-25.552-7.137l261.498 261.498 71.15-68.012z"/></svg>