<svg width="1000" height="1000" viewBox="0 0 264.583 264.583" xmlns="http://www.w3.org/2000/svg"><path style="fill:#b3b3b3;fill-opacity:1;stroke-width:5.99993;stroke-linejoin:round" d="M224.762 32.795s1.183 1.378 2.75 3.228a111.607 111.607 0 0 1 8.502 10.545c1.777 2.35 3.425 4.666 4.658 6.659.026.042.058.076.084.119.018.028.033.061.05.09a152.233 152.233 0 0 1 7.413 13.199l.066.13a176.535 176.535 0 0 1 6.445 14.596l.041.104a208.217 208.217 0 0 1 5.479 16.03 247.992 247.992 0 0 1 4.5 17.448c5.333 24.178 8 52.001 8 83.467 0 9.745-.256 19.19-.764 28.338l-.01.186a424.638 424.638 0 0 1-2.285 26.447l-.021.19a352.856 352.856 0 0 1-3.791 24.564l-.067.342c-1.51 7.838-3.268 15.386-5.273 22.644-.02.072-.033.153-.053.225-.014.053-.036.097-.05.15-1.933 7.178-4.2 13.966-6.801 20.367l-.114.28c-2.617 6.405-5.569 12.422-8.859 18.046l-.096.165c-3.304 5.63-6.947 10.87-10.927 15.716l-.114.137a112.031 112.031 0 0 1-12.963 13.328c-.027.024-.048.055-.076.078-.043.038-.091.069-.134.106a84.387 84.387 0 0 1-6.995 5.414l-.287.197a87.809 87.809 0 0 1-8.03 4.902 94.357 94.357 0 0 1-8.624 4.106 104.328 104.328 0 0 1-8.723 3.176c-.125.04-.249.081-.375.12-6.34 1.976-13.116 3.46-20.328 4.456l-.22.031c-7.219.985-14.872 1.48-22.961 1.484-.043 0-.079.008-.121.008-.059 0-.112-.007-.17-.008a156.305 156.305 0 0 1-15.551-.771c-.228-.023-.45-.054-.678-.078a131.27 131.27 0 0 1-14.008-2.233c-.372-.08-.737-.17-1.107-.253a113.673 113.673 0 0 1-12.541-3.592c-.453-.159-.901-.323-1.35-.487a102.72 102.72 0 0 1-11.258-4.894c-.495-.252-.99-.504-1.48-.764a97.84 97.84 0 0 1-10.174-6.217c-.454-.316-.913-.625-1.361-.949-.13-.094-.265-.18-.395-.275l972.04 972.039 250.976-239.908C928.618 730.667 224.76 32.795 224.76 32.795zm-81.078 49.883c-1.555 0-3.046.153-4.473.459h-.002c-1.427.305-2.79.764-4.09 1.375h-.002a19.425 19.425 0 0 0-3.707 2.29h-.002a23.121 23.121 0 0 0-3.324 3.21c-2.09 2.444-3.922 5.5-5.5 9.166-1.578 3.666-2.9 7.945-3.967 12.834-.977 4.8-1.833 10.199-2.566 16.199-2.2 18-3.3 41.4-3.3 70.2 0 29.06 1.1 52.524 3.3 70.39v.008l.002.011c.732 5.947 1.586 11.273 2.562 15.979l.002.01v.002l.002.005c.978 4.709 2.233 8.83 3.766 12.362 1.533 3.531 3.344 6.475 5.431 8.83l.004.004a22.31 22.31 0 0 0 3.334 3.086c.001 0 .003 0 .004.002l.022.013a19.585 19.585 0 0 0 3.726 2.19l.012.006.021.007a19.888 19.888 0 0 0 4.108 1.305l.113.022a23.2 23.2 0 0 0 4.451.427c.025 0 .048.004.073.004.03 0 .058-.004.087-.004a23.196 23.196 0 0 0 4.42-.425l.17-.034c1.41-.29 2.755-.717 4.035-1.283l.112-.049a19.596 19.596 0 0 0 3.783-2.248 22.29 22.29 0 0 0 3.201-2.963l.076-.084c2.077-2.346 3.88-5.274 5.407-8.787l.021-.049c1.521-3.51 2.767-7.607 3.74-12.279l.014-.06.023-.114c1.053-4.665 1.976-9.932 2.768-15.812l.022-.164c.79-5.903 1.45-12.416 1.98-19.54l.016-.224c.524-7.107.918-14.825 1.183-23.143l.014-.445c.26-8.3.39-17.202.392-26.701l.002-.256-.002-.254c-.002-9.414-.133-18.25-.392-26.508l-.014-.431c-.265-8.279-.659-15.978-1.183-23.088l-.016-.213c-.53-7.129-1.191-13.67-1.982-19.621l-.02-.149c-.792-5.931-1.714-11.27-2.768-16.027l-.023-.107-.012-.055c-.974-4.855-2.223-9.11-3.746-12.758l-.013-.035c-1.53-3.655-3.338-6.703-5.42-9.143l-.008-.01-.02-.019a22.641 22.641 0 0 0-3.283-3.156l-.068-.055a19.452 19.452 0 0 0-3.71-2.26l-.02-.01-.014-.005a19.353 19.353 0 0 0-4.147-1.365c-.003-.001-.006-.004-.01-.004h-.004l-.007-.002a22.386 22.386 0 0 0-4.577-.457h-.007z" transform="scale(.26458)"/></svg>