<svg width="1000" height="1000" viewBox="0 0 264.583 264.583" xmlns="http://www.w3.org/2000/svg"><path style="fill:#b3b3b3;fill-opacity:1;stroke-width:1.58748;stroke-linejoin:round" d="M65.734 13.938s4.092 8.937 4.092 14.393c0 5.08-.847 9.784-2.54 14.11-1.693 4.234-4.374 8.608-8.043 13.124-3.575 4.515-8.279 9.642-14.11 15.38l-8.89 9.314v.706h35.276v21.73H3.955l262.218 262.219 77.363-73.951z"/><path style="fill:#b3b3b3;fill-opacity:1;stroke-width:5.99993;stroke-linejoin:round" d="M132.182 85.215c-11.024 0-22.049 3.376-33.073 10.129-10.665 6.4-23.109 16.534-37.33 30.402l66.84 66.84c4.581-5.562 8.624-10.61 12.092-15.106 9.958-12.8 16.714-23.645 20.27-32.535 3.552-8.89 5.33-17.778 5.33-26.668 0-11.02-3.2-19.197-9.6-24.529-6.4-5.69-14.577-8.533-24.53-8.533z" transform="scale(.26458)"/></svg>