<svg width="1000" height="1000" viewBox="0 0 264.583 264.583" xmlns="http://www.w3.org/2000/svg"><path style="color:#000;-inkscape-font-specification:'Noto Sans Heavy';fill:#fff;stroke-width:.793749;-inkscape-stroke:none" d="M70.113 24.98q0 9.596-5.926 15.804-5.786 6.21-14.535 8.89v.424q11.29 1.693 17.216 7.62 5.926 5.785 5.926 16.228 0 8.607-4.374 15.522-4.233 6.773-12.982 10.724-8.75 3.951-22.014 3.951-8.748 0-15.24-1.41-6.35-1.27-12.84-3.952V76.486q6.067 3.386 12.417 5.08 6.491 1.552 11.712 1.552 8.89 0 12.418-2.681 3.528-2.823 3.528-7.903 0-5.644-4.233-8.466-4.093-2.822-15.805-2.822h-5.785v-20.18h5.926q10.442 0 14.958-2.963t4.516-8.184q0-4.092-2.964-6.068-2.822-1.975-7.902-1.975-5.644 0-10.583 2.257-4.798 2.117-7.761 4.234L5.484 10.446q6.35-4.516 13.97-7.197Q27.074.568 38.646.568q14.675 0 23 6.35 8.467 6.209 8.467 18.062z"/></svg>