<svg width="1000" height="1000" viewBox="0 0 264.583 264.583" xmlns="http://www.w3.org/2000/svg"><path style="color:#000;font-weight:700;font-size:141.111px;font-family:'Noto Sans';-inkscape-font-specification:'Noto Sans Heavy';fill:#fff;stroke:none;stroke-width:.793749;stroke-linejoin:round;stroke-opacity:1;-inkscape-stroke:none;paint-order:markers fill stroke" d="M72.165 52.496q0 15.522-3.245 27.235-3.105 11.57-10.583 18.062-7.338 6.35-20.32 6.35-17.498 0-25.824-13.406Q4.01 77.191 4.01 52.497q0-25.4 7.76-38.665Q19.673.567 38.02.567q17.355 0 25.681 13.547 8.464 13.405 8.464 38.382zm-42.333 0q0 15.381 1.552 22.86 1.553 7.48 6.633 7.48t6.632-7.48q1.693-7.479 1.693-22.86 0-15.24-1.693-22.86-1.552-7.76-6.632-7.76-4.94 0-6.633 7.76-1.552 7.62-1.552 22.86z"/></svg>