<svg width="1000" height="1000" viewBox="0 0 264.583 264.583" xmlns="http://www.w3.org/2000/svg"><path style="fill:#b3b3b3;fill-opacity:1;stroke-width:5.99993;stroke-linejoin:round" d="M234.096 39.469c9.73 10.403 17.98 22.943 24.652 37.75 11.733 25.243 17.6 56.888 17.6 94.931 0 43.378-6.044 81.78-18.133 115.202-11.734 33.065-31.113 59.018-58.135 77.863-27.022 18.844-62.755 28.267-107.2 28.267-8.532 0-17.774-.355-27.73-1.066-9.467-.35-18.054-1.055-25.793-2.098l980.953 980.954 278.676-266.385L234.096 39.469zm-89.48 42.55c-10.313.001-18.49 4.27-24.532 12.803-5.69 8.532-8.533 22.22-8.533 41.065 0 9.554 1.039 17.788 3.12 24.705l.003.004a52.536 52.536 0 0 0 1.373 3.988l.002.004c.5 1.276 1.04 2.5 1.623 3.672l.002.002a39.694 39.694 0 0 0 1.834 3.29c.013.02.025.044.039.065.014.021.03.04.043.06.65.992 1.34 1.925 2.074 2.796l.016.02c.008.01.018.018.027.028a26.17 26.17 0 0 0 2.346 2.436l.027.027c.013.013.028.023.041.036.82.74 1.68 1.42 2.582 2.04l.1.067a24.927 24.927 0 0 0 2.885 1.695 26.39 26.39 0 0 0 3.183 1.334l.008.004.025.008a29.39 29.39 0 0 0 3.414.943l.028.006.047.008a34.05 34.05 0 0 0 3.638.563l.121.011c1.244.121 2.528.181 3.854.184l.074.002.08-.002a36.37 36.37 0 0 0 3.86-.21c.054-.005.109-.01.164-.017a31.605 31.605 0 0 0 3.613-.62l.172-.042a28.556 28.556 0 0 0 3.375-1.031l.177-.068a27.1 27.1 0 0 0 3.159-1.442l.138-.076a27.156 27.156 0 0 0 3.108-1.984 28.649 28.649 0 0 0 2.691-2.252l.127-.121a31.752 31.752 0 0 0 2.613-2.829 36.568 36.568 0 0 0 2.268-3.091c.018-.029.038-.054.057-.082a71.385 71.385 0 0 0 2.207-3.756 64.872 64.872 0 0 0 1.804-3.545 59.198 59.198 0 0 0 1.455-3.358c.038-.093.073-.187.11-.28a54.618 54.618 0 0 0 1.146-3.235l.143-.45c.335-1.081.634-2.162.892-3.244l.06-.25a48.43 48.43 0 0 0 .66-3.35l.04-.257a46.758 46.758 0 0 0 .547-6.973l.002-.103-.002-.117a92.097 92.097 0 0 0-.187-5.653l-.032-.46c-.13-1.932-.317-3.902-.566-5.913l-.03-.24c-.259-2.058-.58-4.157-.964-6.297l-.043-.24c-.39-2.155-.842-4.35-1.358-6.588-.006-.03-.01-.058-.017-.088l-.002-.004a76.073 76.073 0 0 0-.865-3.396l-.002-.004a70.126 70.126 0 0 0-1-3.266 65.136 65.136 0 0 0-1.131-3.13l-.002-.005c-.062-.158-.132-.307-.195-.464a59.087 59.087 0 0 0-1.989-4.415c-.162-.325-.312-.663-.48-.984l-.002-.002c-.382-.73-.79-1.436-1.2-2.138-.114-.196-.217-.402-.333-.596a51.746 51.746 0 0 0-1.664-2.598l-.002-.002a50.04 50.04 0 0 0-1.8-2.465l-.001-.002-.006-.007a28.654 28.654 0 0 0-1.938-2.36l-.003-.006-.002-.002a24.323 24.323 0 0 0-4.399-3.796l-.002-.002a22.518 22.518 0 0 0-5.064-2.532 25.045 25.045 0 0 0-5.725-1.265l-.008-.002h-.005a30.018 30.018 0 0 0-3.11-.158h-.004zm42.67 134.934-2.905.443c-6.727 13.3-15.534 24.005-26.434 32.092-10.666 7.821-25.42 11.73-44.265 11.73-25.601 0-46.59-7.812-63.008-23.376l-.041.006 73.771 73.77c7.833-1.905 14.786-4.454 20.746-7.731 14.577-7.821 25.065-19.021 31.465-33.6 6.4-14.934 9.957-32.713 10.67-53.334z" transform="scale(.26458)"/></svg>