<svg width="1000" height="1000" viewBox="0 0 264.583 264.583" xmlns="http://www.w3.org/2000/svg"><path style="fill:#b3b3b3;fill-opacity:1;stroke-width:1.58748;stroke-linejoin:round" d="M65.102 10.095c3.336 3.851 5.01 8.81 5.01 14.885 0 6.397-1.975 11.664-5.926 15.804-3.857 4.139-8.702 7.102-14.534 8.89v.423c7.526 1.128 13.264 3.669 17.215 7.62 3.952 3.857 5.927 9.266 5.927 16.228 0 5.738-1.458 10.912-4.375 15.521-2.822 4.516-7.15 8.09-12.982 10.725-5.832 2.634-13.17 3.95-22.013 3.95-5.832 0-10.912-.47-15.24-1.41-4.17-.835-8.385-2.13-12.646-3.877l264.701 264.702 75.763-72.421z"/><path style="fill:#b3b3b3;fill-opacity:1;stroke-width:5.99993;stroke-linejoin:round" d="M128.996 82.68c-14.222 0-27.555 2.844-40 8.533-12.089 5.333-21.867 10.667-29.334 16l47.74 47.74c20.638-.927 35.868-4.557 45.594-10.94 11.378-7.466 17.066-17.777 17.066-30.933 0-10.311-3.734-17.956-11.2-22.934-7.112-4.977-17.066-7.466-29.866-7.466zM74.062 231.479l76.76 76.761c2.874-1.223 5.395-2.622 7.506-4.226 8.889-7.111 13.334-17.068 13.334-29.868 0-14.222-5.333-24.888-16-32-10.311-7.11-30.223-10.667-59.734-10.667H74.063z" transform="scale(.26458)"/></svg>