<svg width="1000" height="1000" viewBox="0 0 264.583 264.583" xmlns="http://www.w3.org/2000/svg"><path style="color:#000;-inkscape-font-specification:'Noto Sans Heavy';fill:#fff;stroke-width:.793749;-inkscape-stroke:none" d="M38.962.534q14.393 0 22.86 6.21 8.607 6.208 8.607 18.344 0 8.748-4.233 14.675-4.233 5.927-11.712 9.878 7.761 4.94 13.264 11.148 5.504 6.067 5.504 15.098 0 12.7-8.608 20.462-8.608 7.76-25.964 7.76-17.498 0-25.965-7.478-8.467-7.62-8.467-20.462 0-9.596 4.516-15.664 4.657-6.067 12.7-10.442-6.49-4.654-10.442-10.723-3.95-6.068-3.95-14.394 0-11.994 8.748-18.203Q24.71.534 38.962.534zm-.14 19.191q-3.106 0-5.364 2.117-2.116 1.976-2.116 5.362 0 3.246 1.975 5.927 1.976 2.681 5.221 4.798 3.246-2.258 5.363-4.657 2.257-2.399 2.257-6.068 0-3.386-2.257-5.362-2.117-2.117-5.08-2.117zM28.236 75.323q0 4.374 2.54 7.056 2.681 2.54 7.62 2.54 10.866 0 10.866-9.032 0-4.233-2.964-7.478-2.822-3.246-6.208-5.645l-1.694-1.129q-4.515 2.822-7.337 6.068-2.823 3.246-2.823 7.62z"/></svg>