<svg width="1000" height="1000" viewBox="0 0 264.583 264.583" xmlns="http://www.w3.org/2000/svg"><path style="fill:#b3b3b3;fill-opacity:1;stroke-width:1.58748;stroke-linejoin:round" d="M65.595 1.488v21.974h-31.75l-1.27 13.97a51.739 51.739 0 0 1 4.799-.846c1.599-.283 3.669-.424 6.208-.424 5.268 0 10.02 1.317 14.253 3.951 4.233 2.54 7.619 6.256 10.159 11.148 2.54 4.892 3.81 10.677 3.81 17.356 0 11.289-3.198 19.944-9.595 25.965-6.303 6.02-15.993 9.03-29.069 9.03-10.533 0-19.328-1.787-26.382-5.36l264.401 264.402 79.483-75.977z"/><path style="fill:#b3b3b3;fill-opacity:1;stroke-width:5.99993;stroke-linejoin:round" d="M114.055 214.545c-8.532 0-16.888.888-25.067 2.664-8.176 1.779-15.82 3.913-22.933 6.402l82.443 82.446c3.453-1.704 6.557-3.758 9.293-6.178 9.6-8.534 14.4-20.979 14.4-37.334 0-14.934-4.8-26.668-14.4-35.2-9.6-8.533-24.178-12.8-43.736-12.8z" transform="scale(.26458)"/></svg>