<svg width="1000" height="1000" viewBox="0 0 264.583 264.583" xmlns="http://www.w3.org/2000/svg"><path style="color:#000;font-weight:700;font-size:141.111px;font-family:'Noto Sans';-inkscape-font-specification:'Noto Sans Heavy';fill:#fff;stroke:none;stroke-width:.793749;stroke-opacity:1;-inkscape-stroke:none" d="M71.52 102.697H3.787V85.2l22.437-25.118q7.196-8.184 11.006-13.123 3.952-5.08 5.363-8.608 1.41-3.528 1.41-7.056 0-4.374-2.54-6.49-2.54-2.258-6.49-2.258-4.375 0-8.75 2.68-4.233 2.54-9.877 8.044L2.658 16.62q4.516-4.658 9.455-8.327Q17.052 4.624 23.26 2.65 29.47.532 37.936.532q9.596 0 16.65 3.528 7.198 3.528 11.149 9.878 4.092 6.21 4.092 14.393 0 7.62-2.54 14.111-2.54 6.35-8.043 13.123-5.362 6.774-14.111 15.382l-8.89 9.313v.705H71.52z"/></svg>