<svg width="1000" height="1000" viewBox="0 0 264.583 264.583" xmlns="http://www.w3.org/2000/svg"><path d="M3.744 60.083q0-8.89 1.128-17.498 1.27-8.607 4.375-16.086 3.104-7.62 8.467-13.406 5.503-5.927 13.97-9.172Q40.291.534 52.568.534q3.104 0 7.056.424 4.092.282 7.337.705v20.743q-2.963-.564-6.35-.846-3.245-.424-7.62-.424-13.687 0-19.473 6.633-5.644 6.632-6.209 19.473h.847q2.54-5.22 6.914-8.467 4.375-3.245 11.43-3.245 12.277 0 19.191 8.608 7.056 8.607 7.056 24.13 0 16.792-8.89 26.387-8.89 9.455-24.553 9.455-10.443 0-18.486-4.94-7.902-4.938-12.559-14.675-4.515-9.736-4.515-24.412zm34.995 22.86q3.951 0 6.35-3.387 2.4-3.386 2.4-10.724 0-6.068-2.118-9.313-1.975-3.387-6.35-3.387-4.374 0-6.914 3.387-2.399 3.386-2.399 7.76 0 6.068 2.258 10.866t6.773 4.798z" style="font-weight:900;font-size:141.111px;line-height:1.25;font-family:'Noto Sans';-inkscape-font-specification:'Noto Sans Heavy';display:inline;fill:#fff;stroke:none;stroke-width:.793749;stroke-miterlimit:4;stroke-dasharray:none;stroke-opacity:.3" aria-label="6"/></svg>