<svg width="1000" height="1000" viewBox="0 0 264.583 264.583" xmlns="http://www.w3.org/2000/svg"><path d="M73.117 45.55q0 17.214-4.798 30.48-4.656 13.122-15.38 20.601-10.725 7.48-28.364 7.48-3.387 0-7.338-.284-3.81-.14-6.914-.564V82.237q2.963.565 5.926.988 2.964.282 6.633.282 9.877 0 15.522-3.104 5.785-3.104 8.325-8.89 2.54-5.927 2.823-14.11h-.706q-2.68 5.361-7.056 8.607-4.233 3.104-11.712 3.104-11.994 0-18.909-8.608-6.914-8.607-6.914-24.27 0-16.652 8.89-26.106Q22.035.534 37.698.534q10.16 0 18.204 4.94 8.043 4.938 12.558 14.957 4.657 10.02 4.657 25.118zM38.263 21.7q-4.093 0-6.49 3.387-2.259 3.386-2.259 10.865 0 6.068 2.116 9.455 2.117 3.245 6.492 3.245 4.374 0 6.773-3.669 2.4-3.81 2.4-7.62 0-3.104-.848-6.773-.847-3.669-2.822-6.209-1.976-2.68-5.362-2.68z" style="font-weight:900;font-size:141.111px;line-height:1.25;font-family:'Noto Sans';-inkscape-font-specification:'Noto Sans Heavy';fill:#fff;stroke:none;stroke-width:.793749;stroke-miterlimit:4;stroke-dasharray:none;stroke-opacity:.3" aria-label="9"/></svg>