<svg width="1000" height="1000" viewBox="0 0 264.583 264.583" xmlns="http://www.w3.org/2000/svg"><path style="color:#000;-inkscape-font-specification:'Noto Sans Heavy';fill:#fff;stroke-width:.793749;-inkscape-stroke:none" d="M43.583 36.163q7.902 0 14.252 3.95 6.35 3.81 10.16 11.149 3.81 7.337 3.81 17.356 0 16.934-9.595 25.965-9.455 9.03-29.07 9.03-15.804 0-26.387-5.361V76.238q5.22 2.54 11.853 4.516 6.774 1.834 12.56 1.834 6.914 0 10.583-3.245 3.81-3.387 3.81-9.878 0-5.927-3.81-9.313-3.81-3.387-11.572-3.387-3.386 0-6.632.705-3.245.706-6.068 1.694l-9.172-4.94L11.833 1.45h53.763v22.014h-31.75l-1.27 13.97q2.54-.565 4.798-.847 2.399-.423 6.209-.423z"/></svg>