<svg width="1000" height="1000" viewBox="0 0 264.583 264.583" xmlns="http://www.w3.org/2000/svg"><path style="fill:#b3b3b3;fill-opacity:1;stroke-width:1.58748;stroke-linejoin:round" d="M66.96 1.663v20.743a61.056 61.056 0 0 0-6.35-.846c-2.163-.282-4.703-.424-7.62-.424-9.124 0-15.615 2.211-19.472 6.632-3.763 4.422-5.833 10.913-6.209 19.474h.847c1.693-3.481 3.997-6.303 6.914-8.467 2.916-2.164 6.726-3.245 11.43-3.245 8.184 0 14.581 2.869 19.19 8.607 4.704 5.739 7.056 13.782 7.056 24.13 0 11.194-2.963 19.99-8.89 26.387-5.926 6.303-14.11 9.455-24.553 9.455-6.961 0-13.123-1.646-18.485-4.94a30.09 30.09 0 0 1-3.994-2.998l259.782 259.782 73.88-70.623zM39.02 56.131c-2.915 0-5.22 1.13-6.913 3.387-1.6 2.258-2.4 4.845-2.4 7.76 0 4.046.754 7.668 2.259 10.867 1.505 3.198 3.762 4.797 6.773 4.797 2.634 0 4.75-1.129 6.35-3.386 1.599-2.258 2.398-5.833 2.398-10.725 0-4.045-.705-7.15-2.116-9.313-1.317-2.258-3.434-3.387-6.35-3.387z"/></svg>