<svg width="800" height="800" viewBox="0 0 211.666 211.666" xmlns:xlink="http://www.w3.org/1999/xlink" xmlns="http://www.w3.org/2000/svg"><defs><linearGradient id="c"><stop style="stop-color:#141b1b;stop-opacity:1" offset="0"/><stop style="stop-color:#5b7979;stop-opacity:1" offset=".493"/><stop style="stop-color:#232f2f;stop-opacity:1" offset="1"/></linearGradient><linearGradient id="b"><stop style="stop-color:#fff;stop-opacity:.90196073" offset="0"/><stop style="stop-color:#fff;stop-opacity:.6" offset=".496"/><stop style="stop-color:#fbfffc;stop-opacity:1" offset="1"/></linearGradient><linearGradient id="a"><stop style="stop-color:#575757;stop-opacity:1" offset="0"/><stop style="stop-color:#2b2b2b;stop-opacity:1" offset=".498"/><stop style="stop-color:#575757;stop-opacity:1" offset="1"/></linearGradient><linearGradient xlink:href="#a" id="d" x1="52.917" y1="22.49" x2="52.917" y2="46.302" gradientUnits="userSpaceOnUse" gradientTransform="scale(1.99998)"/><linearGradient xlink:href="#b" id="f" x1="51.329" y1="35.057" x2="54.504" y2="35.057" gradientUnits="userSpaceOnUse" gradientTransform="scale(2)"/><linearGradient xlink:href="#c" id="e" x1="186.299" y1="210.014" x2="213.701" y2="210.014" gradientUnits="userSpaceOnUse" gradientTransform="scale(.52916)"/></defs><path style="opacity:1;fill:url(#d);fill-opacity:1;stroke-width:3.44402" d="m105.832 44.979-5.292 5.291v37.041l1.059 6.35.089 7.92 1.498.018V93.66h5.292l.012 7.938h1.575V93.66l1.059-6.35V50.27zm0 3.704 3.175 3.175V87.31l-1.058 4.234h-4.234l-1.058-4.234V51.858z"/><path style="fill:#f9f9f9;fill-opacity:.997946;stroke-width:1.91662;paint-order:markers fill stroke" d="M107.95 93.662h1.588v7.938h-1.588zm-5.82 0h1.586v7.938h-1.586z"/><path style="opacity:1;fill:#f9f9f9;fill-opacity:.997946;stroke:url(#e);stroke-width:.741988;stroke-linecap:butt;stroke-linejoin:miter;stroke-miterlimit:4;stroke-dasharray:none;stroke-opacity:.8;paint-order:stroke fill markers" d="M105.832 98.953a6.88 6.88 0 0 0-6.88 6.879c.002.909.183 1.808.357 2.227l6.523 14.706 6.523-14.706c.174-.42.354-1.318.356-2.227 0-3.8-3.08-6.88-6.879-6.88z"/><path style="opacity:1;fill:#fff;fill-opacity:1;stroke-width:3.44402" d="m105.832 46.037-4.762 4.762v36.512l1.058 5.821h7.408l1.058-5.82V50.798zm0 2.646 3.175 3.175V87.31l-1.058 4.234h-4.234l-1.058-4.234V51.858z"/><path style="opacity:.75;fill:url(#f);fill-opacity:1;stroke-width:3.44406" d="m105.834 48.684 3.174 3.174v35.454l-1.058 4.234h-4.234l-1.058-4.234V51.86z"/></svg>