<svg width="800" height="800" viewBox="0 0 211.666 211.666" xmlns:xlink="http://www.w3.org/1999/xlink" xmlns="http://www.w3.org/2000/svg"><defs><linearGradient id="c"><stop style="stop-color:#8c8c8c;stop-opacity:1" offset="0"/><stop style="stop-color:#feffff;stop-opacity:1" offset=".499"/><stop style="stop-color:#8c8c8c;stop-opacity:1" offset="1"/></linearGradient><linearGradient id="b"><stop style="stop-color:#b3fbff;stop-opacity:1" offset="0"/><stop style="stop-color:#d5fdff;stop-opacity:1" offset="1"/></linearGradient><linearGradient id="a"><stop style="stop-color:#4c4c4c;stop-opacity:1" offset="0"/><stop style="stop-color:#010101;stop-opacity:1" offset="1"/></linearGradient><linearGradient xlink:href="#a" id="d" x1="2.646" y1="2.646" x2="103.188" y2="103.188" gradientUnits="userSpaceOnUse" gradientTransform="scale(2)"/><linearGradient xlink:href="#b" id="e" x1="5.292" y1="5.292" x2="100.542" y2="100.542" gradientUnits="userSpaceOnUse" gradientTransform="scale(2)"/><linearGradient xlink:href="#c" id="f" x1="91.281" y1="59.531" x2="91.281" y2="46.302" gradientUnits="userSpaceOnUse" gradientTransform="scale(2)"/><linearGradient xlink:href="#b" id="h" gradientUnits="userSpaceOnUse" x1="5.292" y1="5.292" x2="100.542" y2="100.542" gradientTransform="rotate(-30.001 99.886 -84.02) scale(.52918)"/><linearGradient xlink:href="#a" id="g" gradientUnits="userSpaceOnUse" x1="2.646" y1="2.646" x2="103.188" y2="103.188" gradientTransform="rotate(-30.001 98.524 -81.68) scale(.52918)"/><linearGradient xlink:href="#b" id="j" gradientUnits="userSpaceOnUse" gradientTransform="rotate(-60 77.424 11.7) scale(.52916)" x1="5.292" y1="5.292" x2="100.542" y2="100.542"/><linearGradient xlink:href="#a" id="i" gradientUnits="userSpaceOnUse" gradientTransform="rotate(-60 77.056 13.052) scale(.52916)" x1="2.646" y1="2.646" x2="103.188" y2="103.188"/><linearGradient xlink:href="#b" id="l" gradientUnits="userSpaceOnUse" gradientTransform="rotate(-120 64.454 66.966) scale(.52916)" x1="5.292" y1="5.292" x2="100.542" y2="100.542"/><linearGradient xlink:href="#a" id="k" gradientUnits="userSpaceOnUse" gradientTransform="rotate(-120.001 64.66 67.75) scale(.52918)" x1="2.646" y1="2.646" x2="103.188" y2="103.188"/><linearGradient xlink:href="#b" id="n" gradientUnits="userSpaceOnUse" gradientTransform="rotate(149.999 54.96 107.426) scale(.52918)" x1="5.292" y1="5.292" x2="100.542" y2="100.542"/><linearGradient xlink:href="#a" id="m" gradientUnits="userSpaceOnUse" gradientTransform="rotate(149.999 55.584 107.79) scale(.52918)" x1="2.646" y1="2.646" x2="103.188" y2="103.188"/><linearGradient xlink:href="#b" id="p" gradientUnits="userSpaceOnUse" gradientTransform="rotate(-150 60.98 81.774) scale(.52916)" x1="5.292" y1="5.292" x2="100.542" y2="100.542"/><linearGradient xlink:href="#a" id="o" gradientUnits="userSpaceOnUse" gradientTransform="rotate(-149.999 61.34 82.404) scale(.52918)" x1="2.646" y1="2.646" x2="103.188" y2="103.188"/><linearGradient xlink:href="#b" id="r" gradientUnits="userSpaceOnUse" gradientTransform="rotate(120 51.484 122.232) scale(.52916)" x1="5.292" y1="5.292" x2="100.542" y2="100.542"/><linearGradient xlink:href="#a" id="q" gradientUnits="userSpaceOnUse" gradientTransform="rotate(120.001 52.266 122.444) scale(.52918)" x1="2.646" y1="2.646" x2="103.188" y2="103.188"/><linearGradient xlink:href="#b" id="t" gradientUnits="userSpaceOnUse" gradientTransform="rotate(60 38.514 177.498) scale(.52916)" x1="5.292" y1="5.292" x2="100.542" y2="100.542"/><linearGradient xlink:href="#a" id="s" gradientUnits="userSpaceOnUse" gradientTransform="rotate(60 39.87 177.14) scale(.52916)" x1="2.646" y1="2.646" x2="103.188" y2="103.188"/><linearGradient xlink:href="#a" id="u" gradientUnits="userSpaceOnUse" gradientTransform="rotate(30 18.4 271.876) scale(.52916)" x1="2.646" y1="2.646" x2="103.188" y2="103.188"/></defs><path style="fill:url(#d);fill-opacity:1;stroke:none;stroke-width:.899594" d="M14.464 97.496v16.8l28.806-1.632V99.13l-.956-.052zm1.012 1.072 26.784 1.516v11.624l-26.784 1.516zm181.328-3.33-30.116.012v21.166l30.116.014zm-1.012 1.07v19.05l-28.092.106V96.208zM20.526 104l.002 3.792 16.674-.632v-2.528zm1.012 1.068 14.656.54v.58l-14.654.554zm171.608-6.64h-23.812v14.816h23.812zm-1.06 1.586v11.642h-20.634v-11.64zM99.06 168.4l-.052.956c-.528 9.282-1.048 18.566-1.58 27.85h16.798c-.544-9.6-1.084-19.204-1.632-28.806zm.956 1.012h11.622l1.516 26.782H98.5zm4.546 5.056-.632 16.678 3.792-.004-.632-16.674zm.976 1.008h.578l.554 14.654-1.672.002z"/><path style="fill:#0ff;fill-opacity:.997946;stroke:url(#e);stroke-width:1.116;stroke-linecap:butt;stroke-linejoin:miter;stroke-miterlimit:4;stroke-dasharray:none;stroke-opacity:1;paint-order:normal" d="M15.476 98.568v14.656l26.784-1.516v-11.624zm180.316-2.26h-28.046v19.05h28.046zM20.526 104l16.676.632v2.528l-16.674.632zm172.62-5.044v13.76h-22.754v-13.76zm-93.13 70.456L98.5 196.194h14.654l-1.516-26.782zm4.546 5.056h2.528l.632 16.674-3.792.004z"/><path style="opacity:1;fill:url(#f);fill-opacity:1;stroke-width:1.116" d="M171.45 100.012h20.638v11.642H171.45z"/><path d="M63.584 32.812a11.034 11.034 0 0 0-.64.396c-3.49 2.388-5.428 6.812-4.686 10.992.67 4.41 4.25 8.132 8.608 9.05 5.092 1.204 10.728-1.76 12.614-6.64 2.236-5.1-.14-11.6-5.132-14.072-3.344-1.798-7.506-1.598-10.764.274zm.564.826a10.108 10.108 0 1 1 10.104 17.51 10.108 10.108 0 0 1-10.104-17.51zm2.484 4.304a5.136 5.136 0 1 0 5.134 8.896 5.136 5.136 0 0 0-5.134-8.896zm.454.916c.36-.2.656-.328 1.034-.462 2.76-.87 5.798 1.888 5.104 4.712-.372 3.02-4.49 4.488-6.692 2.38-2.168-1.678-1.716-5.33.554-6.63z" style="fill:url(#g);fill-opacity:1;stroke:none;stroke-width:.238018"/><path d="M64.15 33.632A10.107 10.107 0 1 0 74.254 51.14 10.107 10.107 0 0 0 64.15 33.632zm2.484 4.304a5.136 5.136 0 1 1 5.136 8.894 5.136 5.136 0 0 1-5.136-8.894z" style="fill:#0ff;fill-opacity:.997946;stroke:url(#h);stroke-width:1.096;stroke-linecap:butt;stroke-linejoin:miter;stroke-miterlimit:4;stroke-dasharray:none;stroke-opacity:1;paint-order:normal"/><path d="M32.734 63.72a11.03 11.03 0 0 0-.356.66c-1.83 3.814-1.296 8.616 1.438 11.866 2.784 3.482 7.746 4.916 11.98 3.532 5.012-1.504 8.41-6.888 7.604-12.056-.614-5.538-5.922-9.976-11.48-9.622-3.796.114-7.3 2.37-9.186 5.62zm.9.434a10.108 10.108 0 1 1 17.506 10.11 10.108 10.108 0 0 1-17.506-10.11zm4.304 2.484a5.136 5.136 0 1 0 8.894 5.136 5.136 5.136 0 0 0-8.894-5.136zm.852.566a6.51 6.51 0 0 1 .664-.918c1.956-2.132 5.966-1.262 6.778 1.53 1.186 2.802-1.646 6.13-4.608 5.406-2.716-.368-4.15-3.756-2.834-6.018z" style="fill:url(#i);fill-opacity:1;stroke:none;stroke-width:.238018"/><path d="M33.634 64.148a10.106 10.106 0 1 0 17.504 10.108 10.106 10.106 0 0 0-17.504-10.108zm4.302 2.484a5.136 5.136 0 1 1 8.896 5.134 5.136 5.136 0 0 1-8.896-5.134z" style="fill:#0ff;fill-opacity:.997946;stroke:url(#j);stroke-width:1.096;stroke-linecap:butt;stroke-linejoin:miter;stroke-miterlimit:4;stroke-dasharray:none;stroke-opacity:1;paint-order:normal"/><path d="M32.81 148.08c.126.218.258.43.396.64 2.388 3.49 6.814 5.43 10.994 4.688 4.41-.672 8.132-4.252 9.05-8.61 1.204-5.092-1.76-10.728-6.64-12.614-5.102-2.236-11.6.14-14.072 5.132-1.8 3.344-1.598 7.508.272 10.764zm.828-.562a10.108 10.108 0 1 1 17.51-10.104 10.108 10.108 0 0 1-17.51 10.104zm4.302-2.486a5.136 5.136 0 1 0 8.896-5.134 5.136 5.136 0 0 0-8.896 5.134zm.918-.452a6.584 6.584 0 0 1-.462-1.036c-.87-2.76 1.888-5.798 4.712-5.104 3.02.374 4.486 4.49 2.38 6.692-1.678 2.168-5.33 1.718-6.63-.552z" style="fill:url(#k);fill-opacity:1;stroke:none;stroke-width:.238018"/><path d="M33.632 147.516a10.107 10.107 0 1 0 17.506-10.106 10.107 10.107 0 0 0-17.506 10.106zm4.304-2.484a5.136 5.136 0 1 1 8.894-5.138 5.136 5.136 0 0 1-8.894 5.138z" style="fill:#0ff;fill-opacity:.997946;stroke:url(#l);stroke-width:1.096;stroke-linecap:butt;stroke-linejoin:miter;stroke-miterlimit:4;stroke-dasharray:none;stroke-opacity:1;paint-order:normal"/><path d="M148.08 178.854c.216-.124.43-.256.64-.396 3.49-2.388 5.428-6.814 4.686-10.994-.67-4.408-4.25-8.132-8.608-9.05-5.092-1.202-10.728 1.76-12.614 6.64-2.236 5.102.14 11.6 5.132 14.074 3.344 1.796 7.506 1.596 10.764-.274zm-.564-.828a10.108 10.108 0 1 1-10.104-17.51 10.108 10.108 0 0 1 10.104 17.51zm-2.484-4.302a5.136 5.136 0 1 0-5.134-8.896 5.136 5.136 0 0 0 5.134 8.896zm-.454-.916a6.5 6.5 0 0 1-1.034.46c-2.76.872-5.798-1.888-5.104-4.712.372-3.02 4.49-4.486 6.692-2.38 2.168 1.68 1.716 5.33-.554 6.632z" style="fill:url(#m);fill-opacity:1;stroke:none;stroke-width:.238018"/><path d="M147.514 178.032a10.106 10.106 0 1 0-10.104-17.506 10.106 10.106 0 0 0 10.104 17.506zm-2.484-4.302a5.136 5.136 0 1 1-5.136-8.896 5.136 5.136 0 0 1 5.136 8.896z" style="fill:#0ff;fill-opacity:.997946;stroke:url(#n);stroke-width:1.096;stroke-linecap:butt;stroke-linejoin:miter;stroke-miterlimit:4;stroke-dasharray:none;stroke-opacity:1;paint-order:normal"/><path d="M63.718 178.93c.216.126.436.244.66.356 3.816 1.83 8.618 1.296 11.866-1.436 3.484-2.786 4.918-7.748 3.534-11.98-1.504-5.012-6.888-8.412-12.058-7.606-5.536.616-9.976 5.924-9.62 11.48.114 3.796 2.37 7.3 5.618 9.186zm.434-.9a10.108 10.108 0 1 1 10.112-17.506 10.108 10.108 0 0 1-10.112 17.506zm2.484-4.304a5.136 5.136 0 1 0 5.138-8.894 5.136 5.136 0 0 0-5.138 8.894zm.568-.85a6.584 6.584 0 0 1-.92-.666c-2.132-1.954-1.26-5.966 1.532-6.776 2.802-1.188 6.13 1.644 5.406 4.606-.368 2.716-3.756 4.15-6.02 2.836z" style="fill:url(#o);fill-opacity:1;stroke:none;stroke-width:.238018"/><path d="M64.146 178.03a10.107 10.107 0 1 0 10.11-17.504 10.107 10.107 0 0 0-10.11 17.504zm2.484-4.302a5.136 5.136 0 1 1 5.136-8.896 5.136 5.136 0 0 1-5.136 8.896z" style="fill:#0ff;fill-opacity:.997946;stroke:url(#p);stroke-width:1.096;stroke-linecap:butt;stroke-linejoin:miter;stroke-miterlimit:4;stroke-dasharray:none;stroke-opacity:1;paint-order:normal"/><path d="M178.93 147.948c.126-.218.244-.44.356-.664 1.83-3.812 1.296-8.614-1.438-11.864-2.784-3.482-7.746-4.918-11.98-3.532-5.012 1.502-8.41 6.886-7.604 12.056.614 5.538 5.922 9.976 11.48 9.62 3.796-.114 7.3-2.368 9.186-5.616zm-.9-.436a10.108 10.108 0 1 1-17.506-10.112 10.108 10.108 0 0 1 17.504 10.112zm-4.304-2.484a5.136 5.136 0 1 0-8.896-5.136 5.136 5.136 0 0 0 8.896 5.136zm-.852-.566a6.584 6.584 0 0 1-.664.918c-1.956 2.132-5.966 1.26-6.778-1.53-1.186-2.804 1.646-6.132 4.606-5.408 2.718.368 4.152 3.758 2.836 6.02z" style="fill:url(#q);fill-opacity:1;stroke:none;stroke-width:.238018"/><path d="M178.03 147.518a10.106 10.106 0 1 0-17.504-10.108 10.106 10.106 0 0 0 17.504 10.108zm-4.302-2.484a5.136 5.136 0 1 1-8.896-5.136 5.136 5.136 0 0 1 8.896 5.136z" style="fill:#0ff;fill-opacity:.997946;stroke:url(#r);stroke-width:1.096;stroke-linecap:butt;stroke-linejoin:miter;stroke-miterlimit:4;stroke-dasharray:none;stroke-opacity:1;paint-order:normal"/><path d="M178.854 63.584a11.03 11.03 0 0 0-.396-.638c-2.388-3.492-6.814-5.43-10.994-4.688-4.41.67-8.132 4.25-9.05 8.61-1.204 5.09 1.76 10.726 6.64 12.614 5.102 2.236 11.6-.142 14.072-5.134 1.798-3.344 1.598-7.506-.272-10.764zm-.828.564a10.108 10.108 0 1 1-17.51 10.104 10.108 10.108 0 0 1 17.51-10.104zm-4.302 2.484a5.136 5.136 0 1 0-8.896 5.136 5.136 5.136 0 0 0 8.896-5.136zm-.918.454c.2.36.328.658.462 1.036.87 2.76-1.888 5.796-4.712 5.104-3.02-.374-4.486-4.492-2.38-6.694 1.678-2.168 5.33-1.716 6.63.554z" style="fill:url(#s);fill-opacity:1;stroke:none;stroke-width:.238018"/><path d="M178.032 64.15a10.106 10.106 0 1 0-17.506 10.104 10.106 10.106 0 0 0 17.506-10.104zm-4.304 2.484a5.136 5.136 0 1 1-8.894 5.136 5.136 5.136 0 0 1 8.894-5.136z" style="fill:#0ff;fill-opacity:.997946;stroke:url(#t);stroke-width:1.096;stroke-linecap:butt;stroke-linejoin:miter;stroke-miterlimit:4;stroke-dasharray:none;stroke-opacity:1;paint-order:normal"/><path d="M147.946 32.734a11.03 11.03 0 0 0-.662-.354c-3.814-1.83-8.616-1.296-11.864 1.436-3.484 2.786-4.918 7.748-3.534 11.98 1.504 5.012 6.888 8.412 12.058 7.606 5.536-.616 9.976-5.924 9.62-11.482-.114-3.796-2.37-7.3-5.618-9.186zm-.434.9A10.11 10.11 0 1 1 137.4 51.142a10.108 10.108 0 0 1 10.112-17.506zm-2.484 4.304a5.137 5.137 0 1 0-5.138 8.896 5.137 5.137 0 0 0 5.138-8.896zm-.568.852c.352.212.612.406.92.666 2.13 1.954 1.26 5.964-1.532 6.776-2.802 1.188-6.13-1.646-5.406-4.606.368-2.716 3.756-4.152 6.02-2.836z" style="fill:url(#u);fill-opacity:1;stroke:none;stroke-width:.238018"/><path d="M147.518 33.634a10.107 10.107 0 1 0-10.11 17.504 10.107 10.107 0 0 0 10.11-17.504zm-2.486 4.304a5.136 5.136 0 1 1-5.134 8.896 5.136 5.136 0 0 1 5.134-8.896z" style="fill:#0ff;fill-opacity:.997946;stroke:#b3fbff;stroke-width:1.096;stroke-linecap:butt;stroke-linejoin:miter;stroke-miterlimit:4;stroke-dasharray:none;stroke-opacity:1;paint-order:normal"/></svg>