<?xml version="1.0" encoding="utf-8"?>
<!-- Generator: Adobe Illustrator 26.0.0, SVG Export Plug-In . SVG Version: 6.00 Build 0)  -->
<svg version="1.1" id="Layer_1" xmlns="http://www.w3.org/2000/svg" xmlns:xlink="http://www.w3.org/1999/xlink" x="0px" y="0px"
	 viewBox="0 0 800 800" style="enable-background:new 0 0 800 800;" xml:space="preserve">
<style type="text/css">
	.st0{fill:#020000;}
	.st1{fill:#029CDB;}
	.st2{opacity:0.5;fill:none;stroke:#FFFFFF;stroke-width:2;stroke-miterlimit:10;}
</style>
<path class="st0" d="M411.3,62.1l-10.6-7.3c-0.4-0.3-1-0.3-1.4,0l-10.6,7.3c-0.3,0.2-0.5,0.5-0.5,0.9v349.5c0,0.6,0.5,1.1,1.2,1.1
	h21.2c0.7,0,1.2-0.5,1.2-1.1V63C411.8,62.7,411.6,62.3,411.3,62.1z"/>
<path class="st1" d="M407,66.3l-6.6-4.8c-0.3-0.2-0.6-0.2-0.9,0l-6.6,4.8c-0.2,0.1-0.3,0.4-0.3,0.6V218c0,0.4,0.3,0.7,0.7,0.7h13.2
	c0.4,0,0.7-0.3,0.7-0.7V66.8C407.3,66.6,407.2,66.4,407,66.3z"/>
<path class="st1" d="M406.6,384h-13.3c-0.4,0-0.7-0.3-0.7-0.7V224.9c0-0.4,0.3-0.7,0.7-0.7h13.3c0.4,0,0.7,0.3,0.7,0.7v158.5
	C407.3,383.7,407,384,406.6,384z"/>
<path class="st2" d="M400.8,53.8l-12.1,8.4c-0.3,0.2-0.5,0.5-0.5,0.9v351.8"/>
</svg>
