<?xml version="1.0" encoding="utf-8"?>
<!-- Generator: Adobe Illustrator 26.0.0, SVG Export Plug-In . SVG Version: 6.00 Build 0)  -->
<svg version="1.1" id="Layer_1" xmlns="http://www.w3.org/2000/svg" xmlns:xlink="http://www.w3.org/1999/xlink" x="0px" y="0px"
	 viewBox="0 0 800 800" style="enable-background:new 0 0 800 800;" xml:space="preserve">
<style type="text/css">
	.st0{fill:#020000;}
	.st1{fill:#029CDB;}
	.st2{opacity:0.5;fill:none;stroke:#FFFFFF;stroke-width:2;stroke-miterlimit:10;}
</style>
<path class="st0" d="M411.3,139.4l-10.6-7.3c-0.4-0.3-1-0.3-1.4,0l-10.6,7.3c-0.3,0.2-0.5,0.5-0.5,0.9v273.2c0,0.6,0.5,1.1,1.2,1.1
	h21.2c0.7,0,1.2-0.5,1.2-1.1V140.3C411.8,139.9,411.6,139.6,411.3,139.4z"/>
<path class="st1" d="M407,143.5l-6.6-4.8c-0.3-0.2-0.6-0.2-0.9,0l-6.6,4.8c-0.2,0.1-0.3,0.4-0.3,0.6V253c0,0.4,0.3,0.7,0.7,0.7h13.2
	c0.4,0,0.7-0.3,0.7-0.7V144.1C407.3,143.9,407.2,143.6,407,143.5z"/>
<path class="st1" d="M406.6,384.9h-13.3c-0.4,0-0.7-0.3-0.7-0.7V278.4c0-0.4,0.3-0.7,0.7-0.7h13.3c0.4,0,0.7,0.3,0.7,0.7v105.8
	C407.3,384.6,407,384.9,406.6,384.9z"/>
<path class="st1" d="M406.6,273.1h-13.3c-0.4,0-0.7-0.3-0.7-0.7v-13.3c0-0.4,0.3-0.7,0.7-0.7h13.3c0.4,0,0.7,0.3,0.7,0.7v13.3
	C407.3,272.8,407,273.1,406.6,273.1z"/>
<path class="st2" d="M400.8,131l-12.1,8.4c-0.3,0.2-0.5,0.5-0.5,0.9v275.5"/>
</svg>
