<?xml version="1.0" encoding="UTF-8" standalone="no"?>
<!-- Generator: Adobe Illustrator 26.0.0, SVG Export Plug-In . SVG Version: 6.00 Build 0)  -->

<svg
   version="1.1"
   id="Layer_1"
   shape-rendering="crispEdges"
   x="0px"
   y="0px"
   viewBox="0 0 2000 2000"
   style="enable-background:new 0 0 2000 2000;"
   xml:space="preserve"
   sodipodi:docname="asteroid-logo.svg"
   inkscape:version="1.1.2 (0a00cf5339, 2022-02-04, custom)"
   xmlns:inkscape="http://www.inkscape.org/namespaces/inkscape"
   xmlns:sodipodi="http://sodipodi.sourceforge.net/DTD/sodipodi-0.dtd"
   xmlns="http://www.w3.org/2000/svg"
   xmlns:svg="http://www.w3.org/2000/svg"><defs
   id="defs26" /><sodipodi:namedview
   id="namedview24"
   pagecolor="#505050"
   bordercolor="#eeeeee"
   borderopacity="1"
   inkscape:pageshadow="0"
   inkscape:pageopacity="0"
   inkscape:pagecheckerboard="0"
   showgrid="false"
   inkscape:zoom="0.341"
   inkscape:cx="480.93842"
   inkscape:cy="1000"
   inkscape:window-width="1251"
   inkscape:window-height="1027"
   inkscape:window-x="2566"
   inkscape:window-y="1111"
   inkscape:window-maximized="1"
   inkscape:current-layer="Layer_1" />
<style
   type="text/css"
   id="style2">
	.st0{fill:#029CDB;}
</style>
<g
   transform="matrix(100 100 -100 100 1000 0)"
   id="g17">
	<g
   id="row1">
		<g
   id="a">
		</g>
		<g
   id="b">
		</g>
		<g
   id="c">
		</g>
		<g
   id="d">
		</g>
		<g
   id="e">
		</g>
	</g>
	<g
   id="row2"
   transform="translate(-2,2)">
		<g
   id="f">
		</g>
	</g>
	<g
   id="row3"
   transform="translate(-4,4)">
		<g
   id="g">
		</g>
	</g>
	<g
   id="row4"
   transform="translate(-6,6)">
		<g
   id="h">
		</g>
	</g>
	<g
   id="row5"
   transform="translate(-8,8)">
	</g>
</g>
<g
   id="g21"
   style="fill:#949494;fill-opacity:1">
	<path
   class="st0"
   d="M998,0.7c1.3,0,2.7,0,4,0c-0.5,2.7,2,3.5,3.4,4.8C1334.1,334.4,1663,663.2,1991.8,992c1.3,1.3,2.7,2.5,4,3.7   c3.5,3.3,2.6,5.9-0.6,9.2c-59.3,59.2-118.6,118.4-177.8,177.7c-270.7,270.7-541.4,541.4-812.1,812.1c-1.3,1.3-3.9,2-3.3,4.7   c-1.3,0-2.7,0-4,0c0.5-2.5-1.8-3.2-3-4.4c-69.9-70-139.9-140-209.9-210C525,1525,264.9,1264.9,4.8,1004.9c-1.3-1.3-2-3.9-4.7-3.3   c0-1,0-2,0-3c2.5,0.5,3.2-1.8,4.4-3c95.6-95.5,191.2-191.1,286.7-286.6c234.5-234.5,469-469,703.4-703.5C996,4.1,998.5,3.4,998,0.7   z M1000,800.1c34.7,34.7,69.2,69.2,103.8,103.7c30.9,30.9,61.7,61.8,92.7,92.5c2.9,2.9,2.6,4.8,0.1,7.2c-0.7,0.7-1.4,1.4-2.1,2.1   c-130.3,130.3-260.6,260.6-391,390.9c-2.9,2.9-2.8,4.1,0,7c64.2,64,128.3,128.1,192.3,192.3c3.6,3.6,5.2,3.4,8.7-0.1   c197.1-197.3,394.4-394.5,591.6-591.8c1.3-1.3,2.7-2.4,4.4-3.9c-1-0.8-1.7-1.3-2.3-1.9c-131.6-131.6-263.2-263.2-394.8-394.9   c-3-3-4.3-2.3-6.9,0.2c-28,28.1-56,56.1-84.1,84.2C1075,725.1,1037.7,762.4,1000,800.1z M600.1,800c0.6,0.7,1.2,1.3,1.8,1.8   c65,65,130.1,130.1,195,195.2c2.9,2.9,4.1,2.1,6.5-0.3C861.2,938.9,919,881,976.9,823.2c7.7-7.7,15.4-15.3,23-22.9   c-0.4-0.6-0.7-1-1-1.3c-65.4-65.4-130.8-130.8-196.1-196.2c-2.6-2.6-3.8-1.7-5.8,0.3c-27.9,28-55.8,55.9-83.7,83.8   C675.5,724.6,637.8,762.3,600.1,800z"
   id="path19"
   style="fill:#949494;fill-opacity:1" />
</g>
</svg>
