<svg width="320" height="320" viewBox="0 0 84.667 84.667" xmlns="http://www.w3.org/2000/svg"><path style="opacity:1;fill:#fff;stroke-width:.325825" d="M46.09 5.02c-1.038.057-2.08.124-3.112.254-1.001.122-1.98.361-2.946.644-.435.118-.865.253-1.29.401-.032.39-.133.9-.083 1.217 1.568-.789 3.28-1.252 5.018-1.473.985-.17 1.983-.212 2.972-.351.342-.01.707-.005.437-.383-.031-.357-.327-.332-.62-.308-.126 0-.25-.001-.376 0zm-.849 2.834c-.206.488.368.865.557 1.279.5.49-.353.822-.73.98a1.473 1.473 0 0 0-.786-1.223c-.415-.151-.712-.448-.77-.802-.485-.242-1.021.182-1.107.67-.188.67.018 1.32.627 1.71.307.293.692.68 1.039.57-.905.046-1.36-1.405-2.033.242-.156.297-.12.865-.19 1.192a5.883 5.883 0 0 1-1.788-.373c-.676-.25-.565.8.005.808.847.62 1.74 1.176 2.592 1.79.384.188.736.748 1.115.676.308-.27.943-.82.247-.948-.202-.474-.453-.938-.52-1.443.422.247.96.367 1.466.446.915.174 1.851.18 2.755-.08.42-.32-.154-.926-.25-1.304-.44-.378.098-.306.324-.324.005-.338-.388-.9.226-.873.658-.096.456-.858.178-1.233-.234-.32-.408-.997-.852-.515-.374-.06-.762-.729-.26-.968.193-.34.699-.053.766-.523.106-.736-.071-.47-.411-.541-1.139-.452-1.82.293-2.2.787z"/><path style="opacity:1;fill:#000;stroke-width:.307261" d="M39.685 3.617c-.933.424-.692 1.878-.934 2.699 2.006-.693 4.035-1.038 6.16-1.12.55-.187 2.028.519 2.204.167-.406-.773-.851-2.39-1.753-2.705-2.178-.251-4.018-.062-5.677.96zm7.526 2.031c-2.761.173-5.527.466-8.044 1.647-.273.113-.541.263-.541.263s-1.979.903-2.378 1.438c0 .264.265.529.265.529s.793-.265 1.852-.265c1.852 0 .465 2.838.264 3.97-.529 1.057-.883 1.282-1.233 2.07-.436.586-1.413 1.104-2.036 1.773-1.533 2.208-.964 8.062-.964 10.708 0 2.646 0 5.292 2.646 10.584-2.646 3.968 0 7.937 5.291 7.937 0 0 4.234.53 4.234-6.085 0 0 1.058-3.511 1.058-7.938-.265-2.646-.857-7.13-1.332-8.629l.162-.783s-.765-2.04-1.57-3.597c.737-.418 1.472-.84 2.204-1.268-.246-.547-1.222-1.045-1.773-1.547-.527-.383-1.008-.776-1.532-1.096-.392-.807-.561-1.113-.561-1.113s-1.949-1.272-2.772-1.062c-.2-.132.03-.22-.605-.388-.158-.36-.423-.89.645-.557.438.147.897.206 1.357.233a6.28 6.28 0 0 1 .73-1.848c.524.117 1.013.74 1.575.47.1-.28-.497-.246-.761-.51-.928-.467-1.399-1.693-.615-2.421.536-.39 1.038.64 1.144 1.097.526.402.529-.264 1.134.928.407-.116 1.247-.134 1.247-.134s-.264-.794-.693-1.216c-.188-.316-.61-.746-.266-1.103.63-.641 1.731-1.004 2.54-.475.614-.235 1.859-.38 2.388-.91 0-.265 0-.265-.061-.324-.667-.243-2.126-.281-2.658-.348-.114-.01-.228-.019-.341-.03zm.226 2.285c-.677.098-.88.918-.141 1.185.706-.106.159-.79.406-1.257zm-.102 3.784c-.26.457.345.922.418.089.192-.225-.323-.006-.418-.089zm-3.852 1.241c.052.553.492 1.604.83 1.835.313-.374.935-.165 1.354-.345.75-.238 1.829-.195 2.292-1.055-.02-.314-.092-.427-.092-.427s-.112.36-.174.37c-.198.036-.597.158-.626.146-1.216.144-2.444-.117-3.584-.524z"/><path style="opacity:1;fill:#ccc;stroke-width:.325825" d="M46.09 5.02c-1.038.057-2.08.124-3.112.254-1.001.122-1.98.361-2.946.644-.435.118-.865.253-1.29.401-.032.39-.133.9-.083 1.217 1.568-.789 3.28-1.252 5.018-1.473 1.311-.204 2.36-.266 3.577-.41l-.283-.62s-.333-.026-.506-.012c-.124.01-.25-.001-.375 0z"/></svg>