<svg width="320" height="320" viewBox="0 0 84.667 84.667" xmlns="http://www.w3.org/2000/svg"><path style="opacity:1;fill:#000;stroke-width:.294074" d="M42.333 46.302c-1.605-.31-15.97-5.536-16.43-9.478-.223-1.012.947-2.148.947-2.148 2.949-2.175 6.875-7.498 7.407-9.1.548-2.28.716-1.963 1.653-1.775l2.337.634c2.302-1.2 1.922-2.106 1.922-2.106-.512-.694-.093-1.308-.093-1.308 1.712-.216 1.772-2.006 1.772-2.006l.02-2.645.516-.586.781.201c1.172 2.05.509 4.47.509 4.47s-.025 1.547-.198 2.241c0 0 1.37-.094 1.327.222l-.086 2.695c-2.115 1.26-4.066.687-4.066.687l-7.578 9.419c4.343.102 5.868.088 8.673 2.06 4.556.586 4.556 4.554 4.556 4.554 0 3.97-3.969 3.97-3.969 3.97z"/><path style="opacity:1;fill:#e6e6e6;stroke-width:.294074" d="M43.28 17.822s-.152 1.48-1.124 2.032l.98.916-1.094 1.839s.274 3.67.2 3.849l-.295.01-.436-2.964s.022-1.08-1.319-1.149c0 0-.32-.081-.42-1.49 0 0 1.82-.423 2.034-1.905 0 0-.023-2.277.07-2.628.17-.312.456-.583.456-.583l.56.164s.413.993.388 1.909z"/><path style="opacity:1;fill:#ccc;stroke-width:.471001" d="M26.723 38.365c4.042 3.43 13.141 7.063 14.196 7.514-.763-.153-4.256-1.17-7.733-2.835-2.55-1.222-5.12-2.776-6.463-4.68zm10.937-8.621s1.105-1.085 1.098-1.093c-.022.059-1.957 2.64-2.094 2.851.126-.202-3.455 4.235-3.591 4.217.05-.476 4.587-5.975 4.587-5.975z"/><path style="opacity:1;fill:#4d4d4d;stroke-width:.471001" d="M32.147 30.594s1.961-3.483 2.466-4.553c.505-1.07-1.61 5.513-2.259 5.345-.648-.168-.322.955-.664.527-.341-.428.457-1.32.457-1.32z"/></svg>