<svg width="320" height="320" viewBox="0 0 84.667 84.667" xmlns="http://www.w3.org/2000/svg"><path style="opacity:1;fill:#fff;stroke-width:.294074" d="M38.107 40.208c-.143-1.059.258-11.104.118-13.398-.515-1.68.025-2.855.025-2.855.427-2.49 2.856-5.244 2.856-5.244s.495-5.868.67-6.236c-.058-.44.07-1.167.07-1.167.649-.196 2.345.157 2.345.157-.066-1.739-.546-1.955-.546-1.955-.136-.412-.136-.777-.136-.777-.139-1.401.097-3.248.097-3.248l-.617-1.783c-.361-.396-1.254-1.2-1.254-1.2-.201-.214.598-.917.598-.917 3.293 2.288 4.372 5.265 4.372 5.265.114.721.687 1.246.687 1.246l.6-.022 1.949 1.742-1.17 1.5-.97.165-.706.848.544.258-1.883 7.36c-2.017 5.422-1.88 7.037-1.88 7.037.122 2.902 1.203 6.236 1.203 6.236 1.752 6.203 2.281 12.818-2.746 12.818-4.233 0-4.233-5.028-4.226-5.83z"/><path style="opacity:1;fill:#4d4d4d;stroke-width:.294074" d="M44.19 11.467s-.016-1.407-.62-1.993c0 0-.314-2.657-.011-4.04 0 0-.062-.316-1.384-2.531 0 0 1.05-.055 1.957 1.34 0 0 1.462 1.565 1.603 2.347 0 0-.018 1.494.635 1.887.393.415.91.882 1.127 1 .657.577.657.842.95 1.221l-.446.278s-.111-.128-.636-.926c0 0-.618-.61-1.082-1.02-.65-.18-1.874-.142-2.32.354.271.36.496.785.496.785l.147 1.198c-.109.12-.393.102-.417.1z"/><path style="opacity:1;fill:#ccc;stroke-width:.294074" d="M43.961 20.506c.038-.65.29-1.607-.695-2.556.015-.744 1.318-1.79 1.318-1.79.011-.618.833-1.689.833-1.689.157.351.457.581.457.581.02-.478.695-1.122.695-1.122.09.125.371.565.371.565l-.449.812c-.184.189-.84.297-.84.297-.166.13-1.402 4.842-1.402 4.842z"/><path style="opacity:1;fill:#b3b3b3;stroke-width:.294074" d="M38.037 24.804c.02-.31.328-3.373 3.09-6.368 0 0 .495-6.675.512-7.148.488-.043.808-.04.808-.04s-.077 1.006-.167 2.293c-.038.533-.278 1.11-.164 1.773.212 1.239.181 3.24.076 4.52-.183 2.236-.407 3.349-1.03 3.222.487-2.291.035-3.652.035-3.652-.365.07-.868 1.968-.868 1.968.305.859.026 1.614.026 1.614-.544.355-1.614 2.17-2.318 1.818z"/><path style="fill:#4d4d4d;stroke-width:.524463" d="M38.226 26.814c.668.438.352 8.959-.172 11.596.046-1.897.228-11.283.172-11.596z"/></svg>