<svg width="320" height="320" viewBox="0 0 84.667 84.667" xmlns="http://www.w3.org/2000/svg"><path style="opacity:1;fill:#000;stroke-width:.294074" d="M41.754 36.315c-.061 1.756.257 1.001 1.36 1.92.969.89 2.417.184 1.295-1.774.01-.34.49-.476.71.005.309.605 1.405 1.476-.127 3.153l-.713.403c.047 2.25-1.787 3.083-2.938 1.31l-1.166-2.043c-.458-.596-.073-2.17.104-2.65 0 0 .498-.437.499-2.662l1.226-23.428c.014-.367.529-.447.594.003 0 0 .265 15.906-.844 25.763z"/><path style="opacity:1;fill:#ccc;stroke-width:.294074" d="m41.942 36.448-.358.19s1.092-18.75.77-26.39c0 0 .25.003.276.468.66 11.762-.935 24.48-.688 25.732z"/><path style="fill:#fff;stroke-width:.0858513" d="M41.447 36.45c.571-.088.848-.047 1.02.15.134.152.036.27-.407.49-.268.135-.328.204-.306.347.016.1-.104.427-.266.728-.162.302-.282.574-.267.605.016.031.156.082.311.114.077.006.176-.204.239-.308 0 0 .561-1.44.725-1.623.06-.067.198-.169.308-.227.233-.125.62.058.713.338.051.15-.007.229-.362.487-.324.236-.452.394-.553.682-.073.206-.155.508-.286.607-.089.355.092.298.206.396l.246-.695c.284-.799.393-.945.899-1.198.413-.206.7-.154.853.157.252.794-.53 1.34-.686 1.024-.086-.03-.3.605-.335.992-.026.289.436.458.436.458l.372.117c.143 2.242-.918 2.85-1.177 3.053-.253.196-1.14.445-1.345.377-.143-.048-.188-.149-.338-.767-.136-.562-.322-1.01-.889-2.144l-.716-1.434.235-.776c.13-.426.294-.987.364-1.245.146-.532.223-.586 1.006-.706z"/><path style="opacity:1;fill:#ccc;stroke-width:.471001" d="M44.98 36.248s.72.141.873 1.692c.121.808-.477 1.422-.832 1.666 0 0 1.202-1.506-.042-3.358z"/></svg>