<svg width="400" height="400" viewBox="0 0 105.833 105.833" xmlns:xlink="http://www.w3.org/1999/xlink" xmlns="http://www.w3.org/2000/svg"><defs><linearGradient id="b"><stop style="stop-color:#b3fbff;stop-opacity:1" offset="0"/><stop style="stop-color:#d5fdff;stop-opacity:1" offset="1"/></linearGradient><linearGradient id="a"><stop style="stop-color:#4c4c4c;stop-opacity:1" offset="0"/><stop style="stop-color:#010101;stop-opacity:1" offset="1"/></linearGradient><linearGradient xlink:href="#a" id="c" x1="2.646" y1="2.646" x2="103.188" y2="103.188" gradientUnits="userSpaceOnUse" gradientTransform="translate(0 1.95)"/><linearGradient xlink:href="#b" id="d" x1="5.292" y1="5.292" x2="100.542" y2="100.542" gradientUnits="userSpaceOnUse" gradientTransform="translate(0 1.95)"/></defs><path style="fill:url(#c);fill-opacity:1;stroke:none;stroke-width:.449797" d="m45.92 10.144.196.65 3.898 12.995h5.805l4.094-13.645zm.68.506h12.633l-3.79 12.633H50.39zm3.285 2.526 2.274 7.58h1.516l2.274-7.58zm.679.506h4.706l-1.971 6.57h-.764z"/><path style="fill:#f8ffff;fill-opacity:.997946;stroke:url(#d);stroke-width:.558;stroke-linecap:butt;stroke-linejoin:miter;stroke-miterlimit:4;stroke-dasharray:none;stroke-opacity:1;paint-order:normal" d="m46.6 10.65 3.79 12.633h5.053l3.79-12.633zm3.285 2.526h6.064l-2.274 7.58h-1.516z"/><g aria-label="HOUR MODE" style="font-size:3.175px;line-height:.85;letter-spacing:-.0529167px;fill:#fff;stroke-width:.264583"><path d="M48.26 10.468h-.35V8.245h.35v.953h.397v-.953h.355v2.223h-.355v-.953h-.397zm1.274-.511q0 .12.048.171.05.048.133.048.082 0 .13-.048.05-.05.05-.171v-1.2q0-.121-.05-.169-.048-.05-.13-.05-.083 0-.133.05-.048.048-.048.168zm-.35-1.178q0-.27.137-.413.137-.146.394-.146t.394.146q.136.143.136.413v1.155q0 .27-.136.416-.137.143-.394.143t-.394-.143q-.136-.146-.136-.416zm1.567-.534V9.96q0 .12.048.168.05.048.133.048t.13-.048q.051-.048.051-.168V8.245h.33v1.693q0 .27-.133.415-.13.143-.387.143-.258 0-.391-.143-.13-.146-.13-.415V8.245zm1.608 2.223-.013-.042-.013-.047-.006-.073v-.461q0-.155-.054-.219-.054-.063-.175-.063h-.12v.905h-.35V8.245h.527q.274 0 .394.127.124.127.124.384v.175q0 .343-.229.45.134.055.181.179.051.12.051.295v.343q0 .082.007.146.006.06.031.124zm-.381-1.905v.682h.136q.099 0 .153-.05.057-.051.057-.185v-.219q0-.12-.045-.174-.041-.054-.133-.054z" style="fill:#fff" transform="translate(-.166 -.916)"/><path d="m54.03 9.823.239-1.578h.486v2.223h-.33V8.874l-.242 1.594h-.33l-.26-1.572v1.572h-.305V8.245h.486zm1.246.134q0 .12.048.171.05.048.133.048t.13-.048q.051-.05.051-.171v-1.2q0-.121-.05-.169-.048-.05-.13-.05-.083 0-.134.05-.048.048-.048.168zm-.349-1.178q0-.27.137-.413.136-.146.393-.146.258 0 .394.146.137.143.137.413v1.155q0 .27-.137.416-.136.143-.394.143-.257 0-.393-.143-.137-.146-.137-.416zm1.233-.534h.553q.263 0 .39.14.13.14.13.41v1.123q0 .27-.13.41-.127.14-.39.14h-.553zm.35.318v1.587h.196q.083 0 .13-.047.048-.048.048-.169V8.78q0-.121-.048-.169-.047-.047-.13-.047zm1.242.619h.48v.317h-.48v.651h.603v.318h-.952V8.245h.952v.318h-.603z" style="font-family:'Bebas Neue';-inkscape-font-specification:'Bebas Neue';fill:#fff" transform="translate(-.166 -.916)"/></g></svg>