<svg width="400" height="400" viewBox="0 0 105.833 105.833" xmlns:xlink="http://www.w3.org/1999/xlink" xmlns="http://www.w3.org/2000/svg"><defs><linearGradient id="c"><stop style="stop-color:#8c8c8c;stop-opacity:1" offset="0"/><stop style="stop-color:#feffff;stop-opacity:1" offset=".499"/><stop style="stop-color:#8c8c8c;stop-opacity:1" offset="1"/></linearGradient><linearGradient id="b"><stop style="stop-color:#b3fbff;stop-opacity:1" offset="0"/><stop style="stop-color:#d5fdff;stop-opacity:1" offset="1"/></linearGradient><linearGradient id="a"><stop style="stop-color:#4c4c4c;stop-opacity:1" offset="0"/><stop style="stop-color:#010101;stop-opacity:1" offset="1"/></linearGradient><linearGradient xlink:href="#a" id="d" x1="2.646" y1="2.646" x2="103.188" y2="103.188" gradientUnits="userSpaceOnUse"/><linearGradient xlink:href="#b" id="e" x1="5.292" y1="5.292" x2="100.542" y2="100.542" gradientUnits="userSpaceOnUse"/><linearGradient xlink:href="#c" id="f" x1="91.281" y1="59.531" x2="91.281" y2="46.302" gradientUnits="userSpaceOnUse"/><linearGradient xlink:href="#b" id="h" gradientUnits="userSpaceOnUse" x1="5.292" y1="5.292" x2="100.542" y2="100.542" gradientTransform="rotate(-30.001 49.943 -42.01) scale(.26459)"/><linearGradient xlink:href="#a" id="g" gradientUnits="userSpaceOnUse" x1="2.646" y1="2.646" x2="103.188" y2="103.188" gradientTransform="rotate(-30.001 49.262 -40.84) scale(.26459)"/><linearGradient xlink:href="#b" id="j" gradientUnits="userSpaceOnUse" gradientTransform="rotate(-60 38.712 5.85) scale(.26458)" x1="5.292" y1="5.292" x2="100.542" y2="100.542"/><linearGradient xlink:href="#a" id="i" gradientUnits="userSpaceOnUse" gradientTransform="rotate(-60 38.528 6.526) scale(.26458)" x1="2.646" y1="2.646" x2="103.188" y2="103.188"/><linearGradient xlink:href="#b" id="l" gradientUnits="userSpaceOnUse" gradientTransform="rotate(-120 32.227 33.483) scale(.26458)" x1="5.292" y1="5.292" x2="100.542" y2="100.542"/><linearGradient xlink:href="#a" id="k" gradientUnits="userSpaceOnUse" gradientTransform="rotate(-120.001 32.33 33.875) scale(.26459)" x1="2.646" y1="2.646" x2="103.188" y2="103.188"/><linearGradient xlink:href="#b" id="n" gradientUnits="userSpaceOnUse" gradientTransform="rotate(149.999 27.48 53.713) scale(.26459)" x1="5.292" y1="5.292" x2="100.542" y2="100.542"/><linearGradient xlink:href="#a" id="m" gradientUnits="userSpaceOnUse" gradientTransform="rotate(149.999 27.792 53.895) scale(.26459)" x1="2.646" y1="2.646" x2="103.188" y2="103.188"/><linearGradient xlink:href="#b" id="p" gradientUnits="userSpaceOnUse" gradientTransform="rotate(-150 30.49 40.887) scale(.26458)" x1="5.292" y1="5.292" x2="100.542" y2="100.542"/><linearGradient xlink:href="#a" id="o" gradientUnits="userSpaceOnUse" gradientTransform="rotate(-149.999 30.67 41.202) scale(.26459)" x1="2.646" y1="2.646" x2="103.188" y2="103.188"/><linearGradient xlink:href="#b" id="r" gradientUnits="userSpaceOnUse" gradientTransform="rotate(120 25.742 61.116) scale(.26458)" x1="5.292" y1="5.292" x2="100.542" y2="100.542"/><linearGradient xlink:href="#a" id="q" gradientUnits="userSpaceOnUse" gradientTransform="rotate(120.001 26.133 61.222) scale(.26459)" x1="2.646" y1="2.646" x2="103.188" y2="103.188"/><linearGradient xlink:href="#b" id="t" gradientUnits="userSpaceOnUse" gradientTransform="rotate(60 19.257 88.749) scale(.26458)" x1="5.292" y1="5.292" x2="100.542" y2="100.542"/><linearGradient xlink:href="#a" id="s" gradientUnits="userSpaceOnUse" gradientTransform="rotate(60 19.935 88.57) scale(.26458)" x1="2.646" y1="2.646" x2="103.188" y2="103.188"/><linearGradient xlink:href="#a" id="u" gradientUnits="userSpaceOnUse" gradientTransform="rotate(30 9.2 135.938) scale(.26458)" x1="2.646" y1="2.646" x2="103.188" y2="103.188"/></defs><path style="fill:url(#d);fill-opacity:1;stroke:none;stroke-width:.449797" d="M7.232 48.748v8.4l14.403-.816v-6.767l-.478-.026-13.925-.791zm.506.536 13.392.758v5.812l-13.392.758zm90.664-1.665-15.058.006v10.583l15.058.007zm-.506.535v9.525l-14.046.053v-9.628zM10.263 52l.001 1.896 8.337-.316v-1.264zm.506.534 7.328.27v.29l-7.327.277zm85.804-3.32H84.667v7.408h11.906zm-.53.793v5.821H85.726v-5.82zM49.53 84.2l-.026.478c-.264 4.641-.524 9.283-.79 13.925h8.399c-.272-4.8-.542-9.602-.816-14.403zm.478.506h5.811l.758 13.391H49.25zm2.273 2.528-.316 8.339 1.896-.002-.316-8.337zm.488.504h.289l.277 7.327-.836.001z"/><path style="fill:#0ff;fill-opacity:.997946;stroke:url(#e);stroke-width:.558;stroke-linecap:butt;stroke-linejoin:miter;stroke-miterlimit:4;stroke-dasharray:none;stroke-opacity:1;paint-order:normal" d="M7.738 49.284v7.328l13.392-.758v-5.812zm90.158-1.13H83.873v9.525h14.023zM10.263 52l8.338.316v1.264l-8.337.316zm86.31-2.522v6.88H85.196v-6.88zM50.008 84.706l-.758 13.391h7.327l-.758-13.391zm2.273 2.528h1.264l.316 8.337-1.896.002z"/><path style="opacity:1;fill:url(#f);fill-opacity:1;stroke-width:.558001" d="M85.725 50.006h10.319v5.821H85.725z"/><path d="M31.792 16.406a5.517 5.517 0 0 0-.32.198c-1.745 1.194-2.714 3.406-2.343 5.496.335 2.205 2.125 4.066 4.304 4.525 2.546.602 5.364-.88 6.307-3.32 1.118-2.55-.07-5.8-2.566-7.036-1.672-.899-3.753-.799-5.382.137zm.282.413a5.054 5.054 0 1 1 5.052 8.755 5.054 5.054 0 0 1-5.052-8.755zm1.242 2.152a2.568 2.568 0 1 0 2.567 4.448 2.568 2.568 0 0 0-2.567-4.448zm.227.458c.18-.1.328-.164.517-.231 1.38-.435 2.899.944 2.552 2.356-.186 1.51-2.245 2.244-3.346 1.19-1.084-.839-.858-2.665.277-3.315z" style="fill:url(#g);fill-opacity:1;stroke:none;stroke-width:.119009"/><path d="M32.075 16.816a5.053 5.053 0 1 0 5.052 8.754 5.053 5.053 0 0 0-5.052-8.754zm1.242 2.152a2.568 2.568 0 1 1 2.568 4.447 2.568 2.568 0 0 1-2.568-4.447z" style="fill:#0ff;fill-opacity:.997946;stroke:url(#h);stroke-width:.548;stroke-linecap:butt;stroke-linejoin:miter;stroke-miterlimit:4;stroke-dasharray:none;stroke-opacity:1;paint-order:normal"/><path d="M16.367 31.86a5.515 5.515 0 0 0-.178.33c-.915 1.907-.648 4.308.719 5.933 1.392 1.741 3.873 2.458 5.99 1.766 2.506-.752 4.205-3.444 3.802-6.028-.307-2.769-2.961-4.988-5.74-4.811-1.898.057-3.65 1.185-4.593 2.81zm.45.217a5.054 5.054 0 1 1 8.753 5.055 5.054 5.054 0 0 1-8.753-5.055zm2.152 1.242a2.568 2.568 0 1 0 4.447 2.568 2.568 2.568 0 0 0-4.447-2.568zm.426.283c.106-.176.202-.306.332-.459.978-1.066 2.983-.631 3.389.765.593 1.401-.823 3.065-2.304 2.703-1.358-.184-2.075-1.878-1.417-3.009z" style="fill:url(#i);fill-opacity:1;stroke:none;stroke-width:.119009"/><path d="M16.817 32.074a5.053 5.053 0 1 0 8.752 5.054 5.053 5.053 0 0 0-8.752-5.054zm2.151 1.242a2.568 2.568 0 1 1 4.448 2.567 2.568 2.568 0 0 1-4.448-2.567z" style="fill:#0ff;fill-opacity:.997946;stroke:url(#j);stroke-width:.548;stroke-linecap:butt;stroke-linejoin:miter;stroke-miterlimit:4;stroke-dasharray:none;stroke-opacity:1;paint-order:normal"/><path d="M16.405 74.04c.063.109.129.215.198.32 1.194 1.745 3.407 2.715 5.497 2.344 2.205-.336 4.066-2.126 4.525-4.305.602-2.546-.88-5.364-3.32-6.307-2.551-1.118-5.8.07-7.036 2.566-.9 1.672-.799 3.754.136 5.382zm.414-.281a5.054 5.054 0 1 1 8.755-5.052 5.054 5.054 0 0 1-8.755 5.052zm2.151-1.243a2.568 2.568 0 1 0 4.448-2.567 2.568 2.568 0 0 0-4.448 2.567zm.459-.226a3.292 3.292 0 0 1-.231-.518c-.435-1.38.944-2.899 2.356-2.552 1.51.187 2.243 2.245 1.19 3.346-.839 1.084-2.665.859-3.315-.276z" style="fill:url(#k);fill-opacity:1;stroke:none;stroke-width:.119009"/><path d="M16.816 73.758a5.053 5.053 0 1 0 8.753-5.053 5.053 5.053 0 0 0-8.753 5.053zm2.152-1.242a2.568 2.568 0 1 1 4.447-2.569 2.568 2.568 0 0 1-4.447 2.569z" style="fill:#0ff;fill-opacity:.997946;stroke:url(#l);stroke-width:.548;stroke-linecap:butt;stroke-linejoin:miter;stroke-miterlimit:4;stroke-dasharray:none;stroke-opacity:1;paint-order:normal"/><path d="M74.04 89.427c.108-.062.215-.128.32-.198 1.745-1.194 2.714-3.407 2.343-5.497-.335-2.204-2.125-4.066-4.304-4.525-2.546-.601-5.364.88-6.307 3.32-1.118 2.551.07 5.8 2.566 7.037 1.672.898 3.753.798 5.382-.137zm-.282-.414a5.054 5.054 0 1 1-5.052-8.755 5.054 5.054 0 0 1 5.052 8.755zm-1.242-2.151a2.568 2.568 0 1 0-2.567-4.448 2.568 2.568 0 0 0 2.567 4.448zm-.227-.458a3.25 3.25 0 0 1-.517.23c-1.38.436-2.899-.944-2.552-2.356.186-1.51 2.245-2.243 3.346-1.19 1.084.84.858 2.665-.277 3.316z" style="fill:url(#m);fill-opacity:1;stroke:none;stroke-width:.119009"/><path d="M73.757 89.016a5.053 5.053 0 1 0-5.052-8.753 5.053 5.053 0 0 0 5.052 8.753zm-1.242-2.151a2.568 2.568 0 1 1-2.568-4.448 2.568 2.568 0 0 1 2.568 4.448z" style="fill:#0ff;fill-opacity:.997946;stroke:url(#n);stroke-width:.548;stroke-linecap:butt;stroke-linejoin:miter;stroke-miterlimit:4;stroke-dasharray:none;stroke-opacity:1;paint-order:normal"/><path d="M31.859 89.465c.108.063.218.122.33.178 1.908.915 4.309.648 5.933-.718 1.742-1.393 2.459-3.874 1.767-5.99-.752-2.506-3.444-4.206-6.029-3.803-2.768.308-4.988 2.962-4.81 5.74.057 1.898 1.185 3.65 2.809 4.593zm.217-.45a5.054 5.054 0 1 1 5.056-8.753 5.054 5.054 0 0 1-5.056 8.753zm1.242-2.152a2.568 2.568 0 1 0 2.569-4.447 2.568 2.568 0 0 0-2.569 4.447zm.284-.425a3.292 3.292 0 0 1-.46-.333c-1.066-.977-.63-2.983.766-3.388 1.401-.594 3.065.822 2.703 2.303-.184 1.358-1.878 2.075-3.01 1.418z" style="fill:url(#o);fill-opacity:1;stroke:none;stroke-width:.119009"/><path d="M32.073 89.015a5.053 5.053 0 1 0 5.055-8.752 5.053 5.053 0 0 0-5.055 8.752zm1.242-2.151a2.568 2.568 0 1 1 2.568-4.448 2.568 2.568 0 0 1-2.568 4.448z" style="fill:#0ff;fill-opacity:.997946;stroke:url(#p);stroke-width:.548;stroke-linecap:butt;stroke-linejoin:miter;stroke-miterlimit:4;stroke-dasharray:none;stroke-opacity:1;paint-order:normal"/><path d="M89.465 73.974c.063-.109.122-.22.178-.332.915-1.906.648-4.307-.719-5.932-1.392-1.741-3.873-2.459-5.99-1.766-2.506.751-4.205 3.443-3.802 6.028.307 2.769 2.961 4.988 5.74 4.81 1.898-.057 3.65-1.184 4.593-2.808zm-.45-.218a5.054 5.054 0 1 1-8.753-5.056 5.054 5.054 0 0 1 8.752 5.056zm-2.152-1.242a2.568 2.568 0 1 0-4.448-2.568 2.568 2.568 0 0 0 4.448 2.568zm-.426-.283a3.292 3.292 0 0 1-.332.459c-.978 1.066-2.983.63-3.389-.765-.593-1.402.823-3.066 2.303-2.704 1.359.184 2.076 1.879 1.418 3.01z" style="fill:url(#q);fill-opacity:1;stroke:none;stroke-width:.119009"/><path d="M89.015 73.759a5.053 5.053 0 1 0-8.752-5.054 5.053 5.053 0 0 0 8.752 5.054zm-2.151-1.242a2.568 2.568 0 1 1-4.448-2.568 2.568 2.568 0 0 1 4.448 2.568z" style="fill:#0ff;fill-opacity:.997946;stroke:url(#r);stroke-width:.548;stroke-linecap:butt;stroke-linejoin:miter;stroke-miterlimit:4;stroke-dasharray:none;stroke-opacity:1;paint-order:normal"/><path d="M89.427 31.792a5.515 5.515 0 0 0-.198-.319c-1.194-1.746-3.407-2.715-5.497-2.344-2.205.335-4.066 2.125-4.525 4.305-.602 2.545.88 5.363 3.32 6.307 2.551 1.118 5.8-.071 7.036-2.567.899-1.672.799-3.753-.136-5.382zm-.414.282a5.054 5.054 0 1 1-8.755 5.052 5.054 5.054 0 0 1 8.755-5.052zm-2.151 1.242a2.568 2.568 0 1 0-4.448 2.568 2.568 2.568 0 0 0 4.448-2.568zm-.459.227c.1.18.164.329.231.518.435 1.38-.944 2.898-2.356 2.552-1.51-.187-2.243-2.246-1.19-3.347.839-1.084 2.665-.858 3.315.277z" style="fill:url(#s);fill-opacity:1;stroke:none;stroke-width:.119009"/><path d="M89.016 32.075a5.053 5.053 0 1 0-8.753 5.052 5.053 5.053 0 0 0 8.753-5.052zm-2.152 1.242a2.568 2.568 0 1 1-4.447 2.568 2.568 2.568 0 0 1 4.447-2.568z" style="fill:#0ff;fill-opacity:.997946;stroke:url(#t);stroke-width:.548;stroke-linecap:butt;stroke-linejoin:miter;stroke-miterlimit:4;stroke-dasharray:none;stroke-opacity:1;paint-order:normal"/><path d="M73.973 16.367a5.515 5.515 0 0 0-.331-.177c-1.907-.915-4.308-.648-5.932.718-1.742 1.393-2.459 3.874-1.767 5.99.752 2.506 3.444 4.206 6.029 3.803 2.768-.308 4.988-2.962 4.81-5.741-.057-1.898-1.185-3.65-2.809-4.593zm-.217.45a5.054 5.054 0 1 1-5.056 8.754 5.054 5.054 0 0 1 5.056-8.753zm-1.242 2.152a2.568 2.568 0 1 0-2.569 4.448 2.568 2.568 0 0 0 2.569-4.448zm-.284.426c.176.106.306.203.46.333 1.065.977.63 2.982-.766 3.388-1.401.594-3.065-.823-2.703-2.303.184-1.358 1.878-2.076 3.01-1.418z" style="fill:url(#u);fill-opacity:1;stroke:none;stroke-width:.119009"/><path d="M73.759 16.817a5.053 5.053 0 1 0-5.055 8.752 5.053 5.053 0 0 0 5.055-8.752zm-1.243 2.152a2.568 2.568 0 1 1-2.567 4.448 2.568 2.568 0 0 1 2.567-4.448z" style="fill:#0ff;fill-opacity:.997946;stroke:#b3fbff;stroke-width:.548;stroke-linecap:butt;stroke-linejoin:miter;stroke-miterlimit:4;stroke-dasharray:none;stroke-opacity:1;paint-order:normal"/></svg>