<svg width="400" height="400" viewBox="0 0 105.833 105.833" xmlns:xlink="http://www.w3.org/1999/xlink" xmlns="http://www.w3.org/2000/svg"><defs><linearGradient id="c"><stop style="stop-color:#141b1b;stop-opacity:1" offset="0"/><stop style="stop-color:#5b7979;stop-opacity:1" offset=".493"/><stop style="stop-color:#232f2f;stop-opacity:1" offset="1"/></linearGradient><linearGradient id="b"><stop style="stop-color:#04e824;stop-opacity:.9035417" offset="0"/><stop style="stop-color:#04e824;stop-opacity:.6" offset=".496"/><stop style="stop-color:#04e824;stop-opacity:.90421588" offset="1"/></linearGradient><linearGradient id="a"><stop style="stop-color:#575757;stop-opacity:1" offset="0"/><stop style="stop-color:#2b2b2b;stop-opacity:1" offset=".498"/><stop style="stop-color:#575757;stop-opacity:1" offset="1"/></linearGradient><linearGradient xlink:href="#a" id="d" x1="52.917" y1="22.49" x2="52.917" y2="46.302" gradientUnits="userSpaceOnUse" gradientTransform="scale(3.77953)"/><linearGradient xlink:href="#b" id="f" x1="51.329" y1="35.057" x2="54.504" y2="35.057" gradientUnits="userSpaceOnUse"/><linearGradient xlink:href="#c" id="e" x1="186.299" y1="210.014" x2="213.701" y2="210.014" gradientUnits="userSpaceOnUse"/></defs><path style="opacity:1;fill:url(#d);fill-opacity:1;stroke-width:6.50846" d="m200 85-10 10v70l2 12 .168 14.967L195 192v-15h10l.023 15H208v-15l2-12V95zm0 7 6 6v67l-2 8h-8l-2-8V98z" transform="scale(.26458)"/><path style="fill:#f9f9f9;fill-opacity:.997946;stroke-width:.958308;paint-order:markers fill stroke" d="M53.975 46.831h.794V50.8h-.794zm-2.91 0h.793V50.8h-.793z"/><path style="opacity:1;fill:#f9f9f9;fill-opacity:.997946;stroke:url(#e);stroke-width:1.4022;stroke-linecap:butt;stroke-linejoin:miter;stroke-miterlimit:4;stroke-dasharray:none;stroke-opacity:.8;paint-order:stroke fill markers" d="M200 187c-7.18 0-13 5.82-13 13 .002 1.717.345 3.416.672 4.208L200 232l12.327-27.792c.328-.792.67-2.491.673-4.208 0-7.18-5.82-13-13-13z" transform="scale(.26458)"/><path style="opacity:1;fill:#04e824;fill-opacity:1;stroke-width:6.50846" d="m200 87-9 9v69l2 11h14l2-11V96zm0 5 6 6v67l-2 8h-8l-2-8V98z" transform="scale(.26458)"/><path style="opacity:.75;fill:url(#f);fill-opacity:1;stroke-width:1.72203" d="m52.917 24.342 1.587 1.587v17.727l-.529 2.117h-2.117l-.529-2.117V25.93z"/></svg>