<svg width="400" height="400" viewBox="0 0 105.833 105.833" xmlns:xlink="http://www.w3.org/1999/xlink" xmlns="http://www.w3.org/2000/svg"><defs><linearGradient id="c"><stop style="stop-color:#000;stop-opacity:1" offset="0"/><stop style="stop-color:#000;stop-opacity:.50588235" offset=".492"/><stop style="stop-color:#000;stop-opacity:.83812724" offset="1"/></linearGradient><linearGradient id="b"><stop style="stop-color:#0ff;stop-opacity:.90089549" offset="0"/><stop style="stop-color:#0ff;stop-opacity:.6" offset=".478"/><stop style="stop-color:#0ff;stop-opacity:.90202112" offset="1"/></linearGradient><linearGradient id="a"><stop style="stop-color:#686868;stop-opacity:1" offset="0"/><stop style="stop-color:#1d1d1d;stop-opacity:1" offset=".454"/><stop style="stop-color:#414141;stop-opacity:1" offset="1"/></linearGradient><linearGradient xlink:href="#a" id="d" x1="52.917" y1="9.796" x2="52.917" y2="46.302" gradientUnits="userSpaceOnUse" gradientTransform="scale(3.77953)"/><linearGradient xlink:href="#b" id="f" x1="51.329" y1="28.443" x2="54.504" y2="28.443" gradientUnits="userSpaceOnUse"/><linearGradient xlink:href="#c" id="e" x1="189.438" y1="207.719" x2="210.563" y2="207.719" gradientUnits="userSpaceOnUse"/></defs><path style="opacity:1;fill:url(#d);fill-opacity:1;stroke-width:6.50846" d="m200 35-10 10v120l2 12 .145 16.967 2.832.033.023-17h10v17h2.977l.023-17 2-12V45l-10-10zm0 7 6 6v117l-2 8h-8l-2-8V48l6-6z" transform="scale(.26458)"/><path style="fill:#f9f9f9;fill-opacity:.997946;stroke-width:1.0202;paint-order:markers fill stroke" d="M53.975 46.831h.794v4.498h-.794z"/><path style="fill:#f9f9f9;fill-opacity:.997946;stroke-width:.989736;paint-order:markers fill stroke" d="M51.065 46.831h.793v4.234h-.793z"/><path style="opacity:.855437;fill:#f9f9f9;fill-opacity:1;stroke:url(#e);stroke-width:.786142;stroke-linecap:butt;stroke-linejoin:miter;stroke-miterlimit:4;stroke-dasharray:none;stroke-opacity:1;paint-order:markers fill stroke" d="M200 189.438A10.563 10.563 0 0 0 189.437 200a10.563 10.563 0 0 0 .819 4.063h-.006L200 226l9.75-21.938h-.008a10.563 10.563 0 0 0 .82-4.062A10.563 10.563 0 0 0 200 189.437z" transform="scale(.26458)"/><path style="opacity:1;fill:#0ff;stroke-width:6.50846" d="m200 37-9 9v119l2 11h14l2-11V46zm0 5 6 6v117l-2 8h-8l-2-8V48z" transform="scale(.26458)"/><path style="opacity:.75;fill:url(#f);fill-opacity:1;stroke-width:1.72203" d="m52.917 11.113 1.587 1.587v30.956l-.529 2.117h-2.117l-.529-2.117V12.7z"/><circle style="opacity:.85;fill:#f9f9f9;fill-opacity:1;stroke:#000;stroke-width:.208;stroke-miterlimit:4;stroke-dasharray:none;stroke-opacity:1" cx="52.917" cy="52.917" r="1.323"/><circle style="opacity:.85;fill:#000;fill-opacity:1;stroke:none;stroke-width:.418016;stroke-miterlimit:4;stroke-dasharray:none;stroke-opacity:1" cx="52.917" cy="52.917" r=".532"/></svg>