<?xml version="1.0" encoding="UTF-8" standalone="no"?>
<!-- Created with Inkscape (http://www.inkscape.org/) -->

<svg
   xmlns:dc="http://purl.org/dc/elements/1.1/"
   xmlns:cc="http://creativecommons.org/ns#"
   xmlns:rdf="http://www.w3.org/1999/02/22-rdf-syntax-ns#"
   xmlns:svg="http://www.w3.org/2000/svg"
   xmlns="http://www.w3.org/2000/svg"
   xmlns:sodipodi="http://sodipodi.sourceforge.net/DTD/sodipodi-0.dtd"
   xmlns:inkscape="http://www.inkscape.org/namespaces/inkscape"
   width="480"
   height="480"
   viewBox="0 0 127 127"
   version="1.1"
   id="svg8"
   inkscape:version="0.92.2 5c3e80d, 2017-08-06"
   sodipodi:docname="01.svg">
  <defs
     id="defs2" />
  <sodipodi:namedview
     id="base"
     pagecolor="#ffffff"
     bordercolor="#666666"
     borderopacity="1.0"
     inkscape:pageopacity="0.0"
     inkscape:pageshadow="2"
     inkscape:zoom="1.4142136"
     inkscape:cx="54.560183"
     inkscape:cy="221.80771"
     inkscape:document-units="mm"
     inkscape:current-layer="text825"
     showgrid="false"
     units="px"
     showguides="false"
     inkscape:guide-bbox="true"
     inkscape:window-width="2880"
     inkscape:window-height="1506"
     inkscape:window-x="0"
     inkscape:window-y="0"
     inkscape:window-maximized="1"
     inkscape:measure-start="0,0"
     inkscape:measure-end="0,0" />
  <metadata
     id="metadata5">
    <rdf:RDF>
      <cc:Work
         rdf:about="">
        <dc:format>image/svg+xml</dc:format>
        <dc:type
           rdf:resource="http://purl.org/dc/dcmitype/StillImage" />
        <dc:title />
      </cc:Work>
    </rdf:RDF>
  </metadata>
  <g
     inkscape:label="Ebene 1"
     inkscape:groupmode="layer"
     id="layer1"
     transform="translate(0,-169.99998)">
    <g
       style="font-style:normal;font-weight:normal;font-size:10.58333302px;line-height:1.25;font-family:sans-serif;letter-spacing:0px;word-spacing:0px;fill:#000000;fill-opacity:1;stroke:none;stroke-width:0.26458332"
       id="text821" />
    <path
       style="opacity:1;fill:#960096;fill-opacity:1;stroke:none;stroke-width:4.4031496;stroke-miterlimit:4;stroke-dasharray:none;stroke-opacity:1"
       d="M 232.55469 206.4707 L 227.37695 233.33984 L 222.12109 234.46094 L 201.6875 214.02734 L 176.875 214.02734 L 201.66992 238.82227 L 196.95312 239.82812 L 176.875 214.02734 L 162.24609 246.29297 L 170.01758 265.08203 L 154.97266 265.08203 L 369.89062 480 L 480 480 L 480 367.16602 L 325.29492 212.46094 L 279.13086 222.30469 L 266.94141 210.11523 L 242.12695 210.11523 L 258.67773 226.66602 L 253.79102 227.70703 L 232.55469 206.4707 z "
       transform="matrix(0.26458333,0,0,0.26458333,0,169.99998)"
       id="rect2261" />
    <g
       aria-label="one"
       style="font-style:normal;font-weight:normal;font-size:10.58333302px;line-height:1.25;font-family:sans-serif;letter-spacing:0px;word-spacing:0px;fill:#ffffff;fill-opacity:1;stroke:#0000f0;stroke-width:1.16499996;stroke-miterlimit:4;stroke-dasharray:none;stroke-opacity:1"
       id="text825">
      <path
         d="m 47.302147,242.18819 c 4.244622,0 8.223955,-3.18347 8.223955,-8.68821 0,-5.50475 -3.979333,-8.68822 -8.223955,-8.68822 -4.244622,0 -8.223955,3.18347 -8.223955,8.68822 0,5.50474 3.979333,8.68821 8.223955,8.68821 z m 0,-4.57624 c -1.724377,0 -2.3876,-1.59173 -2.3876,-4.11197 0,-2.52025 0.663223,-4.11198 2.3876,-4.11198 1.724378,0 2.3876,1.59173 2.3876,4.11198 0,2.52024 -0.663222,4.11197 -2.3876,4.11197 z"
         style="font-style:normal;font-variant:normal;font-weight:900;font-stretch:normal;font-size:33.16110992px;font-family:'Source Sans Pro';-inkscape-font-specification:'Source Sans Pro Heavy';letter-spacing:-2.11666656px;fill:#ffffff;fill-opacity:1;stroke:#960096;stroke-width:1.16499996;stroke-miterlimit:4;stroke-dasharray:none;stroke-opacity:1"
         id="path8486" />
      <path
         d="m 56.41207,241.79025 h 5.703711 v -10.87684 c 0.862189,-0.79587 1.459089,-1.26012 2.520244,-1.26012 1.127478,0 1.658056,0.53057 1.658056,2.65289 v 9.48407 h 5.703711 v -10.21362 c 0,-4.11198 -1.525411,-6.76487 -5.173133,-6.76487 -2.254956,0 -3.913011,1.12748 -5.239456,2.3876 H 61.452559 L 61.054625,225.2097 H 56.41207 Z"
         style="font-style:normal;font-variant:normal;font-weight:900;font-stretch:normal;font-size:33.16110992px;font-family:'Source Sans Pro';-inkscape-font-specification:'Source Sans Pro Heavy';letter-spacing:-2.11666656px;fill:#ffffff;fill-opacity:1;stroke:#960096;stroke-width:1.16499996;stroke-miterlimit:4;stroke-dasharray:none;stroke-opacity:1"
         id="path8488" />
      <path
         d="m 81.289585,242.18819 c 1.857022,0 4.244622,-0.66323 6.035322,-1.92335 l -1.857022,-3.38243 c -1.1938,0.66322 -2.254956,0.99483 -3.382433,0.99483 -1.857023,0 -3.316111,-0.66322 -3.846689,-2.65289 h 9.450916 c 0.09948,-0.39793 0.232128,-1.39276 0.232128,-2.3876 0,-4.44359 -2.321278,-8.02499 -7.229122,-8.02499 -4.045656,0 -7.958666,3.31612 -7.958666,8.68822 0,5.50474 3.714044,8.68821 8.555566,8.68821 z m -3.117144,-10.67788 c 0.331611,-1.65806 1.392766,-2.3876 2.652888,-2.3876 1.724378,0 2.254956,1.12748 2.254956,2.3876 z"
         style="font-style:normal;font-variant:normal;font-weight:900;font-stretch:normal;font-size:33.16110992px;font-family:'Source Sans Pro';-inkscape-font-specification:'Source Sans Pro Heavy';letter-spacing:-2.11666656px;fill:#ffffff;fill-opacity:1;stroke:#960096;stroke-width:1.16499996;stroke-miterlimit:4;stroke-dasharray:none;stroke-opacity:1"
         id="path8490" />
    </g>
  </g>
</svg>
