<?xml version="1.0" encoding="UTF-8" standalone="no"?>
<!-- Created with Inkscape (http://www.inkscape.org/) -->

<svg
   xmlns:dc="http://purl.org/dc/elements/1.1/"
   xmlns:cc="http://creativecommons.org/ns#"
   xmlns:rdf="http://www.w3.org/1999/02/22-rdf-syntax-ns#"
   xmlns:svg="http://www.w3.org/2000/svg"
   xmlns="http://www.w3.org/2000/svg"
   xmlns:sodipodi="http://sodipodi.sourceforge.net/DTD/sodipodi-0.dtd"
   xmlns:inkscape="http://www.inkscape.org/namespaces/inkscape"
   width="480"
   height="480"
   viewBox="0 0 127 127"
   version="1.1"
   id="svg8"
   inkscape:version="0.92.2 5c3e80d, 2017-08-06"
   sodipodi:docname="02.svg">
  <defs
     id="defs2" />
  <sodipodi:namedview
     id="base"
     pagecolor="#ffffff"
     bordercolor="#666666"
     borderopacity="1.0"
     inkscape:pageopacity="0.0"
     inkscape:pageshadow="2"
     inkscape:zoom="1.5314817"
     inkscape:cx="53.424677"
     inkscape:cy="161.35121"
     inkscape:document-units="mm"
     inkscape:current-layer="layer1"
     showgrid="false"
     units="px"
     showguides="false"
     inkscape:guide-bbox="true"
     inkscape:window-width="2880"
     inkscape:window-height="1506"
     inkscape:window-x="0"
     inkscape:window-y="0"
     inkscape:window-maximized="1"
     inkscape:measure-start="0,0"
     inkscape:measure-end="0,0" />
  <metadata
     id="metadata5">
    <rdf:RDF>
      <cc:Work
         rdf:about="">
        <dc:format>image/svg+xml</dc:format>
        <dc:type
           rdf:resource="http://purl.org/dc/dcmitype/StillImage" />
        <dc:title />
      </cc:Work>
    </rdf:RDF>
  </metadata>
  <g
     inkscape:label="Ebene 1"
     inkscape:groupmode="layer"
     id="layer1"
     transform="translate(0,-169.99998)">
    <g
       style="font-style:normal;font-weight:normal;font-size:10.58333302px;line-height:1.25;font-family:sans-serif;letter-spacing:0px;word-spacing:0px;fill:#000000;fill-opacity:1;stroke:none;stroke-width:0.26458332"
       id="text821" />
    <path
       style="opacity:1;fill:#0028ff;fill-opacity:1;stroke:none;stroke-width:4.4031496;stroke-miterlimit:4;stroke-dasharray:none;stroke-opacity:1"
       d="M 151.18164 197.57227 L 176.27539 222.66602 L 168.20508 242.11523 L 161.14648 235.05664 L 139.04883 235.05664 L 161.72461 257.73242 L 154.26562 275.70898 L 358.55664 480 L 480 480 L 480 370.82812 L 330.92383 221.75195 L 302.18555 234.60547 L 281.44336 213.86328 L 263.12891 233.38477 L 243.0918 213.86133 L 233.77344 239.80859 L 207.82617 213.86133 L 189.57031 213.86133 L 173.28125 197.57227 L 151.18164 197.57227 z "
       transform="matrix(0.26458333,0,0,0.26458333,0,169.99998)"
       id="rect2207" />
    <g
       aria-label="two"
       style="font-style:normal;font-weight:normal;font-size:10.58333302px;line-height:1.25;font-family:sans-serif;letter-spacing:0px;word-spacing:0px;fill:#ffffff;fill-opacity:1;stroke:#0028ff;stroke-width:1.16499996;stroke-miterlimit:4;stroke-dasharray:none;stroke-opacity:1"
       id="text825">
      <path
         d="m 45.662744,244.1447 c 1.823861,0 3.050822,-0.33161 3.913011,-0.5969 l -0.862189,-4.11198 c -0.397933,0.13265 -0.928511,0.26529 -1.459089,0.26529 -1.061155,0 -1.989667,-0.5969 -1.989667,-2.42076 v -5.67055 h 3.780367 v -4.44359 H 45.26481 v -4.31094 h -4.708877 l -0.663222,4.31094 -2.520245,0.19897 v 4.24462 H 39.5611 v 5.77003 c 0,4.04566 1.790699,6.76487 6.101644,6.76487 z"
         style="font-style:normal;font-variant:normal;font-weight:900;font-stretch:normal;font-size:33.16110992px;font-family:'Source Sans Pro';-inkscape-font-specification:'Source Sans Pro Heavy';letter-spacing:-2.11666656px;fill:#ffffff;fill-opacity:1;stroke:#0028ff;stroke-width:1.16499996;stroke-miterlimit:4;stroke-dasharray:none;stroke-opacity:1"
         id="path9148" />
      <path
         d="m 52.844141,243.74677 h 6.499577 l 1.127478,-5.77004 c 0.265289,-1.52541 0.464256,-3.05082 0.729545,-4.87468 h 0.132644 c 0.265289,1.82386 0.530578,3.34927 0.795867,4.87468 l 1.1938,5.77004 h 6.632222 l 3.780366,-16.58056 h -5.239455 l -1.260122,6.96383 c -0.265289,1.65806 -0.397934,3.31611 -0.663223,5.04049 h -0.132644 c -0.331611,-1.72438 -0.5969,-3.38243 -0.994833,-5.04049 l -1.591734,-6.96383 h -4.841522 l -1.525411,6.96383 c -0.397933,1.59174 -0.663222,3.31611 -0.928511,5.04049 h -0.132644 c -0.265289,-1.72438 -0.397934,-3.38243 -0.663222,-5.04049 l -1.260123,-6.96383 h -5.637388 z"
         style="font-style:normal;font-variant:normal;font-weight:900;font-stretch:normal;font-size:33.16110992px;font-family:'Source Sans Pro';-inkscape-font-specification:'Source Sans Pro Heavy';letter-spacing:-2.11666656px;fill:#ffffff;fill-opacity:1;stroke:#0028ff;stroke-width:1.16499996;stroke-miterlimit:4;stroke-dasharray:none;stroke-opacity:1"
         id="path9150" />
      <path
         d="m 81.403576,244.1447 c 4.244622,0 8.223955,-3.18347 8.223955,-8.68821 0,-5.50475 -3.979333,-8.68821 -8.223955,-8.68821 -4.244622,0 -8.223955,3.18346 -8.223955,8.68821 0,5.50474 3.979333,8.68821 8.223955,8.68821 z m 0,-4.57623 c -1.724378,0 -2.3876,-1.59174 -2.3876,-4.11198 0,-2.52025 0.663222,-4.11198 2.3876,-4.11198 1.724378,0 2.3876,1.59173 2.3876,4.11198 0,2.52024 -0.663222,4.11198 -2.3876,4.11198 z"
         style="font-style:normal;font-variant:normal;font-weight:900;font-stretch:normal;font-size:33.16110992px;font-family:'Source Sans Pro';-inkscape-font-specification:'Source Sans Pro Heavy';letter-spacing:-2.11666656px;fill:#ffffff;fill-opacity:1;stroke:#0028ff;stroke-width:1.16499996;stroke-miterlimit:4;stroke-dasharray:none;stroke-opacity:1"
         id="path9152" />
    </g>
  </g>
</svg>
