<?xml version="1.0" encoding="UTF-8" standalone="no"?>
<!-- Created with Inkscape (http://www.inkscape.org/) -->

<svg
   xmlns:dc="http://purl.org/dc/elements/1.1/"
   xmlns:cc="http://creativecommons.org/ns#"
   xmlns:rdf="http://www.w3.org/1999/02/22-rdf-syntax-ns#"
   xmlns:svg="http://www.w3.org/2000/svg"
   xmlns="http://www.w3.org/2000/svg"
   xmlns:sodipodi="http://sodipodi.sourceforge.net/DTD/sodipodi-0.dtd"
   xmlns:inkscape="http://www.inkscape.org/namespaces/inkscape"
   width="480"
   height="480"
   viewBox="0 0 127 127"
   version="1.1"
   id="svg8"
   inkscape:version="0.92.2 5c3e80d, 2017-08-06"
   sodipodi:docname="03.svg">
  <defs
     id="defs2">
    <marker
       inkscape:stockid="Arrow1Lstart"
       orient="auto"
       refY="0.0"
       refX="0.0"
       id="Arrow1Lstart"
       style="overflow:visible"
       inkscape:isstock="true">
      <path
         id="path820"
         d="M 0.0,0.0 L 5.0,-5.0 L -12.5,0.0 L 5.0,5.0 L 0.0,0.0 z "
         style="fill-rule:evenodd;stroke:none;stroke-width:1pt;stroke-opacity:1;fill:#0032c8;fill-opacity:1"
         transform="scale(0.8) translate(12.5,0)" />
    </marker>
  </defs>
  <sodipodi:namedview
     id="base"
     pagecolor="#ffffff"
     bordercolor="#666666"
     borderopacity="1.0"
     inkscape:pageopacity="0.0"
     inkscape:pageshadow="2"
     inkscape:zoom="2.1720641"
     inkscape:cx="130.19576"
     inkscape:cy="76.580035"
     inkscape:document-units="mm"
     inkscape:current-layer="layer1"
     showgrid="false"
     units="px"
     showguides="false"
     inkscape:guide-bbox="true"
     inkscape:window-width="2880"
     inkscape:window-height="1506"
     inkscape:window-x="0"
     inkscape:window-y="0"
     inkscape:window-maximized="1"
     inkscape:measure-start="0,0"
     inkscape:measure-end="0,0" />
  <metadata
     id="metadata5">
    <rdf:RDF>
      <cc:Work
         rdf:about="">
        <dc:format>image/svg+xml</dc:format>
        <dc:type
           rdf:resource="http://purl.org/dc/dcmitype/StillImage" />
        <dc:title />
      </cc:Work>
    </rdf:RDF>
  </metadata>
  <g
     inkscape:label="Ebene 1"
     inkscape:groupmode="layer"
     id="layer1"
     transform="translate(0,-169.99998)">
    <g
       style="font-style:normal;font-weight:normal;font-size:10.58333302px;line-height:1.25;font-family:sans-serif;letter-spacing:0px;word-spacing:0px;fill:#000000;fill-opacity:1;stroke:none;stroke-width:0.26458332"
       id="text821" />
    <path
       style="opacity:1;fill:#0032c8;fill-opacity:1;stroke:none;stroke-width:4.4031496;stroke-miterlimit:4;stroke-dasharray:none;stroke-opacity:1;marker-start:url(#Arrow1Lstart)"
       d="M 155.88281 193.43164 L 177.41992 214.96875 L 163.59375 211.80273 L 175.32227 236.60352 L 169.81641 233.39258 L 138.12109 201.69727 L 116.45508 201.69727 L 138.71875 223.96094 L 131.6582 245.26758 L 125.56641 239.17578 L 103.90234 239.17578 L 126.26758 261.54102 L 119.93164 280.66016 L 319.27148 480 L 480 480 L 480 337.10938 L 367.41992 224.5293 L 326.67773 241.61719 L 309.17969 224.11914 L 282.46484 234.74414 L 266.34375 218.62305 L 249.72266 229.52148 L 238.20117 218 L 222.5332 236.64648 L 207.81836 221.93164 L 205.52148 221.40625 L 177.54688 193.43164 L 155.88281 193.43164 z "
       transform="matrix(0.26458333,0,0,0.26458333,0,169.99998)"
       id="rect2149" />
    <g
       aria-label="three"
       style="font-style:normal;font-weight:normal;font-size:10.58333302px;line-height:1.25;font-family:sans-serif;letter-spacing:0px;word-spacing:0px;fill:#ffffff;fill-opacity:1;stroke:#0032c8;stroke-width:1.16499996;stroke-miterlimit:4;stroke-dasharray:none;stroke-opacity:1"
       id="text825">
      <path
         d="m 36.362664,245.23901 c 1.823861,0 3.050823,-0.33161 3.913011,-0.5969 l -0.862188,-4.11197 c -0.397934,0.13264 -0.928512,0.26528 -1.459089,0.26528 -1.061156,0 -1.989667,-0.5969 -1.989667,-2.42076 v -5.67055 h 3.780367 v -4.44359 h -3.780367 v -4.31094 h -4.708877 l -0.663223,4.31094 -2.520244,0.19897 v 4.24462 h 2.188633 v 5.77004 c 0,4.04565 1.7907,6.76486 6.101644,6.76486 z"
         style="font-style:normal;font-variant:normal;font-weight:900;font-stretch:normal;font-size:33.16110992px;font-family:'Source Sans Pro';-inkscape-font-specification:'Source Sans Pro Heavy';letter-spacing:-2.11666656px;fill:#ffffff;fill-opacity:1;stroke:#0032c8;stroke-width:1.16499996;stroke-miterlimit:4;stroke-dasharray:none;stroke-opacity:1"
         id="path9137" />
      <path
         d="m 40.692206,244.84108 h 5.703711 v -10.87684 c 0.862189,-0.79587 1.459089,-1.26013 2.520244,-1.26013 1.127478,0 1.658056,0.53058 1.658056,2.65289 v 9.48408 h 5.703711 v -10.21362 c 0,-4.11198 -1.525411,-6.76487 -5.173133,-6.76487 -2.254956,0 -3.846689,1.12748 -4.974167,2.12231 l 0.265289,-2.85185 v -5.3721 h -5.703711 z"
         style="font-style:normal;font-variant:normal;font-weight:900;font-stretch:normal;font-size:33.16110992px;font-family:'Source Sans Pro';-inkscape-font-specification:'Source Sans Pro Heavy';letter-spacing:-2.11666656px;fill:#ffffff;fill-opacity:1;stroke:#0032c8;stroke-width:1.16499996;stroke-miterlimit:4;stroke-dasharray:none;stroke-opacity:1"
         id="path9139" />
      <path
         d="m 57.876342,244.84108 h 5.70371 v -9.21879 c 0.795867,-2.05599 2.254956,-2.78553 3.448756,-2.78553 0.729544,0 1.260122,0.13264 1.857022,0.26529 l 0.928511,-4.90785 c -0.464255,-0.19896 -1.027994,-0.33161 -2.055989,-0.33161 -1.624894,0 -3.481916,0.99483 -4.708877,3.24979 H 62.91683 l -0.397933,-2.85186 h -4.642555 z"
         style="font-style:normal;font-variant:normal;font-weight:900;font-stretch:normal;font-size:33.16110992px;font-family:'Source Sans Pro';-inkscape-font-specification:'Source Sans Pro Heavy';letter-spacing:-2.11666656px;fill:#ffffff;fill-opacity:1;stroke:#0032c8;stroke-width:1.16499996;stroke-miterlimit:4;stroke-dasharray:none;stroke-opacity:1"
         id="path9141" />
      <path
         d="m 76.989521,245.23901 c 1.857022,0 4.244622,-0.66322 6.035322,-1.92334 l -1.857022,-3.38243 c -1.1938,0.66322 -2.254956,0.99483 -3.382434,0.99483 -1.857022,0 -3.316111,-0.66322 -3.846688,-2.65289 h 9.450916 c 0.09948,-0.39793 0.232128,-1.39277 0.232128,-2.3876 0,-4.44359 -2.321278,-8.02499 -7.229122,-8.02499 -4.045656,0 -7.958667,3.31611 -7.958667,8.68821 0,5.50475 3.714045,8.68821 8.555567,8.68821 z m -3.117145,-10.67787 c 0.331612,-1.65806 1.392767,-2.3876 2.652889,-2.3876 1.724378,0 2.254956,1.12747 2.254956,2.3876 z"
         style="font-style:normal;font-variant:normal;font-weight:900;font-stretch:normal;font-size:33.16110992px;font-family:'Source Sans Pro';-inkscape-font-specification:'Source Sans Pro Heavy';letter-spacing:-2.11666656px;fill:#ffffff;fill-opacity:1;stroke:#0032c8;stroke-width:1.16499996;stroke-miterlimit:4;stroke-dasharray:none;stroke-opacity:1"
         id="path9143" />
      <path
         d="m 92.295391,245.23901 c 1.857022,0 4.244622,-0.66322 6.035322,-1.92334 l -1.857022,-3.38243 c -1.1938,0.66322 -2.254956,0.99483 -3.382434,0.99483 -1.857022,0 -3.316111,-0.66322 -3.846688,-2.65289 h 9.450916 c 0.09948,-0.39793 0.232128,-1.39277 0.232128,-2.3876 0,-4.44359 -2.321278,-8.02499 -7.229122,-8.02499 -4.045656,0 -7.958667,3.31611 -7.958667,8.68821 0,5.50475 3.714045,8.68821 8.555567,8.68821 z m -3.117144,-10.67787 c 0.331611,-1.65806 1.392766,-2.3876 2.652888,-2.3876 1.724378,0 2.254956,1.12747 2.254956,2.3876 z"
         style="font-style:normal;font-variant:normal;font-weight:900;font-stretch:normal;font-size:33.16110992px;font-family:'Source Sans Pro';-inkscape-font-specification:'Source Sans Pro Heavy';letter-spacing:-2.11666656px;fill:#ffffff;fill-opacity:1;stroke:#0032c8;stroke-width:1.16499996;stroke-miterlimit:4;stroke-dasharray:none;stroke-opacity:1"
         id="path9145" />
    </g>
  </g>
</svg>
