<?xml version="1.0" encoding="UTF-8" standalone="no"?>
<!-- Created with Inkscape (http://www.inkscape.org/) -->

<svg
   xmlns:dc="http://purl.org/dc/elements/1.1/"
   xmlns:cc="http://creativecommons.org/ns#"
   xmlns:rdf="http://www.w3.org/1999/02/22-rdf-syntax-ns#"
   xmlns:svg="http://www.w3.org/2000/svg"
   xmlns="http://www.w3.org/2000/svg"
   xmlns:sodipodi="http://sodipodi.sourceforge.net/DTD/sodipodi-0.dtd"
   xmlns:inkscape="http://www.inkscape.org/namespaces/inkscape"
   width="480"
   height="480"
   viewBox="0 0 127 127"
   version="1.1"
   id="svg8"
   inkscape:version="0.92.2 5c3e80d, 2017-08-06"
   sodipodi:docname="05.svg">
  <defs
     id="defs2" />
  <sodipodi:namedview
     id="base"
     pagecolor="#ffffff"
     bordercolor="#666666"
     borderopacity="1.0"
     inkscape:pageopacity="0.0"
     inkscape:pageshadow="2"
     inkscape:zoom="1.4142136"
     inkscape:cx="-66.68984"
     inkscape:cy="152.44871"
     inkscape:document-units="mm"
     inkscape:current-layer="layer1"
     showgrid="false"
     units="px"
     showguides="false"
     inkscape:guide-bbox="true"
     inkscape:window-width="2880"
     inkscape:window-height="1506"
     inkscape:window-x="0"
     inkscape:window-y="0"
     inkscape:window-maximized="1"
     inkscape:measure-start="0,0"
     inkscape:measure-end="0,0" />
  <metadata
     id="metadata5">
    <rdf:RDF>
      <cc:Work
         rdf:about="">
        <dc:format>image/svg+xml</dc:format>
        <dc:type
           rdf:resource="http://purl.org/dc/dcmitype/StillImage" />
        <dc:title />
      </cc:Work>
    </rdf:RDF>
  </metadata>
  <g
     inkscape:label="Ebene 1"
     inkscape:groupmode="layer"
     id="layer1"
     transform="translate(0,-169.99998)">
    <g
       style="font-style:normal;font-weight:normal;font-size:10.58333302px;line-height:1.25;font-family:sans-serif;letter-spacing:0px;word-spacing:0px;fill:#000000;fill-opacity:1;stroke:none;stroke-width:0.26458332"
       id="text821" />
    <path
       style="opacity:1;fill:#0096fa;fill-opacity:1;stroke:none;stroke-width:4.4031496;stroke-miterlimit:4;stroke-dasharray:none;stroke-opacity:1"
       d="M 213.99219 195.25195 L 195.49414 208.05859 L 176.22656 207.66797 L 165.16602 241.57422 L 141.9375 241.57422 L 159.45312 259.08984 L 150.20703 287.43359 L 342.77344 480 L 480 480 L 480 377.53516 L 328.81055 226.34375 L 295.35156 230.67969 L 285.04883 220.37695 L 260.30859 240.51953 L 240.16797 220.37891 L 239.11914 220.37891 L 213.99219 195.25195 z "
       transform="matrix(0.26458333,0,0,0.26458333,0,169.99998)"
       id="rect1930" />
    <g
       aria-label="five"
       style="font-style:normal;font-weight:normal;font-size:10.58333302px;line-height:1.25;font-family:sans-serif;letter-spacing:0px;word-spacing:0px;fill:#ffffff;fill-opacity:1;stroke:#0096fa;stroke-width:1.16499996;stroke-miterlimit:4;stroke-dasharray:none;stroke-opacity:1"
       id="text825">
      <path
         d="m 40.325019,245.47115 h 5.703711 v -12.13697 h 2.785533 v -4.44359 H 46.02873 v -0.39793 c 0,-1.55857 0.663222,-2.05599 1.724378,-2.05599 0.530577,0 1.127477,0.13264 1.658055,0.33161 l 0.994833,-4.1783 c -0.729544,-0.26529 -1.989666,-0.5969 -3.515077,-0.5969 -4.907845,0 -6.5659,3.15031 -6.5659,6.69854 v 0.23213 l -2.188633,0.16581 v 4.24462 h 2.188633 z"
         style="letter-spacing:-0.32279179px;stroke:#0096fa;stroke-opacity:1"
         id="path9119" />
      <path
         d="m 50.924667,245.47115 h 5.703711 v -16.58056 h -5.703711 z m 2.851856,-18.63655 c 1.857022,0 3.183466,-1.1938 3.183466,-2.85185 0,-1.65806 -1.326444,-2.85186 -3.183466,-2.85186 -1.857023,0 -3.183467,1.1938 -3.183467,2.85186 0,1.65805 1.326444,2.85185 3.183467,2.85185 z"
         style="letter-spacing:-1.5372293px;stroke:#0096fa;stroke-opacity:1"
         id="path9121" />
      <path
         d="m 62.821314,245.47115 h 6.5659 l 5.239455,-16.58056 h -5.438422 l -1.7907,7.22912 c -0.397933,1.65806 -0.795866,3.38244 -1.1938,5.17314 h -0.132644 c -0.397934,-1.7907 -0.795867,-3.51508 -1.1938,-5.17314 l -1.7907,-7.22912 h -5.703711 z"
         style="font-style:normal;font-variant:normal;font-weight:900;font-stretch:normal;font-size:33.16110992px;font-family:'Source Sans Pro';-inkscape-font-specification:'Source Sans Pro Heavy';letter-spacing:-2.11666656px;fill:#ffffff;fill-opacity:1;stroke:#0096fa;stroke-width:1.16499996;stroke-miterlimit:4;stroke-dasharray:none;stroke-opacity:1"
         id="path9123" />
      <path
         d="m 82.231392,245.86908 c 1.857022,0 4.244622,-0.66322 6.035322,-1.92335 l -1.857022,-3.38243 c -1.1938,0.66322 -2.254956,0.99483 -3.382434,0.99483 -1.857022,0 -3.316111,-0.66322 -3.846688,-2.65288 h 9.450916 c 0.09948,-0.39794 0.232128,-1.39277 0.232128,-2.3876 0,-4.44359 -2.321278,-8.02499 -7.229122,-8.02499 -4.045656,0 -7.958667,3.31611 -7.958667,8.68821 0,5.50474 3.714045,8.68821 8.555567,8.68821 z M 79.114247,235.1912 c 0.331611,-1.65805 1.392767,-2.3876 2.652889,-2.3876 1.724378,0 2.254956,1.12748 2.254956,2.3876 z"
         style="font-style:normal;font-variant:normal;font-weight:900;font-stretch:normal;font-size:33.16110992px;font-family:'Source Sans Pro';-inkscape-font-specification:'Source Sans Pro Heavy';letter-spacing:-2.11666656px;fill:#ffffff;fill-opacity:1;stroke:#0096fa;stroke-width:1.16499996;stroke-miterlimit:4;stroke-dasharray:none;stroke-opacity:1"
         id="path9125" />
    </g>
  </g>
</svg>
