<?xml version="1.0" encoding="UTF-8" standalone="no"?>
<!-- Created with Inkscape (http://www.inkscape.org/) -->

<svg
   xmlns:dc="http://purl.org/dc/elements/1.1/"
   xmlns:cc="http://creativecommons.org/ns#"
   xmlns:rdf="http://www.w3.org/1999/02/22-rdf-syntax-ns#"
   xmlns:svg="http://www.w3.org/2000/svg"
   xmlns="http://www.w3.org/2000/svg"
   xmlns:sodipodi="http://sodipodi.sourceforge.net/DTD/sodipodi-0.dtd"
   xmlns:inkscape="http://www.inkscape.org/namespaces/inkscape"
   width="480"
   height="480"
   viewBox="0 0 127 127"
   version="1.1"
   id="svg8"
   inkscape:version="0.92.2 5c3e80d, 2017-08-06"
   sodipodi:docname="06.svg">
  <defs
     id="defs2" />
  <sodipodi:namedview
     id="base"
     pagecolor="#ffffff"
     bordercolor="#666666"
     borderopacity="1.0"
     inkscape:pageopacity="0.0"
     inkscape:pageshadow="2"
     inkscape:zoom="2.4422492"
     inkscape:cx="239.51933"
     inkscape:cy="237.56885"
     inkscape:document-units="mm"
     inkscape:current-layer="layer1"
     showgrid="false"
     units="px"
     showguides="false"
     inkscape:guide-bbox="true"
     inkscape:window-width="2880"
     inkscape:window-height="1506"
     inkscape:window-x="0"
     inkscape:window-y="0"
     inkscape:window-maximized="1"
     inkscape:measure-start="0,0"
     inkscape:measure-end="0,0" />
  <metadata
     id="metadata5">
    <rdf:RDF>
      <cc:Work
         rdf:about="">
        <dc:format>image/svg+xml</dc:format>
        <dc:type
           rdf:resource="http://purl.org/dc/dcmitype/StillImage" />
        <dc:title />
      </cc:Work>
    </rdf:RDF>
  </metadata>
  <g
     inkscape:label="Ebene 1"
     inkscape:groupmode="layer"
     id="layer1"
     transform="translate(0,-169.99998)">
    <g
       style="font-style:normal;font-weight:normal;font-size:10.58333302px;line-height:1.25;font-family:sans-serif;letter-spacing:0px;word-spacing:0px;fill:#000000;fill-opacity:1;stroke:none;stroke-width:0.26458332"
       id="text821" />
    <path
       style="opacity:1;fill:#00ca54;fill-opacity:1;stroke:none;stroke-width:4.4031496;stroke-miterlimit:4;stroke-dasharray:none;stroke-opacity:1"
       d="M 245.08008 195.35742 L 233.85547 208.26172 L 237.19336 211.86328 L 224.00586 213.30078 L 239.01758 228.3125 L 186.4082 231.51758 L 201.31445 253.35547 L 201.76953 278.37695 L 166.91016 278.37695 L 368.53125 480 L 480 480 L 480 387.57617 L 312.80469 220.38086 L 291.05664 240.10352 L 271.33398 220.38086 L 270.88086 221.1582 L 245.08008 195.35742 z "
       transform="matrix(0.26458333,0,0,0.26458333,0,169.99998)"
       id="rect1308" />
    <g
       aria-label="six"
       style="font-style:normal;font-weight:normal;font-size:10.58333302px;line-height:1.25;font-family:sans-serif;letter-spacing:0px;word-spacing:0px;fill:#ffffff;fill-opacity:1;stroke:#00ca54;stroke-width:1.16499996;stroke-miterlimit:4;stroke-dasharray:none;stroke-opacity:1"
       id="text825">
      <path
         d="m 51.385887,245.86908 c 4.642556,0 7.096478,-2.3876 7.096478,-5.50475 0,-2.9845 -2.254956,-4.24462 -4.244622,-4.97416 -1.658056,-0.5969 -3.117145,-0.92851 -3.117145,-1.7907 0,-0.66322 0.497417,-0.92851 1.459089,-0.92851 1.027995,0 2.188633,0.53057 3.382433,1.39276 l 2.520245,-3.38243 c -1.459089,-1.09432 -3.382433,-2.18863 -6.101644,-2.18863 -3.913011,0 -6.5659,2.12231 -6.5659,5.3721 0,2.71921 2.254955,4.14514 4.1783,4.90784 1.658055,0.66322 3.183466,1.06116 3.183466,1.92335 0,0.66322 -0.464255,0.99483 -1.658055,0.99483 -1.160639,0 -2.520245,-0.53058 -4.045656,-1.65806 l -2.520244,3.51508 c 1.724378,1.39277 4.310944,2.32128 6.433255,2.32128 z"
         style="font-style:normal;font-variant:normal;font-weight:900;font-stretch:normal;font-size:33.16110992px;font-family:'Source Sans Pro';-inkscape-font-specification:'Source Sans Pro Heavy';letter-spacing:-2.11666656px;fill:#ffffff;fill-opacity:1;stroke:#00ca54;stroke-width:1.16499996;stroke-miterlimit:4;stroke-dasharray:none;stroke-opacity:1"
         id="path9112" />
      <path
         d="m 59.12377,245.47115 h 5.70371 v -16.58056 h -5.70371 z m 2.851855,-18.63655 c 1.857022,0 3.183467,-1.1938 3.183467,-2.85185 0,-1.65806 -1.326445,-2.85186 -3.183467,-2.85186 -1.857022,0 -3.183467,1.1938 -3.183467,2.85186 0,1.65805 1.326445,2.85185 3.183467,2.85185 z"
         style="font-style:normal;font-variant:normal;font-weight:900;font-stretch:normal;font-size:33.16110992px;font-family:'Source Sans Pro';-inkscape-font-specification:'Source Sans Pro Heavy';letter-spacing:-2.11666656px;fill:#ffffff;fill-opacity:1;stroke:#00ca54;stroke-width:1.16499996;stroke-miterlimit:4;stroke-dasharray:none;stroke-opacity:1"
         id="path9114" />
      <path
         d="m 65.068879,245.47115 h 5.902678 l 0.928511,-2.32128 c 0.364772,-0.96167 0.762706,-1.92335 1.127478,-2.85186 h 0.132644 c 0.497417,0.92851 0.961672,1.92335 1.459089,2.85186 l 1.326444,2.32128 h 6.101645 l -4.974167,-7.95867 4.708878,-8.62189 h -5.902678 l -0.795866,2.32128 c -0.29845,0.92851 -0.696384,1.92334 -0.994834,2.85185 h -0.132644 c -0.431095,-0.92851 -0.89535,-1.92334 -1.326445,-2.85185 l -1.1938,-2.32128 h -6.101644 l 4.708878,7.95867 z"
         style="font-style:normal;font-variant:normal;font-weight:900;font-stretch:normal;font-size:33.16110992px;font-family:'Source Sans Pro';-inkscape-font-specification:'Source Sans Pro Heavy';letter-spacing:-2.11666656px;fill:#ffffff;fill-opacity:1;stroke:#00ca54;stroke-width:1.16499996;stroke-miterlimit:4;stroke-dasharray:none;stroke-opacity:1"
         id="path9116" />
    </g>
  </g>
</svg>
