<?xml version="1.0" encoding="UTF-8" standalone="no"?>
<!-- Created with Inkscape (http://www.inkscape.org/) -->

<svg
   xmlns:dc="http://purl.org/dc/elements/1.1/"
   xmlns:cc="http://creativecommons.org/ns#"
   xmlns:rdf="http://www.w3.org/1999/02/22-rdf-syntax-ns#"
   xmlns:svg="http://www.w3.org/2000/svg"
   xmlns="http://www.w3.org/2000/svg"
   xmlns:sodipodi="http://sodipodi.sourceforge.net/DTD/sodipodi-0.dtd"
   xmlns:inkscape="http://www.inkscape.org/namespaces/inkscape"
   width="480"
   height="480"
   viewBox="0 0 127 127"
   version="1.1"
   id="svg8"
   inkscape:version="0.92.2 5c3e80d, 2017-08-06"
   sodipodi:docname="08.svg">
  <defs
     id="defs2" />
  <sodipodi:namedview
     id="base"
     pagecolor="#ffffff"
     bordercolor="#666666"
     borderopacity="1.0"
     inkscape:pageopacity="0.0"
     inkscape:pageshadow="2"
     inkscape:zoom="3.4417197"
     inkscape:cx="282.06074"
     inkscape:cy="196.80704"
     inkscape:document-units="mm"
     inkscape:current-layer="layer1"
     showgrid="false"
     units="px"
     showguides="false"
     inkscape:guide-bbox="true"
     inkscape:window-width="2880"
     inkscape:window-height="1506"
     inkscape:window-x="0"
     inkscape:window-y="0"
     inkscape:window-maximized="1"
     inkscape:measure-start="0,0"
     inkscape:measure-end="0,0" />
  <metadata
     id="metadata5">
    <rdf:RDF>
      <cc:Work
         rdf:about="">
        <dc:format>image/svg+xml</dc:format>
        <dc:type
           rdf:resource="http://purl.org/dc/dcmitype/StillImage" />
        <dc:title />
      </cc:Work>
    </rdf:RDF>
  </metadata>
  <g
     inkscape:label="Ebene 1"
     inkscape:groupmode="layer"
     id="layer1"
     transform="translate(0,-169.99998)">
    <g
       style="font-style:normal;font-weight:normal;font-size:10.58333302px;line-height:1.25;font-family:sans-serif;letter-spacing:0px;word-spacing:0px;fill:#000000;fill-opacity:1;stroke:none;stroke-width:0.26458332"
       id="text821" />
    <path
       style="opacity:1;fill:#ffbb00;fill-opacity:1;stroke:none;stroke-width:3.37706161;stroke-miterlimit:4;stroke-dasharray:none;stroke-opacity:1"
       d="M 194.86328 182.92383 L 192.63281 200.7793 L 173.67773 200.7793 L 190.5293 217.63086 L 187.83008 239.24023 L 163.36133 214.77148 L 144.62305 214.77148 L 141.56836 212.62305 L 140.72461 214.77148 L 133.36133 214.77148 L 138.64844 220.05859 L 120.05469 267.42383 L 332.63086 480 L 480 480 L 480 318.42383 L 353.50781 191.93164 L 327.8125 223.9082 L 316.11133 212.20703 L 314.6875 212.55469 L 285.79102 183.6582 L 268.87305 201.68945 L 286.70508 219.36328 L 242.14453 230.20508 L 194.86328 182.92383 z "
       transform="matrix(0.26458333,0,0,0.26458333,0,169.99998)"
       id="rect1223" />
    <g
       aria-label="eight"
       style="font-style:normal;font-weight:normal;font-size:10.58333302px;line-height:1.25;font-family:sans-serif;letter-spacing:0px;word-spacing:0px;fill:#ffffff;fill-opacity:1;stroke:#ffbb00;stroke-width:1.16499996;stroke-miterlimit:4;stroke-dasharray:none;stroke-opacity:1"
       id="text825">
      <path
         d="m 38.296112,242.65245 c 1.857022,0 4.244622,-0.66322 6.035322,-1.92334 l -1.857022,-3.38244 c -1.1938,0.66322 -2.254956,0.99484 -3.382434,0.99484 -1.857022,0 -3.316111,-0.66323 -3.846688,-2.65289 h 9.450916 c 0.09948,-0.39794 0.232128,-1.39277 0.232128,-2.3876 0,-4.44359 -2.321278,-8.02499 -7.229122,-8.02499 -4.045656,0 -7.958667,3.31611 -7.958667,8.68821 0,5.50474 3.714045,8.68821 8.555567,8.68821 z m -3.117145,-10.67788 c 0.331612,-1.65805 1.392767,-2.3876 2.652889,-2.3876 1.724378,0 2.254956,1.12748 2.254956,2.3876 z"
         style="font-style:normal;font-variant:normal;font-weight:900;font-stretch:normal;font-size:33.16110992px;font-family:'Source Sans Pro';-inkscape-font-specification:'Source Sans Pro Heavy';letter-spacing:-2.11666656px;fill:#ffffff;fill-opacity:1;stroke:#ffbb00;stroke-width:1.16499996;stroke-miterlimit:4;stroke-dasharray:none;stroke-opacity:1"
         id="path9090" />
      <path
         d="m 45.908604,242.25452 h 5.703711 v -16.58056 h -5.703711 z m 2.851856,-18.63655 c 1.857022,0 3.183466,-1.1938 3.183466,-2.85185 0,-1.65806 -1.326444,-2.85186 -3.183466,-2.85186 -1.857022,0 -3.183467,1.1938 -3.183467,2.85186 0,1.65805 1.326445,2.85185 3.183467,2.85185 z"
         style="font-style:normal;font-variant:normal;font-weight:900;font-stretch:normal;font-size:33.16110992px;font-family:'Source Sans Pro';-inkscape-font-specification:'Source Sans Pro Heavy';letter-spacing:-2.11666656px;fill:#ffffff;fill-opacity:1;stroke:#ffbb00;stroke-width:1.16499996;stroke-miterlimit:4;stroke-dasharray:none;stroke-opacity:1"
         id="path9092" />
      <path
         d="m 59.348126,249.08571 c 5.902678,0 9.616722,-2.45393 9.616722,-6.03533 0,-3.05082 -2.3876,-4.31094 -6.532739,-4.31094 h -2.487083 c -1.658056,0 -2.321278,-0.26529 -2.321278,-0.99483 0,-0.46426 0.06632,-0.66323 0.397934,-0.96168 0.729544,0.16581 1.326444,0.23213 1.857022,0.23213 3.714044,0 6.698544,-1.59173 6.698544,-5.50474 0,-0.66323 -0.132644,-1.32645 -0.265289,-1.72438 h 2.3876 v -4.11198 h -6.167966 c -0.795867,-0.26529 -1.724378,-0.39793 -2.652889,-0.39793 -3.647722,0 -7.096478,1.92334 -7.096478,6.03532 0,1.92334 1.061156,3.44876 2.254956,4.24462 v 0.13265 c -1.127478,0.79586 -1.857022,1.98966 -1.857022,3.11714 0,1.39277 0.663222,2.25496 1.525411,2.85186 v 0.13264 c -1.525411,0.79587 -2.321278,1.82386 -2.321278,3.18347 0,2.9845 3.183466,4.11198 6.963833,4.11198 z m 0.530578,-15.45308 c -1.061156,0 -1.7907,-0.72955 -1.7907,-2.32128 0,-1.52541 0.729544,-2.25496 1.7907,-2.25496 1.061155,0 1.7907,0.72955 1.7907,2.25496 0,1.59173 -0.729545,2.32128 -1.7907,2.32128 z m 0.397933,11.938 c -1.923344,0 -3.249789,-0.46426 -3.249789,-1.52541 0,-0.46426 0.198967,-0.79587 0.5969,-1.1938 0.464256,0.13264 1.061156,0.19896 2.3876,0.19896 h 1.293283 c 1.425928,0 2.221795,0.13265 2.221795,0.99484 0,0.92851 -1.392767,1.52541 -3.249789,1.52541 z"
         style="font-style:normal;font-variant:normal;font-weight:900;font-stretch:normal;font-size:33.16110992px;font-family:'Source Sans Pro';-inkscape-font-specification:'Source Sans Pro Heavy';letter-spacing:-2.11666656px;fill:#ffffff;fill-opacity:1;stroke:#ffbb00;stroke-width:1.16499996;stroke-miterlimit:4;stroke-dasharray:none;stroke-opacity:1"
         id="path9094" />
      <path
         d="m 69.331116,242.25452 h 5.703711 v -10.87685 c 0.862189,-0.79586 1.459089,-1.26012 2.520245,-1.26012 1.127477,0 1.658055,0.53058 1.658055,2.65289 v 9.48408 h 5.703711 v -10.21363 c 0,-4.11197 -1.525411,-6.76486 -5.173133,-6.76486 -2.254956,0 -3.846689,1.12748 -4.974167,2.12231 l 0.265289,-2.85186 v -5.3721 h -5.703711 z"
         style="font-style:normal;font-variant:normal;font-weight:900;font-stretch:normal;font-size:33.16110992px;font-family:'Source Sans Pro';-inkscape-font-specification:'Source Sans Pro Heavy';letter-spacing:-2.11666656px;fill:#ffffff;fill-opacity:1;stroke:#ffbb00;stroke-width:1.16499996;stroke-miterlimit:4;stroke-dasharray:none;stroke-opacity:1"
         id="path9096" />
      <path
         d="m 93.346444,242.65245 c 1.823861,0 3.050822,-0.33161 3.913011,-0.5969 l -0.862189,-4.11198 c -0.397933,0.13265 -0.928511,0.26529 -1.459088,0.26529 -1.061156,0 -1.989667,-0.5969 -1.989667,-2.42076 v -5.67055 h 3.780367 v -4.44359 h -3.780367 v -4.31094 h -4.708878 l -0.663222,4.31094 -2.520244,0.19897 v 4.24462 H 87.2448 v 5.77003 c 0,4.04566 1.7907,6.76487 6.101644,6.76487 z"
         style="font-style:normal;font-variant:normal;font-weight:900;font-stretch:normal;font-size:33.16110992px;font-family:'Source Sans Pro';-inkscape-font-specification:'Source Sans Pro Heavy';letter-spacing:-2.11666656px;fill:#ffffff;fill-opacity:1;stroke:#ffbb00;stroke-width:1.16499996;stroke-miterlimit:4;stroke-dasharray:none;stroke-opacity:1"
         id="path9098" />
    </g>
  </g>
</svg>
