<?xml version="1.0" encoding="UTF-8" standalone="no"?>
<!-- Created with Inkscape (http://www.inkscape.org/) -->

<svg
   xmlns:dc="http://purl.org/dc/elements/1.1/"
   xmlns:cc="http://creativecommons.org/ns#"
   xmlns:rdf="http://www.w3.org/1999/02/22-rdf-syntax-ns#"
   xmlns:svg="http://www.w3.org/2000/svg"
   xmlns="http://www.w3.org/2000/svg"
   xmlns:sodipodi="http://sodipodi.sourceforge.net/DTD/sodipodi-0.dtd"
   xmlns:inkscape="http://www.inkscape.org/namespaces/inkscape"
   width="480"
   height="480"
   viewBox="0 0 127 127"
   version="1.1"
   id="svg8"
   inkscape:version="0.92.2 5c3e80d, 2017-08-06"
   sodipodi:docname="10.svg">
  <defs
     id="defs2">
    <marker
       inkscape:stockid="Arrow1Lstart"
       orient="auto"
       refY="0.0"
       refX="0.0"
       id="marker4536"
       style="overflow:visible"
       inkscape:isstock="true">
      <path
         id="path4534"
         d="M 0.0,0.0 L 5.0,-5.0 L -12.5,0.0 L 5.0,5.0 L 0.0,0.0 z "
         style="fill-rule:evenodd;stroke:none;stroke-width:1pt;stroke-opacity:1;fill:#ff0000;fill-opacity:1"
         transform="scale(0.8) translate(12.5,0)" />
    </marker>
    <marker
       inkscape:stockid="Arrow1Lstart"
       orient="auto"
       refY="0.0"
       refX="0.0"
       id="marker4508"
       style="overflow:visible"
       inkscape:isstock="true">
      <path
         id="path4506"
         d="M 0.0,0.0 L 5.0,-5.0 L -12.5,0.0 L 5.0,5.0 L 0.0,0.0 z "
         style="fill-rule:evenodd;stroke:none;stroke-width:1pt;stroke-opacity:1;fill:#ff6000;fill-opacity:1"
         transform="scale(0.8) translate(12.5,0)" />
    </marker>
    <marker
       inkscape:stockid="Arrow1Lstart"
       orient="auto"
       refY="0.0"
       refX="0.0"
       id="marker4486"
       style="overflow:visible"
       inkscape:isstock="true">
      <path
         id="path4484"
         d="M 0.0,0.0 L 5.0,-5.0 L -12.5,0.0 L 5.0,5.0 L 0.0,0.0 z "
         style="fill-rule:evenodd;stroke:none;stroke-width:1pt;stroke-opacity:1;fill:#ff0000;fill-opacity:1"
         transform="scale(0.8) translate(12.5,0)" />
    </marker>
    <marker
       inkscape:stockid="Arrow1Lstart"
       orient="auto"
       refY="0.0"
       refX="0.0"
       id="Arrow1Lstart"
       style="overflow:visible"
       inkscape:isstock="true">
      <path
         id="path4208"
         d="M 0.0,0.0 L 5.0,-5.0 L -12.5,0.0 L 5.0,5.0 L 0.0,0.0 z "
         style="fill-rule:evenodd;stroke:none;stroke-width:1pt;stroke-opacity:1;fill:#ff0000;fill-opacity:1"
         transform="scale(0.8) translate(12.5,0)" />
    </marker>
  </defs>
  <sodipodi:namedview
     id="base"
     pagecolor="#ffffff"
     bordercolor="#666666"
     borderopacity="1.0"
     inkscape:pageopacity="0.0"
     inkscape:pageshadow="2"
     inkscape:zoom="1.898802"
     inkscape:cx="8.9530613"
     inkscape:cy="203.34553"
     inkscape:document-units="mm"
     inkscape:current-layer="layer1"
     showgrid="false"
     units="px"
     showguides="false"
     inkscape:guide-bbox="true"
     inkscape:window-width="2880"
     inkscape:window-height="1506"
     inkscape:window-x="0"
     inkscape:window-y="0"
     inkscape:window-maximized="1" />
  <metadata
     id="metadata5">
    <rdf:RDF>
      <cc:Work
         rdf:about="">
        <dc:format>image/svg+xml</dc:format>
        <dc:type
           rdf:resource="http://purl.org/dc/dcmitype/StillImage" />
        <dc:title />
      </cc:Work>
    </rdf:RDF>
  </metadata>
  <g
     inkscape:label="Ebene 1"
     inkscape:groupmode="layer"
     id="layer1"
     transform="translate(0,-169.99998)">
    <g
       style="font-style:normal;font-weight:normal;font-size:10.58333302px;line-height:1.25;font-family:sans-serif;letter-spacing:0px;word-spacing:0px;fill:#000000;fill-opacity:1;stroke:none;stroke-width:0.26458332"
       id="text821" />
    <path
       style="opacity:1;fill:#ff6000;fill-opacity:1;stroke:none;stroke-width:4.40314967;stroke-miterlimit:4;stroke-dasharray:none;stroke-opacity:1;marker-start:url(#marker4508)"
       d="M 172.9668 197.56641 L 196.91211 221.51172 L 185.83594 246.0332 L 174.8418 235.03906 L 156.78906 235.03906 L 180.21875 258.46875 L 172.30078 275.99414 L 376.30664 480 L 480 480 L 480 381.67578 L 316.32422 218 L 301.24805 233.66211 L 281.44727 213.86133 L 266.72656 235.22852 L 252.18164 220.68359 L 222.45508 229.00391 L 191.01758 197.56641 L 172.9668 197.56641 z "
       transform="matrix(0.26458333,0,0,0.26458333,0,169.99998)"
       id="rect1079-1" />
    <g
       aria-label="ten"
       style="font-style:normal;font-weight:normal;font-size:10.58333302px;line-height:1.25;font-family:sans-serif;letter-spacing:0px;word-spacing:0px;fill:#ffffff;fill-opacity:1;stroke:#ff6000;stroke-width:1.16499996;stroke-miterlimit:4;stroke-dasharray:none;stroke-opacity:1"
       id="text825">
      <path
         d="m 50.358411,244.1447 c 1.823861,0 3.050822,-0.33161 3.913011,-0.5969 l -0.862189,-4.11198 c -0.397933,0.13265 -0.928511,0.26529 -1.459089,0.26529 -1.061155,0 -1.989666,-0.5969 -1.989666,-2.42076 v -5.67055 h 3.780366 v -4.44359 h -3.780366 v -4.31094 H 45.2516 l -0.663222,4.31094 -2.520244,0.19897 v 4.24462 h 2.188633 v 5.77003 c 0,4.04566 1.7907,6.76487 6.101644,6.76487 z"
         style="font-style:normal;font-variant:normal;font-weight:900;font-stretch:normal;font-size:33.16110992px;font-family:'Source Sans Pro';-inkscape-font-specification:'Source Sans Pro Heavy';letter-spacing:-2.11666656px;fill:#ffffff;fill-opacity:1;stroke:#ff6000;stroke-width:1.16499996;stroke-miterlimit:4;stroke-dasharray:none;stroke-opacity:1"
         id="path9074" />
      <path
         d="m 61.733653,244.1447 c 1.857022,0 4.244622,-0.66322 6.035322,-1.92335 l -1.857022,-3.38243 c -1.1938,0.66322 -2.254956,0.99483 -3.382434,0.99483 -1.857022,0 -3.316111,-0.66322 -3.846688,-2.65288 h 9.450916 c 0.09948,-0.39794 0.232128,-1.39277 0.232128,-2.3876 0,-4.44359 -2.321278,-8.02499 -7.229122,-8.02499 -4.045656,0 -7.958667,3.31611 -7.958667,8.68821 0,5.50474 3.714045,8.68821 8.555567,8.68821 z m -3.117144,-10.67788 c 0.331611,-1.65805 1.392766,-2.3876 2.652888,-2.3876 1.724378,0 2.254956,1.12748 2.254956,2.3876 z"
         style="font-style:normal;font-variant:normal;font-weight:900;font-stretch:normal;font-size:33.16110992px;font-family:'Source Sans Pro';-inkscape-font-specification:'Source Sans Pro Heavy';letter-spacing:-2.11666656px;fill:#ffffff;fill-opacity:1;stroke:#ff6000;stroke-width:1.16499996;stroke-miterlimit:4;stroke-dasharray:none;stroke-opacity:1"
         id="path9076" />
      <path
         d="m 69.346146,243.74677 h 5.703711 v -10.87685 c 0.862189,-0.79587 1.459089,-1.26012 2.520245,-1.26012 1.127477,0 1.658055,0.53058 1.658055,2.65289 v 9.48408 h 5.703711 v -10.21363 c 0,-4.11197 -1.525411,-6.76486 -5.173133,-6.76486 -2.254956,0 -3.913011,1.12747 -5.239456,2.3876 h -0.132644 l -0.397933,-1.98967 h -4.642556 z"
         style="font-style:normal;font-variant:normal;font-weight:900;font-stretch:normal;font-size:33.16110992px;font-family:'Source Sans Pro';-inkscape-font-specification:'Source Sans Pro Heavy';letter-spacing:-2.11666656px;fill:#ffffff;fill-opacity:1;stroke:#ff6000;stroke-width:1.16499996;stroke-miterlimit:4;stroke-dasharray:none;stroke-opacity:1"
         id="path9078" />
    </g>
  </g>
</svg>
