<?xml version="1.0" encoding="UTF-8" standalone="no"?>
<!-- Created with Inkscape (http://www.inkscape.org/) -->

<svg
   xmlns:dc="http://purl.org/dc/elements/1.1/"
   xmlns:cc="http://creativecommons.org/ns#"
   xmlns:rdf="http://www.w3.org/1999/02/22-rdf-syntax-ns#"
   xmlns:svg="http://www.w3.org/2000/svg"
   xmlns="http://www.w3.org/2000/svg"
   xmlns:sodipodi="http://sodipodi.sourceforge.net/DTD/sodipodi-0.dtd"
   xmlns:inkscape="http://www.inkscape.org/namespaces/inkscape"
   width="480"
   height="480"
   viewBox="0 0 127 127"
   version="1.1"
   id="svg8"
   inkscape:version="0.92.2 5c3e80d, 2017-08-06"
   sodipodi:docname="11.svg">
  <defs
     id="defs2" />
  <sodipodi:namedview
     id="base"
     pagecolor="#ffffff"
     bordercolor="#666666"
     borderopacity="1.0"
     inkscape:pageopacity="0.0"
     inkscape:pageshadow="2"
     inkscape:zoom="1.7172531"
     inkscape:cx="45.302913"
     inkscape:cy="140.48218"
     inkscape:document-units="mm"
     inkscape:current-layer="layer1"
     showgrid="false"
     units="px"
     showguides="false"
     inkscape:guide-bbox="true"
     inkscape:window-width="2880"
     inkscape:window-height="1506"
     inkscape:window-x="0"
     inkscape:window-y="0"
     inkscape:window-maximized="1" />
  <metadata
     id="metadata5">
    <rdf:RDF>
      <cc:Work
         rdf:about="">
        <dc:format>image/svg+xml</dc:format>
        <dc:type
           rdf:resource="http://purl.org/dc/dcmitype/StillImage" />
        <dc:title />
      </cc:Work>
    </rdf:RDF>
  </metadata>
  <g
     inkscape:label="Ebene 1"
     inkscape:groupmode="layer"
     id="layer1"
     transform="translate(0,-169.99998)">
    <g
       style="font-style:normal;font-weight:normal;font-size:10.58333302px;line-height:1.25;font-family:sans-serif;letter-spacing:0px;word-spacing:0px;fill:#000000;fill-opacity:1;stroke:none;stroke-width:0.26458332"
       id="text821" />
    <path
       style="opacity:1;fill:#ff3c00;fill-opacity:1;stroke:none;stroke-width:2.72863984;stroke-miterlimit:4;stroke-dasharray:none;stroke-opacity:0.9927361"
       d="M 163.35742 193.43945 L 149.80078 244.93164 L 129.74023 224.87109 L 84.111328 247.60156 L 117.32227 278.42969 L 87.480469 278.42969 L 289.04883 480 L 480 480 L 480 305.30664 L 396.81055 222.11719 L 395.3125 251.38477 L 361.92188 217.99414 L 360.16992 252.25 L 332.2793 224.35938 L 305.6582 235.56055 L 288.0918 217.99414 L 270.23242 245.04492 L 243.18945 218.00195 L 241.58203 249.38086 L 216.65234 224.44922 L 194.36719 224.44922 L 163.35742 193.43945 z "
       transform="matrix(0.26458333,0,0,0.26458333,0,169.99998)"
       id="rect972-3-6-0" />
    <g
       aria-label="eleven"
       style="font-style:normal;font-weight:normal;font-size:10.58333302px;line-height:1.25;font-family:sans-serif;letter-spacing:0px;word-spacing:0px;fill:#ffffff;fill-opacity:1;stroke:#ff3c00;stroke-width:1.16499996;stroke-miterlimit:4;stroke-dasharray:none;stroke-opacity:1"
       id="text825">
      <path
         d="m 29.323467,245.23901 c 1.857022,0 4.244622,-0.66322 6.035322,-1.92334 l -1.857022,-3.38243 c -1.1938,0.66322 -2.254956,0.99483 -3.382433,0.99483 -1.857022,0 -3.316111,-0.66322 -3.846689,-2.65289 h 9.450916 c 0.09948,-0.39793 0.232128,-1.39277 0.232128,-2.3876 0,-4.44359 -2.321278,-8.02499 -7.229122,-8.02499 -4.045655,0 -7.958666,3.31611 -7.958666,8.68821 0,5.50475 3.714044,8.68821 8.555566,8.68821 z m -3.117144,-10.67787 c 0.331611,-1.65806 1.392766,-2.3876 2.652888,-2.3876 1.724378,0 2.254956,1.12747 2.254956,2.3876 z"
         style="font-style:normal;font-variant:normal;font-weight:900;font-stretch:normal;font-size:33.16110992px;font-family:'Source Sans Pro';-inkscape-font-specification:'Source Sans Pro Heavy';letter-spacing:-2.11666656px;fill:#ffffff;fill-opacity:1;stroke:#ff3c00;stroke-width:1.16499996;stroke-miterlimit:4;stroke-dasharray:none;stroke-opacity:1"
         id="path9061" />
      <path
         d="m 42.042771,245.23901 c 1.260122,0 2.188633,-0.19896 2.785533,-0.46425 l -0.663222,-4.1783 c -0.265289,0.0663 -0.397934,0.0663 -0.5969,0.0663 -0.397934,0 -0.928512,-0.33161 -0.928512,-1.45909 v -17.44274 h -5.70371 v 17.24377 c 0,3.71405 1.260122,6.23429 5.106811,6.23429 z"
         style="font-style:normal;font-variant:normal;font-weight:900;font-stretch:normal;font-size:33.16110992px;font-family:'Source Sans Pro';-inkscape-font-specification:'Source Sans Pro Heavy';letter-spacing:-2.11666656px;fill:#ffffff;fill-opacity:1;stroke:#ff3c00;stroke-width:1.16499996;stroke-miterlimit:4;stroke-dasharray:none;stroke-opacity:1"
         id="path9063" />
      <path
         d="m 52.422144,245.23901 c 1.857022,0 4.244622,-0.66322 6.035322,-1.92334 l -1.857022,-3.38243 c -1.1938,0.66322 -2.254956,0.99483 -3.382434,0.99483 -1.857022,0 -3.316111,-0.66322 -3.846688,-2.65289 h 9.450916 c 0.09948,-0.39793 0.232128,-1.39277 0.232128,-2.3876 0,-4.44359 -2.321278,-8.02499 -7.229122,-8.02499 -4.045656,0 -7.958667,3.31611 -7.958667,8.68821 0,5.50475 3.714045,8.68821 8.555567,8.68821 z m -3.117145,-10.67787 c 0.331611,-1.65806 1.392767,-2.3876 2.652889,-2.3876 1.724378,0 2.254956,1.12747 2.254956,2.3876 z"
         style="font-style:normal;font-variant:normal;font-weight:900;font-stretch:normal;font-size:33.16110992px;font-family:'Source Sans Pro';-inkscape-font-specification:'Source Sans Pro Heavy';letter-spacing:-2.11666656px;fill:#ffffff;fill-opacity:1;stroke:#ff3c00;stroke-width:1.16499996;stroke-miterlimit:4;stroke-dasharray:none;stroke-opacity:1"
         id="path9065" />
      <path
         d="m 63.623808,244.84108 h 6.5659 l 5.239455,-16.58056 h -5.438422 l -1.7907,7.22913 c -0.397933,1.65805 -0.795866,3.38243 -1.1938,5.17313 h -0.132644 c -0.397934,-1.7907 -0.795867,-3.51508 -1.1938,-5.17313 l -1.7907,-7.22913 h -5.703711 z"
         style="font-style:normal;font-variant:normal;font-weight:900;font-stretch:normal;font-size:33.16110992px;font-family:'Source Sans Pro';-inkscape-font-specification:'Source Sans Pro Heavy';letter-spacing:-2.11666656px;fill:#ffffff;fill-opacity:1;stroke:#ff3c00;stroke-width:1.16499996;stroke-miterlimit:4;stroke-dasharray:none;stroke-opacity:1"
         id="path9067" />
      <path
         d="m 83.033886,245.23901 c 1.857022,0 4.244622,-0.66322 6.035322,-1.92334 l -1.857022,-3.38243 c -1.1938,0.66322 -2.254956,0.99483 -3.382434,0.99483 -1.857022,0 -3.316111,-0.66322 -3.846688,-2.65289 h 9.450916 c 0.09948,-0.39793 0.232128,-1.39277 0.232128,-2.3876 0,-4.44359 -2.321278,-8.02499 -7.229122,-8.02499 -4.045656,0 -7.958667,3.31611 -7.958667,8.68821 0,5.50475 3.714045,8.68821 8.555567,8.68821 z m -3.117145,-10.67787 c 0.331611,-1.65806 1.392767,-2.3876 2.652889,-2.3876 1.724378,0 2.254956,1.12747 2.254956,2.3876 z"
         style="font-style:normal;font-variant:normal;font-weight:900;font-stretch:normal;font-size:33.16110992px;font-family:'Source Sans Pro';-inkscape-font-specification:'Source Sans Pro Heavy';letter-spacing:-2.11666656px;fill:#ffffff;fill-opacity:1;stroke:#ff3c00;stroke-width:1.16499996;stroke-miterlimit:4;stroke-dasharray:none;stroke-opacity:1"
         id="path9069" />
      <path
         d="m 90.646378,244.84108 h 5.703711 v -10.87684 c 0.862189,-0.79587 1.459089,-1.26013 2.520245,-1.26013 1.127477,0 1.658056,0.53058 1.658056,2.65289 v 9.48408 h 5.70371 v -10.21362 c 0,-4.11198 -1.52541,-6.76487 -5.17313,-6.76487 -2.254959,0 -3.913014,1.12748 -5.239459,2.3876 h -0.132644 l -0.397933,-1.98967 h -4.642556 z"
         style="font-style:normal;font-variant:normal;font-weight:900;font-stretch:normal;font-size:33.16110992px;font-family:'Source Sans Pro';-inkscape-font-specification:'Source Sans Pro Heavy';letter-spacing:-2.11666656px;fill:#ffffff;fill-opacity:1;stroke:#ff3c00;stroke-width:1.16499996;stroke-miterlimit:4;stroke-dasharray:none;stroke-opacity:1"
         id="path9071" />
    </g>
  </g>
</svg>
