<svg viewBox="0 0 529.167 529.167" height="2000" width="2000" xmlns="http://www.w3.org/2000/svg"><path style="opacity:1;fill:#929292;fill-opacity:1;stroke-width:.45355" transform="rotate(45 430.2 -51.443) scale(4.75783)" d="M73.451 21.447H89.18v15.729H73.451z"/><path style="opacity:1;fill:#909090;fill-opacity:1;stroke-width:.45355" transform="rotate(45 430.2 -51.443) scale(4.75783)" d="M73.451 37.176H89.18v15.729H73.451z"/><path style="opacity:1;fill:#b1b1b1;fill-opacity:1;stroke-width:.45355" transform="rotate(45 430.2 -51.443) scale(4.75783)" d="M73.451 52.905H89.18v15.729H73.451z"/><path style="opacity:1;fill:#c6c6c6;fill-opacity:1;stroke-width:.45355" transform="rotate(45 430.2 -51.443) scale(4.75783)" d="M73.451 68.634H89.18v15.729H73.451z"/><path style="opacity:1;fill:#d1d1d1;fill-opacity:1;stroke-width:.45355" transform="rotate(45 430.2 -51.443) scale(4.75783)" d="M73.451 84.363H89.18v15.729H73.451z"/><path style="opacity:1;fill:#dbdbdb;fill-opacity:1;stroke-width:.45355" transform="rotate(45 430.2 -51.443) scale(4.75783)" d="M89.18 84.363h15.729v15.729H89.18z"/><path style="opacity:1;fill:#e8e8e8;fill-opacity:1;stroke-width:.45355" transform="rotate(45 430.2 -51.443) scale(4.75783)" d="M104.909 84.363h15.729v15.729h-15.729z"/><path style="opacity:1;fill:#f6f6f6;fill-opacity:1;stroke-width:.45355" transform="rotate(45 430.2 -51.443) scale(4.75783)" d="M120.638 84.363h15.729v15.729h-15.729z"/><path style="opacity:1;fill:#fff;fill-opacity:1;stroke-width:.45355" transform="rotate(45 430.2 -51.443) scale(4.75783)" d="M136.367 84.363h15.729v15.729h-15.729z"/><path style="opacity:1;fill:#e8e8e8;fill-opacity:1;stroke-width:.45355" transform="rotate(45 430.2 -51.443) scale(4.75783)" d="M136.367 68.634h15.729v15.729h-15.729z"/><path style="opacity:1;fill:#f6f6f6;fill-opacity:1;stroke-width:.45355" transform="rotate(45 430.2 -51.443) scale(4.75783)" d="M136.367 68.634h15.729v15.729h-15.729z"/><path style="opacity:1;fill:#e8e8e8;fill-opacity:1;stroke-width:.45355" transform="rotate(45 430.2 -51.443) scale(4.75783)" d="M136.367 52.905h15.729v15.729h-15.729z"/><path style="opacity:1;fill:#dbdbdb;fill-opacity:1;stroke-width:.45355" transform="rotate(45 430.2 -51.443) scale(4.75783)" d="M104.909 68.634h15.729v15.729h-15.729zm31.458-31.458h15.729v15.729h-15.729z"/><path style="opacity:1;fill:#d1d1d1;fill-opacity:1;stroke-width:.45355" transform="rotate(45 430.2 -51.443) scale(4.75783)" d="M89.18 68.634h15.729v15.729H89.18zm15.729-15.729h15.729v15.729h-15.729zm31.458-31.458h15.729v15.729h-15.729z"/><path style="opacity:1;fill:#c6c6c6;fill-opacity:1;stroke-width:.45355" transform="rotate(45 430.2 -51.443) scale(4.75783)" d="M120.638 21.447h15.729v15.729h-15.729z"/><path style="opacity:1;fill:#b1b1b1;fill-opacity:1;stroke-width:.45355" transform="rotate(45 430.2 -51.443) scale(4.75783)" d="M89.18 37.176h15.729v15.729H89.18z"/><path style="opacity:1;fill:#909090;fill-opacity:1;stroke-width:.45355" transform="rotate(45 430.2 -51.443) scale(4.75783)" d="M104.909 21.447h15.729v15.729h-15.729z"/><path style="opacity:1;fill:#b1b1b1;fill-opacity:1;stroke-width:.45355" transform="rotate(45 430.2 -51.443) scale(4.75783)" d="M104.909 21.447h15.729v15.729h-15.729z"/><path style="opacity:1;fill:#909090;fill-opacity:1;stroke-width:.45355" transform="rotate(45 430.2 -51.443) scale(4.75783)" d="M89.18 21.447h15.729v15.729H89.18z"/></svg>