<svg width="1000" height="1000" viewBox="0 0 264.583 264.583" xmlns:xlink="http://www.w3.org/1999/xlink" xmlns="http://www.w3.org/2000/svg"><defs><linearGradient id="a"><stop style="stop-color:#d0d1d5;stop-opacity:1" offset="0"/><stop style="stop-color:#dfdfe6;stop-opacity:1" offset=".307"/><stop style="stop-color:#bcbac4;stop-opacity:1" offset=".572"/><stop style="stop-color:#e1e6e8;stop-opacity:1" offset=".867"/><stop style="stop-color:#dfdfe6;stop-opacity:1" offset="1"/></linearGradient><linearGradient id="b"><stop style="stop-color:#fff;stop-opacity:1" offset="0"/><stop style="stop-color:#fcffff;stop-opacity:0" offset="1"/></linearGradient><linearGradient id="c"><stop style="stop-color:#f55d3e;stop-opacity:1" offset="0"/><stop style="stop-color:#f55d3e;stop-opacity:0" offset="1"/></linearGradient><linearGradient xlink:href="#a" id="e" x1="125.148" y1="80.698" x2="137.583" y2="80.698" gradientUnits="userSpaceOnUse"/><linearGradient xlink:href="#b" id="f" x1="132.292" y1="23.812" x2="132.292" y2="67.283" gradientUnits="userSpaceOnUse" gradientTransform="matrix(1.2 0 0 1.34 -26.458 -5.874)"/><linearGradient xlink:href="#c" id="g" gradientUnits="userSpaceOnUse" gradientTransform="matrix(1.2 0 0 .34048 -291.041 -155.657)" x1="132.291" y1="37.541" x2="132.291" y2="56.969"/><linearGradient id="d"><stop style="stop-color:#d0d1d5;stop-opacity:1" offset="0"/><stop style="stop-color:#dfdfe6;stop-opacity:1" offset=".37"/><stop style="stop-color:#cdcbd1;stop-opacity:1" offset=".568"/><stop style="stop-color:#e1e6e8;stop-opacity:1" offset=".753"/><stop style="stop-color:#dfdfe6;stop-opacity:1" offset="1"/></linearGradient></defs><path style="opacity:1;fill:url(#e);fill-opacity:1;stroke:#b8bcc8;stroke-width:.473339;stroke-linejoin:round;stroke-miterlimit:4;stroke-dasharray:none;stroke-opacity:1;paint-order:markers fill stroke" d="M129.632 23.825h5.31c.439 0 .783.354.793.794l2.113 97.09-1.314 25.68c-.023.44-.354.794-.794.794h-1.067l-.53-5.308h-3.704l-.529 5.308h-1.053c-.44 0-.77-.354-.794-.794l-1.328-25.68 2.104-97.09a.798.798 0 0 1 .793-.794z"/><path style="fill:url(#f);stroke-width:.980163;stroke-linejoin:round;stroke-opacity:.996078;paint-order:markers fill stroke" d="M131.498 22.49h1.587c.44 0 .807.354.794.793L132.304 85.4c-.014.44-1.6-62.117-1.6-62.117-.013-.44.354-.793.794-.793z"/><path style="fill:url(#g);stroke-width:.494072;stroke-linejoin:round;stroke-opacity:.996078;paint-order:markers fill stroke" transform="scale(-1)" d="M-133.085-149.49h1.587c.44 0 .846.358.794.794l-1.587 16.404-1.588-16.403c-.042-.438.354-.794.794-.794z"/><circle style="fill:#f55d3e;fill-opacity:1;stroke:none;stroke-width:.473339;stroke-linejoin:round;stroke-miterlimit:4;stroke-dasharray:none;stroke-opacity:.996078;paint-order:markers fill stroke;opacity:.29874075" cx="132.292" cy="132.292" r="3.969"/><circle style="opacity:.6350886;fill:#4d4d4d;fill-opacity:1;stroke:none;stroke-width:.314355;stroke-linejoin:round;stroke-miterlimit:4;stroke-dasharray:none;stroke-opacity:.996078;paint-order:markers fill stroke" cx="132.292" cy="132.292" r="2.636"/><circle style="opacity:.635089;fill:#ff0;fill-opacity:1;stroke:none;stroke-width:.0937835;stroke-linejoin:round;stroke-miterlimit:4;stroke-dasharray:none;stroke-opacity:.996078;paint-order:markers fill stroke" cx="132.292" cy="132.292" r=".786"/></svg>