<svg width="1000" height="1000" viewBox="0 0 264.583 264.583" xmlns:xlink="http://www.w3.org/1999/xlink" xmlns="http://www.w3.org/2000/svg"><defs><linearGradient id="d"><stop style="stop-color:#b4b2bd;stop-opacity:1" offset="0"/><stop style="stop-color:#abafbf;stop-opacity:1" offset="1"/></linearGradient><linearGradient id="c"><stop style="stop-color:#c4c3cb;stop-opacity:1" offset="0"/><stop style="stop-color:#eef1f1;stop-opacity:1" offset=".377"/><stop style="stop-color:#dfdfe6;stop-opacity:1" offset=".755"/><stop style="stop-color:#d0d1d5;stop-opacity:1" offset="1"/></linearGradient><linearGradient id="b"><stop style="stop-color:#a67c00;stop-opacity:1" offset="0"/><stop style="stop-color:#bf9b30;stop-opacity:1" offset="1"/></linearGradient><linearGradient id="a"><stop style="stop-color:#ffbf00;stop-opacity:1" offset="0"/><stop style="stop-color:#ffdb72;stop-opacity:.99215686" offset=".494"/><stop style="stop-color:#ffdc73;stop-opacity:.99392998" offset=".497"/><stop style="stop-color:#ffcf40;stop-opacity:.99929136" offset="1"/></linearGradient><linearGradient xlink:href="#c" id="e" gradientUnits="userSpaceOnUse" gradientTransform="translate(18.899 35.908) scale(.85714)" x1="132.292" y1="257.968" x2="132.292" y2="244.739"/><linearGradient xlink:href="#d" id="f" gradientUnits="userSpaceOnUse" x1="129.467" y1="251.354" x2="135.116" y2="251.354"/><linearGradient xlink:href="#d" id="h" gradientUnits="userSpaceOnUse" x1="129.467" y1="251.354" x2="135.116" y2="251.354" gradientTransform="rotate(-150 132.292 132.292)"/><linearGradient xlink:href="#c" id="g" gradientUnits="userSpaceOnUse" gradientTransform="rotate(-150 127.653 111.806) scale(.85714)" x1="132.292" y1="257.968" x2="132.292" y2="244.739"/><linearGradient xlink:href="#d" id="j" gradientUnits="userSpaceOnUse" gradientTransform="rotate(-120 132.292 132.292)" x1="129.467" y1="251.354" x2="135.116" y2="251.354"/><linearGradient xlink:href="#c" id="i" gradientUnits="userSpaceOnUse" gradientTransform="rotate(-120 133.208 108.882) scale(.85714)" x1="132.292" y1="257.968" x2="132.292" y2="244.739"/><linearGradient xlink:href="#d" id="l" gradientUnits="userSpaceOnUse" gradientTransform="rotate(-90 132.292 132.292)" x1="129.467" y1="251.354" x2="135.116" y2="251.354"/><linearGradient xlink:href="#c" id="k" gradientUnits="userSpaceOnUse" gradientTransform="rotate(-90 140.796 104.889) scale(.85714)" x1="132.292" y1="257.968" x2="132.292" y2="244.739"/><linearGradient xlink:href="#d" id="n" gradientUnits="userSpaceOnUse" x1="129.467" y1="251.354" x2="135.116" y2="251.354" gradientTransform="rotate(150 132.292 132.292)"/><linearGradient xlink:href="#c" id="m" gradientUnits="userSpaceOnUse" gradientTransform="rotate(150 118.032 116.87) scale(.85714)" x1="132.292" y1="257.968" x2="132.292" y2="244.739"/><linearGradient xlink:href="#d" id="p" gradientUnits="userSpaceOnUse" gradientTransform="rotate(120 132.292 132.292)" x1="129.467" y1="251.354" x2="135.116" y2="251.354"/><linearGradient xlink:href="#c" id="o" gradientUnits="userSpaceOnUse" gradientTransform="rotate(120 112.477 119.794) scale(.85714)" x1="132.292" y1="257.968" x2="132.292" y2="244.739"/><linearGradient xlink:href="#d" id="r" gradientUnits="userSpaceOnUse" gradientTransform="rotate(90 132.292 132.292)" x1="129.467" y1="251.354" x2="135.116" y2="251.354"/><linearGradient xlink:href="#c" id="q" gradientUnits="userSpaceOnUse" gradientTransform="rotate(90 104.889 123.787) scale(.85714)" x1="132.292" y1="257.968" x2="132.292" y2="244.739"/><linearGradient xlink:href="#d" id="t" gradientUnits="userSpaceOnUse" gradientTransform="rotate(-60 132.291 132.292)" x1="129.467" y1="251.354" x2="135.116" y2="251.354"/><linearGradient xlink:href="#c" id="s" gradientUnits="userSpaceOnUse" gradientTransform="rotate(-60 153.939 97.971) scale(.85714)" x1="132.292" y1="257.968" x2="132.292" y2="244.739"/><linearGradient xlink:href="#d" id="v" gradientUnits="userSpaceOnUse" gradientTransform="rotate(-30 132.29 132.292)" x1="129.467" y1="251.354" x2="135.116" y2="251.354"/><linearGradient xlink:href="#c" id="u" gradientUnits="userSpaceOnUse" gradientTransform="rotate(-30 189.846 79.072) scale(.85714)" x1="132.292" y1="257.968" x2="132.292" y2="244.739"/><linearGradient xlink:href="#d" id="x" gradientUnits="userSpaceOnUse" gradientTransform="translate(0 -.001)" x1="129.467" y1="251.354" x2="135.116" y2="251.354"/><linearGradient xlink:href="#c" id="w" gradientUnits="userSpaceOnUse" gradientTransform="translate(18.899 35.907) scale(.85714)" x1="132.292" y1="257.968" x2="132.292" y2="244.739"/><linearGradient xlink:href="#d" id="z" gradientUnits="userSpaceOnUse" gradientTransform="rotate(30 132.294 132.292)" x1="129.467" y1="251.354" x2="135.116" y2="251.354"/><linearGradient xlink:href="#c" id="y" gradientUnits="userSpaceOnUse" gradientTransform="rotate(30 55.84 149.604) scale(.85714)" x1="132.292" y1="257.968" x2="132.292" y2="244.739"/><linearGradient xlink:href="#d" id="B" gradientUnits="userSpaceOnUse" gradientTransform="rotate(60 132.293 132.292)" x1="129.467" y1="251.354" x2="135.116" y2="251.354"/><linearGradient xlink:href="#c" id="A" gradientUnits="userSpaceOnUse" gradientTransform="rotate(60 91.746 130.705) scale(.85714)" x1="132.292" y1="257.968" x2="132.292" y2="244.739"/></defs><path style="color:#000;fill:url(#e);stroke-width:.264583;stroke-linejoin:round;-inkscape-stroke:none;paint-order:markers fill stroke" d="M130.44 243.416h3.704c.44 0 .793.354.793.794v14.288c0 .44-.354.793-.793.793h-3.705a.792.792 0 0 1-.793-.793V244.21c0-.44.354-.794.793-.794z" transform="rotate(180 132.292 132.292)"/><path style="color:#000;fill:url(#f);stroke-linejoin:round;-inkscape-stroke:none;paint-order:markers fill stroke" d="M130.44 243.283a.928.928 0 0 0-.926.928v14.287c0 .51.415.926.925.926h3.706c.51 0 .925-.415.925-.926v-14.287a.928.928 0 0 0-.925-.928zm0 .266h3.705c.368 0 .66.293.66.662v14.287c0 .369-.292.66-.66.66h-3.706a.657.657 0 0 1-.662-.66v-14.287c0-.369.294-.662.662-.662z" transform="rotate(180 132.292 132.292)"/><path style="color:#000;fill:url(#g);stroke-width:.264583;stroke-linejoin:round;-inkscape-stroke:none;paint-order:markers fill stroke" d="m189.458 36.982-3.208-1.852a.791.791 0 0 1-.29-1.084l7.144-12.374a.791.791 0 0 1 1.083-.29l3.209 1.852a.792.792 0 0 1 .29 1.083l-7.144 12.374a.792.792 0 0 1-1.084.291z"/><path style="color:#000;fill:url(#h);stroke-linejoin:round;-inkscape-stroke:none;paint-order:markers fill stroke" d="M189.391 37.097a.928.928 0 0 0 1.266-.34l7.144-12.374a.927.927 0 0 0-.339-1.264l-3.209-1.853a.926.926 0 0 0-1.264.34l-7.144 12.372a.928.928 0 0 0 .338 1.266zm.133-.23-3.208-1.853a.657.657 0 0 1-.241-.903l7.143-12.373a.655.655 0 0 1 .902-.242l3.21 1.853a.657.657 0 0 1 .243.903l-7.144 12.373a.658.658 0 0 1-.904.242z"/><path style="color:#000;fill:url(#i);stroke-width:.264583;stroke-linejoin:round;-inkscape-stroke:none;paint-order:markers fill stroke" d="m229.454 78.334-1.852-3.208a.791.791 0 0 1 .29-1.084l12.375-7.144a.791.791 0 0 1 1.083.29l1.852 3.21a.792.792 0 0 1-.29 1.082l-12.374 7.144a.792.792 0 0 1-1.084-.29z"/><path style="color:#000;fill:url(#j);stroke-linejoin:round;-inkscape-stroke:none;paint-order:markers fill stroke" d="M229.339 78.4a.928.928 0 0 0 1.266.338l12.373-7.143a.927.927 0 0 0 .34-1.264l-1.853-3.21a.926.926 0 0 0-1.265-.338l-12.373 7.144a.928.928 0 0 0-.34 1.265zm.23-.133-1.853-3.208a.657.657 0 0 1 .244-.903l12.373-7.143a.655.655 0 0 1 .901.241l1.853 3.21a.657.657 0 0 1-.24.903l-12.373 7.143a.658.658 0 0 1-.905-.242z"/><path style="color:#000;fill:url(#k);stroke-width:.264583;stroke-linejoin:round;-inkscape-stroke:none;paint-order:markers fill stroke" d="M243.415 134.144v-3.704c0-.44.354-.793.794-.793h14.288c.44 0 .793.354.793.793v3.705a.792.792 0 0 1-.793.793H244.21a.792.792 0 0 1-.794-.793z"/><path style="color:#000;fill:url(#l);stroke-linejoin:round;-inkscape-stroke:none;paint-order:markers fill stroke" d="M243.282 134.144a.928.928 0 0 0 .928.926h14.287c.51 0 .926-.415.926-.925v-3.706a.926.926 0 0 0-.926-.925H244.21a.928.928 0 0 0-.928.925zm.266 0v-3.705c0-.368.293-.66.662-.66h14.287c.37 0 .66.292.66.66v3.706a.657.657 0 0 1-.66.662H244.21a.658.658 0 0 1-.662-.662z"/><path style="color:#000;fill:url(#m);stroke-width:.264583;stroke-linejoin:round;-inkscape-stroke:none;paint-order:markers fill stroke" d="m78.334 35.13-3.208 1.852a.791.791 0 0 1-1.083-.291l-7.144-12.374a.791.791 0 0 1 .29-1.083l3.208-1.853a.792.792 0 0 1 1.084.29l7.144 12.374c.22.381.09.865-.29 1.084z"/><path style="color:#000;fill:url(#n);stroke-linejoin:round;-inkscape-stroke:none;paint-order:markers fill stroke" d="M78.4 35.245a.928.928 0 0 0 .339-1.267l-7.144-12.373a.927.927 0 0 0-1.264-.34l-3.21 1.854a.926.926 0 0 0-.338 1.264l7.144 12.373a.928.928 0 0 0 1.265.341zm-.132-.23-3.209 1.852a.657.657 0 0 1-.903-.243L67.013 24.25a.655.655 0 0 1 .241-.902l3.21-1.853a.657.657 0 0 1 .903.24l7.144 12.374c.184.32.076.72-.243.904z"/><path style="color:#000;fill:url(#o);stroke-width:.264583;stroke-linejoin:round;-inkscape-stroke:none;paint-order:markers fill stroke" d="m36.982 75.126-1.852 3.208a.791.791 0 0 1-1.084.29l-12.374-7.145a.791.791 0 0 1-.29-1.083l1.853-3.209a.792.792 0 0 1 1.083-.29l12.374 7.144c.38.22.51.704.29 1.084z"/><path style="color:#000;fill:url(#p);stroke-linejoin:round;-inkscape-stroke:none;paint-order:markers fill stroke" d="M37.097 75.192a.928.928 0 0 0-.34-1.266l-12.373-7.143a.927.927 0 0 0-1.265.338l-1.853 3.21a.926.926 0 0 0 .34 1.263l12.373 7.144a.928.928 0 0 0 1.266-.337zm-.23-.133-1.853 3.209a.657.657 0 0 1-.903.24l-12.373-7.143a.655.655 0 0 1-.241-.902l1.853-3.21a.657.657 0 0 1 .902-.242l12.373 7.143c.32.185.426.586.242.904z"/><path style="color:#000;fill:url(#q);stroke-width:.264583;stroke-linejoin:round;-inkscape-stroke:none;paint-order:markers fill stroke" d="M21.168 130.44v3.703c0 .44-.354.793-.794.793H6.086a.791.791 0 0 1-.793-.793v-3.705a.792.792 0 0 1 .793-.793h14.288c.44 0 .794.354.794.793z"/><path style="color:#000;fill:url(#r);stroke-linejoin:round;-inkscape-stroke:none;paint-order:markers fill stroke" d="M21.301 130.44a.928.928 0 0 0-.928-.927H6.086a.927.927 0 0 0-.926.925v3.706c0 .51.415.925.926.925h14.287a.928.928 0 0 0 .928-.925zm-.266 0v3.704c0 .368-.293.66-.662.66H6.086a.655.655 0 0 1-.66-.66v-3.706a.657.657 0 0 1 .66-.662h14.287c.37 0 .662.294.662.662z"/><path style="color:#000;fill:url(#s);stroke-width:.264583;stroke-linejoin:round;-inkscape-stroke:none;paint-order:markers fill stroke" d="m227.602 189.457 1.852-3.208a.791.791 0 0 1 1.084-.29l12.374 7.145c.38.22.51.703.29 1.083l-1.853 3.209a.792.792 0 0 1-1.083.29l-12.374-7.144a.792.792 0 0 1-.29-1.084z"/><path style="color:#000;fill:url(#t);stroke-linejoin:round;-inkscape-stroke:none;paint-order:markers fill stroke" d="M227.486 189.39a.928.928 0 0 0 .341 1.267L240.2 197.8a.927.927 0 0 0 1.264-.338l1.853-3.21a.926.926 0 0 0-.339-1.263l-12.373-7.144a.928.928 0 0 0-1.266.337zm.23.134 1.853-3.209a.657.657 0 0 1 .904-.24l12.373 7.143c.32.185.425.583.241.902l-1.853 3.21a.657.657 0 0 1-.902.242l-12.373-7.143a.658.658 0 0 1-.243-.904z"/><path style="color:#000;fill:url(#u);stroke-width:.264583;stroke-linejoin:round;-inkscape-stroke:none;paint-order:markers fill stroke" d="m186.25 229.453 3.207-1.852a.791.791 0 0 1 1.084.291l7.144 12.374c.22.381.09.864-.29 1.083l-3.209 1.853a.792.792 0 0 1-1.083-.29l-7.144-12.374a.792.792 0 0 1 .29-1.084z"/><path style="color:#000;fill:url(#v);stroke-linejoin:round;-inkscape-stroke:none;paint-order:markers fill stroke" d="M186.183 229.338a.928.928 0 0 0-.338 1.267l7.144 12.373a.927.927 0 0 0 1.264.34l3.21-1.854a.926.926 0 0 0 .337-1.264l-7.143-12.373a.928.928 0 0 0-1.265-.341zm.133.23 3.209-1.852a.657.657 0 0 1 .902.243l7.144 12.373a.655.655 0 0 1-.242.902l-3.21 1.853a.657.657 0 0 1-.902-.24l-7.144-12.374a.658.658 0 0 1 .242-.904z"/><path style="color:#000;fill:url(#w);stroke-width:.264583;stroke-linejoin:round;-inkscape-stroke:none;paint-order:markers fill stroke" d="M130.44 243.415h3.704c.44 0 .793.354.793.794v14.288c0 .44-.354.793-.793.793h-3.705a.792.792 0 0 1-.793-.793v-14.288c0-.44.354-.794.793-.794z"/><path style="color:#000;fill:url(#x);stroke-linejoin:round;-inkscape-stroke:none;paint-order:markers fill stroke" d="M130.44 243.282a.928.928 0 0 0-.926.928v14.287c0 .51.415.926.925.926h3.706c.51 0 .925-.415.925-.926V244.21a.928.928 0 0 0-.925-.928zm0 .266h3.705c.368 0 .66.293.66.662v14.287c0 .369-.292.66-.66.66h-3.706a.657.657 0 0 1-.662-.66V244.21c0-.369.294-.662.662-.662z"/><path style="color:#000;fill:url(#y);stroke-width:.264583;stroke-linejoin:round;-inkscape-stroke:none;paint-order:markers fill stroke" d="m75.126 227.601 3.208 1.852c.381.22.51.703.29 1.084l-7.144 12.374a.791.791 0 0 1-1.084.29l-3.208-1.852a.792.792 0 0 1-.29-1.083l7.144-12.374a.792.792 0 0 1 1.083-.291z"/><path style="color:#000;fill:url(#z);stroke-linejoin:round;-inkscape-stroke:none;paint-order:markers fill stroke" d="M75.193 227.486a.928.928 0 0 0-1.266.34L66.783 240.2a.927.927 0 0 0 .338 1.264l3.21 1.853a.926.926 0 0 0 1.264-.34l7.143-12.372a.928.928 0 0 0-.337-1.266zm-.133.23 3.208 1.853a.657.657 0 0 1 .24.903l-7.143 12.373a.655.655 0 0 1-.901.242l-3.21-1.853a.657.657 0 0 1-.243-.903l7.144-12.373a.658.658 0 0 1 .904-.242z"/><path style="color:#000;fill:url(#A);stroke-width:.264583;stroke-linejoin:round;-inkscape-stroke:none;paint-order:markers fill stroke" d="m35.13 186.25 1.852 3.207c.22.381.09.864-.291 1.084l-12.374 7.144a.791.791 0 0 1-1.083-.29l-1.853-3.21a.792.792 0 0 1 .29-1.082l12.374-7.144a.792.792 0 0 1 1.085.29z"/><path style="color:#000;fill:url(#B);stroke-linejoin:round;-inkscape-stroke:none;paint-order:markers fill stroke" d="M35.245 186.183a.928.928 0 0 0-1.266-.338l-12.373 7.143a.927.927 0 0 0-.34 1.264l1.853 3.21a.926.926 0 0 0 1.265.338l12.373-7.143a.928.928 0 0 0 .34-1.266zm-.23.133 1.852 3.208a.657.657 0 0 1-.243.903l-12.373 7.144a.655.655 0 0 1-.901-.242l-1.853-3.21a.657.657 0 0 1 .24-.903l12.373-7.143a.658.658 0 0 1 .904.242z"/></svg>