<svg width="1000" height="1000" viewBox="0 0 264.583 264.583" xmlns:xlink="http://www.w3.org/1999/xlink" xmlns="http://www.w3.org/2000/svg"><defs><linearGradient id="b"><stop style="stop-color:#fff;stop-opacity:.00511773" offset="0"/><stop style="stop-color:#fff;stop-opacity:.30613038" offset=".361"/><stop style="stop-color:#000;stop-opacity:.99602747" offset="1"/></linearGradient><linearGradient id="a"><stop style="stop-color:#1a1a1a;stop-opacity:1" offset="0"/><stop style="stop-color:#595959;stop-opacity:1" offset=".5"/><stop style="stop-color:#1a1a1a;stop-opacity:.99999291" offset="1"/></linearGradient><linearGradient xlink:href="#a" id="c" x1="280" y1="720" x2="720" y2="280" gradientUnits="userSpaceOnUse"/></defs><path style="display:inline;mix-blend-mode:normal;fill:url(#c);fill-opacity:1;paint-order:markers fill stroke" d="M500 .455A499.546 499.546 0 0 0 .455 500 499.546 499.546 0 0 0 500 999.545 499.546 499.546 0 0 0 999.545 500 499.546 499.546 0 0 0 500 .455zM500 100c6.947 0 13.87.204 20.773.563a400 400 0 0 1 6.723.5c4.695.323 9.387.657 14.055 1.144a400 400 0 0 1 7.719.959c4.3.534 8.598 1.082 12.87 1.754a400 400 0 0 1 8.284 1.445c4.039.723 8.069 1.473 12.078 2.319a400 400 0 0 1 8.533 1.923c3.908.914 7.8 1.873 11.674 2.903a400 400 0 0 1 8.494 2.357c3.868 1.12 7.71 2.308 11.54 3.543a400 400 0 0 1 8.196 2.713c3.93 1.362 7.823 2.818 11.707 4.3a400 400 0 0 1 7.668 2.96c4.086 1.657 8.12 3.433 12.149 5.224a400 400 0 0 1 6.848 3.036c4.689 2.19 9.308 4.525 13.912 6.898a400 400 0 0 1 4.595 2.313 399.95 399.95 0 0 1 18.034 10.195 400 400 0 0 1 3.855 2.437c4.566 2.812 9.106 5.67 13.563 8.668a400 400 0 0 1 6.175 4.34c3.596 2.52 7.186 5.046 10.703 7.688a400 400 0 0 1 6.625 5.16c3.238 2.539 6.461 5.094 9.625 7.738a400 400 0 0 1 6.7 5.772 399.68 399.68 0 0 1 8.879 7.966 400 400 0 0 1 6.615 6.295c1.404 1.364 2.863 2.659 4.25 4.045 1.386 1.387 2.68 2.846 4.045 4.25a400 400 0 0 1 6.295 6.615 399.68 399.68 0 0 1 7.966 8.88 400 400 0 0 1 5.772 6.699c2.644 3.164 5.2 6.387 7.738 9.625a400 400 0 0 1 5.16 6.625c2.642 3.517 5.169 7.107 7.688 10.703a400 400 0 0 1 4.34 6.175c2.998 4.457 5.856 8.997 8.668 13.563a400 400 0 0 1 2.437 3.855 399.95 399.95 0 0 1 10.195 18.034 400 400 0 0 1 2.313 4.595c2.373 4.604 4.708 9.223 6.898 13.912a400 400 0 0 1 3.036 6.848c1.79 4.029 3.567 8.063 5.224 12.149a400 400 0 0 1 2.96 7.668c1.482 3.884 2.938 7.777 4.3 11.707a400 400 0 0 1 2.713 8.197 399.773 399.773 0 0 1 3.543 11.539 400 400 0 0 1 2.357 8.494 399.755 399.755 0 0 1 2.903 11.674 400 400 0 0 1 1.923 8.533c.846 4.01 1.596 8.039 2.319 12.078a400 400 0 0 1 1.445 8.283c.672 4.273 1.22 8.57 1.754 12.871a400 400 0 0 1 .959 7.72c.487 4.667.821 9.36 1.144 14.054a400 400 0 0 1 .5 6.723A400.11 400.11 0 0 1 900 500c0 20.84-1.683 41.5-4.865 61.834a400 400 0 0 1-.319 1.824 399.765 399.765 0 0 1-14.08 58.64 400 400 0 0 1-.904 2.731 399.965 399.965 0 0 1-22.838 55.137 400 400 0 0 1-1.297 2.58 399.776 399.776 0 0 1-31.51 51.42 400 400 0 0 1-1.06 1.512c-12.13 16.63-25.549 32.427-40.285 47.164-14.737 14.736-30.534 28.156-47.164 40.285a400 400 0 0 1-1.512 1.06 399.776 399.776 0 0 1-51.42 31.51 400 400 0 0 1-2.58 1.297 399.965 399.965 0 0 1-55.137 22.838 400 400 0 0 1-2.73.904 399.765 399.765 0 0 1-58.64 14.08 400 400 0 0 1-1.825.319C541.499 898.317 520.84 900 500 900c-20.84 0-41.5-1.683-61.834-4.865a400 400 0 0 1-1.824-.319 399.765 399.765 0 0 1-58.64-14.08 400 400 0 0 1-2.731-.904 399.965 399.965 0 0 1-55.137-22.838 400 400 0 0 1-2.58-1.297 399.776 399.776 0 0 1-51.42-31.51 400 400 0 0 1-1.512-1.06c-16.63-12.13-32.427-25.549-47.164-40.285-14.736-14.737-28.156-30.534-40.285-47.164a400 400 0 0 1-1.06-1.512 399.776 399.776 0 0 1-31.51-51.42 400 400 0 0 1-1.297-2.58 399.965 399.965 0 0 1-22.838-55.137 400 400 0 0 1-.904-2.73 399.765 399.765 0 0 1-14.08-58.64 400 400 0 0 1-.319-1.825C101.683 541.499 100 520.84 100 500c0-65.258 15.729-126.806 43.445-181.227a400 400 0 0 1 .373-.728 399.89 399.89 0 0 1 32.088-52.363 400 400 0 0 1 .953-1.342c12.233-16.745 25.67-32.552 40.3-47.182 14.63-14.63 30.436-28.066 47.18-40.299a400 400 0 0 1 1.343-.953 399.89 399.89 0 0 1 52.363-32.088 400 400 0 0 1 .728-.373C373.193 115.73 434.742 100 500 100z" transform="scale(.26458)"/></svg>