<svg width="1000" height="1000" viewBox="0 0 264.583 264.583" xmlns:xlink="http://www.w3.org/1999/xlink" xmlns="http://www.w3.org/2000/svg"><defs><linearGradient id="a"><stop style="stop-color:#d0d1d5;stop-opacity:1" offset="0"/><stop style="stop-color:#dfdfe6;stop-opacity:1" offset=".341"/><stop style="stop-color:#b8bcc8;stop-opacity:1" offset=".443"/><stop style="stop-color:#e1e6e8;stop-opacity:1" offset=".543"/><stop style="stop-color:#dfdfe6;stop-opacity:1" offset="1"/></linearGradient><linearGradient id="b"><stop style="stop-color:#f55d3e;stop-opacity:1" offset="0"/><stop style="stop-color:#f55d3e;stop-opacity:.44999999" offset="1"/></linearGradient><linearGradient xlink:href="#a" id="d" x1="128.286" y1="80.707" x2="137.583" y2="80.698" gradientUnits="userSpaceOnUse"/><linearGradient xlink:href="#b" id="e" x1="500.23" y1="114.311" x2="500" y2="240" gradientUnits="userSpaceOnUse"/><linearGradient id="c"><stop style="stop-color:#d0d1d5;stop-opacity:1" offset="0"/><stop style="stop-color:#dfdfe6;stop-opacity:1" offset=".37"/><stop style="stop-color:#cdcbd1;stop-opacity:1" offset=".568"/><stop style="stop-color:#e1e6e8;stop-opacity:1" offset=".753"/><stop style="stop-color:#dfdfe6;stop-opacity:1" offset="1"/></linearGradient></defs><path style="display:inline;opacity:1;fill:url(#d);fill-opacity:1;stroke:#d0d1d5;stroke-width:.529166;stroke-linecap:square;stroke-linejoin:round;stroke-miterlimit:4;stroke-dasharray:none;stroke-opacity:1;paint-order:markers stroke fill" d="m132.816 14.264 1.063 107.444-.514 26.988a.797.797 0 0 1-.794.794h-.547c-.44 0-.722-.36-.794-.794l-.526-26.988 1.053-107.405z"/><circle style="display:inline;opacity:.8;fill:#666;fill-opacity:.99393;stroke-width:.348959;stroke-linejoin:round;paint-order:markers fill stroke" cx="132.292" cy="132.292" r="1.047"/><circle style="display:inline;fill:#1a1a1a;fill-opacity:.99393;stroke-width:.0927261;stroke-linejoin:round;paint-order:markers fill stroke" cx="132.292" cy="132.292" r=".278"/><path style="display:inline;opacity:1;fill:url(#e);fill-opacity:1;stroke-width:1.08906;stroke-linejoin:round;paint-order:markers fill stroke" d="M499.878 50.246c-1.606-.002-2.901 1.399-2.925 3.002L495.598 240h8.78l-1.376-186.754c-.012-1.662-1.412-3.003-3.124-3z" transform="scale(.26458)"/></svg>