<svg width="1000" height="1000" viewBox="0 0 264.583 264.583" xmlns:xlink="http://www.w3.org/1999/xlink" xmlns="http://www.w3.org/2000/svg"><defs><linearGradient id="b"><stop style="stop-color:#cf3a55;stop-opacity:1" offset="0"/><stop style="stop-color:#cf3a55;stop-opacity:.50332424" offset="1"/></linearGradient><linearGradient id="a"><stop style="stop-color:#bf9b30;stop-opacity:1" offset="0"/><stop style="stop-color:#ffdc73;stop-opacity:1" offset=".3"/><stop style="stop-color:#ffcf40;stop-opacity:1" offset=".553"/><stop style="stop-color:#a67c00;stop-opacity:1" offset=".596"/><stop style="stop-color:#ffbf00;stop-opacity:1" offset="1"/></linearGradient><linearGradient xlink:href="#a" id="c" x1="125.148" y1="80.698" x2="137.583" y2="80.698" gradientUnits="userSpaceOnUse"/><linearGradient xlink:href="#b" id="d" x1="500" y1="100" x2="500" y2="240" gradientUnits="userSpaceOnUse"/></defs><path style="display:inline;opacity:1;fill:url(#c);fill-opacity:1;stroke-width:.288146;stroke-linejoin:round;paint-order:markers fill stroke" d="M132.28 13.295h.012c.44-.01.79.353.794.793l.793 107.62-.514 26.988a.797.797 0 0 1-.794.794h-.547c-.44 0-.722-.36-.794-.794l-.526-26.988.782-107.62c.003-.44 1.233-.793.793-.793z"/><circle style="display:inline;opacity:.8;fill:#666;fill-opacity:.99393;stroke-width:.348959;stroke-linejoin:round;paint-order:markers fill stroke" cx="132.292" cy="132.292" r="1.047"/><circle style="display:inline;fill:#1a1a1a;fill-opacity:.99393;stroke-width:.0927261;stroke-linejoin:round;paint-order:markers fill stroke" cx="132.292" cy="132.292" r=".278"/><path style="display:inline;opacity:1;fill:url(#d);fill-opacity:1;stroke-width:1.08906;stroke-linejoin:round;paint-order:markers fill stroke" d="m500.002 50.246-.049.002c1.662 0-2.989 1.338-3 3L495.598 240h8.78l-1.376-186.754c-.012-1.662-1.338-3.038-3-3z" transform="scale(.26458)"/></svg>