<svg width="1000" height="1000" viewBox="0 0 264.583 264.583" xmlns:xlink="http://www.w3.org/1999/xlink" xmlns="http://www.w3.org/2000/svg"><defs><linearGradient id="b"><stop style="stop-color:#a67c00;stop-opacity:1" offset="0"/><stop style="stop-color:#bf9b30;stop-opacity:1" offset="1"/></linearGradient><linearGradient id="a"><stop style="stop-color:#ffbf00;stop-opacity:1" offset="0"/><stop style="stop-color:#ffdb72;stop-opacity:.99215686" offset=".494"/><stop style="stop-color:#ffdc73;stop-opacity:.99392998" offset=".497"/><stop style="stop-color:#ffcf40;stop-opacity:.99929136" offset="1"/></linearGradient><linearGradient xlink:href="#a" id="c" x1="132.292" y1="257.968" x2="132.292" y2="244.739" gradientUnits="userSpaceOnUse" gradientTransform="matrix(.85714 0 0 .85714 18.899 35.908)"/><linearGradient xlink:href="#b" id="d" x1="129.467" y1="251.354" x2="135.116" y2="251.354" gradientUnits="userSpaceOnUse"/><linearGradient xlink:href="#a" id="e" gradientUnits="userSpaceOnUse" gradientTransform="matrix(.85714 0 0 .85714 18.899 35.908)" x1="132.292" y1="257.968" x2="132.292" y2="244.739"/><linearGradient xlink:href="#b" id="f" gradientUnits="userSpaceOnUse" x1="129.467" y1="251.354" x2="135.116" y2="251.354"/><linearGradient xlink:href="#a" id="g" gradientUnits="userSpaceOnUse" gradientTransform="matrix(.85714 0 0 .85714 18.899 35.908)" x1="132.292" y1="257.968" x2="132.292" y2="244.739"/><linearGradient xlink:href="#b" id="h" gradientUnits="userSpaceOnUse" x1="129.467" y1="251.354" x2="135.116" y2="251.354"/><linearGradient xlink:href="#a" id="i" gradientUnits="userSpaceOnUse" gradientTransform="matrix(.85714 0 0 .85714 18.899 35.908)" x1="132.292" y1="257.968" x2="132.292" y2="244.739"/><linearGradient xlink:href="#b" id="j" gradientUnits="userSpaceOnUse" x1="129.467" y1="251.354" x2="135.116" y2="251.354"/><linearGradient xlink:href="#a" id="q" gradientUnits="userSpaceOnUse" gradientTransform="matrix(.85714 0 0 .85714 18.899 35.908)" x1="132.292" y1="257.968" x2="132.292" y2="244.739"/><linearGradient xlink:href="#b" id="r" gradientUnits="userSpaceOnUse" x1="129.467" y1="251.354" x2="135.116" y2="251.354"/><linearGradient xlink:href="#a" id="o" gradientUnits="userSpaceOnUse" gradientTransform="matrix(.85714 0 0 .85714 18.899 35.908)" x1="132.292" y1="257.968" x2="132.292" y2="244.739"/><linearGradient xlink:href="#b" id="p" gradientUnits="userSpaceOnUse" x1="129.467" y1="251.354" x2="135.116" y2="251.354"/><linearGradient xlink:href="#a" id="m" gradientUnits="userSpaceOnUse" gradientTransform="matrix(.85714 0 0 .85714 18.899 35.908)" x1="132.292" y1="257.968" x2="132.292" y2="244.739"/><linearGradient xlink:href="#b" id="n" gradientUnits="userSpaceOnUse" x1="129.467" y1="251.354" x2="135.116" y2="251.354"/><linearGradient xlink:href="#a" id="k" gradientUnits="userSpaceOnUse" gradientTransform="matrix(.85714 0 0 .85714 18.899 35.908)" x1="132.292" y1="257.968" x2="132.292" y2="244.739"/><linearGradient xlink:href="#b" id="l" gradientUnits="userSpaceOnUse" x1="129.467" y1="251.354" x2="135.116" y2="251.354"/><linearGradient xlink:href="#a" id="y" gradientUnits="userSpaceOnUse" gradientTransform="matrix(.85714 0 0 .85714 18.899 35.908)" x1="132.292" y1="257.968" x2="132.292" y2="244.739"/><linearGradient xlink:href="#b" id="z" gradientUnits="userSpaceOnUse" x1="129.467" y1="251.354" x2="135.116" y2="251.354"/><linearGradient xlink:href="#a" id="w" gradientUnits="userSpaceOnUse" gradientTransform="matrix(.85714 0 0 .85714 18.899 35.908)" x1="132.292" y1="257.968" x2="132.292" y2="244.739"/><linearGradient xlink:href="#b" id="x" gradientUnits="userSpaceOnUse" x1="129.467" y1="251.354" x2="135.116" y2="251.354"/><linearGradient xlink:href="#a" id="u" gradientUnits="userSpaceOnUse" gradientTransform="matrix(.85714 0 0 .85714 18.899 35.908)" x1="132.292" y1="257.968" x2="132.292" y2="244.739"/><linearGradient xlink:href="#b" id="v" gradientUnits="userSpaceOnUse" x1="129.467" y1="251.354" x2="135.116" y2="251.354"/><linearGradient xlink:href="#a" id="s" gradientUnits="userSpaceOnUse" gradientTransform="matrix(.85714 0 0 .85714 18.899 35.908)" x1="132.292" y1="257.968" x2="132.292" y2="244.739"/><linearGradient xlink:href="#b" id="t" gradientUnits="userSpaceOnUse" x1="129.467" y1="251.354" x2="135.116" y2="251.354"/></defs><path style="color:#000;fill:url(#c);stroke-width:.264583;stroke-linejoin:round;-inkscape-stroke:none;paint-order:markers fill stroke" d="M130.44 243.416h3.704c.44 0 .793.354.793.794v14.288c0 .44-.354.793-.793.793h-3.705a.792.792 0 0 1-.793-.793V244.21c0-.44.354-.794.793-.794z"/><path style="color:#000;fill:url(#d);stroke-linejoin:round;-inkscape-stroke:none;paint-order:markers fill stroke" d="M130.44 243.283a.928.928 0 0 0-.926.928v14.287c0 .51.415.926.925.926h3.706c.51 0 .925-.415.925-.926v-14.287a.928.928 0 0 0-.925-.928zm0 .266h3.705c.368 0 .66.293.66.662v14.287c0 .369-.292.66-.66.66h-3.706a.657.657 0 0 1-.662-.66v-14.287c0-.369.294-.662.662-.662z"/><path style="color:#000;fill:url(#e);stroke-width:.264583;stroke-linejoin:round;-inkscape-stroke:none;paint-order:markers fill stroke" d="M130.44 243.416h3.704c.44 0 .793.354.793.794v14.288c0 .44-.354.793-.793.793h-3.705a.792.792 0 0 1-.793-.793V244.21c0-.44.354-.794.793-.794z" transform="rotate(-90 132.292 132.292)"/><path style="color:#000;fill:url(#f);stroke-linejoin:round;-inkscape-stroke:none;paint-order:markers fill stroke" d="M130.44 243.283a.928.928 0 0 0-.926.928v14.287c0 .51.415.926.925.926h3.706c.51 0 .925-.415.925-.926v-14.287a.928.928 0 0 0-.925-.928zm0 .266h3.705c.368 0 .66.293.66.662v14.287c0 .369-.292.66-.66.66h-3.706a.657.657 0 0 1-.662-.66v-14.287c0-.369.294-.662.662-.662z" transform="rotate(-90 132.292 132.292)"/><path style="color:#000;fill:url(#g);stroke-width:.264583;stroke-linejoin:round;-inkscape-stroke:none;paint-order:markers fill stroke" d="M130.44 243.416h3.704c.44 0 .793.354.793.794v14.288c0 .44-.354.793-.793.793h-3.705a.792.792 0 0 1-.793-.793V244.21c0-.44.354-.794.793-.794z" transform="rotate(180 132.292 132.292)"/><path style="color:#000;fill:url(#h);stroke-linejoin:round;-inkscape-stroke:none;paint-order:markers fill stroke" d="M130.44 243.283a.928.928 0 0 0-.926.928v14.287c0 .51.415.926.925.926h3.706c.51 0 .925-.415.925-.926v-14.287a.928.928 0 0 0-.925-.928zm0 .266h3.705c.368 0 .66.293.66.662v14.287c0 .369-.292.66-.66.66h-3.706a.657.657 0 0 1-.662-.66v-14.287c0-.369.294-.662.662-.662z" transform="rotate(180 132.292 132.292)"/><path style="color:#000;fill:url(#i);stroke-width:.264583;stroke-linejoin:round;-inkscape-stroke:none;paint-order:markers fill stroke" d="M130.44 243.416h3.704c.44 0 .793.354.793.794v14.288c0 .44-.354.793-.793.793h-3.705a.792.792 0 0 1-.793-.793V244.21c0-.44.354-.794.793-.794z" transform="rotate(90 132.292 132.292)"/><path style="color:#000;fill:url(#j);stroke-linejoin:round;-inkscape-stroke:none;paint-order:markers fill stroke" d="M130.44 243.283a.928.928 0 0 0-.926.928v14.287c0 .51.415.926.925.926h3.706c.51 0 .925-.415.925-.926v-14.287a.928.928 0 0 0-.925-.928zm0 .266h3.705c.368 0 .66.293.66.662v14.287c0 .369-.292.66-.66.66h-3.706a.657.657 0 0 1-.662-.66v-14.287c0-.369.294-.662.662-.662z" transform="rotate(90 132.292 132.292)"/><path style="color:#000;fill:url(#k);stroke-width:.264583;stroke-linejoin:round;-inkscape-stroke:none;paint-order:markers fill stroke" d="M130.44 243.416h3.704c.44 0 .793.354.793.794v14.288c0 .44-.354.793-.793.793h-3.705a.792.792 0 0 1-.793-.793V244.21c0-.44.354-.794.793-.794z" transform="rotate(-30 132.292 132.292)"/><path style="color:#000;fill:url(#l);stroke-linejoin:round;-inkscape-stroke:none;paint-order:markers fill stroke" d="M130.44 243.283a.928.928 0 0 0-.926.928v14.287c0 .51.415.926.925.926h3.706c.51 0 .925-.415.925-.926v-14.287a.928.928 0 0 0-.925-.928zm0 .266h3.705c.368 0 .66.293.66.662v14.287c0 .369-.292.66-.66.66h-3.706a.657.657 0 0 1-.662-.66v-14.287c0-.369.294-.662.662-.662z" transform="rotate(-30 132.292 132.292)"/><path style="color:#000;fill:url(#m);stroke-width:.264583;stroke-linejoin:round;-inkscape-stroke:none;paint-order:markers fill stroke" d="M130.44 243.416h3.704c.44 0 .793.354.793.794v14.288c0 .44-.354.793-.793.793h-3.705a.792.792 0 0 1-.793-.793V244.21c0-.44.354-.794.793-.794z" transform="rotate(-120 132.292 132.292)"/><path style="color:#000;fill:url(#n);stroke-linejoin:round;-inkscape-stroke:none;paint-order:markers fill stroke" d="M130.44 243.283a.928.928 0 0 0-.926.928v14.287c0 .51.415.926.925.926h3.706c.51 0 .925-.415.925-.926v-14.287a.928.928 0 0 0-.925-.928zm0 .266h3.705c.368 0 .66.293.66.662v14.287c0 .369-.292.66-.66.66h-3.706a.657.657 0 0 1-.662-.66v-14.287c0-.369.294-.662.662-.662z" transform="rotate(-120 132.292 132.292)"/><g><path style="color:#000;fill:url(#o);stroke-width:.264583;stroke-linejoin:round;-inkscape-stroke:none;paint-order:markers fill stroke" d="M130.44 243.416h3.704c.44 0 .793.354.793.794v14.288c0 .44-.354.793-.793.793h-3.705a.792.792 0 0 1-.793-.793V244.21c0-.44.354-.794.793-.794z" transform="rotate(150 132.292 132.292)"/><path style="color:#000;fill:url(#p);stroke-linejoin:round;-inkscape-stroke:none;paint-order:markers fill stroke" d="M130.44 243.283a.928.928 0 0 0-.926.928v14.287c0 .51.415.926.925.926h3.706c.51 0 .925-.415.925-.926v-14.287a.928.928 0 0 0-.925-.928zm0 .266h3.705c.368 0 .66.293.66.662v14.287c0 .369-.292.66-.66.66h-3.706a.657.657 0 0 1-.662-.66v-14.287c0-.369.294-.662.662-.662z" transform="rotate(150 132.292 132.292)"/></g><g><path style="color:#000;fill:url(#q);stroke-width:.264583;stroke-linejoin:round;-inkscape-stroke:none;paint-order:markers fill stroke" d="M130.44 243.416h3.704c.44 0 .793.354.793.794v14.288c0 .44-.354.793-.793.793h-3.705a.792.792 0 0 1-.793-.793V244.21c0-.44.354-.794.793-.794z" transform="rotate(60 132.292 132.292)"/><path style="color:#000;fill:url(#r);stroke-linejoin:round;-inkscape-stroke:none;paint-order:markers fill stroke" d="M130.44 243.283a.928.928 0 0 0-.926.928v14.287c0 .51.415.926.925.926h3.706c.51 0 .925-.415.925-.926v-14.287a.928.928 0 0 0-.925-.928zm0 .266h3.705c.368 0 .66.293.66.662v14.287c0 .369-.292.66-.66.66h-3.706a.657.657 0 0 1-.662-.66v-14.287c0-.369.294-.662.662-.662z" transform="rotate(60 132.292 132.292)"/></g><g><path style="color:#000;fill:url(#s);stroke-width:.264583;stroke-linejoin:round;-inkscape-stroke:none;paint-order:markers fill stroke" d="M130.44 243.416h3.704c.44 0 .793.354.793.794v14.288c0 .44-.354.793-.793.793h-3.705a.792.792 0 0 1-.793-.793V244.21c0-.44.354-.794.793-.794z" transform="rotate(-60 132.292 132.292)"/><path style="color:#000;fill:url(#t);stroke-linejoin:round;-inkscape-stroke:none;paint-order:markers fill stroke" d="M130.44 243.283a.928.928 0 0 0-.926.928v14.287c0 .51.415.926.925.926h3.706c.51 0 .925-.415.925-.926v-14.287a.928.928 0 0 0-.925-.928zm0 .266h3.705c.368 0 .66.293.66.662v14.287c0 .369-.292.66-.66.66h-3.706a.657.657 0 0 1-.662-.66v-14.287c0-.369.294-.662.662-.662z" transform="rotate(-60 132.292 132.292)"/></g><g><path style="color:#000;fill:url(#u);stroke-width:.264583;stroke-linejoin:round;-inkscape-stroke:none;paint-order:markers fill stroke" d="M130.44 243.416h3.704c.44 0 .793.354.793.794v14.288c0 .44-.354.793-.793.793h-3.705a.792.792 0 0 1-.793-.793V244.21c0-.44.354-.794.793-.794z" transform="rotate(-150 132.292 132.292)"/><path style="color:#000;fill:url(#v);stroke-linejoin:round;-inkscape-stroke:none;paint-order:markers fill stroke" d="M130.44 243.283a.928.928 0 0 0-.926.928v14.287c0 .51.415.926.925.926h3.706c.51 0 .925-.415.925-.926v-14.287a.928.928 0 0 0-.925-.928zm0 .266h3.705c.368 0 .66.293.66.662v14.287c0 .369-.292.66-.66.66h-3.706a.657.657 0 0 1-.662-.66v-14.287c0-.369.294-.662.662-.662z" transform="rotate(-150 132.292 132.292)"/></g><g><path style="color:#000;fill:url(#w);stroke-width:.264583;stroke-linejoin:round;-inkscape-stroke:none;paint-order:markers fill stroke" d="M130.44 243.416h3.704c.44 0 .793.354.793.794v14.288c0 .44-.354.793-.793.793h-3.705a.792.792 0 0 1-.793-.793V244.21c0-.44.354-.794.793-.794z" transform="rotate(120 132.292 132.292)"/><path style="color:#000;fill:url(#x);stroke-linejoin:round;-inkscape-stroke:none;paint-order:markers fill stroke" d="M130.44 243.283a.928.928 0 0 0-.926.928v14.287c0 .51.415.926.925.926h3.706c.51 0 .925-.415.925-.926v-14.287a.928.928 0 0 0-.925-.928zm0 .266h3.705c.368 0 .66.293.66.662v14.287c0 .369-.292.66-.66.66h-3.706a.657.657 0 0 1-.662-.66v-14.287c0-.369.294-.662.662-.662z" transform="rotate(120 132.292 132.292)"/></g><g><path style="color:#000;fill:url(#y);stroke-width:.264583;stroke-linejoin:round;-inkscape-stroke:none;paint-order:markers fill stroke" d="M130.44 243.416h3.704c.44 0 .793.354.793.794v14.288c0 .44-.354.793-.793.793h-3.705a.792.792 0 0 1-.793-.793V244.21c0-.44.354-.794.793-.794z" transform="rotate(30 132.292 132.292)"/><path style="color:#000;fill:url(#z);stroke-linejoin:round;-inkscape-stroke:none;paint-order:markers fill stroke" d="M130.44 243.283a.928.928 0 0 0-.926.928v14.287c0 .51.415.926.925.926h3.706c.51 0 .925-.415.925-.926v-14.287a.928.928 0 0 0-.925-.928zm0 .266h3.705c.368 0 .66.293.66.662v14.287c0 .369-.292.66-.66.66h-3.706a.657.657 0 0 1-.662-.66v-14.287c0-.369.294-.662.662-.662z" transform="rotate(30 132.292 132.292)"/></g></svg>