<svg width="800" height="800" viewBox="0 0 211.666 211.666" xmlns:xlink="http://www.w3.org/1999/xlink" xmlns="http://www.w3.org/2000/svg"><defs><linearGradient id="b"><stop style="stop-color:#b3fbff;stop-opacity:1" offset="0"/><stop style="stop-color:#d5fdff;stop-opacity:1" offset="1"/></linearGradient><linearGradient id="a"><stop style="stop-color:#4c4c4c;stop-opacity:1" offset="0"/><stop style="stop-color:#010101;stop-opacity:1" offset="1"/></linearGradient><linearGradient xlink:href="#a" id="c" x1="2.646" y1="2.646" x2="103.188" y2="103.188" gradientUnits="userSpaceOnUse" gradientTransform="matrix(2 0 0 2 0 3.9)"/><linearGradient xlink:href="#b" id="d" x1="5.292" y1="5.292" x2="100.542" y2="100.542" gradientUnits="userSpaceOnUse" gradientTransform="matrix(2 0 0 2 0 3.9)"/></defs><path style="fill:url(#c);fill-opacity:1;stroke:none;stroke-width:.899594" d="m91.84 20.288.392 1.3 7.796 25.99h11.61l8.188-27.29zM93.2 21.3h25.266l-7.58 25.266H100.78zm6.57 5.052 4.548 15.16h3.032l4.548-15.16zm1.358 1.012h9.412l-3.942 13.14h-1.528z"/><path style="fill:#f8ffff;fill-opacity:.997946;stroke:url(#d);stroke-width:1.116;stroke-linecap:butt;stroke-linejoin:miter;stroke-miterlimit:4;stroke-dasharray:none;stroke-opacity:1;paint-order:normal" d="m93.2 21.3 7.58 25.266h10.106l7.58-25.266zm6.57 5.052h12.128l-4.548 15.16h-3.032z"/><g aria-label="HOUR MODE" style="font-size:3.175px;line-height:.85;letter-spacing:-.0529167px;fill:#fff;stroke-width:.264583"><path d="M48.26 10.468h-.35V8.245h.35v.953h.397v-.953h.355v2.223h-.355v-.953h-.397zm1.274-.511q0 .12.048.171.05.048.133.048.082 0 .13-.048.05-.05.05-.171v-1.2q0-.121-.05-.169-.048-.05-.13-.05-.083 0-.133.05-.048.048-.048.168zm-.35-1.178q0-.27.137-.413.137-.146.394-.146t.394.146q.136.143.136.413v1.155q0 .27-.136.416-.137.143-.394.143t-.394-.143q-.136-.146-.136-.416zm1.567-.534V9.96q0 .12.048.168.05.048.133.048t.13-.048q.051-.048.051-.168V8.245h.33v1.693q0 .27-.133.415-.13.143-.387.143-.258 0-.391-.143-.13-.146-.13-.415V8.245zm1.608 2.223-.013-.042-.013-.047-.006-.073v-.461q0-.155-.054-.219-.054-.063-.175-.063h-.12v.905h-.35V8.245h.527q.274 0 .394.127.124.127.124.384v.175q0 .343-.229.45.134.055.181.179.051.12.051.295v.343q0 .082.007.146.006.06.031.124zm-.381-1.905v.682h.136q.099 0 .153-.05.057-.051.057-.185v-.219q0-.12-.045-.174-.041-.054-.133-.054z" style="fill:#fff" transform="matrix(2 0 0 2 -.332 -1.832)"/><path d="m54.03 9.823.239-1.578h.486v2.223h-.33V8.874l-.242 1.594h-.33l-.26-1.572v1.572h-.305V8.245h.486zm1.246.134q0 .12.048.171.05.048.133.048t.13-.048q.051-.05.051-.171v-1.2q0-.121-.05-.169-.048-.05-.13-.05-.083 0-.134.05-.048.048-.048.168zm-.349-1.178q0-.27.137-.413.136-.146.393-.146.258 0 .394.146.137.143.137.413v1.155q0 .27-.137.416-.136.143-.394.143-.257 0-.393-.143-.137-.146-.137-.416zm1.233-.534h.553q.263 0 .39.14.13.14.13.41v1.123q0 .27-.13.41-.127.14-.39.14h-.553zm.35.318v1.587h.196q.083 0 .13-.047.048-.048.048-.169V8.78q0-.121-.048-.169-.047-.047-.13-.047zm1.242.619h.48v.317h-.48v.651h.603v.318h-.952V8.245h.952v.318h-.603z" style="font-family:'Bebas Neue';-inkscape-font-specification:'Bebas Neue';fill:#fff" transform="matrix(2 0 0 2 -.332 -1.832)"/></g></svg>