<svg width="800" height="800" viewBox="0 0 211.666 211.666" xmlns:xlink="http://www.w3.org/1999/xlink" xmlns="http://www.w3.org/2000/svg"><defs><linearGradient id="c"><stop style="stop-color:#000;stop-opacity:1" offset="0"/><stop style="stop-color:#000;stop-opacity:.50588235" offset=".492"/><stop style="stop-color:#000;stop-opacity:.83812724" offset="1"/></linearGradient><linearGradient id="b"><stop style="stop-color:#0ff;stop-opacity:.90089549" offset="0"/><stop style="stop-color:#0ff;stop-opacity:.6" offset=".478"/><stop style="stop-color:#0ff;stop-opacity:.90202112" offset="1"/></linearGradient><linearGradient id="a"><stop style="stop-color:#686868;stop-opacity:1" offset="0"/><stop style="stop-color:#1d1d1d;stop-opacity:1" offset=".454"/><stop style="stop-color:#414141;stop-opacity:1" offset="1"/></linearGradient><linearGradient xlink:href="#a" id="d" x1="52.917" y1="9.796" x2="52.917" y2="46.302" gradientUnits="userSpaceOnUse" gradientTransform="scale(1.99998)"/><linearGradient xlink:href="#b" id="f" x1="51.329" y1="28.443" x2="54.504" y2="28.443" gradientUnits="userSpaceOnUse" gradientTransform="scale(2)"/><linearGradient xlink:href="#c" id="e" x1="189.438" y1="207.719" x2="210.563" y2="207.719" gradientUnits="userSpaceOnUse" gradientTransform="scale(.52916)"/></defs><path style="opacity:1;fill:url(#d);fill-opacity:1;stroke-width:3.44402" d="m105.832 18.52-5.292 5.292v63.5l1.059 6.35.076 8.978 1.499.017.012-8.996h5.292v8.996h1.575l.012-8.996 1.059-6.35V23.812zm0 3.705 3.175 3.175v61.91l-1.058 4.234h-4.234l-1.058-4.234V25.4z"/><path style="fill:#f9f9f9;fill-opacity:.997946;stroke-width:2.0404;paint-order:markers fill stroke" d="M107.95 93.662h1.588v8.996h-1.588z"/><path style="fill:#f9f9f9;fill-opacity:.997946;stroke-width:1.97947;paint-order:markers fill stroke" d="M102.13 93.662h1.586v8.468h-1.586z"/><path style="opacity:.855437;fill:#f9f9f9;fill-opacity:1;stroke:url(#e);stroke-width:.415995;stroke-linecap:butt;stroke-linejoin:miter;stroke-miterlimit:4;stroke-dasharray:none;stroke-opacity:1;paint-order:markers fill stroke" d="M105.832 100.243a5.59 5.59 0 0 0-5.59 5.589 5.59 5.59 0 0 0 .434 2.15h-.003l5.16 11.608 5.158-11.609h-.004a5.59 5.59 0 0 0 .434-2.149 5.59 5.59 0 0 0-5.589-5.59z"/><path style="opacity:1;fill:#0ff;stroke-width:3.44402" d="m105.832 19.579-4.762 4.762v62.97l1.058 5.821h7.408l1.058-5.82v-62.97zm0 2.646 3.175 3.175v61.91l-1.058 4.234h-4.234l-1.058-4.234V25.4z"/><path style="opacity:.75;fill:url(#f);fill-opacity:1;stroke-width:3.44406" d="m105.834 22.226 3.174 3.174v61.912l-1.058 4.234h-4.234l-1.058-4.234V25.4z"/><circle style="opacity:.85;fill:#f9f9f9;fill-opacity:1;stroke:#000;stroke-width:.416;stroke-miterlimit:4;stroke-dasharray:none;stroke-opacity:1" cx="105.834" cy="105.834" r="2.646"/><circle style="opacity:.85;fill:#000;fill-opacity:1;stroke:none;stroke-width:.836032;stroke-miterlimit:4;stroke-dasharray:none;stroke-opacity:1" cx="105.834" cy="105.834" r="1.064"/></svg>