<svg width="800" height="800" viewBox="0 0 211.667 211.667" xmlns="http://www.w3.org/2000/svg"><path style="opacity:1;fill:gray;stroke-width:.814562" d="M115.225 12.55c-2.595.142-5.2.31-7.78.635-2.502.305-4.95.902-7.365 1.61a48.115 48.115 0 0 0-3.225 1.002c-.08.975-.333 2.25-.207 3.043 3.92-1.972 8.2-3.13 12.545-3.683 2.462-.425 4.957-.53 7.43-.877.854-.025 1.767-.013 1.092-.958-.077-.892-.818-.83-1.55-.77-.315 0-.625-.002-.94 0zm-2.123 7.085c-.515 1.22.92 2.163 1.393 3.197 1.25 1.226-.883 2.056-1.825 2.45a3.683 3.683 0 0 0-1.965-3.057c-1.038-.378-1.78-1.12-1.925-2.005-1.213-.605-2.553.455-2.768 1.675-.47 1.675.045 3.3 1.568 4.275.767.733 1.73 1.7 2.597 1.425-2.262.115-3.4-3.512-5.082.605-.39.743-.3 2.163-.475 2.98a14.707 14.707 0 0 1-4.47-.932c-1.69-.625-1.413 2 .012 2.02 2.118 1.55 4.35 2.94 6.48 4.475.96.47 1.84 1.87 2.788 1.69.77-.675 2.357-2.05.617-2.37-.504-1.185-1.132-2.345-1.3-3.608 1.056.618 2.4.918 3.666 1.115 2.287.435 4.627.45 6.887-.2 1.05-.8-.385-2.315-.625-3.26-1.1-.945.245-.765.81-.81.013-.845-.97-2.25.565-2.182 1.645-.24 1.14-2.145.445-3.083-.585-.8-1.02-2.492-2.13-1.287-.935-.15-1.905-1.823-.65-2.42.482-.85 1.748-.133 1.915-1.308.265-1.84-.177-1.175-1.027-1.352-2.848-1.13-4.55.732-5.5 1.967z"/><path style="opacity:1;fill:#fff;stroke-width:.768152" d="M99.213 9.043c-2.333 1.06-1.73 4.695-2.335 6.747 5.015-1.732 10.087-2.595 15.4-2.8 1.375-.468 5.07 1.297 5.51.417-1.016-1.932-2.128-5.974-4.383-6.762-5.445-.627-10.045-.155-14.192 2.4zm18.815 5.077c-6.903.433-13.818 1.165-20.11 4.118-.683.282-1.353.657-1.353.657s-4.947 2.257-5.945 3.595c0 .66.662 1.323.662 1.323s1.983-.663 4.63-.663c4.63 0 1.163 7.095.66 9.925-1.322 2.643-2.207 3.205-3.082 5.175-1.09 1.465-3.533 2.76-5.09 4.433-3.833 5.52-2.41 20.154-2.41 26.77 0 6.614 0 13.23 6.615 26.46-6.615 9.92 0 19.842 13.227 19.842 0 0 10.585 1.325 10.585-15.213 0 0 2.645-8.777 2.645-19.845-.662-6.615-2.142-17.825-3.33-21.572l.405-1.958s-1.912-5.1-3.925-8.992c1.843-1.045 3.68-2.1 5.51-3.17-.614-1.368-3.054-2.613-4.432-3.868-1.318-.957-2.52-1.94-3.83-2.74-.98-2.017-1.403-2.782-1.403-2.782s-4.872-3.18-6.93-2.655c-.5-.33.076-.55-1.512-.97-.395-.9-1.058-2.225 1.613-1.393 1.094.368 2.242.515 3.392.583a15.7 15.7 0 0 1 1.825-4.62c1.31.292 2.533 1.85 3.938 1.175.25-.7-1.243-.615-1.903-1.275-2.32-1.168-3.498-4.233-1.538-6.053 1.34-.975 2.596 1.6 2.86 2.743 1.315 1.005 1.323-.66 2.835 2.32 1.018-.29 3.118-.335 3.118-.335s-.66-1.985-1.732-3.04c-.47-.79-1.526-1.865-.666-2.758 1.575-1.602 4.328-2.51 6.35-1.187 1.535-.588 4.648-.95 5.97-2.275 0-.663 0-.663-.152-.81-1.668-.608-5.315-.703-6.645-.87-.285-.025-.57-.048-.853-.075zm.564 5.713c-1.692.245-2.2 2.295-.352 2.962 1.765-.265.398-1.975 1.015-3.143zm-.254 9.46c-.65 1.142.862 2.305 1.045.222.48-.562-.808-.015-1.045-.222zm-9.63 3.102c.13 1.383 1.23 4.01 2.075 4.588.782-.935 2.337-.413 3.385-.863 1.875-.595 4.572-.487 5.73-2.637-.05-.785-.23-1.068-.23-1.068s-.28.9-.435.925c-.495.09-1.493.395-1.565.365-3.04.36-6.11-.292-8.96-1.31z"/><path style="opacity:1;fill:#4d4d4d;stroke-width:.814562" d="M115.225 12.55c-2.595.142-5.2.31-7.78.635-2.502.305-4.95.902-7.365 1.61a48.115 48.115 0 0 0-3.225 1.002c-.08.975-.333 2.25-.207 3.043 3.92-1.972 8.2-3.13 12.545-3.683 3.277-.51 5.9-.665 8.942-1.025l-.708-1.55s-.832-.065-1.264-.03c-.31.025-.625-.002-.938 0z"/></svg>