<svg width="800" height="800" viewBox="0 0 211.667 211.667" xmlns="http://www.w3.org/2000/svg"><path style="opacity:1;fill:#000;stroke-width:.735185" d="M105.832 115.755c-4.012-.775-39.924-13.84-41.075-23.695-.557-2.53 2.368-5.37 2.368-5.37 7.373-5.438 17.188-18.745 18.517-22.75 1.37-5.7 1.79-4.907 4.133-4.438l5.843 1.585c5.755-3 4.805-5.265 4.805-5.265-1.28-1.735-.233-3.27-.233-3.27 4.28-.54 4.43-5.015 4.43-5.015l.05-6.612 1.29-1.465 1.953.502c2.93 5.125 1.272 11.175 1.272 11.175s-.063 3.868-.495 5.603c0 0 3.425-.235 3.317.555l-.215 6.737c-5.287 3.15-10.165 1.718-10.165 1.718L82.683 89.297c10.857.255 14.67.22 21.682 5.15 11.39 1.465 11.39 11.385 11.39 11.385 0 9.926-9.922 9.926-9.922 9.926z"/><path style="opacity:1;fill:#e6e6e6;stroke-width:.735185" d="M108.2 44.555s-.38 3.7-2.81 5.08l2.45 2.29-2.735 4.598s.685 9.174.5 9.622l-.738.025-1.09-7.41s.056-2.7-3.297-2.872c0 0-.8-.203-1.05-3.725 0 0 4.55-1.058 5.085-4.763 0 0-.058-5.692.175-6.57.425-.78 1.14-1.458 1.14-1.458l1.4.41s1.032 2.483.97 4.773z"/><path style="opacity:1;fill:#ccc;stroke-width:1.1775" d="M66.808 95.912c10.104 8.575 32.852 17.658 35.49 18.785-1.908-.382-10.64-2.925-19.333-7.087-6.375-3.055-12.8-6.94-16.157-11.7zM94.15 74.36s2.763-2.712 2.745-2.732c-.055.147-4.892 6.6-5.235 7.127.315-.505-8.638 10.588-8.977 10.543.124-1.19 11.467-14.938 11.467-14.938z"/><path style="opacity:1;fill:#4d4d4d;stroke-width:1.1775" d="M80.368 76.485s4.902-8.707 6.165-11.383c1.262-2.675-4.025 13.783-5.648 13.363-1.62-.42-.805 2.387-1.66 1.317-.852-1.07 1.143-3.3 1.143-3.3z"/></svg>